<?xml version="1.0" encoding="utf-8"?>
<svg xmlns="http://www.w3.org/2000/svg" xmlns:xlink="http://www.w3.org/1999/xlink" width="600" height="400" viewBox="0 0 600 400">
<defs>
  <clipPath id="clip00">
    <rect x="0" y="0" width="600" height="400"/>
  </clipPath>
</defs>
<polygon clip-path="url(#clip00)" points="
0,400 600,400 600,0 0,0 
  " fill="#ffffff" fill-opacity="1"/>
<defs>
  <clipPath id="clip01">
    <rect x="120" y="0" width="421" height="400"/>
  </clipPath>
</defs>
<polygon clip-path="url(#clip00)" points="
62.5219,357.163 580.315,357.163 580.315,15.748 62.5219,15.748 
  " fill="#ffffff" fill-opacity="1"/>
<defs>
  <clipPath id="clip02">
    <rect x="62" y="15" width="518" height="342"/>
  </clipPath>
</defs>
<g clip-path="url(#clip00)">
<text style="fill:#00002d; fill-opacity:1; font-family:Arial; font-size:12; text-anchor:start;" transform="rotate(0, 37.7695, 360.576)" x="37.7695" y="360.576">-</text>
</g>
<g clip-path="url(#clip00)">
<text style="fill:#00002d; fill-opacity:1; font-family:Arial; font-size:12; text-anchor:start;" transform="rotate(0, 44.691, 360.576)" x="44.691" y="360.576">10</text>
</g>
<g clip-path="url(#clip00)">
<text style="fill:#00002d; fill-opacity:1; font-family:Arial; font-size:12; text-anchor:start;" transform="rotate(0, 44.3591, 275.222)" x="44.3591" y="275.222">-</text>
</g>
<g clip-path="url(#clip00)">
<text style="fill:#00002d; fill-opacity:1; font-family:Arial; font-size:12; text-anchor:start;" transform="rotate(0, 51.2806, 275.222)" x="51.2806" y="275.222">5</text>
</g>
<g clip-path="url(#clip00)">
<text style="fill:#00002d; fill-opacity:1; font-family:Arial; font-size:12; text-anchor:start;" transform="rotate(0, 51.2806, 189.868)" x="51.2806" y="189.868">0</text>
</g>
<g clip-path="url(#clip00)">
<text style="fill:#00002d; fill-opacity:1; font-family:Arial; font-size:12; text-anchor:start;" transform="rotate(0, 51.2806, 104.515)" x="51.2806" y="104.515">5</text>
</g>
<g clip-path="url(#clip00)">
<text style="fill:#00002d; fill-opacity:1; font-family:Arial; font-size:12; text-anchor:start;" transform="rotate(0, 44.691, 19.1608)" x="44.691" y="19.1608">10</text>
</g>
<polyline clip-path="url(#clip00)" style="stroke:#00002d; stroke-width:0.8; stroke-opacity:1; fill:none" points="
  62.5219,357.163 62.5219,357.163 71.8252,357.163 62.5219,357.163 62.5219,271.809 71.8252,271.809 62.5219,271.809 62.5219,186.456 71.8252,186.456 62.5219,186.456 
  62.5219,101.102 71.8252,101.102 62.5219,101.102 62.5219,15.748 71.8252,15.748 62.5219,15.748 
  "/>
<g clip-path="url(#clip00)">
<text style="fill:#00002d; fill-opacity:1; font-family:Arial; font-size:12; text-anchor:start;" transform="rotate(0, 161.335, 372.528)" x="161.335" y="372.528">240</text>
</g>
<g clip-path="url(#clip00)">
<text style="fill:#00002d; fill-opacity:1; font-family:Arial; font-size:12; text-anchor:start;" transform="rotate(0, 331.841, 372.528)" x="331.841" y="372.528">250</text>
</g>
<g clip-path="url(#clip00)">
<text style="fill:#00002d; fill-opacity:1; font-family:Arial; font-size:12; text-anchor:start;" transform="rotate(0, 502.347, 372.528)" x="502.347" y="372.528">260</text>
</g>
<polyline clip-path="url(#clip00)" style="stroke:#00002d; stroke-width:0.8; stroke-opacity:1; fill:none" points="
  62.5219,357.163 171.219,357.163 171.219,347.86 171.219,357.163 341.725,357.163 341.725,347.86 341.725,357.163 512.231,357.163 512.231,347.86 512.231,357.163 
  580.315,357.163 
  "/>
<polyline clip-path="url(#clip00)" style="stroke:#00002d; stroke-width:0.8; stroke-opacity:1; fill:none" points="
  580.315,357.163 580.315,357.163 571.012,357.163 580.315,357.163 580.315,271.809 571.012,271.809 580.315,271.809 580.315,186.456 571.012,186.456 580.315,186.456 
  580.315,101.102 571.012,101.102 580.315,101.102 580.315,15.748 571.012,15.748 580.315,15.748 
  "/>
<polyline clip-path="url(#clip00)" style="stroke:#00002d; stroke-width:0.8; stroke-opacity:1; fill:none" points="
  62.5219,15.748 171.219,15.748 171.219,25.0513 171.219,15.748 341.725,15.748 341.725,25.0513 341.725,15.748 512.231,15.748 512.231,25.0513 512.231,15.748 
  580.315,15.748 
  "/>
<g clip-path="url(#clip00)">
<text style="fill:#00002d; fill-opacity:1; font-family:Arial; font-size:16; text-anchor:middle;" transform="rotate(0, 321.418, 397.6)" x="321.418" y="397.6">Day of Year</text>
</g>
<g clip-path="url(#clip00)">
<text style="fill:#00002d; fill-opacity:1; font-family:Arial; font-size:16; text-anchor:middle;" transform="rotate(-90, 14.4, 186.456)" x="14.4" y="186.456">Residual discharge</text>
</g>
<polyline clip-path="url(#clip02)" style="stroke:#0099ff; stroke-width:0.8; stroke-opacity:1; fill:none" points="
  62.5219,185.273 62.6403,186.344 62.7587,183.938 62.8771,183.623 62.9955,182.406 63.1139,183.226 63.2323,185.836 63.3507,182.973 63.4691,183.173 63.5875,181.464 
  63.7059,181.319 63.8243,187.203 63.9428,182.722 64.0612,183.63 64.1796,184.791 64.298,185.764 64.4164,183.413 64.5348,187.417 64.6532,189.484 64.7716,187.813 
  64.89,188.892 65.0084,189.977 65.1268,188.254 65.2452,188.068 65.3636,188.114 65.482,189.677 65.6004,188.383 65.7189,191.735 65.8373,192.812 65.9557,190.793 
  66.0741,190.32 66.1925,187.714 66.3109,193.317 66.4293,191.905 66.5477,192.844 66.6661,188.962 66.7845,190.767 66.9029,191.238 67.0213,192.551 67.1397,189.909 
  67.2581,189.601 67.3766,189.538 67.495,184.237 67.6134,184.76 67.7318,185.371 67.8502,185.915 67.9686,186.328 68.087,186.668 68.2054,186.941 68.3238,187.016 
  68.4422,186.95 68.5606,186.827 68.679,186.781 68.7974,186.819 68.9158,186.903 69.0342,187 69.1527,187.093 69.2711,187.176 69.3895,187.247 69.5079,187.307 
  69.6263,187.364 69.7447,187.427 69.8631,187.517 69.9815,187.669 70.0999,185.832 70.2183,186.557 70.3367,186.91 70.4551,185.265 70.5735,183.67 70.6919,183.858 
  70.8104,186.099 70.9288,186.154 71.0472,186.291 71.1656,189.314 71.284,185.947 71.4024,185.514 71.5208,188.403 71.6392,183.501 71.7576,183.036 71.876,188.314 
  71.9944,185.212 72.1128,181.157 72.2312,182.569 72.3496,179.496 72.468,178.994 72.5865,180.244 72.7049,178.488 72.8233,173.414 72.9417,185.559 73.0601,185.65 
  73.1785,191.606 73.2969,197.67 73.4153,196.734 73.5337,194.091 73.6521,198.233 73.7705,196.728 73.8889,193.019 74.0073,194.77 74.1257,190.273 74.2441,190.862 
  74.3626,190.45 74.481,191.567 74.5994,188.407 74.7178,191.665 74.8362,189.665 74.9546,188.865 75.073,189.893 75.1914,186.093 75.3098,185.794 75.4282,189.206 
  75.5466,185.744 75.665,184.746 75.7834,188.203 75.9018,186.181 76.0203,180.833 76.1387,184.771 76.2571,185.175 76.3755,185.655 76.4939,186.05 76.6123,186.422 
  76.7307,186.751 76.8491,186.952 76.9675,186.976 77.0859,186.936 77.2043,186.905 77.3227,186.921 77.4411,186.955 77.5595,186.984 77.6779,187.021 77.7964,187.068 
  77.9148,187.127 78.0332,187.192 78.1516,187.265 78.27,187.342 78.3884,187.424 78.5068,187.536 78.6252,184.11 78.7436,184.448 78.862,185.238 78.9804,185.348 
  79.0988,183.651 79.2172,185.637 79.3356,186.622 79.454,184.706 79.5725,187.037 79.6909,185.83 79.8093,186.287 79.9277,184.446 80.0461,185.544 80.1645,180.779 
  80.2829,185.353 80.4013,179.647 80.5197,181.431 80.6381,182.267 80.7565,182.007 80.8749,183.421 80.9933,187.104 81.1117,183.439 81.2302,185.384 81.3486,187.725 
  81.467,188.011 81.5854,179.388 81.7038,185.114 81.8222,179.072 81.9406,182.124 82.059,186.637 82.1774,189.596 82.2958,193.091 82.4142,194.78 82.5326,193.854 
  82.651,190.094 82.7694,188.995 82.8878,183.809 83.0063,183.192 83.1247,186.918 83.2431,184.978 83.3615,185.987 83.4799,188.405 83.5983,186.813 83.7167,185.48 
  83.8351,187.85 83.9535,187.962 84.0719,188.138 84.1903,186.384 84.3087,185.505 84.4271,186.321 84.5455,186.601 84.664,187.488 84.7824,186.641 84.9008,188.215 
  85.0192,185.943 85.1376,184.749 85.256,185.216 85.3744,185.673 85.4928,186.134 85.6112,186.525 85.7296,186.825 85.848,187.045 85.9664,187.006 86.0848,186.907 
  86.2032,186.774 86.3216,186.722 86.4401,186.772 86.5585,186.879 86.6769,186.999 86.7953,187.107 86.9137,187.197 87.0321,187.269 87.1505,187.325 87.2689,187.378 
  87.3873,187.437 87.5057,187.522 87.6241,187.664 87.7425,184.335 87.8609,185.198 87.9793,184.722 88.0977,185.34 88.2162,185.618 88.3346,186.132 88.453,185.795 
  88.5714,186.848 88.6898,186.549 88.8082,185.462 88.9266,187.351 89.045,185.819 89.1634,186.566 89.2818,182.595 89.4002,184.42 89.5186,182.187 89.637,181.027 
  89.7554,180.609 89.8739,182.285 89.9923,181.234 90.1107,179.874 90.2291,181.117 90.3475,179.784 90.4659,184.195 90.5843,177.719 90.7027,182.962 90.8211,185.445 
  90.9395,189.149 91.0579,191.888 91.1763,192.746 91.2947,195.267 91.4131,188.275 91.5315,190.661 91.65,186.191 91.7684,187.567 91.8868,186.36 92.0052,187.433 
  92.1236,190.087 92.242,188.309 92.3604,188.217 92.4788,190.993 92.5972,188.002 92.7156,184.654 92.834,189.171 92.9524,186.105 93.0708,185.55 93.1892,187.233 
  93.3076,184.946 93.4261,182.037 93.5445,183.237 93.6629,184.045 93.7813,181.17 93.8997,184.476 94.0181,185.007 94.1365,185.467 94.2549,185.961 94.3733,186.305 
  94.4917,186.543 94.6101,186.74 94.7285,186.893 94.8469,186.939 94.9653,186.926 95.0838,186.895 95.2022,186.894 95.3206,186.939 95.439,186.991 95.5574,187.06 
  95.6758,187.159 95.7942,187.288 95.9126,187.448 96.031,187.657 96.1494,184.424 96.2678,184.629 96.3862,186.365 96.5046,183.98 96.623,186.239 96.7414,185.241 
  96.8599,184.441 96.9783,186.518 97.0967,187.053 97.2151,184.764 97.3335,184.995 97.4519,180.183 97.5703,186.809 97.6887,184.1 97.8071,183.367 97.9255,184.356 
  98.0439,182.16 98.1623,183.835 98.2807,182.613 98.3991,188.225 98.5176,182.558 98.636,189.333 98.7544,193.306 98.8728,189.564 98.9912,188.3 99.1096,186.404 
  99.228,186.819 99.3464,191.651 99.4648,185.282 99.5832,178.588 99.7016,186.578 99.82,184.743 99.9384,193.313 100.057,189.16 100.175,186.423 100.294,183.846 
  100.412,182.956 100.53,179.208 100.649,180.323 100.767,177.713 100.886,182.253 101.004,184.788 101.123,185.081 101.241,182.968 101.359,186.495 101.478,187.186 
  101.596,187.12 101.715,188.993 101.833,189.099 101.951,188.157 102.07,187.508 102.188,186.011 102.307,184.71 102.425,186.686 102.543,182.421 102.662,186.429 
  102.78,185.47 102.899,184.199 103.017,184.851 103.135,185.491 103.254,185.952 103.372,186.262 103.491,186.61 103.609,186.845 103.727,186.918 103.846,186.866 
  103.964,186.79 104.083,186.753 104.201,186.788 104.319,186.872 104.438,186.977 104.556,187.077 104.675,187.165 104.793,187.245 104.912,187.332 105.03,187.434 
  105.148,187.572 105.267,186.2 105.385,184.646 105.504,185.982 105.622,184.833 105.74,185.765 105.859,183.718 105.977,187.631 106.096,186.094 106.214,187.049 
  106.332,188.66 106.451,186.392 106.569,187.768 106.688,185.63 106.806,185.081 106.924,185.163 107.043,185.381 107.161,185.843 107.28,185.1 107.398,185.031 
  107.516,181.662 107.635,181.153 107.753,183.999 107.872,181.43 107.99,179.836 108.109,177.346 108.227,186.603 108.345,184.373 108.464,184.479 108.582,189.772 
  108.701,191.619 108.819,193.879 108.937,196.662 109.056,196.815 109.174,194.54 109.293,192.725 109.411,191.701 109.529,191.625 109.648,189.3 109.766,190.742 
  109.885,190.799 110.003,190.681 110.121,190.714 110.24,191.706 110.358,190.648 110.477,189.099 110.595,190.003 110.713,188.133 110.832,187.291 110.95,187.594 
  111.069,184.085 111.187,185.603 111.305,187.821 111.424,186.421 111.542,185.476 111.661,184.784 111.779,185.149 111.898,185.559 112.016,185.919 112.134,186.256 
  112.253,186.502 112.371,186.732 112.49,186.916 112.608,187.019 112.726,187.006 112.845,186.956 112.963,186.887 113.082,186.865 113.2,186.92 113.318,187.047 
  113.437,187.221 113.555,187.433 113.674,184.534 113.792,186.056 113.91,184.938 114.029,185.202 114.147,186.152 114.266,187.719 114.384,187.801 114.502,186.84 
  114.621,186.763 114.739,187.413 114.858,184.92 114.976,183.506 115.095,187.417 115.213,185.731 115.331,185.986 115.45,184.34 115.568,187.576 115.687,186.677 
  115.805,186.005 115.923,187.741 116.042,189.657 116.16,185.621 116.279,188.389 116.397,184.433 116.515,187.264 116.634,182.834 116.752,184.344 116.871,184.712 
  116.989,183.574 117.107,188.424 117.226,197.62 117.344,192.389 117.463,188.998 117.581,183.303 117.699,179.832 117.818,180.499 117.936,177.02 118.055,180.696 
  118.173,179.485 118.291,187.52 118.41,188.729 118.528,184.606 118.647,188.485 118.765,187.883 118.884,188.407 119.002,187.231 119.12,185.178 119.239,186.77 
  119.357,185.251 119.476,184.768 119.594,185.652 119.712,186.611 119.831,186.778 119.949,185.075 120.068,185.012 120.186,187.394 120.304,185.324 120.423,186.922 
  120.541,185.445 120.66,184.68 120.778,185.276 120.896,185.808 121.015,186.297 121.133,186.682 121.252,186.983 121.37,187.122 121.488,187 121.607,186.841 
  121.725,186.706 121.844,186.696 121.962,186.771 122.081,186.886 122.199,187.003 122.317,187.108 122.436,187.197 122.554,187.269 122.673,187.33 122.791,187.39 
  122.909,187.464 123.028,187.584 123.146,185.899 123.265,184.895 123.383,184.185 123.501,185.274 123.62,182.616 123.738,183.657 123.857,186.744 123.975,185.761 
  124.093,185.187 124.212,185.269 124.33,187.084 124.449,187.401 124.567,185.789 124.685,185.714 124.804,182.926 124.922,183.415 125.041,182.9 125.159,186.412 
  125.277,183.196 125.396,182.824 125.514,182.01 125.633,183.15 125.751,180.42 125.87,178.821 125.988,181.663 126.106,178.419 126.225,182.124 126.343,184.982 
  126.462,193.396 126.58,197.553 126.698,192.765 126.817,190.597 126.935,190.056 127.054,187.879 127.172,186.155 127.29,191.757 127.409,192.625 127.527,194.116 
  127.646,191.525 127.764,194.94 127.882,192.084 128.001,191.483 128.119,189.532 128.238,189.232 128.356,188.062 128.474,189.978 128.593,185.548 128.711,185.957 
  128.83,186.059 128.948,186.018 129.067,186.484 129.185,187.509 129.303,186.387 129.422,184.758 129.54,185.174 129.659,185.581 129.777,185.899 129.895,186.286 
  130.014,186.669 130.132,186.937 130.251,187.13 130.369,187.195 130.487,187.162 130.606,187.082 130.724,187.002 130.843,186.942 130.961,186.93 131.079,186.992 
  131.198,187.116 131.316,187.271 131.435,187.459 131.553,185.043 131.671,185.523 131.79,184.669 131.908,185.635 132.027,186.848 132.145,184.435 132.263,187.417 
  132.382,186.286 132.5,184.818 132.619,185.912 132.737,185.504 132.856,185.113 132.974,184.359 133.092,183.887 133.211,186.115 133.329,184.704 133.448,180.51 
  133.566,186.877 133.684,185.22 133.803,187.479 133.921,184.375 134.04,182.248 134.158,175.344 134.276,182.647 134.395,179.41 134.513,177.873 134.632,180.311 
  134.75,180.452 134.868,182.51 134.987,189.572 135.105,197.463 135.224,197.383 135.342,187.63 135.46,187.929 135.579,179.059 135.697,182.341 135.816,176.076 
  135.934,182.451 136.053,186.989 136.171,187.315 136.289,182.637 136.408,186.267 136.526,185.45 136.645,188.516 136.763,184.825 136.881,184.65 137,186.644 
  137.118,182.44 137.237,183.781 137.355,186.375 137.473,184.679 137.592,183.788 137.71,188.086 137.829,187.673 137.947,185.391 138.065,185.832 138.184,183.817 
  138.302,184.79 138.421,184.486 138.539,185.357 138.657,186.044 138.776,186.56 138.894,186.921 139.013,187.181 139.131,187.181 139.25,187.033 139.368,186.856 
  139.486,186.751 139.605,186.739 139.723,186.797 139.842,186.892 139.96,186.997 140.078,187.097 140.197,187.186 140.315,187.259 140.434,187.316 140.552,187.369 
  140.67,187.428 140.789,187.519 140.907,184.552 141.026,185.618 141.144,186.354 141.262,185.244 141.381,185.188 141.499,185.886 141.618,185.835 141.736,186.952 
  141.854,187.046 141.973,187.318 142.091,182.309 142.21,186.014 142.328,189.166 142.446,186.765 142.565,185.167 142.683,185.144 142.802,183.091 142.92,184.479 
  143.039,185.871 143.157,183.564 143.275,187.423 143.394,186.086 143.512,183.584 143.631,182.093 143.749,184.157 143.867,178.768 143.986,187.32 144.104,191.806 
  144.223,188.747 144.341,193.254 144.459,188.562 144.578,185.264 144.696,188.891 144.815,184.952 144.933,188.76 145.051,189.28 145.17,189.534 145.288,193.675 
  145.407,193.889 145.525,191.254 145.643,187.625 145.762,188.98 145.88,190.594 145.999,186.772 146.117,190.459 146.236,185.702 146.354,186.882 146.472,185.04 
  146.591,184.778 146.709,184.798 146.828,187.712 146.946,184.343 147.064,183.085 147.183,184.756 147.301,185.344 147.42,185.876 147.538,186.41 147.656,186.838 
  147.775,187.14 147.893,187.329 148.012,187.319 148.13,187.181 148.248,186.991 148.367,186.864 148.485,186.82 148.604,186.836 148.722,186.904 148.84,186.993 
  148.959,187.108 149.077,187.236 149.196,187.364 149.314,187.514 149.432,183.497 149.551,186.078 149.669,185.856 149.788,184.603 149.906,184.598 150.025,183.802 
  150.143,186.002 150.261,185.901 150.38,184.401 150.498,184.536 150.617,186.728 150.735,185.052 150.853,185.542 150.972,188.128 151.09,187.311 151.209,186.805 
  151.327,186.169 151.445,184.485 151.564,184.95 151.682,186.982 151.801,179.412 151.919,179.804 152.037,172.811 152.156,178.67 152.274,177.911 152.393,179.516 
  152.511,181.031 152.629,180.841 152.748,181.896 152.866,190.278 152.985,194.697 153.103,193.888 153.222,195.806 153.34,199.2 153.458,197.448 153.577,194.64 
  153.695,188.187 153.814,189.531 153.932,193.604 154.05,190.38 154.169,190.738 154.287,188.42 154.406,188.596 154.524,185.25 154.642,184.024 154.761,185.016 
  154.879,182.588 154.998,186.284 155.116,185.308 155.234,185.399 155.353,185.865 155.471,186.172 155.59,186.764 155.708,187.141 155.826,188.111 155.945,184.326 
  156.063,185.032 156.182,185.699 156.3,186.3 156.418,186.835 156.537,187.206 156.655,187.349 156.774,187.04 156.892,186.687 157.011,186.38 157.129,186.347 
  157.247,186.485 157.366,186.696 157.484,186.898 157.603,187.065 157.721,187.194 157.839,187.29 157.958,187.358 158.076,187.403 158.195,187.433 158.313,187.452 
  158.431,187.464 158.55,187.475 158.668,187.522 158.787,187.639 158.905,184.11 159.023,184.498 159.142,184.564 159.26,183.339 159.379,183.868 159.497,183.755 
  159.615,186.325 159.734,185.725 159.852,186.68 159.971,188.561 160.089,187.865 160.208,188.582 160.326,185.566 160.444,186.654 160.563,188.828 160.681,185.253 
  160.8,186.361 160.918,188.021 161.036,186.878 161.155,187.823 161.273,189.506 161.392,185.758 161.51,189.372 161.628,189.666 161.747,184.91 161.865,186.55 
  161.984,184.248 162.102,181.481 162.22,187.997 162.339,191.049 162.457,190.769 162.576,191.142 162.694,191.107 162.812,191.129 162.931,187.881 163.049,191.536 
  163.168,187.827 163.286,189.36 163.404,189.331 163.523,187.45 163.641,188.814 163.76,186.767 163.878,187.052 163.997,187.711 164.115,187.189 164.233,186.552 
  164.352,185.895 164.47,184.615 164.589,186.275 164.707,184.509 164.825,185.244 164.944,185.887 165.062,186.489 165.181,186.979 165.299,187.354 165.417,187.383 
  165.536,187.259 165.654,187.004 165.773,186.809 165.891,186.718 166.009,186.73 166.128,186.797 166.246,186.889 166.365,186.98 166.483,187.067 166.601,187.153 
  166.72,187.231 166.838,187.297 166.957,187.348 167.075,187.394 167.194,187.434 167.312,187.498 167.43,182.424 167.549,181.635 167.667,182.991 167.786,183.801 
  167.904,182.005 168.022,186.963 168.141,186.661 168.259,185.592 168.378,186.421 168.496,185.689 168.614,186.898 168.733,190.921 168.851,185.924 168.97,189.288 
  169.088,189.823 169.206,185.253 169.325,188.79 169.443,180.91 169.562,184.351 169.68,176.549 169.798,177.15 169.917,181.245 170.035,182.767 170.154,181.917 
  170.272,173.751 170.39,183.604 170.509,178.429 170.627,179.946 170.746,188.563 170.864,188.41 170.983,194.184 171.101,194.419 171.219,197.745 171.338,199.068 
  171.456,194.065 171.575,190.55 171.693,190.762 171.811,190.847 171.93,188.474 172.048,189.044 172.167,187.396 172.285,186.717 172.403,184.948 172.522,186.872 
  172.64,188.157 172.759,185.582 172.877,185.379 172.995,184.51 173.114,184.768 173.232,187.135 173.351,189.259 173.469,187.722 173.587,187.915 173.706,184.999 
  173.824,185.663 173.943,186.345 174.061,186.851 174.18,187.15 174.298,187.223 174.416,186.845 174.535,186.425 174.653,186.101 174.772,186.12 174.89,186.333 
  175.008,186.605 175.127,186.85 175.245,187.042 175.364,187.186 175.482,187.293 175.6,187.371 175.719,187.425 175.837,187.458 175.956,187.478 176.074,187.49 
  176.192,187.49 176.311,187.481 176.429,187.47 176.548,187.509 176.666,181.67 176.784,181.34 176.903,182.801 177.021,183.322 177.14,181.97 177.258,186.026 
  177.377,186.962 177.495,187.256 177.613,188.067 177.732,186.653 177.85,189.145 177.969,185.215 178.087,182.809 178.205,182.617 178.324,185.227 178.442,187.525 
  178.561,189.282 178.679,189.433 178.797,187.524 178.916,188.075 179.034,189.09 179.153,189.528 179.271,190.176 179.389,194.471 179.508,190.588 179.626,187.116 
  179.745,178.353 179.863,182.106 179.981,190.891 180.1,189.538 180.218,193.121 180.337,190.198 180.455,186.086 180.573,185.049 180.692,182.777 180.81,181.901 
  180.929,184.871 181.047,179.953 181.166,186.606 181.284,186.636 181.402,184.829 181.521,188.179 181.639,184.977 181.758,185.773 181.876,184.702 181.994,185.343 
  182.113,185.051 182.231,186.365 182.35,184.227 182.468,185.13 182.586,186.006 182.705,186.766 182.823,187.315 182.942,187.688 183.06,187.633 183.178,187.439 
  183.297,187.101 183.415,186.857 183.534,186.704 183.652,186.676 183.77,186.72 183.889,186.801 184.007,186.911 184.126,187.038 184.244,187.158 184.363,187.256 
  184.481,187.327 184.599,187.374 184.718,187.402 184.836,187.417 184.955,187.43 185.073,187.465 185.191,183.04 185.31,183.501 185.428,183.934 185.547,180.417 
  185.665,181.781 185.783,183.463 185.902,186.643 186.02,189.541 186.139,187.02 186.257,190.076 186.375,188.072 186.494,192.151 186.612,188.962 186.731,189.694 
  186.849,189.625 186.967,187.039 187.086,175.412 187.204,190.084 187.323,180.165 187.441,179.42 187.559,179.577 187.678,186.939 187.796,189.47 187.915,177.043 
  188.033,181.766 188.152,169.662 188.27,166.406 188.388,171.883 188.507,193.884 188.625,200.208 188.744,196.049 188.862,195.071 188.98,184.141 189.099,193.582 
  189.217,191.985 189.336,193.026 189.454,198.397 189.572,191.41 189.691,191.981 189.809,187.946 189.928,184.414 190.046,185.535 190.164,185.348 190.283,187.59 
  190.401,186.741 190.52,186.329 190.638,187.224 190.756,187.425 190.875,186.417 190.993,187.306 191.112,185.954 191.23,188.265 191.349,188.483 191.467,186.098 
  191.585,186.62 191.704,186.885 191.822,187.171 191.941,187.445 192.059,187.357 192.177,186.969 192.296,186.469 192.414,186.105 192.533,186.081 192.651,186.291 
  192.769,186.584 192.888,186.851 193.006,187.057 193.125,187.204 193.243,187.306 193.361,187.372 193.48,187.406 193.598,187.418 193.717,187.422 193.835,187.418 
  193.953,187.41 194.072,187.401 194.19,187.402 194.309,187.445 194.427,180.98 194.545,180.466 194.664,181.326 194.782,183.002 194.901,181.569 195.019,186.035 
  195.138,188.082 195.256,189.866 195.374,188.603 195.493,188.302 195.611,185.694 195.73,184.229 195.848,191.953 195.966,187.662 196.085,189.574 196.203,195.822 
  196.322,193.545 196.44,190.627 196.558,185.118 196.677,184.138 196.795,179.996 196.914,193.114 197.032,188.781 197.15,197.281 197.269,194.367 197.387,197.669 
  197.506,187.863 197.624,186.068 197.742,185.879 197.861,190.339 197.979,196.517 198.098,199.322 198.216,193.685 198.335,188.294 198.453,189.945 198.571,184.299 
  198.69,183.427 198.808,184.926 198.927,185.877 199.045,183.547 199.163,186.166 199.282,186.457 199.4,186.485 199.519,185.998 199.637,186.904 199.755,188.196 
  199.874,187.121 199.992,185.052 200.111,186.075 200.229,186.912 200.347,187.572 200.466,188.008 200.584,188.219 200.703,187.975 200.821,187.532 200.939,186.928 
  201.058,186.569 201.176,186.438 201.295,186.496 201.413,186.635 201.531,186.81 201.65,186.978 201.768,187.122 201.887,187.235 202.005,187.315 202.124,187.367 
  202.242,187.399 202.36,187.418 202.479,187.428 202.597,187.435 202.716,187.439 202.834,187.464 202.952,187.574 203.071,182.474 203.189,179.312 203.308,179.26 
  203.426,180.24 203.544,181.662 203.663,186.101 203.781,191.387 203.9,190.541 204.018,187.218 204.136,186.492 204.255,185.407 204.373,186.415 204.492,179.597 
  204.61,183.574 204.728,179.009 204.847,179.585 204.965,186.271 205.084,187.127 205.202,189.816 205.321,193.51 205.439,191.382 205.557,181.875 205.676,190.299 
  205.794,184.356 205.913,185.577 206.031,190.808 206.149,192.797 206.268,186.204 206.386,186.861 206.505,188.72 206.623,186.977 206.741,186.911 206.86,190.344 
  206.978,192.255 207.097,195.773 207.215,195.474 207.333,189.469 207.452,185.323 207.57,182.793 207.689,180.62 207.807,181.699 207.925,185.716 208.044,185.65 
  208.162,187.6 208.281,185.278 208.399,188.535 208.517,186.515 208.636,187.281 208.754,188.744 208.873,187.87 208.991,188.599 209.11,186.347 209.228,187.222 
  209.346,187.587 209.465,187.72 209.583,187.734 209.702,187.679 209.82,187.227 209.938,186.75 210.057,186.334 210.175,186.248 210.294,186.405 210.412,186.635 
  210.53,186.838 210.649,186.991 210.767,187.104 210.886,187.19 211.004,187.254 211.122,187.304 211.241,187.339 211.359,187.36 211.478,187.373 211.596,187.378 
  211.714,187.379 211.833,187.385 211.951,187.413 212.07,181.309 212.188,181.113 212.307,178.999 212.425,180.349 212.543,179.78 212.662,186.8 212.78,186.789 
  212.899,190.872 213.017,192.48 213.135,189.476 213.254,187.87 213.372,188.086 213.491,190.741 213.609,185.925 213.727,190.683 213.846,189.195 213.964,183.724 
  214.083,177.99 214.201,178.952 214.319,180.794 214.438,178.644 214.556,176.873 214.675,183.227 214.793,171.98 214.911,171.734 215.03,191.525 215.148,191.242 
  215.267,187.626 215.385,189.89 215.504,192.594 215.622,191.533 215.74,198.965 215.859,194.478 215.977,194.654 216.096,194.459 216.214,186.684 216.332,185.044 
  216.451,183.731 216.569,185.019 216.688,182.79 216.806,182.41 216.924,184.4 217.043,186.198 217.161,185.686 217.28,186.481 217.398,187.405 217.516,188.107 
  217.635,188.083 217.753,186.321 217.872,187.14 217.99,187.595 218.108,187.965 218.227,188.329 218.345,188.469 218.464,188.287 218.582,187.751 218.7,187.124 
  218.819,186.634 218.937,186.46 219.056,186.491 219.174,186.621 219.293,186.783 219.411,186.945 219.529,187.088 219.648,187.203 219.766,187.289 219.885,187.347 
  220.003,187.383 220.121,187.404 220.24,187.416 220.358,187.423 220.477,187.435 220.595,187.495 220.713,180.267 220.832,180.255 220.95,181.015 221.069,180.643 
  221.187,183.438 221.305,186.681 221.424,189.497 221.542,190.932 221.661,189.543 221.779,183.537 221.897,185.699 222.016,183.044 222.134,184.669 222.253,184.008 
  222.371,174.063 222.49,176.319 222.608,181.95 222.726,191.287 222.845,197.915 222.963,203.286 223.082,194.221 223.2,195.052 223.318,206.538 223.437,212.815 
  223.555,199.04 223.674,182.81 223.792,184.368 223.91,182.316 224.029,182.597 224.147,186.716 224.266,194.49 224.384,186.952 224.502,189.229 224.621,190.015 
  224.739,178.519 224.858,188.36 224.976,190.931 225.094,190.033 225.213,189.556 225.331,182.244 225.45,178.247 225.568,175.15 225.686,178.558 225.805,186.447 
  225.923,187.79 226.042,188.494 226.16,191.018 226.279,189.726 226.397,191.19 226.515,190.663 226.634,189.845 226.752,189.711 226.871,187.004 226.989,187.696 
  227.107,188.009 227.226,188.003 227.344,187.922 227.463,187.781 227.581,187.46 227.699,187.117 227.818,186.831 227.936,186.712 228.055,186.713 228.173,186.769 
  228.291,186.849 228.41,186.93 228.528,187.009 228.647,187.085 228.765,187.159 228.883,187.227 229.002,187.286 229.12,187.332 229.239,187.368 229.357,187.396 
  229.476,187.431 229.594,187.471 229.712,179.843 229.831,180.167 229.949,180.532 230.068,180.127 230.186,183.492 230.304,188.682 230.423,191.416 230.541,191.325 
  230.66,188.439 230.778,180.88 230.896,190.277 231.015,190.555 231.133,185.206 231.252,184.137 231.37,185.733 231.488,186.339 231.607,185.042 231.725,186.085 
  231.844,193.287 231.962,198.296 232.08,185.022 232.199,174.069 232.317,166.865 232.436,181.785 232.554,171.612 232.672,185.403 232.791,184.746 232.909,182.389 
  233.028,190.97 233.146,182.101 233.265,181.381 233.383,180.286 233.501,192.017 233.62,200.007 233.738,203.038 233.857,193.553 233.975,187.883 234.093,178.786 
  234.212,176.957 234.33,180.488 234.449,181.524 234.567,183.929 234.685,183.807 234.804,185.48 234.922,190.875 235.041,188.702 235.159,190.408 235.277,191.756 
  235.396,189.589 235.514,187.13 235.633,187.959 235.751,188.568 235.869,188.722 235.988,188.698 236.106,188.634 236.225,188.373 236.343,187.744 236.462,187.094 
  236.58,186.588 236.698,186.413 236.817,186.461 236.935,186.619 237.054,186.803 237.172,186.973 237.29,187.115 237.409,187.225 237.527,187.302 237.646,187.354 
  237.764,187.386 237.882,187.405 238.001,187.415 238.119,187.421 238.238,187.448 238.356,187.555 238.474,181.507 238.593,179.595 238.711,180.236 238.83,181.293 
  238.948,184.077 239.066,187.613 239.185,191.203 239.303,194.24 239.422,186.527 239.54,186.811 239.658,180.325 239.777,183.473 239.895,180.798 240.014,181.491 
  240.132,175.096 240.251,180.827 240.369,181.336 240.487,190.326 240.606,193.491 240.724,193.683 240.843,194.449 240.961,193.368 241.079,189.951 241.198,181.69 
  241.316,181.83 241.435,187.209 241.553,193.124 241.671,188.317 241.79,189.782 241.908,194.165 242.027,188.008 242.145,185.742 242.263,192.87 242.382,197.557 
  242.5,200.654 242.619,197.297 242.737,191.436 242.855,183.973 242.974,180.724 243.092,181.557 243.211,185.99 243.329,186.53 243.448,184.579 243.566,185.822 
  243.684,189.041 243.803,191.018 243.921,190.57 244.04,187.251 244.158,187.886 244.276,188.054 244.395,186.192 244.513,187.303 244.632,187.787 244.75,187.982 
  244.868,187.997 244.987,187.951 245.105,187.772 245.224,187.481 245.342,187.18 245.46,186.964 245.579,186.839 245.697,186.781 245.816,186.782 245.934,186.819 
  246.052,186.876 246.171,186.949 246.289,187.031 246.408,187.118 246.526,187.201 246.645,187.274 246.763,187.333 246.881,187.381 247,187.423 247.118,187.494 
  247.237,187.541 247.355,180.369 247.473,181.691 247.592,182.15 247.71,181.632 247.829,185.137 247.947,188.789 248.065,191.463 248.184,191.462 248.302,184.473 
  248.421,185.107 248.539,186.686 248.657,186.994 248.776,184.01 248.894,182.272 249.013,175.489 249.131,185.157 249.249,189.906 249.368,189.977 249.486,192.648 
  249.605,195.079 249.723,182.867 249.841,186.33 249.96,179.021 250.078,173.486 250.197,175.793 250.315,175.096 250.434,177.223 250.552,194.843 250.67,197.788 
  250.789,190.385 250.907,195.485 251.026,184.494 251.144,188.403 251.262,187.758 251.381,194.175 251.499,195.99 251.618,189.808 251.736,184.865 251.854,177.367 
  251.973,175.034 252.091,181.045 252.21,180.087 252.328,183.95 252.446,187.599 252.565,186.546 252.683,188.46 252.802,188.462 252.92,193.085 253.038,187.321 
  253.157,188.703 253.275,187.135 253.394,188.055 253.512,188.432 253.631,188.405 253.749,188.231 253.867,188.121 253.986,187.854 254.104,187.299 254.223,186.739 
  254.341,186.385 254.459,186.325 254.578,186.468 254.696,186.696 254.815,186.913 254.933,187.084 255.051,187.209 255.17,187.298 255.288,187.357 255.407,187.395 
  255.525,187.42 255.643,187.434 255.762,187.443 255.88,187.478 255.999,187.601 256.117,180.149 256.235,180.692 256.354,178.518 256.472,180.884 256.591,182.649 
  256.709,184.129 256.827,189.605 256.946,191.709 257.064,190.657 257.183,188.324 257.301,187.198 257.42,186.765 257.538,187.912 257.656,186.234 257.775,181.734 
  257.893,179.053 258.012,184.027 258.13,178.718 258.248,190.15 258.367,187.491 258.485,190.199 258.604,184.612 258.722,182.451 258.84,186.685 258.959,172.377 
  259.077,170.662 259.196,186.749 259.314,184.077 259.432,189.013 259.551,190.026 259.669,190.703 259.788,195.36 259.906,194.572 260.024,188.592 260.143,194.285 
  260.261,192.154 260.38,187.464 260.498,184.741 260.617,182.846 260.735,182.569 260.853,184.156 260.972,187.264 261.09,189.489 261.209,187.469 261.327,186.392 
  261.445,186.226 261.564,187.289 261.682,188.278 261.801,189.205 261.919,189.102 262.037,187.834 262.156,186.025 262.274,186.842 262.393,187.355 262.511,187.503 
  262.629,187.644 262.748,187.723 262.866,187.668 262.985,187.552 263.103,187.337 263.221,187.113 263.34,186.922 263.458,186.82 263.577,186.778 263.695,186.782 
  263.813,186.833 263.932,186.923 264.05,187.031 264.169,187.14 264.287,187.237 264.406,187.315 264.524,187.376 264.642,187.44 264.761,187.496 264.879,181.432 
  264.998,179.622 265.116,181.841 265.234,183.155 265.353,184.865 265.471,188.128 265.59,186.546 265.708,189.984 265.826,186.297 265.945,189.394 266.063,190.934 
  266.182,188.328 266.3,186.098 266.418,184.111 266.537,176.892 266.655,182.198 266.774,185.204 266.892,183.07 267.01,190.339 267.129,193.05 267.247,188.038 
  267.366,189.694 267.484,190.184 267.603,190.731 267.721,179.297 267.839,175.2 267.958,176.888 268.076,179.157 268.195,184.896 268.313,190.288 268.431,185.957 
  268.55,188.477 268.668,190.545 268.787,187.86 268.905,188.09 269.023,191.685 269.142,195.053 269.26,192.806 269.379,187.465 269.497,180.862 269.615,179.573 
  269.734,182.165 269.852,183.18 269.971,184.97 270.089,184.944 270.207,189.27 270.326,186.86 270.444,188.756 270.563,189.332 270.681,191.871 270.799,190.181 
  270.918,186.466 271.036,187.1 271.155,187.768 271.273,188.137 271.392,188.138 271.51,188.091 271.628,188.009 271.747,187.615 271.865,187.111 271.984,186.664 
  272.102,186.467 272.22,186.497 272.339,186.651 272.457,186.832 272.576,186.991 272.694,187.122 272.812,187.224 272.931,187.299 273.049,187.35 273.168,187.383 
  273.286,187.403 273.404,187.416 273.523,187.436 273.641,187.505 273.76,182.469 273.878,181.066 273.996,181.268 274.115,181.572 274.233,182.221 274.352,185.527 
  274.47,186.829 274.589,189.517 274.707,188.621 274.825,188.81 274.944,184.549 275.062,189.937 275.181,187.514 275.299,188.205 275.417,185.552 275.536,185.391 
  275.654,184.939 275.773,180.001 275.891,182.737 276.009,180.724 276.128,175.563 276.246,181.001 276.365,175.748 276.483,172.57 276.601,175.197 276.72,185.925 
  276.838,190.184 276.957,191.321 277.075,191.67 277.193,196.724 277.312,188.184 277.43,193.979 277.549,195.839 277.667,188.567 277.785,190.126 277.904,193.031 
  278.022,189.797 278.141,185.719 278.259,186.33 278.378,185.475 278.496,185.273 278.614,186.413 278.733,184.319 278.851,185.377 278.97,185.578 279.088,187.104 
  279.206,184.21 279.325,186.268 279.443,185.902 279.562,186.715 279.68,185.193 279.798,185.9 279.917,186.529 280.035,187.054 280.154,187.395 280.272,187.657 
  280.39,187.736 280.509,187.619 280.627,187.401 280.746,187.158 280.864,186.938 280.982,186.781 281.101,186.717 281.219,186.742 281.338,186.828 281.456,186.944 
  281.575,187.066 281.693,187.178 281.811,187.269 281.93,187.337 282.048,187.384 282.167,187.424 282.285,187.462 282.403,181.861 282.522,182.51 282.64,181.734 
  282.759,179.485 282.877,182.314 282.995,183.072 283.114,183.289 283.232,188.807 283.351,190.059 283.469,189.626 283.587,187.696 283.706,190.627 283.824,187.773 
  283.943,187.316 284.061,183.571 284.179,178.029 284.298,180.184 284.416,176.256 284.535,178.074 284.653,185.329 284.772,189.211 284.89,184.767 285.008,177.021 
  285.127,177.522 285.245,176.35 285.364,187.353 285.482,168.632 285.6,177.536 285.719,184.299 285.837,176.677 285.956,170.413 286.074,188.103 286.192,190.51 
  286.311,195.01 286.429,191.481 286.548,194.318 286.666,198.741 286.784,194.59 286.903,187.966 287.021,185.326 287.14,180.609 287.258,184.622 287.376,184.975 
  287.495,187.288 287.613,183.42 287.732,185.005 287.85,185.554 287.968,188.659 288.087,189.548 288.205,187.57 288.324,190.278 288.442,187.239 288.561,187.091 
  288.679,186.719 288.797,187.326 288.916,187.553 289.034,187.753 289.153,187.945 289.271,188.048 289.389,187.839 289.508,187.397 289.626,186.915 289.745,186.61 
  289.863,186.54 289.981,186.62 290.1,186.762 290.218,186.911 290.337,187.044 290.455,187.156 290.573,187.243 290.692,187.308 290.81,187.353 290.929,187.382 
  291.047,187.4 291.165,187.423 291.284,187.48 291.402,183.157 291.521,183.791 291.639,182.979 291.758,181.932 291.876,183.365 291.994,185.531 292.113,186.419 
  292.231,186.587 292.35,187.534 292.468,186.103 292.586,187.722 292.705,182.991 292.823,187.028 292.942,190.019 293.06,187.512 293.178,178.169 293.297,185.157 
  293.415,182.303 293.534,181.069 293.652,168.031 293.77,166.284 293.889,179.118 294.007,177.983 294.126,181.649 294.244,182.091 294.362,198.186 294.481,198.662 
  294.599,184.333 294.718,191.205 294.836,189.09 294.954,199.76 295.073,188.468 295.191,181.531 295.31,172.988 295.428,185.96 295.547,187.073 295.665,186.513 
  295.783,185.408 295.902,186.682 296.02,187.483 296.139,184.88 296.257,180.605 296.375,182.157 296.494,181.808 296.612,182.339 296.731,181.397 296.849,181.828 
  296.967,181.236 297.086,181.577 297.204,187.992 297.323,182.835 297.441,182.549 297.559,184.601 297.678,185.139 297.796,185.786 297.915,186.559 298.033,187.096 
  298.151,187.369 298.27,187.292 298.388,187.143 298.507,186.894 298.625,186.749 298.744,186.728 298.862,186.785 298.98,186.874 299.099,186.959 299.217,187.038 
  299.336,187.117 299.454,187.206 299.572,187.306 299.691,187.427 299.809,179.439 299.928,183.024 300.046,182.868 300.164,182.89 300.283,180.503 300.401,183.666 
  300.52,183.05 300.638,184.754 300.756,184.684 300.875,187.893 300.993,184.382 301.112,186.511 301.23,183.586 301.348,192.793 301.467,195.405 301.585,189.026 
  301.704,188.542 301.822,179.399 301.94,180.589 302.059,177.894 302.177,178.099 302.296,179.482 302.414,185.206 302.533,174.068 302.651,181.894 302.769,174.299 
  302.888,173.066 303.006,171.228 303.125,173.093 303.243,187.279 303.361,192.223 303.48,193.118 303.598,191.768 303.717,194.536 303.835,192.284 303.953,191.619 
  304.072,190.757 304.19,184.882 304.309,181.605 304.427,185.137 304.545,188.655 304.664,186.748 304.782,187.301 304.901,189.187 305.019,188.169 305.137,185.773 
  305.256,183.88 305.374,186.121 305.493,184.834 305.611,185.342 305.73,185.231 305.848,184.464 305.966,186.035 306.085,187.309 306.203,185.897 306.322,184.974 
  306.44,185.456 306.558,185.969 306.677,186.471 306.795,186.895 306.914,187.192 307.032,187.025 307.15,186.654 307.269,186.263 307.387,186.106 307.506,186.219 
  307.624,186.478 307.742,186.751 307.861,186.979 307.979,187.15 308.098,187.274 308.216,187.361 308.334,187.423 308.453,187.467 308.571,187.497 308.69,187.516 
  308.808,187.527 308.926,187.539 309.045,187.609 309.163,182.969 309.282,182.618 309.4,183.24 309.519,184.123 309.637,180.438 309.755,183.681 309.874,184.486 
  309.992,188.688 310.111,186.655 310.229,185.449 310.347,186.227 310.466,186.895 310.584,192.877 310.703,190.037 310.821,192.159 310.939,186.472 311.058,186.757 
  311.176,192.003 311.295,191.613 311.413,189.623 311.531,191.11 311.65,196.707 311.768,189.635 311.887,198.232 312.005,185.164 312.123,184.572 312.242,189.214 
  312.36,188.44 312.479,180.044 312.597,180.297 312.716,181.038 312.834,181.72 312.952,182.125 313.071,183.167 313.189,184.155 313.308,184.788 313.426,188.67 
  313.544,188.329 313.663,187.876 313.781,191.526 313.9,187.651 314.018,187.045 314.136,186.943 314.255,186.911 314.373,186.792 314.492,185.447 314.61,187.292 
  314.728,185.763 314.847,186.421 314.965,185.551 315.084,184.208 315.202,184.844 315.32,185.566 315.439,186.259 315.557,186.884 315.676,187.335 315.794,187.479 
  315.912,187.434 316.031,187.332 316.149,187.195 316.268,187.082 316.386,186.973 316.505,186.856 316.623,186.775 316.741,186.751 316.86,186.782 316.978,186.859 
  317.097,186.969 317.215,187.095 317.333,187.29 317.452,187.444 317.57,187.526 317.689,183.105 317.807,182.579 317.925,182.584 318.044,185.238 318.162,184.765 
  318.281,184.542 318.399,186.61 318.517,186.82 318.636,185.906 318.754,188.267 318.873,186.575 318.991,186.556 319.109,190.3 319.228,189.316 319.346,186.934 
  319.465,192.454 319.583,189.867 319.702,192.784 319.82,192.561 319.938,189.499 320.057,190.022 320.175,187.564 320.294,189.46 320.412,190.407 320.53,187.243 
  320.649,190.219 320.767,197.773 320.886,200.971 321.004,197.85 321.122,190.524 321.241,186.573 321.359,181.06 321.478,179.64 321.596,182.793 321.714,185.644 
  321.833,185.506 321.951,187.179 322.07,184.34 322.188,187.843 322.306,188.854 322.425,184.123 322.543,184.735 322.662,184.898 322.78,185.494 322.899,184.401 
  323.017,186.64 323.135,185.519 323.254,186.288 323.372,186.876 323.491,184.843 323.609,188.13 323.727,185.284 323.846,186.229 323.964,184.55 324.083,185.253 
  324.201,185.934 324.319,186.496 324.438,186.929 324.556,187.182 324.675,186.945 324.793,186.623 324.911,186.292 325.03,186.229 325.148,186.368 325.267,186.607 
  325.385,186.843 325.503,187.034 325.622,187.176 325.74,187.28 325.859,187.354 325.977,187.406 326.095,187.441 326.214,187.464 326.332,187.478 326.451,187.486 
  326.569,187.489 326.688,187.492 326.806,187.523 326.924,187.62 327.043,184.374 327.161,181.059 327.28,183.635 327.398,183.733 327.516,185.289 327.635,184.713 
  327.753,186.033 327.872,187.98 327.99,188.06 328.108,188.512 328.227,185.469 328.345,186.818 328.464,188.256 328.582,183.747 328.7,186.842 328.819,186.139 
  328.937,185.104 329.056,185.12 329.174,179.86 329.292,184.468 329.411,186.611 329.529,185.199 329.648,180.805 329.766,179.715 329.885,178.688 330.003,186.058 
  330.121,190.569 330.24,184.986 330.358,191.738 330.477,192.131 330.595,187.746 330.713,188.534 330.832,189.001 330.95,188.774 331.069,188.402 331.187,188.09 
  331.305,185.81 331.424,190.333 331.542,189.261 331.661,188.243 331.779,187.374 331.897,188.289 332.016,189.127 332.134,187.577 332.253,184.782 332.371,186.765 
  332.489,186.272 332.608,184.601 332.726,186.273 332.845,184.641 332.963,185.22 333.081,185.906 333.2,186.536 333.318,187.027 333.437,187.355 333.555,187.397 
  333.674,187.379 333.792,187.285 333.91,187.165 334.029,187.037 334.147,186.912 334.266,186.796 334.384,186.729 334.502,186.738 334.621,186.811 334.739,186.928 
  334.858,187.069 334.976,187.258 335.094,187.422 335.213,187.513 335.331,187.573 335.45,184.544 335.568,184.832 335.686,183.484 335.805,181.905 335.923,185.546 
  336.042,187.279 336.16,187.11 336.278,186.086 336.397,187.126 336.515,187.428 336.634,187.109 336.752,186.819 336.871,186.353 336.989,188.386 337.107,188.791 
  337.226,189.631 337.344,194.034 337.463,189.143 337.581,191.64 337.699,192.617 337.818,189.951 337.936,191.587 338.055,187.063 338.173,186.602 338.291,181.754 
  338.41,189.902 338.528,191.879 338.647,195.422 338.765,194.915 338.883,194.2 339.002,185.286 339.12,176.384 339.239,177.947 339.357,179.615 339.475,184.762 
  339.594,182.89 339.712,184.968 339.831,187.971 339.949,187.024 340.067,187.127 340.186,183.478 340.304,186.431 340.423,184.683 340.541,184.291 340.66,185.258 
  340.778,185.481 340.896,185.022 341.015,186.996 341.133,185.703 341.252,188.39 341.37,186.58 341.488,184.674 341.607,186.518 341.725,186.916 341.844,184.186 
  341.962,184.877 342.08,185.53 342.199,186.2 342.317,186.777 342.436,187.132 342.554,187.081 342.672,186.833 342.791,186.546 342.909,186.412 343.028,186.475 
  343.146,186.649 343.264,186.838 343.383,187.001 343.501,187.129 343.62,187.227 343.738,187.299 343.857,187.352 343.975,187.39 344.093,187.415 344.212,187.434 
  344.33,187.467 344.449,187.54 344.567,187.692 344.685,184.736 344.804,180.918 344.922,184.829 345.041,184.251 345.159,185.568 345.277,188.627 345.396,187.865 
  345.514,187.897 345.633,186.487 345.751,186.788 345.869,188.372 345.988,187.112 346.106,185.003 346.225,185.858 346.343,184.445 346.461,188.77 346.58,183.44 
  346.698,181.719 346.817,185.254 346.935,186.057 347.053,190.456 347.172,188.486 347.29,190.236 347.409,178.606 347.527,181.839 347.646,184.258 347.764,182.74 
  347.882,193.046 348.001,194.005 348.119,193.123 348.238,193.826 348.356,186.437 348.474,189.465 348.593,191.305 348.711,190.51 348.83,190.984 348.948,189.61 
  349.066,191.765 349.185,189.241 349.303,192.13 349.422,191.467 349.54,191.312 349.658,191.492 349.777,187.204 349.895,187.332 350.014,187.597 350.132,187.523 
  350.25,186.2 350.369,187.538 350.487,190.557 350.606,184.574 350.724,185.207 350.843,185.731 350.961,186.213 351.079,186.646 351.198,186.995 351.316,187.327 
  351.435,187.466 351.553,187.479 351.671,187.289 351.79,187.05 351.908,186.849 352.027,186.749 352.145,186.744 352.263,186.806 352.382,186.91 352.5,187.032 
  352.619,187.154 352.737,187.26 352.855,187.363 352.974,187.431 353.092,187.488 353.211,187.612 353.329,182.348 353.447,183.419 353.566,183.446 353.684,186.472 
  353.803,185.802 353.921,187.364 354.039,185.649 354.158,186.216 354.276,184.984 354.395,186.062 354.513,188.248 354.632,185.626 354.75,188.202 354.868,187.52 
  354.987,186.765 355.105,188.62 355.224,184.742 355.342,186.281 355.46,186.036 355.579,184.909 355.697,188.869 355.816,188.296 355.934,183.551 356.052,190.723 
  356.171,189.667 356.289,191.457 356.408,185.323 356.526,176.965 356.644,177.721 356.763,181.918 356.881,185.484 357,183.835 357.118,190.618 357.236,191.839 
  357.355,187.191 357.473,188.705 357.592,189.57 357.71,186.332 357.829,186.325 357.947,184.985 358.065,188.778 358.184,185.766 358.302,186.829 358.421,188.698 
  358.539,187.241 358.657,184.958 358.776,187.27 358.894,187.661 359.013,186.318 359.131,187.348 359.249,187.647 359.368,186.402 359.486,184.559 359.605,185.252 
  359.723,185.939 359.841,186.541 359.96,187.035 360.078,187.363 360.197,187.271 360.315,187.038 360.433,186.745 360.552,186.605 360.67,186.616 360.789,186.717 
  360.907,186.848 361.026,186.983 361.144,187.104 361.262,187.205 361.381,187.282 361.499,187.337 361.618,187.373 361.736,187.395 361.854,187.407 361.973,187.414 
  362.091,187.417 362.21,187.421 362.328,187.444 362.446,187.51 362.565,185.472 362.683,184.449 362.802,183.889 362.92,185.17 363.038,185.743 363.157,185.282 
  363.275,188.715 363.394,189.073 363.512,187.753 363.63,187.984 363.749,186.479 363.867,190.279 363.986,187.941 364.104,185.879 364.222,184.398 364.341,186.053 
  364.459,182.803 364.578,181.561 364.696,180.93 364.815,179.288 364.933,179.817 365.051,180.36 365.17,182.885 365.288,178.407 365.407,186.733 365.525,186.763 
  365.643,194.005 365.762,195.407 365.88,197.926 365.999,196.757 366.117,193.823 366.235,192.799 366.354,188.657 366.472,190.57 366.591,187.147 366.709,187.191 
  366.827,189.088 366.946,187.755 367.064,190.617 367.183,189.453 367.301,190.02 367.419,189.672 367.538,189.932 367.656,187.098 367.775,187.814 367.893,186.25 
  368.012,187.568 368.13,185.48 368.248,185.287 368.367,184.129 368.485,184.74 368.604,185.471 368.722,186.102 368.84,186.616 368.959,187.006 369.077,187.299 
  369.196,187.387 369.314,187.31 369.432,187.181 369.551,187.051 369.669,186.933 369.788,186.852 369.906,186.835 370.024,186.872 370.143,186.944 370.261,187.048 
  370.38,187.182 370.498,187.308 370.616,187.41 370.735,187.525 370.853,183.495 370.972,184.161 371.09,185.935 371.208,183.723 371.327,185.518 371.445,185.466 
  371.564,185.931 371.682,184.087 371.801,186.58 371.919,185.028 372.037,186.638 372.156,185.123 372.274,187.242 372.393,192.529 372.511,188.758 372.629,191.565 
  372.748,192.113 372.866,186.577 372.985,190.496 373.103,189.902 373.221,182.528 373.34,183.452 373.458,182.52 373.577,179.876 373.695,180.511 373.813,180.709 
  373.932,179.92 374.05,183.677 374.169,198.291 374.287,196.484 374.405,193.204 374.524,193.831 374.642,181.679 374.761,180.774 374.879,179.458 374.998,181.723 
  375.116,186.451 375.234,184.112 375.353,186.065 375.471,186.847 375.59,187.809 375.708,186.9 375.826,186.413 375.945,187.392 376.063,181.105 376.182,184.6 
  376.3,184.837 376.418,183.773 376.537,183.328 376.655,185.644 376.774,185.306 376.892,187.627 377.01,186.258 377.129,183.919 377.247,185.036 377.366,185.748 
  377.484,184.488 377.602,185.03 377.721,185.854 377.839,186.437 377.958,186.93 378.076,187.219 378.194,187.3 378.313,187.081 378.431,186.818 378.55,186.631 
  378.668,186.613 378.787,186.7 378.905,186.832 379.023,186.969 379.142,187.091 379.26,187.192 379.379,187.272 379.497,187.332 379.615,187.376 379.734,187.423 
  379.852,187.493 379.971,187.621 380.089,183.786 380.207,184.416 380.326,186.283 380.444,184.991 380.563,184.775 380.681,187.346 380.799,186.49 380.918,184.386 
  381.036,186.744 381.155,186.567 381.273,186.981 381.391,184.005 381.51,187.477 381.628,185.388 381.747,187.576 381.865,186.053 381.984,186.05 382.102,181.38 
  382.22,185.747 382.339,185.372 382.457,185.989 382.576,187.11 382.694,184.001 382.812,184.333 382.931,181.473 383.049,182.013 383.168,177.116 383.286,181.782 
  383.404,187.465 383.523,194.213 383.641,191.644 383.76,194.405 383.878,195.741 383.996,192.755 384.115,192.899 384.233,191.027 384.352,190.261 384.47,187.159 
  384.588,188.363 384.707,190.42 384.825,187.264 384.944,189.735 385.062,186.343 385.18,188.074 385.299,186.967 385.417,187.53 385.536,187.258 385.654,186.582 
  385.773,184.535 385.891,186.914 386.009,187.573 386.128,184.264 386.246,184.854 386.365,185.442 386.483,186.056 386.601,186.607 386.72,187.107 386.838,187.417 
  386.957,187.429 387.075,187.253 387.193,187.008 387.312,186.825 387.43,186.744 387.549,186.754 387.667,186.828 387.785,186.931 387.904,187.043 388.022,187.148 
  388.141,187.239 388.259,187.323 388.377,187.393 388.496,187.471 388.614,187.609 388.733,184.084 388.851,185.79 388.97,183.806 389.088,185.238 389.206,184.504 
  389.325,186.224 389.443,185.292 389.562,186.771 389.68,188.493 389.798,189.07 389.917,185.871 390.035,186.145 390.154,186.593 390.272,184.15 390.39,189.926 
  390.509,189.414 390.627,188.337 390.746,186.83 390.864,189.813 390.982,191.293 391.101,189.172 391.219,191.848 391.338,185.238 391.456,183.089 391.574,186.256 
  391.693,190.193 391.811,196.663 391.93,193.045 392.048,188.931 392.167,189.074 392.285,182.943 392.403,178.85 392.522,185.373 392.64,183.882 392.759,186.56 
  392.877,185.257 392.995,182.656 393.114,187.662 393.232,186.935 393.351,186.844 393.469,184.138 393.587,185.159 393.706,183.61 393.824,186.391 393.943,185.876 
  394.061,188.209 394.179,183.835 394.298,184.295 394.416,186.072 394.535,186.246 394.653,186.138 394.771,184.224 394.89,184.493 395.008,184.318 395.127,185.071 
  395.245,185.772 395.363,186.433 395.482,186.99 395.6,187.321 395.719,187.472 395.837,187.345 395.956,187.084 396.074,186.79 396.192,186.64 396.311,186.632 
  396.429,186.722 396.548,186.85 396.666,186.983 396.784,187.104 396.903,187.204 397.021,187.281 397.14,187.336 397.258,187.372 397.376,187.395 397.495,187.411 
  397.613,187.437 397.732,187.496 397.85,187.637 397.968,182.841 398.087,183.446 398.205,185.672 398.324,184.561 398.442,186.006 398.56,185.169 398.679,187.252 
  398.797,187.012 398.916,186.73 399.034,187.742 399.153,184.821 399.271,187.924 399.389,185.587 399.508,182.908 399.626,183.902 399.745,186.571 399.863,185.067 
  399.981,186.688 400.1,182.868 400.218,187.325 400.337,189.257 400.455,191.93 400.573,186.483 400.692,179.948 400.81,172.034 400.929,178.403 401.047,181.903 
  401.165,184.735 401.284,189.078 401.402,189.77 401.521,189.663 401.639,188.452 401.757,186.782 401.876,183.18 401.994,185.06 402.113,184.093 402.231,184.061 
  402.349,189.078 402.468,187.42 402.586,186.724 402.705,187.903 402.823,187.988 402.942,186.512 403.06,186.723 403.178,186.377 403.297,185.696 403.415,182.685 
  403.534,185.879 403.652,184.8 403.77,183.863 403.889,184.307 404.007,184.939 404.126,185.542 404.244,186.111 404.362,186.567 404.481,186.899 404.599,187.104 
  404.718,187.041 404.836,186.912 404.954,186.765 405.073,186.726 405.191,186.769 405.31,186.864 405.428,186.974 405.546,187.08 405.665,187.172 405.783,187.254 
  405.902,187.333 406.02,187.427 406.139,187.565 406.257,184.369 406.375,185.585 406.494,182.857 406.612,183.327 406.731,181.739 406.849,185.732 406.967,186.775 
  407.086,185.991 407.204,185.113 407.323,181.799 407.441,186.845 407.559,186.989 407.678,186.627 407.796,188.643 407.915,188.63 408.033,191.847 408.151,193.087 
  408.27,189.752 408.388,192.912 408.507,189.465 408.625,184.477 408.743,187.952 408.862,185.872 408.98,186.345 409.099,188.427 409.217,180.264 409.335,182.683 
  409.454,180.012 409.572,193.551 409.691,197.489 409.809,201.554 409.928,183.986 410.046,182.355 410.164,177.637 410.283,172.731 410.401,172.898 410.52,177.404 
  410.638,175.696 410.756,181.091 410.875,186.749 410.993,183.163 411.112,186.206 411.23,182.597 411.348,183.282 411.467,182.883 411.585,181.091 411.704,183.365 
  411.822,182.54 411.94,185.498 412.059,184.759 412.177,183.915 412.296,185.081 412.414,183.645 412.532,182.196 412.651,186.941 412.769,183.889 412.888,181.81 
  413.006,183.886 413.125,184.594 413.243,185.299 413.361,185.845 413.48,186.222 413.598,186.476 413.717,186.684 413.835,186.789 413.953,186.815 414.072,186.802 
  414.19,186.824 414.309,186.881 414.427,186.971 414.545,187.066 414.664,187.148 414.782,187.239 414.901,187.366 415.019,187.558 415.137,183.624 415.256,184.234 
  415.374,184.107 415.493,184.03 415.611,182.833 415.729,185.727 415.848,186.433 415.966,184.626 416.085,183.321 416.203,188.586 416.321,185.351 416.44,185.656 
  416.558,189.715 416.677,184.12 416.795,189.159 416.914,193.57 417.032,190.957 417.15,192.541 417.269,191.493 417.387,190.134 417.506,193.909 417.624,192.986 
  417.742,197.489 417.861,195.583 417.979,196.285 418.098,194.065 418.216,190.974 418.334,195.167 418.453,192.904 418.571,177.371 418.69,170.435 418.808,171.151 
  418.926,170.987 419.045,174.438 419.163,175.469 419.282,175.788 419.4,179.16 419.518,180.969 419.637,185.249 419.755,182.995 419.874,185.696 419.992,184.475 
  420.111,185.731 420.229,186.7 420.347,188.904 420.466,184.815 420.584,187.341 420.703,187.274 420.821,184.915 420.939,183.905 421.058,186.735 421.176,184.685 
  421.295,186.956 421.413,184.728 421.531,183.723 421.65,183.842 421.768,184.53 421.887,185.234 422.005,185.897 422.123,186.468 422.242,186.823 422.36,187.022 
  422.479,186.988 422.597,186.89 422.715,186.742 422.834,186.681 422.952,186.719 423.071,186.822 423.189,186.952 423.307,187.064 423.426,187.164 423.544,187.289 
  423.663,187.465 423.781,185.55 423.9,184.526 424.018,184.499 424.136,185.681 424.255,185.142 424.373,186.137 424.492,185.717 424.61,183.903 424.728,184.564 
  424.847,183.83 424.965,188.936 425.084,186.765 425.202,187.21 425.32,190.291 425.439,188.457 425.557,193.004 425.676,188.922 425.794,192.798 425.912,197.081 
  426.031,197.949 426.149,192.533 426.268,194.938 426.386,192.899 426.504,189.404 426.623,184.759 426.741,187.099 426.86,185.929 426.978,180.044 427.097,191.318 
  427.215,197.565 427.333,200.491 427.452,190.785 427.57,188.261 427.689,184.297 427.807,163.648 427.925,163.323 428.044,172.72 428.162,175.236 428.281,177.146 
  428.399,183.088 428.517,181.411 428.636,185.139 428.754,185.764 428.873,186.064 428.991,184.819 429.109,185.075 429.228,184.128 429.346,185.67 429.465,184.94 
  429.583,184.882 429.701,183.085 429.82,184.869 429.938,185.234 430.057,185.632 430.175,186.562 430.294,186.269 430.412,184.599 430.53,184.569 430.649,185.294 
  430.767,185.923 430.886,186.386 431.004,186.74 431.122,186.654 431.241,186.475 431.359,186.293 431.478,186.274 431.596,186.397 431.714,186.616 431.833,186.838 
  431.951,187.024 432.07,187.166 432.188,187.271 432.306,187.341 432.425,187.385 432.543,187.439 432.662,187.538 432.78,184.563 432.898,182.563 433.017,184.109 
  433.135,184.085 433.254,184.166 433.372,185.383 433.49,186.483 433.609,184.805 433.727,185.134 433.846,185.493 433.964,183.271 434.083,183.861 434.201,186.198 
  434.319,187.365 434.438,186.178 434.556,187.146 434.675,187.684 434.793,194.128 434.911,190.14 435.03,193.714 435.148,191.57 435.267,192.969 435.385,187.211 
  435.503,186.776 435.622,191.046 435.74,197.954 435.859,189.854 435.977,191.673 436.095,182.361 436.214,164.205 436.332,168.108 436.451,172.315 436.569,174.062 
  436.687,176.907 436.806,183.907 436.924,183.368 437.043,179.585 437.161,181.298 437.28,182.955 437.398,181.793 437.516,182.323 437.635,183.682 437.753,183.59 
  437.872,185.797 437.99,184.498 438.108,186.306 438.227,185.144 438.345,187.211 438.464,184.461 438.582,183.621 438.7,183.577 438.819,185.474 438.937,185.64 
  439.056,184.166 439.174,184.697 439.292,185.36 439.411,185.947 439.529,186.531 439.648,186.918 439.766,187.185 439.884,187.039 440.003,186.806 440.121,186.58 
  440.24,186.534 440.358,186.615 440.476,186.766 440.595,186.928 440.713,187.068 440.832,187.183 440.95,187.274 441.069,187.358 441.187,187.46 441.305,187.619 
  441.424,184.052 441.542,184.855 441.661,183.641 441.779,183.363 441.897,184.584 442.016,185.303 442.134,184.836 442.253,184.997 442.371,186.452 442.489,187.232 
  442.608,187.755 442.726,187.352 442.845,187.467 442.963,191.674 443.081,193.988 443.2,193.276 443.318,192.513 443.437,190.427 443.555,194.921 443.673,188.292 
  443.792,192.813 443.91,192.789 444.029,194.294 444.147,189.769 444.266,178.8 444.384,188.281 444.502,183.377 444.621,184.021 444.739,199.37 444.858,194.383 
  444.976,188.326 445.094,180.605 445.213,175.456 445.331,175.299 445.45,173.652 445.568,178.298 445.686,174.179 445.805,175.288 445.923,176.061 446.042,180.378 
  446.16,183.941 446.278,185.376 446.397,181.67 446.515,183.631 446.634,183.917 446.752,186.715 446.87,184.023 446.989,183.822 447.107,183.608 447.226,183.494 
  447.344,185.184 447.462,184.639 447.581,185.787 447.699,186.847 447.818,185.871 447.936,183.655 448.055,184.593 448.173,185.52 448.291,186.182 448.41,186.584 
  448.528,186.966 448.647,187.008 448.765,186.795 448.883,186.543 449.002,186.45 449.12,186.524 449.239,186.681 449.357,186.846 449.475,186.989 449.594,187.104 
  449.712,187.197 449.831,187.27 449.949,187.334 450.067,187.418 450.186,187.558 450.304,183.402 450.423,183.348 450.541,183.49 450.659,185.267 450.778,184.144 
  450.896,185.369 451.015,184.323 451.133,187.295 451.252,187.608 451.37,184.506 451.488,183.464 451.607,187.628 451.725,187.11 451.844,187.773 451.962,190.616 
  452.08,188.614 452.199,189.348 452.317,191.434 452.436,197.507 452.554,185.983 452.672,186.824 452.791,194.255 452.909,190.798 453.028,189.458 453.146,190.583 
  453.264,193.89 453.383,198.528 453.501,189 453.62,191.281 453.738,174.192 453.856,170.66 453.975,169.237 454.093,168.398 454.212,169.903 454.33,165.072 
  454.448,167.695 454.567,170.441 454.685,177.119 454.804,180.172 454.922,180.129 455.041,183.976 455.159,185.144 455.277,185.214 455.396,183.426 455.514,185.439 
  455.633,184.523 455.751,184.585 455.869,183.924 455.988,184.218 456.106,183.42 456.225,183.488 456.343,185.094 456.461,182.33 456.58,184.309 456.698,184.171 
  456.817,184.871 456.935,185.524 457.053,186.05 457.172,186.388 457.29,186.698 457.409,186.865 457.527,186.803 457.645,186.679 457.764,186.572 457.882,186.599 
  458.001,186.714 458.119,186.859 458.238,186.994 458.356,187.105 458.474,187.218 458.593,187.364 458.711,187.57 458.83,184.608 458.948,184.522 459.066,185.066 
  459.185,185.247 459.303,185.36 459.422,186.165 459.54,184.444 459.658,184.153 459.777,185.594 459.895,185.066 460.014,184.97 460.132,186.993 460.25,185.487 
  460.369,188.941 460.487,191.117 460.606,188.74 460.724,191.164 460.842,193.078 460.961,198.689 461.079,197.635 461.198,194.056 461.316,185.116 461.434,183.19 
  461.553,183.34 461.671,183.15 461.79,187.199 461.908,185.08 462.027,188.78 462.145,193.713 462.263,198.869 462.382,189.424 462.5,198.704 462.619,182.574 
  462.737,174.854 462.855,164.897 462.974,164.133 463.092,168.824 463.211,176.313 463.329,177.005 463.447,181.003 463.566,182.724 463.684,184.382 463.803,182.122 
  463.921,183.066 464.039,183.941 464.158,187.167 464.276,186.908 464.395,182.579 464.513,185.831 464.631,186.731 464.75,185.583 464.868,186.688 464.987,186.086 
  465.105,185.803 465.224,186.121 465.342,185.568 465.46,184.217 465.579,184.807 465.697,185.268 465.816,185.792 465.934,186.295 466.052,186.69 466.171,186.622 
  466.289,186.439 466.408,186.276 466.526,186.355 466.644,186.58 466.763,186.81 466.881,186.981 467,187.091 467.118,187.163 467.236,187.215 467.355,187.257 
  467.473,187.31 467.592,187.402 467.71,185.351 467.828,185.949 467.947,180.928 468.065,184.42 468.184,184.054 468.302,185.413 468.421,189.074 468.539,186.075 
  468.657,188.006 468.776,190.157 468.894,189.889 469.013,186.405 469.131,187.204 469.249,187.787 469.368,187.247 469.486,194.242 469.605,191.332 469.723,192.139 
  469.841,191.019 469.96,196.6 470.078,200.425 470.197,195.461 470.315,192.61 470.433,198.442 470.552,195.838 470.67,190.882 470.789,202.011 470.907,189.445 
  471.025,189.919 471.144,180.868 471.262,178.833 471.381,174.435 471.499,175.849 471.617,177.427 471.736,179.317 471.854,184.003 471.973,184.104 472.091,188.964 
  472.21,189.894 472.328,187.847 472.446,188.926 472.565,185.759 472.683,187.864 472.802,187.802 472.92,187.672 473.038,185.45 473.157,184.08 473.275,186.655 
  473.394,184.666 473.512,185.31 473.63,185.64 473.749,185.451 473.867,184.083 473.986,183.983 474.104,184.727 474.222,185.511 474.341,186.25 474.459,186.723 
  474.578,187.092 474.696,186.995 474.814,186.72 474.933,186.427 475.051,186.356 475.17,186.462 475.288,186.653 475.407,186.845 475.525,187.008 475.643,187.136 
  475.762,187.237 475.88,187.314 475.999,187.372 476.117,187.413 476.235,187.448 476.354,187.509 476.472,187.63 476.591,185.798 476.709,182.018 476.827,183.431 
  476.946,184.407 477.064,183.828 477.183,187.427 477.301,187.436 477.419,186.984 477.538,187.112 477.656,186.812 477.775,185.596 477.893,187.78 478.011,187.963 
  478.13,189.413 478.248,188.952 478.367,188.009 478.485,189.203 478.603,195.888 478.722,193.332 478.84,197.173 478.959,196.092 479.077,192.837 479.196,198.786 
  479.314,194.778 479.432,195.457 479.551,188.512 479.669,181.135 479.788,176.092 479.906,184.399 480.024,187.341 480.143,186.915 480.261,187.359 480.38,187.54 
  480.498,187.703 480.616,187.088 480.735,181.706 480.853,184.066 480.972,183.856 481.09,188.116 481.208,186.816 481.327,184.871 481.445,184.631 481.564,186.988 
  481.682,184.653 481.8,184.358 481.919,187.837 482.037,185.514 482.156,187.293 482.274,185.299 482.393,185.468 482.511,186.011 482.629,186.741 482.748,184.683 
  482.866,185.285 482.985,185.758 483.103,186.186 483.221,186.58 483.34,186.528 483.458,186.476 483.577,186.392 483.695,186.478 483.813,186.651 483.932,186.829 
  484.05,186.96 484.169,187.044 484.287,187.102 484.405,187.15 484.524,187.195 484.642,187.235 484.761,187.269 484.879,187.296 484.997,187.317 485.116,187.355 
  485.234,187.404 485.353,187.504 485.471,183.912 485.589,185.598 485.708,183.729 485.826,185.029 485.945,184.407 486.063,185.805 486.182,187.919 486.3,187.71 
  486.418,187.964 486.537,187.203 486.655,189.92 486.774,186.818 486.892,185.779 487.01,188.19 487.129,188.909 487.247,190.23 487.366,190.949 487.484,187.874 
  487.602,190.619 487.721,192.93 487.839,198.815 487.958,193.893 488.076,192.421 488.194,189.319 488.313,180.232 488.431,180.302 488.55,179.899 488.668,179.27 
  488.786,185.469 488.905,190.462 489.023,185.22 489.142,182.52 489.26,183.9 489.379,185.414 489.497,189.327 489.615,185.541 489.734,186.69 489.852,186.304 
  489.971,187.013 490.089,186.058 490.207,187.579 490.326,184.979 490.444,185.731 490.563,185.678 490.681,185.955 490.799,186.522 490.918,186.422 491.036,186.966 
  491.155,185.645 491.273,187.059 491.391,184.623 491.51,185.259 491.628,185.881 491.747,186.506 491.865,186.951 491.983,187.118 492.102,186.934 492.22,186.658 
  492.339,186.414 492.457,186.398 492.575,186.53 492.694,186.726 492.812,186.914 492.931,187.07 493.049,187.193 493.168,187.286 493.286,187.355 493.404,187.404 
  493.523,187.437 493.641,187.459 493.76,187.483 493.878,187.544 493.996,187.667 494.115,184.533 494.233,183.058 494.352,184.054 494.47,183.781 494.588,185.665 
  494.707,186.968 494.825,187.485 494.944,188.26 495.062,188.52 495.18,187.498 495.299,188.77 495.417,189.95 495.536,189.917 495.654,187.582 495.772,186.405 
  495.891,185.477 496.009,192.677 496.128,189.293 496.246,184.775 496.365,187.503 496.483,191.743 496.601,185.095 496.72,191.004 496.838,184.135 496.957,184.245 
  497.075,183.82 497.193,179.911 497.312,185.239 497.43,185.964 497.549,185.729 497.667,186.572 497.785,182.961 497.904,185.659 498.022,183.688 498.141,183.68 
  498.259,186.106 498.377,186.699 498.496,187.315 498.614,186.49 498.733,187.685 498.851,186.439 498.969,185.932 499.088,187.598 499.206,187.746 499.325,186.624 
  499.443,185.976 499.561,185.86 499.68,185.425 499.798,186.198 499.917,185.916 500.035,185.889 500.154,184.729 500.272,185.202 500.39,185.628 500.509,186.074 
  500.627,186.457 500.746,186.698 500.864,186.833 500.982,186.847 501.101,186.86 501.219,186.876 501.338,186.919 501.456,186.958 501.574,186.988 501.693,187.012 
  501.811,187.04 501.93,187.074 502.048,187.112 502.166,187.151 502.285,187.183 502.403,187.296 502.522,187.393 502.64,187.48 502.758,184.254 502.877,181.069 
  502.995,184.749 503.114,185.293 503.232,186.545 503.351,186.42 503.469,187.307 503.587,187.629 503.706,187.804 503.824,188.584 503.943,184.994 504.061,185.302 
  504.179,186.024 504.298,182.273 504.416,186.479 504.535,190.755 504.653,189.496 504.771,190.816 504.89,185.991 505.008,191.153 505.127,194.403 505.245,189.756 
  505.363,189.759 505.482,191.346 505.6,194.725 505.719,192.287 505.837,184.651 505.955,177.85 506.074,170.962 506.192,175.487 506.311,183.385 506.429,185.141 
  506.548,184.22 506.666,188.799 506.784,186.695 506.903,187.012 507.021,186.383 507.14,184.178 507.258,186.361 507.376,184.871 507.495,184.019 507.613,185.39 
  507.732,185.182 507.85,185.458 507.968,185.825 508.087,187.49 508.205,185.276 508.324,186.525 508.442,185.289 508.56,184.507 508.679,185.164 508.797,183.937 
  508.916,184.59 509.034,185.279 509.152,185.991 509.271,186.564 509.389,186.961 509.508,187.131 509.626,186.931 509.744,186.694 509.863,186.494 509.981,186.485 
  510.1,186.6 510.218,186.772 510.337,186.94 510.455,187.081 510.573,187.192 510.692,187.276 510.81,187.339 510.929,187.383 511.047,187.413 511.165,187.436 
  511.284,187.477 511.402,187.56 511.521,183.879 511.639,184.677 511.757,183.919 511.876,184.062 511.994,182.722 512.113,186.665 512.231,187.1 512.349,187.419 
  512.468,187.377 512.586,186.733 512.705,187.575 512.823,187.799 512.941,189.057 513.06,187.226 513.178,185.22 513.297,184.498 513.415,184.767 513.534,186.386 
  513.652,190.431 513.77,190.98 513.889,194.082 514.007,190.38 514.126,186.559 514.244,187.541 514.362,179.852 514.481,178.106 514.599,178.29 514.718,186.846 
  514.836,183.69 514.954,187.576 515.073,186.95 515.191,185.873 515.31,184.024 515.428,184.596 515.546,180.31 515.665,185.333 515.783,183.957 515.902,185.709 
  516.02,187.065 516.138,184.229 516.257,186.721 516.375,187.505 516.494,185.635 516.612,187.885 516.73,187.788 516.849,187.628 516.967,184.72 517.086,186.206 
  517.204,186.868 517.323,186.292 517.441,185.342 517.559,185.882 517.678,184.525 517.796,185.037 517.915,185.548 518.033,186.073 518.151,186.49 518.27,186.824 
  518.388,186.931 518.507,186.985 518.625,186.97 518.743,186.973 518.862,186.973 518.98,186.977 519.099,186.977 519.217,186.978 519.335,186.99 519.454,187.016 
  519.572,187.057 519.691,187.156 519.809,187.281 519.927,187.388 520.046,187.509 520.164,185.082 520.283,183.37 520.401,186.093 520.52,185.241 520.638,186.274 
  520.756,184.496 520.875,185.687 520.993,186.217 521.112,188.559 521.23,187.237 521.348,184.426 521.467,185.953 521.585,184.62 521.704,185.611 521.822,184.934 
  521.94,185.527 522.059,187.655 522.177,193.836 522.296,193.39 522.414,190.984 522.532,189.748 522.651,192.692 522.769,189.226 522.888,187.593 523.006,188.042 
  523.124,190.01 523.243,186.292 523.361,188.057 523.48,175.903 523.598,182.46 523.716,182.976 523.835,184.167 523.953,183.851 524.072,185.994 524.19,181.889 
  524.309,183.818 524.427,183.297 524.545,189.18 524.664,185.936 524.782,183.984 524.901,188.237 525.019,185.757 525.137,184.087 525.256,184.978 525.374,189.152 
  525.493,186.684 525.611,186.262 525.729,187.128 525.848,186.936 525.966,187.088 526.085,185.847 526.203,185.249 526.321,184.314 526.44,184.939 526.558,185.478 
  526.677,185.981 526.795,186.475 526.913,186.92 527.032,187.16 527.15,187.039 527.269,186.823 527.387,186.597 527.506,186.539 527.624,186.624 527.742,186.783 
  527.861,186.947 527.979,187.088 528.098,187.2 528.216,187.286 528.334,187.349 528.453,187.394 528.571,187.424 528.69,187.449 528.808,187.498 528.926,187.596 
  529.045,184.745 529.163,183.547 529.282,182.402 529.4,185.177 529.518,185.621 529.637,186.221 529.755,184.886 529.874,187.537 529.992,186.089 530.11,185.362 
  530.229,188.668 530.347,187.354 530.466,185.04 530.584,185.616 530.702,184.948 530.821,187.253 530.939,185.87 531.058,184.014 531.176,187.349 531.295,184.124 
  531.413,186.405 531.531,185.475 531.65,182.332 531.768,180.168 531.887,180.722 532.005,181.899 532.123,185.327 532.242,186.825 532.36,189.081 532.479,190.367 
  532.597,188.536 532.715,187.487 532.834,188.24 532.952,187.921 533.071,187.916 533.189,185.981 533.307,185.355 533.426,189.349 533.544,187.757 533.663,187.702 
  533.781,187.93 533.899,188.443 534.018,187.618 534.136,187.653 534.255,188.739 534.373,188.438 534.492,188.123 534.61,186.803 534.728,184.572 534.847,184.888 
  534.965,185.39 535.084,184.13 535.202,184.812 535.32,185.388 535.439,185.968 535.557,186.42 535.676,186.796 535.794,187.038 535.912,187.141 536.031,187.158 
  536.149,187.136 536.268,187.106 536.386,187.057 536.504,186.989 536.623,186.924 536.741,186.895 536.86,186.914 536.978,186.975 537.096,187.091 537.215,187.244 
  537.333,187.372 537.452,187.488 537.57,185.529 537.689,185.711 537.807,185.206 537.925,185.064 538.044,185.899 538.162,184.855 538.281,186.575 538.399,187.636 
  538.517,186.244 538.636,188.202 538.754,185.96 538.873,186.389 538.991,186.239 539.109,187.363 539.228,190.06 539.346,183.397 539.465,191.473 539.583,186.914 
  539.701,182.558 539.82,188.857 539.938,188.25 540.057,188.441 540.175,190.586 540.293,188.588 540.412,191.549 540.53,191.621 540.649,186.741 540.767,184.68 
  540.885,180.315 541.004,180.449 541.122,184.419 541.241,182.091 541.359,183.501 541.478,184.985 541.596,183.97 541.714,184.102 541.833,182.776 541.951,184.31 
  542.07,183.677 542.188,184.785 542.306,186.179 542.425,188.585 542.543,188.096 542.662,186.554 542.78,185.951 542.898,188.372 543.017,186.098 543.135,187.622 
  543.254,184.512 543.372,186.547 543.49,185.04 543.609,186.512 543.727,185.889 543.846,186.192 543.964,184.66 544.082,185.231 544.201,185.773 544.319,186.273 
  544.438,186.72 544.556,187.016 544.675,187.115 544.793,186.936 544.911,186.741 545.03,186.617 545.148,186.637 545.267,186.744 545.385,186.886 545.503,187.023 
  545.622,187.139 545.74,187.233 545.859,187.306 545.977,187.359 546.095,187.404 546.214,187.46 546.332,187.553 546.451,187.717 546.569,185.096 546.687,182.119 
  546.806,185.042 546.924,185.625 547.043,186.514 547.161,185.435 547.279,184.358 547.398,187.139 547.516,186.547 547.635,189.959 547.753,187.142 547.871,186.51 
  547.99,181.965 548.108,187.411 548.227,185.752 548.345,184.949 548.464,183.339 548.582,187.296 548.7,182.892 548.819,186.318 548.937,184.246 549.056,187.989 
  549.174,183.395 549.292,181.75 549.411,185.371 549.529,181.673 549.648,183.997 549.766,186.227 549.884,187.079 550.003,191.322 550.121,189.137 550.24,191.036 
  550.358,192.489 550.476,188.839 550.595,188.731 550.713,189.093 550.832,189.097 550.95,189.838 551.068,185.064 551.187,187.653 551.305,187.414 551.424,185.025 
  551.542,186.787 551.661,184.354 551.779,188.262 551.897,186.119 552.016,186.297 552.134,186.686 552.253,186.494 552.371,185.647 552.489,184.881 552.608,185.302 
  552.726,184.631 552.845,185.126 552.963,185.534 553.081,185.967 553.2,186.33 553.318,186.668 553.437,186.913 553.555,187.051 553.673,187.1 553.792,187.107 
  553.91,187.082 554.029,187.048 554.147,186.999 554.265,186.959 554.384,186.95 554.502,187.023 554.621,187.159 554.739,187.322 554.857,187.524 554.976,185.285 
  555.094,185.139 555.213,186.538 555.331,186.198 555.45,187.029 555.568,186.794 555.686,187.116 555.805,187.43 555.923,186.848 556.042,185.245 556.16,186.517 
  556.278,185.806 556.397,185.879 556.515,184.568 556.634,188.093 556.752,187.117 556.87,187.749 556.989,185.724 557.107,189.458 557.226,185.432 557.344,187.918 
  557.462,188.108 557.581,190.771 557.699,189.909 557.818,189.853 557.936,185.137 558.054,187.106 558.173,188.694 558.291,189.756 558.41,185.274 558.528,180.528 
  558.647,175.685 558.765,174.97 558.883,176.632 559.002,181.371 559.12,180.91 559.239,184.987 559.357,186.26 559.475,184.05 559.594,186.806 559.712,185.551 
  559.831,186.815 559.949,187.479 560.067,185.992 560.186,186.109 560.304,187.669 560.423,186.647 560.541,186.465 560.659,185.406 560.778,186.28 560.896,185.786 
  561.015,186.194 561.133,185.266 561.251,184.515 561.37,186.244 561.488,184.271 561.607,184.879 561.725,185.46 561.843,185.966 561.962,186.414 562.08,186.774 
  562.199,187.041 562.317,187.004 562.436,186.824 562.554,186.652 562.672,186.61 562.791,186.692 562.909,186.834 563.028,186.978 563.146,187.101 563.264,187.198 
  563.383,187.272 563.501,187.329 563.62,187.373 563.738,187.42 563.856,187.488 563.975,187.604 564.093,186.302 564.212,185.226 564.33,184.336 564.448,184.356 
  564.567,185.115 564.685,183.595 564.804,184.153 564.922,187.509 565.04,186.287 565.159,186.996 565.277,188.149 565.396,187.227 565.514,184.925 565.633,184.495 
  565.751,186.131 565.869,184.215 565.988,182.553 566.106,181.926 566.225,186.329 566.343,184.917 566.461,179.599 566.58,181.434 566.698,181.504 566.817,180.025 
  566.935,181.177 567.053,176.312 567.172,184.264 567.29,188.576 567.409,186.581 567.527,192.107 567.645,189.612 567.764,193.774 567.882,191.864 568.001,190.066 
  568.119,189.286 568.237,188.344 568.356,187.565 568.474,189.758 568.593,188.318 568.711,186.533 568.829,186.919 568.948,186.032 569.066,187.085 569.185,187.144 
  569.303,187.308 569.422,185.972 569.54,185.991 569.658,186.433 569.777,187.031 569.895,187.076 570.014,186.728 570.132,185.787 570.25,184.388 570.369,184.931 
  570.487,185.48 570.606,185.961 570.724,186.363 570.842,186.648 570.961,186.882 571.079,186.967 571.198,187.014 571.316,186.996 571.434,187.003 571.553,187.012 
  571.671,186.99 571.79,186.973 571.908,186.989 572.026,187.036 572.145,187.134 572.263,187.258 572.382,187.388 572.5,187.55 572.619,185.524 572.737,185.699 
  572.855,183.556 572.974,184.723 573.092,184.767 573.211,186.215 573.329,187.273 573.447,183.688 573.566,186.989 573.684,184.732 573.803,187.719 573.921,184.005 
  574.039,185.079 574.158,182.491 574.276,185.839 574.395,188.064 574.513,188.96 574.631,188.778 574.75,187.568 574.868,184.81 574.987,187.375 575.105,185.878 
  575.223,192.843 575.342,196.918 575.46,188.773 575.579,187.054 575.697,185.477 575.816,179.568 575.934,179.59 576.052,180.529 576.171,177.508 576.289,178.352 
  576.408,186.145 576.526,184.259 576.644,184.46 576.763,183.826 576.881,185.672 577,183.022 577.118,185.95 577.236,185.422 577.355,186.986 577.473,183.534 
  577.592,187.607 577.71,187.628 577.828,186.31 577.947,187.046 578.065,185.076 578.184,182.625 578.302,186.244 578.42,186.252 578.539,185.437 578.657,185.474 
  578.776,186.715 578.894,185.478 579.012,185.612 579.131,184.395 579.249,184.849 579.368,185.269 579.486,185.757 579.605,186.279 579.723,186.628 579.841,186.858 
  579.96,186.724 580.078,186.544 580.197,186.42 580.315,186.482 
  "/>
</svg>
