<?xml version="1.0" encoding="utf-8"?>
<svg xmlns="http://www.w3.org/2000/svg" xmlns:xlink="http://www.w3.org/1999/xlink" width="600" height="400" viewBox="0 0 600 400">
<defs>
  <clipPath id="clip00">
    <rect x="0" y="0" width="600" height="400"/>
  </clipPath>
</defs>
<polygon clip-path="url(#clip00)" points="
0,400 600,400 600,0 0,0 
  " fill="#ffffff" fill-opacity="1"/>
<defs>
  <clipPath id="clip01">
    <rect x="120" y="0" width="421" height="400"/>
  </clipPath>
</defs>
<polygon clip-path="url(#clip00)" points="
62.5219,357.163 580.315,357.163 580.315,15.748 62.5219,15.748 
  " fill="#ffffff" fill-opacity="1"/>
<defs>
  <clipPath id="clip02">
    <rect x="62" y="15" width="518" height="342"/>
  </clipPath>
</defs>
<g clip-path="url(#clip00)">
<text style="fill:#00002d; fill-opacity:1; font-family:Arial; font-size:12; text-anchor:start;" transform="rotate(0, 33.7132, 363.095)" x="33.7132" y="363.095">10</text>
</g>
<g clip-path="url(#clip00)">
<text style="fill:#00002d; fill-opacity:1; font-family:Arial; font-size:10; text-anchor:start;" transform="rotate(0, 46.8924, 356.242)" x="46.8924" y="356.242">-</text>
</g>
<g clip-path="url(#clip00)">
<text style="fill:#00002d; fill-opacity:1; font-family:Arial; font-size:10; text-anchor:start;" transform="rotate(0, 52.5161, 356.242)" x="52.5161" y="356.242">2</text>
</g>
<g clip-path="url(#clip00)">
<text style="fill:#00002d; fill-opacity:1; font-family:Arial; font-size:12; text-anchor:start;" transform="rotate(0, 33.7132, 325.16)" x="33.7132" y="325.16">10</text>
</g>
<g clip-path="url(#clip00)">
<text style="fill:#00002d; fill-opacity:1; font-family:Arial; font-size:10; text-anchor:start;" transform="rotate(0, 46.8924, 318.307)" x="46.8924" y="318.307">-</text>
</g>
<g clip-path="url(#clip00)">
<text style="fill:#00002d; fill-opacity:1; font-family:Arial; font-size:10; text-anchor:start;" transform="rotate(0, 52.5161, 318.307)" x="52.5161" y="318.307">1</text>
</g>
<g clip-path="url(#clip00)">
<text style="fill:#00002d; fill-opacity:1; font-family:Arial; font-size:12; text-anchor:start;" transform="rotate(0, 39.3369, 287.225)" x="39.3369" y="287.225">10</text>
</g>
<g clip-path="url(#clip00)">
<text style="fill:#00002d; fill-opacity:1; font-family:Arial; font-size:10; text-anchor:start;" transform="rotate(0, 52.5161, 280.372)" x="52.5161" y="280.372">0</text>
</g>
<g clip-path="url(#clip00)">
<text style="fill:#00002d; fill-opacity:1; font-family:Arial; font-size:12; text-anchor:start;" transform="rotate(0, 39.3369, 249.29)" x="39.3369" y="249.29">10</text>
</g>
<g clip-path="url(#clip00)">
<text style="fill:#00002d; fill-opacity:1; font-family:Arial; font-size:10; text-anchor:start;" transform="rotate(0, 52.5161, 242.437)" x="52.5161" y="242.437">1</text>
</g>
<g clip-path="url(#clip00)">
<text style="fill:#00002d; fill-opacity:1; font-family:Arial; font-size:12; text-anchor:start;" transform="rotate(0, 39.3369, 211.355)" x="39.3369" y="211.355">10</text>
</g>
<g clip-path="url(#clip00)">
<text style="fill:#00002d; fill-opacity:1; font-family:Arial; font-size:10; text-anchor:start;" transform="rotate(0, 52.5161, 204.502)" x="52.5161" y="204.502">2</text>
</g>
<g clip-path="url(#clip00)">
<text style="fill:#00002d; fill-opacity:1; font-family:Arial; font-size:12; text-anchor:start;" transform="rotate(0, 39.3369, 173.42)" x="39.3369" y="173.42">10</text>
</g>
<g clip-path="url(#clip00)">
<text style="fill:#00002d; fill-opacity:1; font-family:Arial; font-size:10; text-anchor:start;" transform="rotate(0, 52.5161, 166.567)" x="52.5161" y="166.567">3</text>
</g>
<g clip-path="url(#clip00)">
<text style="fill:#00002d; fill-opacity:1; font-family:Arial; font-size:12; text-anchor:start;" transform="rotate(0, 39.3369, 135.485)" x="39.3369" y="135.485">10</text>
</g>
<g clip-path="url(#clip00)">
<text style="fill:#00002d; fill-opacity:1; font-family:Arial; font-size:10; text-anchor:start;" transform="rotate(0, 52.5161, 128.632)" x="52.5161" y="128.632">4</text>
</g>
<g clip-path="url(#clip00)">
<text style="fill:#00002d; fill-opacity:1; font-family:Arial; font-size:12; text-anchor:start;" transform="rotate(0, 39.3369, 97.55)" x="39.3369" y="97.55">10</text>
</g>
<g clip-path="url(#clip00)">
<text style="fill:#00002d; fill-opacity:1; font-family:Arial; font-size:10; text-anchor:start;" transform="rotate(0, 52.5161, 90.6974)" x="52.5161" y="90.6974">5</text>
</g>
<g clip-path="url(#clip00)">
<text style="fill:#00002d; fill-opacity:1; font-family:Arial; font-size:12; text-anchor:start;" transform="rotate(0, 39.3369, 59.6149)" x="39.3369" y="59.6149">10</text>
</g>
<g clip-path="url(#clip00)">
<text style="fill:#00002d; fill-opacity:1; font-family:Arial; font-size:10; text-anchor:start;" transform="rotate(0, 52.5161, 52.7623)" x="52.5161" y="52.7623">6</text>
</g>
<g clip-path="url(#clip00)">
<text style="fill:#00002d; fill-opacity:1; font-family:Arial; font-size:12; text-anchor:start;" transform="rotate(0, 39.3369, 21.6799)" x="39.3369" y="21.6799">10</text>
</g>
<g clip-path="url(#clip00)">
<text style="fill:#00002d; fill-opacity:1; font-family:Arial; font-size:10; text-anchor:start;" transform="rotate(0, 52.5161, 14.8273)" x="52.5161" y="14.8273">7</text>
</g>
<polyline clip-path="url(#clip00)" style="stroke:#00002d; stroke-width:0.8; stroke-opacity:1; fill:none" points="
  62.5219,357.163 62.5219,357.163 71.8252,357.163 62.5219,357.163 62.5219,345.744 67.1735,345.744 62.5219,345.744 62.5219,339.064 67.1735,339.064 62.5219,339.064 
  62.5219,334.324 67.1735,334.324 62.5219,334.324 62.5219,330.648 67.1735,330.648 62.5219,330.648 62.5219,327.644 67.1735,327.644 62.5219,327.644 62.5219,325.104 
  67.1735,325.104 62.5219,325.104 62.5219,322.904 67.1735,322.904 62.5219,322.904 62.5219,320.964 67.1735,320.964 62.5219,320.964 62.5219,319.228 67.1735,319.228 
  62.5219,319.228 71.8252,319.228 62.5219,319.228 62.5219,307.809 67.1735,307.809 62.5219,307.809 62.5219,301.129 67.1735,301.129 62.5219,301.129 
  62.5219,296.389 67.1735,296.389 62.5219,296.389 62.5219,292.713 67.1735,292.713 62.5219,292.713 62.5219,289.709 67.1735,289.709 62.5219,289.709 62.5219,287.169 
  67.1735,287.169 62.5219,287.169 62.5219,284.969 67.1735,284.969 62.5219,284.969 62.5219,283.029 67.1735,283.029 62.5219,283.029 62.5219,281.293 67.1735,281.293 
  62.5219,281.293 71.8252,281.293 62.5219,281.293 62.5219,269.874 67.1735,269.874 62.5219,269.874 62.5219,263.194 67.1735,263.194 62.5219,263.194 
  62.5219,258.454 67.1735,258.454 62.5219,258.454 62.5219,254.778 67.1735,254.778 62.5219,254.778 62.5219,251.774 67.1735,251.774 62.5219,251.774 62.5219,249.234 
  67.1735,249.234 62.5219,249.234 62.5219,247.034 67.1735,247.034 62.5219,247.034 62.5219,245.094 67.1735,245.094 62.5219,245.094 62.5219,243.358 67.1735,243.358 
  62.5219,243.358 71.8252,243.358 62.5219,243.358 62.5219,231.939 67.1735,231.939 62.5219,231.939 62.5219,225.259 67.1735,225.259 62.5219,225.259 
  62.5219,220.519 67.1735,220.519 62.5219,220.519 62.5219,216.843 67.1735,216.843 62.5219,216.843 62.5219,213.839 67.1735,213.839 62.5219,213.839 62.5219,211.299 
  67.1735,211.299 62.5219,211.299 62.5219,209.099 67.1735,209.099 62.5219,209.099 62.5219,207.159 67.1735,207.159 62.5219,207.159 62.5219,205.423 67.1735,205.423 
  62.5219,205.423 71.8252,205.423 62.5219,205.423 62.5219,194.004 67.1735,194.004 62.5219,194.004 62.5219,187.324 67.1735,187.324 62.5219,187.324 
  62.5219,182.584 67.1735,182.584 62.5219,182.584 62.5219,178.908 67.1735,178.908 62.5219,178.908 62.5219,175.904 67.1735,175.904 62.5219,175.904 62.5219,173.364 
  67.1735,173.364 62.5219,173.364 62.5219,171.164 67.1735,171.164 62.5219,171.164 62.5219,169.224 67.1735,169.224 62.5219,169.224 62.5219,167.488 67.1735,167.488 
  62.5219,167.488 71.8252,167.488 62.5219,167.488 62.5219,156.069 67.1735,156.069 62.5219,156.069 62.5219,149.388 67.1735,149.388 62.5219,149.388 
  62.5219,144.649 67.1735,144.649 62.5219,144.649 62.5219,140.973 67.1735,140.973 62.5219,140.973 62.5219,137.969 67.1735,137.969 62.5219,137.969 62.5219,135.429 
  67.1735,135.429 62.5219,135.429 62.5219,133.229 67.1735,133.229 62.5219,133.229 62.5219,131.289 67.1735,131.289 62.5219,131.289 62.5219,129.553 67.1735,129.553 
  62.5219,129.553 71.8252,129.553 62.5219,129.553 62.5219,118.133 67.1735,118.133 62.5219,118.133 62.5219,111.453 67.1735,111.453 62.5219,111.453 
  62.5219,106.714 67.1735,106.714 62.5219,106.714 62.5219,103.038 67.1735,103.038 62.5219,103.038 62.5219,100.034 67.1735,100.034 62.5219,100.034 62.5219,97.4943 
  67.1735,97.4943 62.5219,97.4943 62.5219,95.2943 67.1735,95.2943 62.5219,95.2943 62.5219,93.3539 67.1735,93.3539 62.5219,93.3539 62.5219,91.6181 67.1735,91.6181 
  62.5219,91.6181 71.8252,91.6181 62.5219,91.6181 62.5219,80.1985 67.1735,80.1985 62.5219,80.1985 62.5219,73.5185 67.1735,73.5185 62.5219,73.5185 
  62.5219,68.7789 67.1735,68.7789 62.5219,68.7789 62.5219,65.1026 67.1735,65.1026 62.5219,65.1026 62.5219,62.0989 67.1735,62.0989 62.5219,62.0989 62.5219,59.5593 
  67.1735,59.5593 62.5219,59.5593 62.5219,57.3593 67.1735,57.3593 62.5219,57.3593 62.5219,55.4189 67.1735,55.4189 62.5219,55.4189 62.5219,53.683 67.1735,53.683 
  62.5219,53.683 71.8252,53.683 62.5219,53.683 62.5219,42.2635 67.1735,42.2635 62.5219,42.2635 62.5219,35.5834 67.1735,35.5834 62.5219,35.5834 
  62.5219,30.8439 67.1735,30.8439 62.5219,30.8439 62.5219,27.1676 67.1735,27.1676 62.5219,27.1676 62.5219,24.1639 67.1735,24.1639 62.5219,24.1639 62.5219,21.6242 
  67.1735,21.6242 62.5219,21.6242 62.5219,19.4243 67.1735,19.4243 62.5219,19.4243 62.5219,17.4838 67.1735,17.4838 62.5219,17.4838 62.5219,15.748 67.1735,15.748 
  62.5219,15.748 71.8252,15.748 62.5219,15.748 
  "/>
<g clip-path="url(#clip00)">
<text style="fill:#00002d; fill-opacity:1; font-family:Arial; font-size:12; text-anchor:start;" transform="rotate(0, 59.2271, 372.528)" x="59.2271" y="372.528">0</text>
</g>
<g clip-path="url(#clip00)">
<text style="fill:#00002d; fill-opacity:1; font-family:Arial; font-size:12; text-anchor:start;" transform="rotate(0, 224.046, 372.528)" x="224.046" y="372.528">1</text>
</g>
<g clip-path="url(#clip00)">
<text style="fill:#00002d; fill-opacity:1; font-family:Arial; font-size:12; text-anchor:start;" transform="rotate(0, 388.864, 372.528)" x="388.864" y="372.528">2</text>
</g>
<g clip-path="url(#clip00)">
<text style="fill:#00002d; fill-opacity:1; font-family:Arial; font-size:12; text-anchor:start;" transform="rotate(0, 553.683, 372.528)" x="553.683" y="372.528">3</text>
</g>
<polyline clip-path="url(#clip00)" style="stroke:#00002d; stroke-width:0.8; stroke-opacity:1; fill:none" points="
  62.5219,357.163 62.5219,357.163 62.5219,347.86 62.5219,357.163 227.341,357.163 227.341,347.86 227.341,357.163 392.159,357.163 392.159,347.86 392.159,357.163 
  556.978,357.163 556.978,347.86 556.978,357.163 580.315,357.163 
  "/>
<polyline clip-path="url(#clip00)" style="stroke:#00002d; stroke-width:0.8; stroke-opacity:1; fill:none" points="
  580.315,357.163 580.315,357.163 571.012,357.163 580.315,357.163 580.315,345.744 575.663,345.744 580.315,345.744 580.315,339.064 575.663,339.064 580.315,339.064 
  580.315,334.324 575.663,334.324 580.315,334.324 580.315,330.648 575.663,330.648 580.315,330.648 580.315,327.644 575.663,327.644 580.315,327.644 580.315,325.104 
  575.663,325.104 580.315,325.104 580.315,322.904 575.663,322.904 580.315,322.904 580.315,320.964 575.663,320.964 580.315,320.964 580.315,319.228 575.663,319.228 
  580.315,319.228 571.012,319.228 580.315,319.228 580.315,307.809 575.663,307.809 580.315,307.809 580.315,301.129 575.663,301.129 580.315,301.129 
  580.315,296.389 575.663,296.389 580.315,296.389 580.315,292.713 575.663,292.713 580.315,292.713 580.315,289.709 575.663,289.709 580.315,289.709 580.315,287.169 
  575.663,287.169 580.315,287.169 580.315,284.969 575.663,284.969 580.315,284.969 580.315,283.029 575.663,283.029 580.315,283.029 580.315,281.293 575.663,281.293 
  580.315,281.293 571.012,281.293 580.315,281.293 580.315,269.874 575.663,269.874 580.315,269.874 580.315,263.194 575.663,263.194 580.315,263.194 
  580.315,258.454 575.663,258.454 580.315,258.454 580.315,254.778 575.663,254.778 580.315,254.778 580.315,251.774 575.663,251.774 580.315,251.774 580.315,249.234 
  575.663,249.234 580.315,249.234 580.315,247.034 575.663,247.034 580.315,247.034 580.315,245.094 575.663,245.094 580.315,245.094 580.315,243.358 575.663,243.358 
  580.315,243.358 571.012,243.358 580.315,243.358 580.315,231.939 575.663,231.939 580.315,231.939 580.315,225.259 575.663,225.259 580.315,225.259 
  580.315,220.519 575.663,220.519 580.315,220.519 580.315,216.843 575.663,216.843 580.315,216.843 580.315,213.839 575.663,213.839 580.315,213.839 580.315,211.299 
  575.663,211.299 580.315,211.299 580.315,209.099 575.663,209.099 580.315,209.099 580.315,207.159 575.663,207.159 580.315,207.159 580.315,205.423 575.663,205.423 
  580.315,205.423 571.012,205.423 580.315,205.423 580.315,194.004 575.663,194.004 580.315,194.004 580.315,187.324 575.663,187.324 580.315,187.324 
  580.315,182.584 575.663,182.584 580.315,182.584 580.315,178.908 575.663,178.908 580.315,178.908 580.315,175.904 575.663,175.904 580.315,175.904 580.315,173.364 
  575.663,173.364 580.315,173.364 580.315,171.164 575.663,171.164 580.315,171.164 580.315,169.224 575.663,169.224 580.315,169.224 580.315,167.488 575.663,167.488 
  580.315,167.488 571.012,167.488 580.315,167.488 580.315,156.069 575.663,156.069 580.315,156.069 580.315,149.388 575.663,149.388 580.315,149.388 
  580.315,144.649 575.663,144.649 580.315,144.649 580.315,140.973 575.663,140.973 580.315,140.973 580.315,137.969 575.663,137.969 580.315,137.969 580.315,135.429 
  575.663,135.429 580.315,135.429 580.315,133.229 575.663,133.229 580.315,133.229 580.315,131.289 575.663,131.289 580.315,131.289 580.315,129.553 575.663,129.553 
  580.315,129.553 571.012,129.553 580.315,129.553 580.315,118.133 575.663,118.133 580.315,118.133 580.315,111.453 575.663,111.453 580.315,111.453 
  580.315,106.714 575.663,106.714 580.315,106.714 580.315,103.038 575.663,103.038 580.315,103.038 580.315,100.034 575.663,100.034 580.315,100.034 580.315,97.4943 
  575.663,97.4943 580.315,97.4943 580.315,95.2943 575.663,95.2943 580.315,95.2943 580.315,93.3539 575.663,93.3539 580.315,93.3539 580.315,91.6181 575.663,91.6181 
  580.315,91.6181 571.012,91.6181 580.315,91.6181 580.315,80.1985 575.663,80.1985 580.315,80.1985 580.315,73.5185 575.663,73.5185 580.315,73.5185 
  580.315,68.7789 575.663,68.7789 580.315,68.7789 580.315,65.1026 575.663,65.1026 580.315,65.1026 580.315,62.0989 575.663,62.0989 580.315,62.0989 580.315,59.5593 
  575.663,59.5593 580.315,59.5593 580.315,57.3593 575.663,57.3593 580.315,57.3593 580.315,55.4189 575.663,55.4189 580.315,55.4189 580.315,53.683 575.663,53.683 
  580.315,53.683 571.012,53.683 580.315,53.683 580.315,42.2635 575.663,42.2635 580.315,42.2635 580.315,35.5834 575.663,35.5834 580.315,35.5834 
  580.315,30.8439 575.663,30.8439 580.315,30.8439 580.315,27.1676 575.663,27.1676 580.315,27.1676 580.315,24.1639 575.663,24.1639 580.315,24.1639 580.315,21.6242 
  575.663,21.6242 580.315,21.6242 580.315,19.4243 575.663,19.4243 580.315,19.4243 580.315,17.4838 575.663,17.4838 580.315,17.4838 580.315,15.748 575.663,15.748 
  580.315,15.748 571.012,15.748 580.315,15.748 
  "/>
<polyline clip-path="url(#clip00)" style="stroke:#00002d; stroke-width:0.8; stroke-opacity:1; fill:none" points="
  62.5219,15.748 62.5219,15.748 62.5219,25.0513 62.5219,15.748 227.341,15.748 227.341,25.0513 227.341,15.748 392.159,15.748 392.159,25.0513 392.159,15.748 
  556.978,15.748 556.978,25.0513 556.978,15.748 580.315,15.748 
  "/>
<g clip-path="url(#clip00)">
<text style="fill:#00002d; fill-opacity:1; font-family:Arial; font-size:16; text-anchor:middle;" transform="rotate(0, 321.418, 397.6)" x="321.418" y="397.6">Angular frequency</text>
</g>
<g clip-path="url(#clip00)">
<text style="fill:#00002d; fill-opacity:1; font-family:Arial; font-size:16; text-anchor:middle;" transform="rotate(-90, 14.4, 186.456)" x="14.4" y="186.456">Power</text>
</g>
<polyline clip-path="url(#clip02)" style="stroke:#0099ff; stroke-width:0.8; stroke-opacity:1; fill:none" points="
  62.5219,181.121 62.7587,172.983 62.9956,276.469 63.2325,155.796 63.4693,156.232 63.7062,200.819 63.9431,183.587 64.1799,178.021 64.4168,209.648 64.6537,185.316 
  64.8906,166.696 65.1274,196.073 65.3643,223.852 65.6012,158.5 65.838,230.735 66.0749,207.807 66.3118,229.576 66.5486,193.646 66.7855,198.184 67.0224,192.204 
  67.2592,197.509 67.4961,177.333 67.733,199.224 67.9698,177.773 68.2067,199.763 68.4436,196.274 68.6804,178.524 68.9173,218.468 69.1542,162.886 69.391,200.764 
  69.6279,178.654 69.8648,199.515 70.1016,167.601 70.3385,164.527 70.5754,197.558 70.8122,195.519 71.0491,219.41 71.286,185.077 71.5229,180.323 71.7597,230.822 
  71.9966,214.188 72.2335,223.618 72.4703,210.129 72.7072,243.071 72.9441,203.586 73.1809,191.659 73.4178,171.008 73.6547,175.968 73.8915,223.382 74.1284,170.132 
  74.3653,188.69 74.6021,171.026 74.839,200.068 75.0759,188.895 75.3127,179.765 75.5496,144.709 75.7865,177.616 76.0233,158.06 76.2602,131.896 76.4971,143.728 
  76.7339,149.196 76.9708,143.281 77.2077,178.915 77.4445,175.546 77.6814,174.024 77.9183,172.582 78.1551,208.497 78.392,240.609 78.6289,177.582 78.8658,218.437 
  79.1026,186.897 79.3395,203.672 79.5764,205.924 79.8132,209.042 80.0501,185.699 80.287,197.332 80.5238,221.971 80.7607,184.784 80.9976,197.83 81.2344,200.825 
  81.4713,185.164 81.7082,169.85 81.945,165.135 82.1819,169.907 82.4188,218.597 82.6556,171.704 82.8925,181.56 83.1294,151.452 83.3662,171.437 83.6031,178.729 
  83.84,157.082 84.0768,170.659 84.3137,183.814 84.5506,170.74 84.7874,195.63 85.0243,168.126 85.2612,172.216 85.4981,202.121 85.7349,190.875 85.9718,203.337 
  86.2087,192.682 86.4455,210.467 86.6824,229.729 86.9193,206.338 87.1561,212.051 87.393,202.651 87.6299,177.288 87.8667,193.21 88.1036,216.596 88.3405,247.721 
  88.5773,184.293 88.8142,203.98 89.0511,169.429 89.2879,167.426 89.5248,204.305 89.7617,148.614 89.9985,138.363 90.2354,238.542 90.4723,124.879 90.7091,141.144 
  90.946,146.301 91.1829,156.549 91.4197,141.23 91.6566,196.585 91.8935,172.859 92.1304,182.163 92.3672,181.613 92.6041,182.907 92.841,189.12 93.0778,184.648 
  93.3147,193.572 93.5516,183.106 93.7884,250.648 94.0253,190.261 94.2622,196.893 94.499,179.444 94.7359,199.199 94.9728,195.034 95.2096,191.364 95.4465,178.604 
  95.6834,167.781 95.9202,149.36 96.1571,163.226 96.394,168.484 96.6308,183.105 96.8677,168.781 97.1046,169.881 97.3414,181.001 97.5783,169.17 97.8152,147.622 
  98.052,195.042 98.2889,196.204 98.5258,167.397 98.7627,173.566 98.9995,160.417 99.2364,182.824 99.4733,207.888 99.7101,182.916 99.947,196.243 100.184,178.387 
  100.421,195.487 100.658,175.855 100.894,216.436 101.131,208.585 101.368,198.118 101.605,191.307 101.842,199.316 102.079,236.334 102.316,190.518 102.553,200.387 
  102.789,178.637 103.026,158.311 103.263,193.663 103.5,168.196 103.737,158.402 103.974,126.677 104.211,166.245 104.447,140.596 104.684,140.822 104.921,145.61 
  105.158,141.562 105.395,158.907 105.632,186.103 105.869,177.068 106.106,244.254 106.342,208.391 106.579,192.414 106.816,180.631 107.053,200.106 107.29,182.573 
  107.527,180.169 107.764,232.353 108,230.013 108.237,233.852 108.474,183.806 108.711,220.62 108.948,207.188 109.185,192.216 109.422,180.524 109.659,162.613 
  109.895,147.564 110.132,168.644 110.369,166.163 110.606,186.154 110.843,178.747 111.08,208.062 111.317,157.81 111.554,226.048 111.79,143.551 112.027,173.731 
  112.264,171.211 112.501,185.946 112.738,157.286 112.975,180.577 113.212,182.634 113.448,210.734 113.685,184.906 113.922,239.085 114.159,171.876 114.396,262.04 
  114.633,179.841 114.87,201.728 115.107,197.045 115.343,221.413 115.58,230.127 115.817,191.568 116.054,223.595 116.291,198.897 116.528,197.53 116.765,175.917 
  117.001,216.774 117.238,165.119 117.475,190.875 117.712,140.605 117.949,143.781 118.186,151.658 118.423,146.662 118.66,276.558 118.896,163.728 119.133,142.22 
  119.37,221.445 119.607,183.287 119.844,184.758 120.081,201.16 120.318,185.507 120.554,197.751 120.791,214.881 121.028,177.598 121.265,165.161 121.502,180.84 
  121.739,217.953 121.976,242.962 122.213,192.765 122.449,226.467 122.686,327.347 122.923,244.068 123.16,188.044 123.397,190.574 123.634,158.699 123.871,163.052 
  124.108,176.511 124.344,168.353 124.581,150.353 124.818,218.219 125.055,216.205 125.292,159.853 125.529,164.823 125.766,182.627 126.002,162.393 126.239,181.724 
  126.476,184.876 126.713,176.483 126.95,201.006 127.187,199.144 127.424,191.703 127.661,189.121 127.897,193.733 128.134,176.087 128.371,210.496 128.608,213.241 
  128.845,214.887 129.082,189.346 129.319,222.218 129.555,184.202 129.792,198.368 130.029,202.77 130.266,211.106 130.503,213.951 130.74,215.088 130.977,167.303 
  131.214,153.02 131.45,160.645 131.687,185.245 131.924,168.436 132.161,161.646 132.398,156.393 132.635,206.641 132.872,149.288 133.108,154.684 133.345,182.916 
  133.582,169.336 133.819,189.564 134.056,188.277 134.293,196.173 134.53,207.06 134.767,182.982 135.003,174.127 135.24,176.482 135.477,179.083 135.714,234.965 
  135.951,188.608 136.188,192.392 136.425,185.1 136.662,208.962 136.898,244.611 137.135,206.526 137.372,182.704 137.609,171.091 137.846,173.079 138.083,163.55 
  138.32,154.625 138.556,183.206 138.793,179.122 139.03,188.867 139.267,172.167 139.504,169.306 139.741,165.36 139.978,164.035 140.215,169.11 140.451,190.848 
  140.688,175.394 140.925,188.472 141.162,182.39 141.399,200.257 141.636,198.934 141.873,186.482 142.109,191.133 142.346,234.26 142.583,241.487 142.82,198.832 
  143.057,182.581 143.294,214.376 143.531,171.957 143.768,216.801 144.004,193.756 144.241,176.738 144.478,245.187 144.715,205.297 144.952,164.106 145.189,169.584 
  145.426,144.587 145.662,146.726 145.899,167.575 146.136,133.683 146.373,161.895 146.61,181.317 146.847,156.866 147.084,168.141 147.321,169.538 147.557,169.923 
  147.794,172.942 148.031,197.713 148.268,186.789 148.505,198.95 148.742,179.275 148.979,174.858 149.216,176.925 149.452,205.618 149.689,229.009 149.926,186.368 
  150.163,214.552 150.4,184.996 150.637,186.219 150.874,183.708 151.11,215.92 151.347,175.775 151.584,186.589 151.821,154.666 152.058,179.629 152.295,163.609 
  152.532,174.151 152.769,169.922 153.005,183.656 153.242,165.721 153.479,176.774 153.716,172.174 153.953,170.169 154.19,186.457 154.427,203.079 154.663,167.702 
  154.9,206.9 155.137,215.419 155.374,208.159 155.611,209.053 155.848,185.922 156.085,199.901 156.322,196.928 156.558,194.275 156.795,200.786 157.032,176.298 
  157.269,229.573 157.506,202.08 157.743,183.212 157.98,210.904 158.216,172.232 158.453,225.157 158.69,211.619 158.927,192.697 159.164,185.275 159.401,176.458 
  159.638,172.706 159.875,162.272 160.111,165.34 160.348,149.874 160.585,174.166 160.822,175.024 161.059,219.641 161.296,177.157 161.533,205.11 161.769,176.8 
  162.006,186.34 162.243,206.323 162.48,203.449 162.717,209.468 162.954,174.459 163.191,185.617 163.428,204.131 163.664,215.332 163.901,192.842 164.138,188.197 
  164.375,240.447 164.612,198.034 164.849,171.439 165.086,198.334 165.323,257.06 165.559,164.046 165.796,163.661 166.033,164.178 166.27,172.867 166.507,168.861 
  166.744,190.863 166.981,214.321 167.217,234.615 167.454,164.133 167.691,169.086 167.928,217.499 168.165,180.927 168.402,186.553 168.639,189.255 168.876,196.383 
  169.112,237.353 169.349,183.68 169.586,207.605 169.823,187.58 170.06,228.375 170.297,239.809 170.534,189.223 170.77,193.731 171.007,176.885 171.244,188.789 
  171.481,208.971 171.718,181.109 171.955,208.997 172.192,184.071 172.429,206.507 172.665,178.848 172.902,200.987 173.139,161.96 173.376,167.352 173.613,157.539 
  173.85,184.141 174.087,184.235 174.323,177.4 174.56,181.585 174.797,211.689 175.034,197.246 175.271,238.873 175.508,174.322 175.745,194.464 175.982,175.888 
  176.218,198.59 176.455,201.187 176.692,181.908 176.929,174.837 177.166,221.869 177.403,230.248 177.64,189.747 177.877,198.71 178.113,199.15 178.35,191.741 
  178.587,194.258 178.824,210.103 179.061,175.843 179.298,232.898 179.535,168.744 179.771,183.67 180.008,217.642 180.245,164.627 180.482,176.081 180.719,196.458 
  180.956,238.845 181.193,171.651 181.43,172.855 181.666,169.772 181.903,202.27 182.14,191.562 182.377,212.982 182.614,212.639 182.851,191.26 183.088,206.859 
  183.324,178.625 183.561,207.801 183.798,188.666 184.035,209.319 184.272,215.4 184.509,228.544 184.746,196.781 184.983,193.848 185.219,196.884 185.456,203.704 
  185.693,186.794 185.93,200.943 186.167,190.683 186.404,196.199 186.641,196.341 186.877,187.097 187.114,181.175 187.351,187.627 187.588,197.489 187.825,216.109 
  188.062,179.175 188.299,185.031 188.536,255.907 188.772,191.857 189.009,195.303 189.246,255.094 189.483,167.339 189.72,216.604 189.957,166.303 190.194,306.332 
  190.431,197.714 190.667,176.763 190.904,192.992 191.141,244.065 191.378,203.933 191.615,199.417 191.852,214.26 192.089,230.213 192.325,233.994 192.562,199.031 
  192.799,180.506 193.036,178.683 193.273,167.383 193.51,176.949 193.747,216.426 193.984,176.877 194.22,160.713 194.457,223.928 194.694,196.346 194.931,177.069 
  195.168,166.53 195.405,274.007 195.642,189.76 195.878,195.056 196.115,195.597 196.352,205.736 196.589,195.386 196.826,192.275 197.063,237.625 197.3,189.908 
  197.537,202.283 197.773,189.542 198.01,202.276 198.247,243.036 198.484,190.699 198.721,207.608 198.958,208.101 199.195,237.408 199.431,313.096 199.668,198.169 
  199.905,226.085 200.142,199.544 200.379,187.123 200.616,191.813 200.853,178.222 201.09,176.792 201.326,171.346 201.563,180.553 201.8,197.931 202.037,165.887 
  202.274,192.567 202.511,194.842 202.748,180.033 202.984,211.219 203.221,196.845 203.458,194.535 203.695,204.572 203.932,190.976 204.169,227.44 204.406,182.517 
  204.643,190.142 204.879,213.835 205.116,251.371 205.353,242.038 205.59,225.157 205.827,229.087 206.064,202.587 206.301,206.69 206.538,192.488 206.774,169.073 
  207.011,208.659 207.248,166.548 207.485,187.712 207.722,196.689 207.959,175.174 208.196,186.475 208.432,189.497 208.669,203.257 208.906,172.62 209.143,202.177 
  209.38,186.736 209.617,207.316 209.854,189.587 210.091,209.63 210.327,174.115 210.564,182.084 210.801,194.2 211.038,218.592 211.275,207.233 211.512,194.542 
  211.749,206.995 211.985,219.118 212.222,215.839 212.459,178.718 212.696,198.402 212.933,203.059 213.17,216.483 213.407,199.317 213.644,188.608 213.88,234.252 
  214.117,197.832 214.354,194.474 214.591,219.471 214.828,186.652 215.065,196.488 215.302,195.821 215.538,222.923 215.775,189.934 216.012,195.705 216.249,252.307 
  216.486,213.125 216.723,232.511 216.96,195.322 217.197,199.497 217.433,227.879 217.67,188.395 217.907,194.073 218.144,205.216 218.381,187.727 218.618,197.072 
  218.855,217.097 219.092,205.83 219.328,201.917 219.565,225.3 219.802,259.061 220.039,214.937 220.276,207.199 220.513,193.401 220.75,168.686 220.986,192.558 
  221.223,169.171 221.46,193.384 221.697,212.618 221.934,218.139 222.171,223.331 222.408,196.933 222.645,192.391 222.881,190.737 223.118,209.696 223.355,184.221 
  223.592,185.152 223.829,187.392 224.066,202.734 224.303,174.921 224.539,189.794 224.776,255.959 225.013,211.266 225.25,220.459 225.487,215.658 225.724,239.009 
  225.961,221.102 226.198,200.638 226.434,200.239 226.671,196.998 226.908,241.061 227.145,212.04 227.382,188.638 227.619,217.121 227.856,250.91 228.092,205.707 
  228.329,211.726 228.566,202.726 228.803,187.169 229.04,198.653 229.277,193.839 229.514,195.799 229.751,206.759 229.987,187.77 230.224,208.448 230.461,213.82 
  230.698,241.918 230.935,240.723 231.172,212.106 231.409,208.246 231.646,190.637 231.882,207.707 232.119,188.16 232.356,189.724 232.593,224.149 232.83,235.297 
  233.067,202.451 233.304,187.44 233.54,200.497 233.777,219.152 234.014,194.626 234.251,208.117 234.488,185.37 234.725,211.036 234.962,180.62 235.199,185.556 
  235.435,224.534 235.672,212.69 235.909,227.135 236.146,232.245 236.383,226.612 236.62,211.83 236.857,199.157 237.093,205.791 237.33,196.826 237.567,190.23 
  237.804,210.434 238.041,192.534 238.278,193.858 238.515,205.665 238.752,204.726 238.988,198.82 239.225,241.958 239.462,233.862 239.699,235.689 239.936,236.644 
  240.173,213.388 240.41,205.418 240.646,231.043 240.883,217.319 241.12,196.236 241.357,222.923 241.594,198.336 241.831,223.521 242.068,190.494 242.305,192.498 
  242.541,202.834 242.778,208.43 243.015,210.809 243.252,194.554 243.489,237.696 243.726,209.041 243.963,201.879 244.2,256.432 244.436,217.762 244.673,221.022 
  244.91,230.852 245.147,204.424 245.384,229.295 245.621,231.305 245.858,198.052 246.094,192.098 246.331,190.605 246.568,207.499 246.805,243.877 247.042,220.425 
  247.279,185.205 247.516,197.465 247.753,209.994 247.989,227.868 248.226,212.903 248.463,201.465 248.7,207.515 248.937,196.968 249.174,197.766 249.411,203.761 
  249.647,215.926 249.884,206.331 250.121,209.954 250.358,255.325 250.595,203.433 250.832,200.369 251.069,201.586 251.306,210.882 251.542,211.895 251.779,224.444 
  252.016,192.656 252.253,218.411 252.49,182.453 252.727,219.114 252.964,190.958 253.2,217.75 253.437,242.158 253.674,209.01 253.911,228.59 254.148,241.075 
  254.385,199.02 254.622,243.548 254.859,217.823 255.095,198.044 255.332,231.185 255.569,195.417 255.806,219.048 256.043,200.872 256.28,205.788 256.517,239.145 
  256.753,239.748 256.99,234.054 257.227,227.81 257.464,225.884 257.701,216.439 257.938,211.075 258.175,237.546 258.412,225.976 258.648,220.104 258.885,229.029 
  259.122,225.895 259.359,218.768 259.596,243.945 259.833,207.161 260.07,201.056 260.307,212.963 260.543,212.475 260.78,195.621 261.017,229.837 261.254,201.385 
  261.491,231.212 261.728,213.417 261.965,219.17 262.201,264.174 262.438,197.021 262.675,242.025 262.912,236.248 263.149,212.331 263.386,198.453 263.623,223.39 
  263.86,216.361 264.096,198.961 264.333,205.903 264.57,206.986 264.807,224.626 265.044,203.113 265.281,218.185 265.518,204.478 265.754,218.003 265.991,237.953 
  266.228,202.494 266.465,207.842 266.702,199.003 266.939,194.672 267.176,203.712 267.413,226.583 267.649,217.522 267.886,266.793 268.123,211.034 268.36,261.845 
  268.597,218.153 268.834,200.595 269.071,202.761 269.307,222.179 269.544,213.062 269.781,226.157 270.018,251.846 270.255,223.737 270.492,252.936 270.729,219.26 
  270.966,198.561 271.202,252.898 271.439,198.497 271.676,256.99 271.913,214.733 272.15,202.723 272.387,209.87 272.624,239.305 272.861,217.547 273.097,192.824 
  273.334,204.795 273.571,201.609 273.808,222.785 274.045,201.543 274.282,231.445 274.519,227.525 274.755,200.43 274.992,203.081 275.229,218.493 275.466,213.685 
  275.703,221.574 275.94,216.909 276.177,202.831 276.414,193.056 276.65,210.509 276.887,213.87 277.124,225.101 277.361,242.598 277.598,227.637 277.835,213.545 
  278.072,239.697 278.308,215.785 278.545,248.464 278.782,269.376 279.019,190.137 279.256,251.137 279.493,200.075 279.73,219.219 279.967,225.47 280.203,194.855 
  280.44,211.11 280.677,188.937 280.914,238.606 281.151,236.462 281.388,210.847 281.625,228.036 281.861,217.626 282.098,225.61 282.335,222.142 282.572,187.332 
  282.809,203.281 283.046,241.675 283.283,213.874 283.52,225.758 283.756,283.157 283.993,217.224 284.23,200.404 284.467,211.105 284.704,193.454 284.941,190.544 
  285.178,206.068 285.415,198.168 285.651,284.896 285.888,223.884 286.125,197.285 286.362,206.276 286.599,244.698 286.836,220.142 287.073,188.969 287.309,205.84 
  287.546,212.113 287.783,219.38 288.02,232.713 288.257,226.531 288.494,221.594 288.731,207.461 288.968,206.781 289.204,244.17 289.441,210.371 289.678,230.382 
  289.915,221.441 290.152,192.352 290.389,203.817 290.626,222.867 290.862,194.976 291.099,222.909 291.336,219.687 291.573,229.225 291.81,202.806 292.047,215.313 
  292.284,216.636 292.521,214.41 292.757,221.534 292.994,199.082 293.231,240.943 293.468,193.508 293.705,222.543 293.942,215.172 294.179,230.551 294.415,208.816 
  294.652,217.008 294.889,227.003 295.126,294.543 295.363,219.716 295.6,222.549 295.837,197.059 296.074,239.998 296.31,211.493 296.547,189.518 296.784,265.048 
  297.021,223.032 297.258,230.328 297.495,209.664 297.732,236.176 297.969,207.125 298.205,202.487 298.442,213.736 298.679,209.964 298.916,216.035 299.153,233.949 
  299.39,245.793 299.627,223.278 299.863,221.296 300.1,202.551 300.337,203.076 300.574,203.265 300.811,197.587 301.048,193.177 301.285,185.403 301.522,213.329 
  301.758,233.917 301.995,233.546 302.232,224.766 302.469,212.567 302.706,209.557 302.943,207.939 303.18,221.931 303.416,215.505 303.653,202.607 303.89,206.151 
  304.127,214.667 304.364,208.136 304.601,213.522 304.838,198.57 305.075,239.684 305.311,214.479 305.548,212.523 305.785,214.56 306.022,226.795 306.259,202.325 
  306.496,211.318 306.733,214.223 306.969,207.891 307.206,264.586 307.443,237.625 307.68,209.851 307.917,206.857 308.154,262.363 308.391,207.621 308.628,212.724 
  308.864,249.305 309.101,238.488 309.338,208.659 309.575,236.357 309.812,193.812 310.049,246.255 310.286,208.304 310.522,285.04 310.759,240.47 310.996,211.089 
  311.233,222.447 311.47,212.512 311.707,264.059 311.944,249.857 312.181,236.031 312.417,210.374 312.654,215.821 312.891,220.658 313.128,218.78 313.365,247.977 
  313.602,221.866 313.839,204.599 314.076,202.023 314.312,199.019 314.549,204.421 314.786,213.985 315.023,226.943 315.26,247.903 315.497,219.076 315.734,215.815 
  315.97,245.523 316.207,223.206 316.444,210.363 316.681,203.694 316.918,203.919 317.155,209.953 317.392,209.431 317.629,202.286 317.865,215.999 318.102,205.599 
  318.339,197.266 318.576,228.812 318.813,240.257 319.05,217.193 319.287,232.44 319.523,229.489 319.76,206.138 319.997,216.64 320.234,217.979 320.471,204.429 
  320.708,218.006 320.945,216.013 321.182,220.322 321.418,217.72 321.655,216.759 321.892,208.418 322.129,219.311 322.366,235.876 322.603,238.995 322.84,242.033 
  323.076,218.187 323.313,202.261 323.55,209.045 323.787,227.469 324.024,216.593 324.261,206.931 324.498,252.353 324.735,219.794 324.971,215.08 325.208,211.316 
  325.445,236.197 325.682,227.324 325.919,229.794 326.156,211.706 326.393,217.97 326.63,200.814 326.866,196.899 327.103,226.63 327.34,197.747 327.577,202.252 
  327.814,205.736 328.051,247.892 328.288,225.972 328.524,218.115 328.761,205.424 328.998,242.834 329.235,227.528 329.472,212.752 329.709,251.868 329.946,236.723 
  330.183,217.697 330.419,203.435 330.656,198.407 330.893,247.617 331.13,213.382 331.367,193.29 331.604,205.835 331.841,204.978 332.077,204.003 332.314,226.775 
  332.551,215.006 332.788,237.077 333.025,213.963 333.262,239.254 333.499,205.449 333.736,198.542 333.972,194.433 334.209,227.495 334.446,237.471 334.683,242.658 
  334.92,202.886 335.157,254.929 335.394,190.474 335.63,213.259 335.867,232.204 336.104,209.774 336.341,231.912 336.578,229.41 336.815,211.807 337.052,209.801 
  337.289,224.569 337.525,214.109 337.762,219.918 337.999,222.289 338.236,200.822 338.473,237.802 338.71,246.547 338.947,207.393 339.184,244.187 339.42,204.266 
  339.657,210.716 339.894,224.439 340.131,203.932 340.368,218.346 340.605,194.143 340.842,215.826 341.078,247.988 341.315,207.482 341.552,203.507 341.789,224.751 
  342.026,224.483 342.263,205.238 342.5,194.859 342.737,230.034 342.973,296.407 343.21,197.727 343.447,246.42 343.684,230.198 343.921,258.043 344.158,240.057 
  344.395,205.505 344.631,243.476 344.868,243.97 345.105,207.487 345.342,193.345 345.579,202.507 345.816,235.266 346.053,247.292 346.29,240.735 346.526,235.297 
  346.763,219.884 347,206.542 347.237,278.963 347.474,245.112 347.711,193.907 347.948,201.615 348.184,232.893 348.421,222.471 348.658,226.913 348.895,212.181 
  349.132,269.057 349.369,196.705 349.606,218.343 349.843,217.53 350.079,203.7 350.316,219.571 350.553,231.396 350.79,226.584 351.027,244.983 351.264,220.367 
  351.501,241.922 351.737,237.09 351.974,242.254 352.211,213.642 352.448,227.528 352.685,243.816 352.922,242.676 353.159,230.217 353.396,196.01 353.632,233.619 
  353.869,212.212 354.106,203.794 354.343,227.216 354.58,201.242 354.817,272.076 355.054,210.421 355.291,213.505 355.527,239.98 355.764,209.587 356.001,217.92 
  356.238,216.37 356.475,222.327 356.712,222.639 356.949,206.902 357.185,244.047 357.422,202.795 357.659,261.994 357.896,236.352 358.133,249.003 358.37,238.687 
  358.607,200.288 358.844,210.022 359.08,213.394 359.317,202.837 359.554,215.527 359.791,213.377 360.028,235.223 360.265,253.312 360.502,219.764 360.738,244.279 
  360.975,232.249 361.212,239.369 361.449,201.504 361.686,210.202 361.923,198.416 362.16,218.94 362.397,292.869 362.633,201.459 362.87,233.903 363.107,222.564 
  363.344,216.637 363.581,202.381 363.818,215.419 364.055,212.234 364.291,234.599 364.528,220.792 364.765,233.273 365.002,240.756 365.239,217.212 365.476,253.435 
  365.713,255.756 365.95,209.635 366.186,245.746 366.423,263.104 366.66,209.063 366.897,211.403 367.134,255.906 367.371,219.128 367.608,212.773 367.845,213.429 
  368.081,246.245 368.318,185.768 368.555,204.85 368.792,210.157 369.029,200.282 369.266,226.087 369.503,228.884 369.739,225.276 369.976,207.029 370.213,211.823 
  370.45,229.83 370.687,196.026 370.924,267.915 371.161,227.116 371.398,206.434 371.634,214.599 371.871,208.517 372.108,232.708 372.345,265.254 372.582,254.211 
  372.819,196.395 373.056,242.84 373.292,208.439 373.529,211.539 373.766,205.494 374.003,228.664 374.24,210.261 374.477,221.179 374.714,225.725 374.951,218.266 
  375.187,212.332 375.424,213.205 375.661,209.027 375.898,261.98 376.135,218.135 376.372,222.615 376.609,220.174 376.845,212.845 377.082,228.469 377.319,230.825 
  377.556,200.224 377.793,246.132 378.03,217.265 378.267,234.663 378.504,284.79 378.74,217.462 378.977,218.407 379.214,218.156 379.451,203.827 379.688,260.943 
  379.925,207.08 380.162,247.409 380.399,219.055 380.635,204.362 380.872,214.039 381.109,252.565 381.346,219.645 381.583,191.174 381.82,209.103 382.057,202.613 
  382.293,191.19 382.53,229.761 382.767,203.333 383.004,208.288 383.241,205.775 383.478,223.436 383.715,200.883 383.952,197.92 384.188,205.944 384.425,225.598 
  384.662,209.514 384.899,207.467 385.136,271.507 385.373,241.687 385.61,227.5 385.846,235.133 386.083,234.064 386.32,223.122 386.557,221.783 386.794,252.728 
  387.031,243.538 387.268,208.323 387.505,254.059 387.741,189.67 387.978,220.846 388.215,240.448 388.452,224.126 388.689,227.821 388.926,227.308 389.163,250.211 
  389.399,247.729 389.636,229.058 389.873,202.884 390.11,217.354 390.347,218.606 390.584,233.346 390.821,211.454 391.058,233.233 391.294,246.082 391.531,207.607 
  391.768,218.076 392.005,260.46 392.242,229.52 392.479,212.585 392.716,231.554 392.953,224.006 393.189,214.38 393.426,258.484 393.663,238.913 393.9,196.164 
  394.137,207.385 394.374,226.859 394.611,255.618 394.847,212.766 395.084,240.493 395.321,210.375 395.558,214.152 395.795,212.953 396.032,197.994 396.269,220.579 
  396.506,228.3 396.742,219.636 396.979,227.555 397.216,213.811 397.453,234.278 397.69,225.327 397.927,217.382 398.164,212.146 398.4,252.683 398.637,223.038 
  398.874,216.176 399.111,218.922 399.348,213.361 399.585,203.028 399.822,223.877 400.059,232.913 400.295,197.406 400.532,229.297 400.769,217.406 401.006,215.175 
  401.243,217.701 401.48,232.566 401.717,190.206 401.953,239.006 402.19,232.849 402.427,233.687 402.664,198.757 402.901,238.749 403.138,222.775 403.375,231.591 
  403.612,229.087 403.848,214.726 404.085,208.542 404.322,206.279 404.559,217.242 404.796,209.402 405.033,215.91 405.27,210.112 405.506,207.852 405.743,252.963 
  405.98,227.802 406.217,283.851 406.454,238.697 406.691,228.259 406.928,202.107 407.165,293.958 407.401,220.601 407.638,242.293 407.875,199.367 408.112,221.413 
  408.349,275.077 408.586,237.169 408.823,214.536 409.06,225.969 409.296,217.672 409.533,205.593 409.77,317.445 410.007,200.668 410.244,223.747 410.481,225.201 
  410.718,233.13 410.954,205.893 411.191,204.623 411.428,213.013 411.665,235.511 411.902,213.35 412.139,227.372 412.376,211.847 412.613,218.785 412.849,198.48 
  413.086,237.747 413.323,203.076 413.56,194.377 413.797,269.746 414.034,245.42 414.271,215.885 414.507,234.247 414.744,222.086 414.981,183.179 415.218,227.631 
  415.455,258.871 415.692,204.657 415.929,237.049 416.166,213.34 416.402,201.498 416.639,205.394 416.876,220.074 417.113,264.524 417.35,261.99 417.587,264.789 
  417.824,201.605 418.06,204.478 418.297,193.734 418.534,215.323 418.771,205.857 419.008,231.215 419.245,212.56 419.482,262.244 419.719,228.872 419.955,213.178 
  420.192,218.531 420.429,213.919 420.666,222.184 420.903,209.681 421.14,215.46 421.377,217.675 421.614,224.818 421.85,197.281 422.087,204.801 422.324,230.62 
  422.561,244.657 422.798,231.596 423.035,215.217 423.272,195.983 423.508,238.026 423.745,232.56 423.982,239.38 424.219,209.341 424.456,225.281 424.693,222.331 
  424.93,209.322 425.167,205.827 425.403,207.063 425.64,224.021 425.877,227.459 426.114,207.745 426.351,206.145 426.588,218.292 426.825,201.033 427.061,234.052 
  427.298,230.051 427.535,231.44 427.772,226.693 428.009,249.816 428.246,248.033 428.483,219.341 428.72,223.431 428.956,201.155 429.193,233.334 429.43,208.691 
  429.667,213.249 429.904,228.698 430.141,217.215 430.378,209.458 430.614,232.935 430.851,208.363 431.088,236.542 431.325,251.135 431.562,231.76 431.799,211.15 
  432.036,247.343 432.273,190.865 432.509,234.414 432.746,202.558 432.983,240.442 433.22,204.513 433.457,225.346 433.694,225.493 433.931,267.935 434.168,190.767 
  434.404,202.124 434.641,234.628 434.878,234.594 435.115,219.693 435.352,219.03 435.589,227.13 435.826,193.257 436.062,233.851 436.299,236.246 436.536,237.633 
  436.773,222.492 437.01,211.632 437.247,193.246 437.484,235.954 437.721,197.846 437.957,227.326 438.194,214.805 438.431,219.838 438.668,241.255 438.905,250.11 
  439.142,218.432 439.379,214.606 439.615,245.982 439.852,225.033 440.089,203.756 440.326,203.626 440.563,202.209 440.8,239.075 441.037,217.65 441.274,212.938 
  441.51,242.946 441.747,209.808 441.984,229.067 442.221,214.271 442.458,228.304 442.695,229.551 442.932,222.885 443.168,214.071 443.405,206.334 443.642,239.311 
  443.879,227.462 444.116,223.066 444.353,250.082 444.59,203.239 444.827,227.708 445.063,218.588 445.3,242.541 445.537,218.691 445.774,259.59 446.011,233.184 
  446.248,210.017 446.485,265.201 446.722,228.363 446.958,245.096 447.195,251.69 447.432,221.929 447.669,217.018 447.906,247.108 448.143,220.913 448.38,194.86 
  448.616,224.397 448.853,240.364 449.09,252.814 449.327,198.399 449.564,211.666 449.801,222.342 450.038,255.48 450.275,213.918 450.511,228.529 450.748,245.707 
  450.985,222.559 451.222,202.585 451.459,205.616 451.696,208.268 451.933,214.123 452.169,243.62 452.406,217.137 452.643,239.782 452.88,267.75 453.117,230.344 
  453.354,214.087 453.591,230.637 453.828,225.226 454.064,213.731 454.301,218.065 454.538,220.11 454.775,241.071 455.012,217.551 455.249,249.272 455.486,210.905 
  455.722,199.061 455.959,237.796 456.196,204.034 456.433,205.771 456.67,233.414 456.907,272.141 457.144,202.928 457.381,238.441 457.617,245.657 457.854,235.431 
  458.091,210.077 458.328,247.993 458.565,258.499 458.802,201.051 459.039,235.378 459.275,216.05 459.512,215.073 459.749,232.374 459.986,209.785 460.223,256.109 
  460.46,235.755 460.697,197.376 460.934,221.884 461.17,226.77 461.407,251.157 461.644,218.703 461.881,237.751 462.118,277.81 462.355,204.587 462.592,203.955 
  462.829,245.911 463.065,213.76 463.302,201.217 463.539,208.891 463.776,232.128 464.013,214.992 464.25,203.816 464.487,225.394 464.723,231.996 464.96,286.301 
  465.197,228.484 465.434,222.061 465.671,206.466 465.908,242.357 466.145,235.099 466.382,211.981 466.618,237.372 466.855,286.095 467.092,298.055 467.329,211.169 
  467.566,248.004 467.803,219.958 468.04,231.075 468.276,200.353 468.513,224.202 468.75,230.539 468.987,219.711 469.224,212.277 469.461,202.527 469.698,205.745 
  469.935,261.42 470.171,213.357 470.408,207.228 470.645,219.922 470.882,284.953 471.119,197.279 471.356,219.156 471.593,208.075 471.829,203.746 472.066,220.054 
  472.303,207.693 472.54,233.417 472.777,209.482 473.014,201.718 473.251,225.35 473.488,215.099 473.724,262.62 473.961,217.088 474.198,249.267 474.435,220.042 
  474.672,195.574 474.909,210.77 475.146,226.516 475.383,230.73 475.619,247.18 475.856,221.975 476.093,247.477 476.33,205.57 476.567,205.049 476.804,220.329 
  477.041,210.438 477.277,253.969 477.514,217.074 477.751,205.925 477.988,230.502 478.225,201.109 478.462,264.055 478.699,246.283 478.936,237.96 479.172,252.013 
  479.409,231.263 479.646,219.005 479.883,257.097 480.12,213.592 480.357,251.729 480.594,247.749 480.83,239.212 481.067,229.204 481.304,222.592 481.541,210.441 
  481.778,217.392 482.015,207.596 482.252,204.028 482.489,216.827 482.725,236.216 482.962,210.724 483.199,224.637 483.436,250.339 483.673,224.579 483.91,240.347 
  484.147,234.766 484.383,212.046 484.62,239.149 484.857,242.889 485.094,225.054 485.331,239.59 485.568,206.354 485.805,226.178 486.042,209.79 486.278,233.02 
  486.515,232.15 486.752,255.658 486.989,191.499 487.226,226.753 487.463,209.628 487.7,217.428 487.937,215.806 488.173,230.305 488.41,205.151 488.647,233.965 
  488.884,217.839 489.121,265.584 489.358,217.729 489.595,248.027 489.831,205.431 490.068,210.746 490.305,227.424 490.542,202.754 490.779,214.559 491.016,215.024 
  491.253,259.968 491.49,228.642 491.726,205.645 491.963,252.811 492.2,213.522 492.437,240.307 492.674,228.914 492.911,313.574 493.148,239.373 493.384,257.431 
  493.621,212.824 493.858,219.401 494.095,197.705 494.332,252.262 494.569,236.439 494.806,236.355 495.043,222.918 495.279,213.391 495.516,225.891 495.753,253.134 
  495.99,217.777 496.227,223.911 496.464,246.575 496.701,218.75 496.937,245.276 497.174,238.642 497.411,227.015 497.648,230.899 497.885,244.055 498.122,212.419 
  498.359,239.568 498.596,288.13 498.832,289.367 499.069,213.978 499.306,241.615 499.543,204.383 499.78,241.834 500.017,200.705 500.254,230.789 500.491,242.083 
  500.727,219.241 500.964,216.634 501.201,194.595 501.438,258.91 501.675,254.568 501.912,225.069 502.149,225.303 502.385,212.392 502.622,222.621 502.859,253.083 
  503.096,267.025 503.333,202.875 503.57,212.007 503.807,235.382 504.044,206.14 504.28,251.802 504.517,229.633 504.754,271.812 504.991,234.687 505.228,237.157 
  505.465,217.699 505.702,228.014 505.938,295.429 506.175,262.087 506.412,215.446 506.649,216.59 506.886,224.548 507.123,240.39 507.36,236.81 507.597,209.383 
  507.833,206.387 508.07,209.211 508.307,234.105 508.544,232.607 508.781,226.51 509.018,217.324 509.255,270.037 509.491,240.158 509.728,234.124 509.965,206.544 
  510.202,244.764 510.439,216.887 510.676,225.939 510.913,226.561 511.15,210.792 511.386,238.997 511.623,231.715 511.86,211.893 512.097,256.866 512.334,251.99 
  512.571,222.525 512.808,208.931 513.044,240.692 513.281,236.447 513.518,222.795 513.755,232.112 513.992,239.162 514.229,224.362 514.466,230.633 514.703,216.834 
  514.939,199.87 515.176,191.96 515.413,222.711 515.65,237.847 515.887,209.356 516.124,225.562 516.361,212.047 516.598,307.337 516.834,234.738 517.071,217.53 
  517.308,213.125 517.545,198.278 517.782,230.94 518.019,218.617 518.256,263.633 518.492,213.319 518.729,258.599 518.966,220.812 519.203,213.457 519.44,211.67 
  519.677,246.406 519.914,255.669 520.151,198.419 520.387,208.327 520.624,222.277 520.861,252.748 521.098,207.473 521.335,238.124 521.572,203.328 521.809,206.645 
  522.045,260.155 522.282,248.402 522.519,214.211 522.756,246.079 522.993,230.86 523.23,257.271 523.467,209.045 523.704,225.136 523.94,195.56 524.177,223.639 
  524.414,207.055 524.651,203.276 524.888,223.295 525.125,211.309 525.362,221.818 525.598,216.275 525.835,214.98 526.072,224.429 526.309,217.17 526.546,237.009 
  526.783,223.42 527.02,228.875 527.257,213.923 527.493,224.841 527.73,223.039 527.967,271.449 528.204,239.171 528.441,206.898 528.678,217.175 528.915,199.521 
  529.152,217.311 529.388,211.311 529.625,207.36 529.862,220.35 530.099,191.159 530.336,239.358 530.573,219.034 530.81,209.806 531.046,217.323 531.283,217.857 
  531.52,204.818 531.757,233.287 531.994,223.247 532.231,231.376 532.468,210.342 532.705,236.068 532.941,213.866 533.178,210.147 533.415,227.644 533.652,204.876 
  533.889,223.697 534.126,185.954 534.363,228.321 534.599,256.074 534.836,201.412 535.073,217.044 535.31,207.746 535.547,207.45 535.784,228.526 536.021,239.358 
  536.258,219.999 536.494,268.098 536.731,215.609 536.968,235.827 537.205,218.288 537.442,224.548 537.679,222.224 537.916,204.125 538.152,227.587 538.389,214.902 
  538.626,219.03 538.863,237.144 539.1,238.837 539.337,231.012 539.574,205.481 539.811,215.283 540.047,223.34 540.284,225.741 540.521,264.507 540.758,243.131 
  540.995,224.699 541.232,217.245 541.469,225.102 541.706,226.159 541.942,226.045 542.179,223.983 542.416,225.814 542.653,242.172 542.89,201.061 543.127,212.063 
  543.364,232.133 543.6,217.192 543.837,251.281 544.074,233.533 544.311,206.534 544.548,230.62 544.785,264.062 545.022,257.01 545.259,209.305 545.495,227.905 
  545.732,195.701 545.969,268.386 546.206,232.63 546.443,232.003 546.68,226.392 546.917,220.763 547.153,220.872 547.39,223.453 547.627,214.996 547.864,211.718 
  548.101,198.524 548.338,195.297 548.575,231.881 548.812,197.73 549.048,230.789 549.285,222.798 549.522,212.682 549.759,229.93 549.996,200.718 550.233,218.459 
  550.47,256.747 550.706,213.338 550.943,232.771 551.18,260.035 551.417,248.695 551.654,237.859 551.891,239.173 552.128,215.163 552.365,215.826 552.601,366.979 
  552.838,231.444 553.075,221.701 553.312,224.723 553.549,212.289 553.786,218.025 554.023,222.467 554.259,222.344 554.496,225.349 554.733,248.687 554.97,266.795 
  555.207,220.048 555.444,197.46 555.681,210.39 555.918,249.931 556.154,225.839 556.391,237.127 556.628,217.958 556.865,220.022 557.102,234.272 557.339,209.447 
  557.576,226.445 557.813,225.306 558.049,216.386 558.286,226.329 558.523,228.988 558.76,222.17 558.997,263.094 559.234,240.067 559.471,237.241 559.707,243.189 
  559.944,222.415 560.181,215.728 560.418,206.008 560.655,222.264 560.892,236.163 561.129,204.272 561.366,219.951 561.602,238.495 561.839,245.04 562.076,246.458 
  562.313,216.989 562.55,205.468 562.787,204.436 563.024,226.131 563.26,212.093 563.497,251.748 563.734,228.587 563.971,205.69 564.208,213.953 564.445,226.64 
  564.682,226.58 564.919,212.021 565.155,260.753 565.392,235.157 565.629,279.289 565.866,248.922 566.103,223.248 566.34,235.633 566.577,267.798 566.813,264.383 
  567.05,212.533 567.287,206.203 567.524,218.361 567.761,232.971 567.998,271.092 568.235,230.527 568.472,226.939 568.708,219.032 568.945,254.776 569.182,209.752 
  569.419,207.493 569.656,211.258 569.893,252.165 570.13,227.189 570.367,274.385 570.603,222.026 570.84,210.291 571.077,215.952 571.314,227.375 571.551,220.912 
  571.788,251.178 572.025,228.386 572.261,216.19 572.498,216.786 572.735,216.165 572.972,237.576 573.209,199.593 573.446,208.358 573.683,253.645 573.92,198.356 
  574.156,198.644 574.393,217.63 574.63,235.628 574.867,201.003 575.104,231.571 575.341,282.351 575.578,240.007 575.814,212.842 576.051,240.145 576.288,205.473 
  576.525,225.017 576.762,209.285 576.999,225.088 577.236,207.128 577.473,251.487 577.709,222.212 577.946,234.552 578.183,215.485 578.42,244.55 578.657,232.289 
  578.894,230.762 579.131,242.046 579.367,253.159 579.604,273.697 579.841,212.143 580.078,216.727 580.315,238.9 
  "/>
</svg>
