<?xml version="1.0" encoding="utf-8"?>
<svg xmlns="http://www.w3.org/2000/svg" xmlns:xlink="http://www.w3.org/1999/xlink" width="600" height="400" viewBox="0 0 600 400">
<defs>
  <clipPath id="clip00">
    <rect x="0" y="0" width="600" height="400"/>
  </clipPath>
</defs>
<polygon clip-path="url(#clip00)" points="
0,400 600,400 600,0 0,0 
  " fill="#ffffff" fill-opacity="1"/>
<defs>
  <clipPath id="clip01">
    <rect x="120" y="0" width="421" height="400"/>
  </clipPath>
</defs>
<polygon clip-path="url(#clip00)" points="
62.5219,357.163 580.315,357.163 580.315,15.748 62.5219,15.748 
  " fill="#ffffff" fill-opacity="1"/>
<defs>
  <clipPath id="clip02">
    <rect x="62" y="15" width="518" height="342"/>
  </clipPath>
</defs>
<g clip-path="url(#clip00)">
<text style="fill:#00002d; fill-opacity:1; font-family:Arial; font-size:12; text-anchor:start;" transform="rotate(0, 33.7132, 363.095)" x="33.7132" y="363.095">10</text>
</g>
<g clip-path="url(#clip00)">
<text style="fill:#00002d; fill-opacity:1; font-family:Arial; font-size:10; text-anchor:start;" transform="rotate(0, 46.8924, 356.242)" x="46.8924" y="356.242">-</text>
</g>
<g clip-path="url(#clip00)">
<text style="fill:#00002d; fill-opacity:1; font-family:Arial; font-size:10; text-anchor:start;" transform="rotate(0, 52.5161, 356.242)" x="52.5161" y="356.242">2</text>
</g>
<g clip-path="url(#clip00)">
<text style="fill:#00002d; fill-opacity:1; font-family:Arial; font-size:12; text-anchor:start;" transform="rotate(0, 33.7132, 325.16)" x="33.7132" y="325.16">10</text>
</g>
<g clip-path="url(#clip00)">
<text style="fill:#00002d; fill-opacity:1; font-family:Arial; font-size:10; text-anchor:start;" transform="rotate(0, 46.8924, 318.307)" x="46.8924" y="318.307">-</text>
</g>
<g clip-path="url(#clip00)">
<text style="fill:#00002d; fill-opacity:1; font-family:Arial; font-size:10; text-anchor:start;" transform="rotate(0, 52.5161, 318.307)" x="52.5161" y="318.307">1</text>
</g>
<g clip-path="url(#clip00)">
<text style="fill:#00002d; fill-opacity:1; font-family:Arial; font-size:12; text-anchor:start;" transform="rotate(0, 39.3369, 287.225)" x="39.3369" y="287.225">10</text>
</g>
<g clip-path="url(#clip00)">
<text style="fill:#00002d; fill-opacity:1; font-family:Arial; font-size:10; text-anchor:start;" transform="rotate(0, 52.5161, 280.372)" x="52.5161" y="280.372">0</text>
</g>
<g clip-path="url(#clip00)">
<text style="fill:#00002d; fill-opacity:1; font-family:Arial; font-size:12; text-anchor:start;" transform="rotate(0, 39.3369, 249.29)" x="39.3369" y="249.29">10</text>
</g>
<g clip-path="url(#clip00)">
<text style="fill:#00002d; fill-opacity:1; font-family:Arial; font-size:10; text-anchor:start;" transform="rotate(0, 52.5161, 242.437)" x="52.5161" y="242.437">1</text>
</g>
<g clip-path="url(#clip00)">
<text style="fill:#00002d; fill-opacity:1; font-family:Arial; font-size:12; text-anchor:start;" transform="rotate(0, 39.3369, 211.355)" x="39.3369" y="211.355">10</text>
</g>
<g clip-path="url(#clip00)">
<text style="fill:#00002d; fill-opacity:1; font-family:Arial; font-size:10; text-anchor:start;" transform="rotate(0, 52.5161, 204.502)" x="52.5161" y="204.502">2</text>
</g>
<g clip-path="url(#clip00)">
<text style="fill:#00002d; fill-opacity:1; font-family:Arial; font-size:12; text-anchor:start;" transform="rotate(0, 39.3369, 173.42)" x="39.3369" y="173.42">10</text>
</g>
<g clip-path="url(#clip00)">
<text style="fill:#00002d; fill-opacity:1; font-family:Arial; font-size:10; text-anchor:start;" transform="rotate(0, 52.5161, 166.567)" x="52.5161" y="166.567">3</text>
</g>
<g clip-path="url(#clip00)">
<text style="fill:#00002d; fill-opacity:1; font-family:Arial; font-size:12; text-anchor:start;" transform="rotate(0, 39.3369, 135.485)" x="39.3369" y="135.485">10</text>
</g>
<g clip-path="url(#clip00)">
<text style="fill:#00002d; fill-opacity:1; font-family:Arial; font-size:10; text-anchor:start;" transform="rotate(0, 52.5161, 128.632)" x="52.5161" y="128.632">4</text>
</g>
<g clip-path="url(#clip00)">
<text style="fill:#00002d; fill-opacity:1; font-family:Arial; font-size:12; text-anchor:start;" transform="rotate(0, 39.3369, 97.55)" x="39.3369" y="97.55">10</text>
</g>
<g clip-path="url(#clip00)">
<text style="fill:#00002d; fill-opacity:1; font-family:Arial; font-size:10; text-anchor:start;" transform="rotate(0, 52.5161, 90.6974)" x="52.5161" y="90.6974">5</text>
</g>
<g clip-path="url(#clip00)">
<text style="fill:#00002d; fill-opacity:1; font-family:Arial; font-size:12; text-anchor:start;" transform="rotate(0, 39.3369, 59.6149)" x="39.3369" y="59.6149">10</text>
</g>
<g clip-path="url(#clip00)">
<text style="fill:#00002d; fill-opacity:1; font-family:Arial; font-size:10; text-anchor:start;" transform="rotate(0, 52.5161, 52.7623)" x="52.5161" y="52.7623">6</text>
</g>
<g clip-path="url(#clip00)">
<text style="fill:#00002d; fill-opacity:1; font-family:Arial; font-size:12; text-anchor:start;" transform="rotate(0, 39.3369, 21.6799)" x="39.3369" y="21.6799">10</text>
</g>
<g clip-path="url(#clip00)">
<text style="fill:#00002d; fill-opacity:1; font-family:Arial; font-size:10; text-anchor:start;" transform="rotate(0, 52.5161, 14.8273)" x="52.5161" y="14.8273">7</text>
</g>
<polyline clip-path="url(#clip00)" style="stroke:#00002d; stroke-width:0.8; stroke-opacity:1; fill:none" points="
  62.5219,357.163 62.5219,357.163 71.8252,357.163 62.5219,357.163 62.5219,345.744 67.1735,345.744 62.5219,345.744 62.5219,339.064 67.1735,339.064 62.5219,339.064 
  62.5219,334.324 67.1735,334.324 62.5219,334.324 62.5219,330.648 67.1735,330.648 62.5219,330.648 62.5219,327.644 67.1735,327.644 62.5219,327.644 62.5219,325.104 
  67.1735,325.104 62.5219,325.104 62.5219,322.904 67.1735,322.904 62.5219,322.904 62.5219,320.964 67.1735,320.964 62.5219,320.964 62.5219,319.228 67.1735,319.228 
  62.5219,319.228 71.8252,319.228 62.5219,319.228 62.5219,307.809 67.1735,307.809 62.5219,307.809 62.5219,301.129 67.1735,301.129 62.5219,301.129 
  62.5219,296.389 67.1735,296.389 62.5219,296.389 62.5219,292.713 67.1735,292.713 62.5219,292.713 62.5219,289.709 67.1735,289.709 62.5219,289.709 62.5219,287.169 
  67.1735,287.169 62.5219,287.169 62.5219,284.969 67.1735,284.969 62.5219,284.969 62.5219,283.029 67.1735,283.029 62.5219,283.029 62.5219,281.293 67.1735,281.293 
  62.5219,281.293 71.8252,281.293 62.5219,281.293 62.5219,269.874 67.1735,269.874 62.5219,269.874 62.5219,263.194 67.1735,263.194 62.5219,263.194 
  62.5219,258.454 67.1735,258.454 62.5219,258.454 62.5219,254.778 67.1735,254.778 62.5219,254.778 62.5219,251.774 67.1735,251.774 62.5219,251.774 62.5219,249.234 
  67.1735,249.234 62.5219,249.234 62.5219,247.034 67.1735,247.034 62.5219,247.034 62.5219,245.094 67.1735,245.094 62.5219,245.094 62.5219,243.358 67.1735,243.358 
  62.5219,243.358 71.8252,243.358 62.5219,243.358 62.5219,231.939 67.1735,231.939 62.5219,231.939 62.5219,225.259 67.1735,225.259 62.5219,225.259 
  62.5219,220.519 67.1735,220.519 62.5219,220.519 62.5219,216.843 67.1735,216.843 62.5219,216.843 62.5219,213.839 67.1735,213.839 62.5219,213.839 62.5219,211.299 
  67.1735,211.299 62.5219,211.299 62.5219,209.099 67.1735,209.099 62.5219,209.099 62.5219,207.159 67.1735,207.159 62.5219,207.159 62.5219,205.423 67.1735,205.423 
  62.5219,205.423 71.8252,205.423 62.5219,205.423 62.5219,194.004 67.1735,194.004 62.5219,194.004 62.5219,187.324 67.1735,187.324 62.5219,187.324 
  62.5219,182.584 67.1735,182.584 62.5219,182.584 62.5219,178.908 67.1735,178.908 62.5219,178.908 62.5219,175.904 67.1735,175.904 62.5219,175.904 62.5219,173.364 
  67.1735,173.364 62.5219,173.364 62.5219,171.164 67.1735,171.164 62.5219,171.164 62.5219,169.224 67.1735,169.224 62.5219,169.224 62.5219,167.488 67.1735,167.488 
  62.5219,167.488 71.8252,167.488 62.5219,167.488 62.5219,156.069 67.1735,156.069 62.5219,156.069 62.5219,149.388 67.1735,149.388 62.5219,149.388 
  62.5219,144.649 67.1735,144.649 62.5219,144.649 62.5219,140.973 67.1735,140.973 62.5219,140.973 62.5219,137.969 67.1735,137.969 62.5219,137.969 62.5219,135.429 
  67.1735,135.429 62.5219,135.429 62.5219,133.229 67.1735,133.229 62.5219,133.229 62.5219,131.289 67.1735,131.289 62.5219,131.289 62.5219,129.553 67.1735,129.553 
  62.5219,129.553 71.8252,129.553 62.5219,129.553 62.5219,118.133 67.1735,118.133 62.5219,118.133 62.5219,111.453 67.1735,111.453 62.5219,111.453 
  62.5219,106.714 67.1735,106.714 62.5219,106.714 62.5219,103.038 67.1735,103.038 62.5219,103.038 62.5219,100.034 67.1735,100.034 62.5219,100.034 62.5219,97.4943 
  67.1735,97.4943 62.5219,97.4943 62.5219,95.2943 67.1735,95.2943 62.5219,95.2943 62.5219,93.3539 67.1735,93.3539 62.5219,93.3539 62.5219,91.6181 67.1735,91.6181 
  62.5219,91.6181 71.8252,91.6181 62.5219,91.6181 62.5219,80.1985 67.1735,80.1985 62.5219,80.1985 62.5219,73.5185 67.1735,73.5185 62.5219,73.5185 
  62.5219,68.7789 67.1735,68.7789 62.5219,68.7789 62.5219,65.1026 67.1735,65.1026 62.5219,65.1026 62.5219,62.0989 67.1735,62.0989 62.5219,62.0989 62.5219,59.5593 
  67.1735,59.5593 62.5219,59.5593 62.5219,57.3593 67.1735,57.3593 62.5219,57.3593 62.5219,55.4189 67.1735,55.4189 62.5219,55.4189 62.5219,53.683 67.1735,53.683 
  62.5219,53.683 71.8252,53.683 62.5219,53.683 62.5219,42.2635 67.1735,42.2635 62.5219,42.2635 62.5219,35.5834 67.1735,35.5834 62.5219,35.5834 
  62.5219,30.8439 67.1735,30.8439 62.5219,30.8439 62.5219,27.1676 67.1735,27.1676 62.5219,27.1676 62.5219,24.1639 67.1735,24.1639 62.5219,24.1639 62.5219,21.6242 
  67.1735,21.6242 62.5219,21.6242 62.5219,19.4243 67.1735,19.4243 62.5219,19.4243 62.5219,17.4838 67.1735,17.4838 62.5219,17.4838 62.5219,15.748 67.1735,15.748 
  62.5219,15.748 71.8252,15.748 62.5219,15.748 
  "/>
<g clip-path="url(#clip00)">
<text style="fill:#00002d; fill-opacity:1; font-family:Arial; font-size:12; text-anchor:start;" transform="rotate(0, 59.2271, 372.528)" x="59.2271" y="372.528">0</text>
</g>
<g clip-path="url(#clip00)">
<text style="fill:#00002d; fill-opacity:1; font-family:Arial; font-size:12; text-anchor:start;" transform="rotate(0, 224.046, 372.528)" x="224.046" y="372.528">1</text>
</g>
<g clip-path="url(#clip00)">
<text style="fill:#00002d; fill-opacity:1; font-family:Arial; font-size:12; text-anchor:start;" transform="rotate(0, 388.864, 372.528)" x="388.864" y="372.528">2</text>
</g>
<g clip-path="url(#clip00)">
<text style="fill:#00002d; fill-opacity:1; font-family:Arial; font-size:12; text-anchor:start;" transform="rotate(0, 553.683, 372.528)" x="553.683" y="372.528">3</text>
</g>
<polyline clip-path="url(#clip00)" style="stroke:#00002d; stroke-width:0.8; stroke-opacity:1; fill:none" points="
  62.5219,357.163 62.5219,357.163 62.5219,347.86 62.5219,357.163 227.341,357.163 227.341,347.86 227.341,357.163 392.159,357.163 392.159,347.86 392.159,357.163 
  556.978,357.163 556.978,347.86 556.978,357.163 580.315,357.163 
  "/>
<polyline clip-path="url(#clip00)" style="stroke:#00002d; stroke-width:0.8; stroke-opacity:1; fill:none" points="
  580.315,357.163 580.315,357.163 571.012,357.163 580.315,357.163 580.315,345.744 575.663,345.744 580.315,345.744 580.315,339.064 575.663,339.064 580.315,339.064 
  580.315,334.324 575.663,334.324 580.315,334.324 580.315,330.648 575.663,330.648 580.315,330.648 580.315,327.644 575.663,327.644 580.315,327.644 580.315,325.104 
  575.663,325.104 580.315,325.104 580.315,322.904 575.663,322.904 580.315,322.904 580.315,320.964 575.663,320.964 580.315,320.964 580.315,319.228 575.663,319.228 
  580.315,319.228 571.012,319.228 580.315,319.228 580.315,307.809 575.663,307.809 580.315,307.809 580.315,301.129 575.663,301.129 580.315,301.129 
  580.315,296.389 575.663,296.389 580.315,296.389 580.315,292.713 575.663,292.713 580.315,292.713 580.315,289.709 575.663,289.709 580.315,289.709 580.315,287.169 
  575.663,287.169 580.315,287.169 580.315,284.969 575.663,284.969 580.315,284.969 580.315,283.029 575.663,283.029 580.315,283.029 580.315,281.293 575.663,281.293 
  580.315,281.293 571.012,281.293 580.315,281.293 580.315,269.874 575.663,269.874 580.315,269.874 580.315,263.194 575.663,263.194 580.315,263.194 
  580.315,258.454 575.663,258.454 580.315,258.454 580.315,254.778 575.663,254.778 580.315,254.778 580.315,251.774 575.663,251.774 580.315,251.774 580.315,249.234 
  575.663,249.234 580.315,249.234 580.315,247.034 575.663,247.034 580.315,247.034 580.315,245.094 575.663,245.094 580.315,245.094 580.315,243.358 575.663,243.358 
  580.315,243.358 571.012,243.358 580.315,243.358 580.315,231.939 575.663,231.939 580.315,231.939 580.315,225.259 575.663,225.259 580.315,225.259 
  580.315,220.519 575.663,220.519 580.315,220.519 580.315,216.843 575.663,216.843 580.315,216.843 580.315,213.839 575.663,213.839 580.315,213.839 580.315,211.299 
  575.663,211.299 580.315,211.299 580.315,209.099 575.663,209.099 580.315,209.099 580.315,207.159 575.663,207.159 580.315,207.159 580.315,205.423 575.663,205.423 
  580.315,205.423 571.012,205.423 580.315,205.423 580.315,194.004 575.663,194.004 580.315,194.004 580.315,187.324 575.663,187.324 580.315,187.324 
  580.315,182.584 575.663,182.584 580.315,182.584 580.315,178.908 575.663,178.908 580.315,178.908 580.315,175.904 575.663,175.904 580.315,175.904 580.315,173.364 
  575.663,173.364 580.315,173.364 580.315,171.164 575.663,171.164 580.315,171.164 580.315,169.224 575.663,169.224 580.315,169.224 580.315,167.488 575.663,167.488 
  580.315,167.488 571.012,167.488 580.315,167.488 580.315,156.069 575.663,156.069 580.315,156.069 580.315,149.388 575.663,149.388 580.315,149.388 
  580.315,144.649 575.663,144.649 580.315,144.649 580.315,140.973 575.663,140.973 580.315,140.973 580.315,137.969 575.663,137.969 580.315,137.969 580.315,135.429 
  575.663,135.429 580.315,135.429 580.315,133.229 575.663,133.229 580.315,133.229 580.315,131.289 575.663,131.289 580.315,131.289 580.315,129.553 575.663,129.553 
  580.315,129.553 571.012,129.553 580.315,129.553 580.315,118.133 575.663,118.133 580.315,118.133 580.315,111.453 575.663,111.453 580.315,111.453 
  580.315,106.714 575.663,106.714 580.315,106.714 580.315,103.038 575.663,103.038 580.315,103.038 580.315,100.034 575.663,100.034 580.315,100.034 580.315,97.4943 
  575.663,97.4943 580.315,97.4943 580.315,95.2943 575.663,95.2943 580.315,95.2943 580.315,93.3539 575.663,93.3539 580.315,93.3539 580.315,91.6181 575.663,91.6181 
  580.315,91.6181 571.012,91.6181 580.315,91.6181 580.315,80.1985 575.663,80.1985 580.315,80.1985 580.315,73.5185 575.663,73.5185 580.315,73.5185 
  580.315,68.7789 575.663,68.7789 580.315,68.7789 580.315,65.1026 575.663,65.1026 580.315,65.1026 580.315,62.0989 575.663,62.0989 580.315,62.0989 580.315,59.5593 
  575.663,59.5593 580.315,59.5593 580.315,57.3593 575.663,57.3593 580.315,57.3593 580.315,55.4189 575.663,55.4189 580.315,55.4189 580.315,53.683 575.663,53.683 
  580.315,53.683 571.012,53.683 580.315,53.683 580.315,42.2635 575.663,42.2635 580.315,42.2635 580.315,35.5834 575.663,35.5834 580.315,35.5834 
  580.315,30.8439 575.663,30.8439 580.315,30.8439 580.315,27.1676 575.663,27.1676 580.315,27.1676 580.315,24.1639 575.663,24.1639 580.315,24.1639 580.315,21.6242 
  575.663,21.6242 580.315,21.6242 580.315,19.4243 575.663,19.4243 580.315,19.4243 580.315,17.4838 575.663,17.4838 580.315,17.4838 580.315,15.748 575.663,15.748 
  580.315,15.748 571.012,15.748 580.315,15.748 
  "/>
<polyline clip-path="url(#clip00)" style="stroke:#00002d; stroke-width:0.8; stroke-opacity:1; fill:none" points="
  62.5219,15.748 62.5219,15.748 62.5219,25.0513 62.5219,15.748 227.341,15.748 227.341,25.0513 227.341,15.748 392.159,15.748 392.159,25.0513 392.159,15.748 
  556.978,15.748 556.978,25.0513 556.978,15.748 580.315,15.748 
  "/>
<g clip-path="url(#clip00)">
<text style="fill:#00002d; fill-opacity:1; font-family:Arial; font-size:16; text-anchor:middle;" transform="rotate(0, 321.418, 397.6)" x="321.418" y="397.6">Angular frequency</text>
</g>
<g clip-path="url(#clip00)">
<text style="fill:#00002d; fill-opacity:1; font-family:Arial; font-size:16; text-anchor:middle;" transform="rotate(-90, 14.4, 186.456)" x="14.4" y="186.456">Power</text>
</g>
<polyline clip-path="url(#clip02)" style="stroke:#0099ff; stroke-width:0.8; stroke-opacity:1; fill:none" points="
  62.5219,154.292 62.7661,166.076 63.0104,131.23 63.2546,133.536 63.4988,147.263 63.7431,168.765 63.9873,145.811 64.2316,163.721 64.4758,220.463 64.7201,160.145 
  64.9643,146.462 65.2085,145.489 65.4528,127.634 65.697,128.166 65.9413,155.501 66.1855,179.868 66.4297,183.048 66.674,180.62 66.9182,169.953 67.1625,174.602 
  67.4067,189.309 67.651,178.379 67.8952,165.062 68.1394,175.984 68.3837,200.117 68.6279,135 68.8722,153.467 69.1164,137.522 69.3606,160.098 69.6049,205.428 
  69.8491,158.31 70.0934,122.341 70.3376,125.391 70.5819,226.538 70.8261,176.343 71.0703,211.194 71.3146,180.951 71.5588,233.874 71.8031,231.863 72.0473,179.976 
  72.2916,194.777 72.5358,203.869 72.78,189.649 73.0243,181.523 73.2685,165.155 73.5128,172.087 73.757,242.28 74.0012,186.045 74.2455,203.927 74.4897,201.969 
  74.734,170.348 74.9782,175.326 75.2225,160.389 75.4667,134.777 75.7109,94.6825 75.9552,79.365 76.1994,78.4231 76.4437,159.503 76.6879,64.836 76.9322,87.6768 
  77.1764,104.758 77.4206,151.714 77.6649,172.374 77.9091,140.285 78.1534,178.118 78.3976,179.33 78.6418,169.746 78.8861,160.672 79.1303,174.594 79.3746,139.523 
  79.6188,150.232 79.8631,168.031 80.1073,162.617 80.3515,155.235 80.5958,192.36 80.84,188.542 81.0843,163.547 81.3285,141.737 81.5728,146.338 81.817,184.248 
  82.0612,145.865 82.3055,119.228 82.5497,94.376 82.794,114.383 83.0382,118.324 83.2824,101.25 83.5267,121.295 83.7709,100.845 84.0152,121.096 84.2594,105.669 
  84.5037,132.872 84.7479,145.138 84.9921,163.4 85.2364,152.168 85.4806,168.153 85.7249,144.458 85.9691,158.793 86.2133,170.049 86.4576,183.268 86.7018,145.729 
  86.9461,222.837 87.1903,200.898 87.4346,150.915 87.6788,182.576 87.923,169.703 88.1673,196.88 88.4115,160.247 88.6558,151.259 88.9,179.027 89.1443,127.445 
  89.3885,120.859 89.6327,81.0004 89.877,73.4414 90.1212,67.6462 90.3655,117.262 90.6097,56.0576 90.8539,103.385 91.0982,72.5052 91.3424,149.801 91.5867,109.044 
  91.8309,111.714 92.0752,143.652 92.3194,147.001 92.5636,164.285 92.8079,166.604 93.0521,141.489 93.2964,130.058 93.5406,167.255 93.7849,136.819 94.0291,146.506 
  94.2733,141.025 94.5176,165.701 94.7618,163.156 95.0061,182.619 95.2503,135.365 95.4945,143.402 95.7388,149.172 95.983,138.792 96.2273,154.395 96.4715,116.074 
  96.7158,118.005 96.96,103.829 97.2042,110.38 97.4485,163.286 97.6927,112.801 97.937,158.012 98.1812,135.211 98.4254,135.416 98.6697,172.503 98.9139,145.953 
  99.1582,172.096 99.4024,197.596 99.6467,186.855 99.8909,181.748 100.135,153.376 100.379,180.897 100.624,189.023 100.868,152.797 101.112,137.64 101.356,142.206 
  101.601,223.818 101.845,161.013 102.089,142.481 102.333,161.645 102.578,132.78 102.822,182.418 103.066,124.324 103.31,146.942 103.555,69.9628 103.799,70.2799 
  104.043,63.8438 104.287,72.2094 104.532,59.0517 104.776,84.3413 105.02,71.3475 105.264,120.137 105.508,127.146 105.753,109.584 105.997,131.243 106.241,157.376 
  106.485,152.491 106.73,165.396 106.974,143.884 107.218,105.805 107.462,143.756 107.707,172.839 107.951,160.212 108.195,143.187 108.439,181.173 108.684,154.34 
  108.928,167.763 109.172,138.064 109.416,169.902 109.661,149.437 109.905,123.955 110.149,125.856 110.393,122.424 110.638,114.021 110.882,145.433 111.126,116.907 
  111.37,114.034 111.615,112.318 111.859,125.054 112.103,129.547 112.347,143.404 112.591,145.093 112.836,146.739 113.08,174.222 113.324,189.193 113.568,205.378 
  113.813,241.77 114.057,141.374 114.301,162.833 114.545,181.467 114.79,154.646 115.034,157.117 115.278,151.526 115.522,198.842 115.767,176.046 116.011,161.802 
  116.255,168.243 116.499,172.281 116.744,160.027 116.988,153.949 117.232,125.065 117.476,117.885 117.721,111.205 117.965,118.199 118.209,147.811 118.453,128.727 
  118.698,125.405 118.942,111.065 119.186,123.211 119.43,129.594 119.675,116.602 119.919,130.579 120.163,146.528 120.407,154.015 120.651,160.217 120.896,160.189 
  121.14,125.169 121.384,145.665 121.628,245.266 121.873,176.222 122.117,167.213 122.361,177.55 122.605,173.62 122.85,160.856 123.094,154.591 123.338,169.649 
  123.582,136.333 123.827,132.162 124.071,131.431 124.315,134.098 124.559,162.718 124.804,138.981 125.048,171.874 125.292,135.023 125.536,124.067 125.781,144.073 
  126.025,147.29 126.269,124.141 126.513,151.449 126.758,139.067 127.002,161.887 127.246,173.143 127.49,216.635 127.734,221.649 127.979,152.359 128.223,160.846 
  128.467,169.127 128.711,189.953 128.956,141.952 129.2,144.385 129.444,157.317 129.688,177.55 129.933,153.308 130.177,152.703 130.421,130.273 130.665,158.459 
  130.91,133.685 131.154,126.701 131.398,102.691 131.642,123.268 131.887,87.9771 132.131,119.557 132.375,133.036 132.619,131.769 132.864,110.168 133.108,121.289 
  133.352,129.552 133.596,130.791 133.841,133.424 134.085,151.81 134.329,165.007 134.573,164.617 134.818,178.543 135.062,159.61 135.306,231.574 135.55,182.162 
  135.794,152.423 136.039,166.84 136.283,200.133 136.527,177.887 136.771,162.1 137.016,159.708 137.26,202.871 137.504,161.126 137.748,158.632 137.993,132.433 
  138.237,127.864 138.481,167.977 138.725,152.651 138.97,175.757 139.214,155.011 139.458,158.835 139.702,140.305 139.947,143.753 140.191,158.035 140.435,156.342 
  140.679,152.869 140.924,164.097 141.168,183.093 141.412,180.834 141.656,204.02 141.901,157.375 142.145,159.827 142.389,191.937 142.633,189.72 142.877,172.276 
  143.122,167.776 143.366,185.638 143.61,224.135 143.854,164.36 144.099,176.298 144.343,169.358 144.587,168.287 144.831,159.982 145.076,153.94 145.32,137.883 
  145.564,153.929 145.808,127.532 146.053,166.322 146.297,163.983 146.541,171.036 146.785,146.816 147.03,124.124 147.274,136.414 147.518,143.238 147.762,143.389 
  148.007,160.388 148.251,166.735 148.495,180.803 148.739,158.801 148.984,161.122 149.228,164.82 149.472,187.258 149.716,158.876 149.961,161.243 150.205,208.619 
  150.449,186.645 150.693,194.188 150.937,161.98 151.182,138.938 151.426,135.064 151.67,133.583 151.914,130.407 152.159,146.976 152.403,180.745 152.647,160.217 
  152.891,170.376 153.136,169.815 153.38,182.123 153.624,167.766 153.868,167.758 154.113,175.098 154.357,159.34 154.601,151.606 154.845,170.093 155.09,181.336 
  155.334,187.677 155.578,207.861 155.822,173.093 156.067,168.48 156.311,180.947 156.555,178.722 156.799,193.173 157.044,170.31 157.288,183.524 157.532,218.326 
  157.776,162.031 158.021,203.579 158.265,203.595 158.509,167.955 158.753,166.476 158.997,155.341 159.242,185.396 159.486,139.583 159.73,151.507 159.974,152.594 
  160.219,152.228 160.463,156.2 160.707,135.61 160.951,142.483 161.196,156.164 161.44,158.682 161.684,161.458 161.928,167.418 162.173,176.107 162.417,211.128 
  162.661,199.45 162.905,172.257 163.15,186.183 163.394,187.724 163.638,183.967 163.882,189.84 164.127,218.58 164.371,210.004 164.615,192.226 164.859,174.727 
  165.104,158.31 165.348,150.416 165.592,168.223 165.836,175.774 166.08,177.805 166.325,165.193 166.569,168.084 166.813,193.202 167.057,210.094 167.302,171.281 
  167.546,220.257 167.79,155.031 168.034,206.138 168.279,147.453 168.523,177.052 168.767,193.97 169.011,202.296 169.256,178.523 169.5,233.479 169.744,178.345 
  169.988,168.166 170.233,223.814 170.477,206.42 170.721,183.358 170.965,185.904 171.21,194.634 171.454,189.155 171.698,178.535 171.942,178.157 172.187,210.843 
  172.431,171.506 172.675,207.224 172.919,156.369 173.164,153.648 173.408,142.572 173.652,136.405 173.896,158.922 174.14,153.505 174.385,162.523 174.629,157.366 
  174.873,144.858 175.117,152.73 175.362,162.152 175.606,170.604 175.85,183.587 176.094,191.483 176.339,223.118 176.583,190.752 176.827,191.499 177.071,210.51 
  177.316,173.986 177.56,221.078 177.804,186.953 178.048,197.598 178.293,222.112 178.537,251.931 178.781,169.276 179.025,164.072 179.27,156.337 179.514,177.003 
  179.758,174.415 180.002,174.422 180.247,169.793 180.491,245.564 180.735,225.414 180.979,169.967 181.223,156.075 181.468,179.384 181.712,151.78 181.956,193.857 
  182.2,158.079 182.445,194.085 182.689,206.146 182.933,224.975 183.177,196.913 183.422,239.469 183.666,193.968 183.91,166.899 184.154,210.348 184.399,224.538 
  184.643,214.592 184.887,185.309 185.131,195.591 185.376,189.792 185.62,195.873 185.864,203.539 186.108,203.417 186.353,199.533 186.597,182.609 186.841,154.174 
  187.085,142.926 187.33,131.556 187.574,136.246 187.818,145.675 188.062,142.381 188.307,190.502 188.551,208.456 188.795,163.152 189.039,170.167 189.283,170.697 
  189.528,186.282 189.772,180.834 190.016,180.581 190.26,226.978 190.505,207.925 190.749,200.586 190.993,238.194 191.237,185.291 191.482,207.371 191.726,198.301 
  191.97,210.311 192.214,217.979 192.459,201.131 192.703,200.869 192.947,185.916 193.191,188 193.436,184.907 193.68,173.669 193.924,160.528 194.168,192.503 
  194.413,251.364 194.657,199.127 194.901,158.057 195.145,162.824 195.39,184.761 195.634,166.14 195.878,217.775 196.122,188.45 196.367,185.649 196.611,221.588 
  196.855,202.876 197.099,214.695 197.343,237.899 197.588,233.858 197.832,184.422 198.076,219.281 198.32,217.933 198.565,193.857 198.809,194.747 199.053,217.793 
  199.297,193.556 199.542,204.639 199.786,196.912 200.03,189.075 200.274,213.083 200.519,167.661 200.763,154.169 201.007,145.728 201.251,135.453 201.496,137.441 
  201.74,151.408 201.984,150.29 202.228,181.971 202.473,192.034 202.717,192.66 202.961,174.212 203.205,181.424 203.45,190.866 203.694,182.52 203.938,191.433 
  204.182,233.871 204.426,227.661 204.671,231.353 204.915,209.328 205.159,197.076 205.403,224.254 205.648,233.751 205.892,214.98 206.136,215.893 206.38,234.694 
  206.625,207.391 206.869,187.49 207.113,200.165 207.357,225.718 207.602,199.101 207.846,177.071 208.09,181.441 208.334,209.485 208.579,225.079 208.823,163.114 
  209.067,183.597 209.311,181.185 209.556,195.814 209.8,226.559 210.044,218.537 210.288,179.451 210.533,196.245 210.777,204.624 211.021,219.781 211.265,253.144 
  211.51,228.688 211.754,196.306 211.998,208.132 212.242,218.111 212.486,197.054 212.731,202.599 212.975,185.475 213.219,210.313 213.463,215.819 213.708,220.829 
  213.952,214.672 214.196,196.797 214.44,175.603 214.685,158.533 214.929,151.235 215.173,146.139 215.417,147.743 215.662,157.26 215.906,157.235 216.15,182.168 
  216.394,192.294 216.639,270.285 216.883,185.514 217.127,200.067 217.371,194.894 217.616,181.399 217.86,188.282 218.104,228.768 218.348,248.552 218.593,249.039 
  218.837,208.01 219.081,218.126 219.325,220.45 219.569,191.455 219.814,196.372 220.058,224.457 220.302,243.645 220.546,216.161 220.791,178.206 221.035,183.258 
  221.279,221.826 221.523,192.561 221.768,204.339 222.012,201.121 222.256,220.043 222.5,215.205 222.745,185.871 222.989,208.474 223.233,239.833 223.477,228.285 
  223.722,189.039 223.966,189.569 224.21,217.821 224.454,202.631 224.699,216.943 224.943,237.557 225.187,294.11 225.431,253.596 225.676,225.368 225.92,202.191 
  226.164,217.909 226.408,218.228 226.653,263.302 226.897,197.875 227.141,206.793 227.385,224.405 227.629,233.008 227.874,208.318 228.118,190.125 228.362,176.892 
  228.606,184.658 228.851,184.95 229.095,172.754 229.339,173.936 229.583,176.821 229.828,167.394 230.072,190.531 230.316,209.172 230.56,211.84 230.805,207.815 
  231.049,208.486 231.293,195.989 231.537,202.703 231.782,189.411 232.026,298.969 232.27,245.686 232.514,219.97 232.759,223.353 233.003,255.092 233.247,191.518 
  233.491,259.177 233.736,198.751 233.98,195.746 234.224,194.929 234.468,194.556 234.712,182.946 234.957,181.715 235.201,215.279 235.445,204.71 235.689,211.778 
  235.934,214.192 236.178,220.672 236.422,198.887 236.666,234.693 236.911,204.344 237.155,224.854 237.399,201.142 237.643,198.959 237.888,201.5 238.132,246.917 
  238.376,218.194 238.62,265.754 238.865,201.686 239.109,220.558 239.353,264.591 239.597,223.601 239.842,212.414 240.086,253.714 240.33,275.235 240.574,236.001 
  240.819,211.551 241.063,229.928 241.307,236.859 241.551,197.41 241.796,191.435 242.04,192.848 242.284,180.291 242.528,194.419 242.772,186.79 243.017,179.917 
  243.261,181.603 243.505,184.749 243.749,169.647 243.994,186.06 244.238,211.07 244.482,208.937 244.726,206.232 244.971,227.384 245.215,203.459 245.459,202.088 
  245.703,188.418 245.948,238.725 246.192,224.793 246.436,220.729 246.68,225.119 246.925,231.879 247.169,183.704 247.413,215.399 247.657,237.135 247.902,196.722 
  248.146,186.786 248.39,188.919 248.634,187.061 248.879,197.422 249.123,221.158 249.367,203.09 249.611,233.555 249.856,200.223 250.1,249.571 250.344,218.399 
  250.588,228.643 250.832,194.307 251.077,210.95 251.321,198.596 251.565,211.645 251.809,200.002 252.054,243.549 252.298,188.491 252.542,208.097 252.786,201.799 
  253.031,197.13 253.275,223.89 253.519,269.169 253.763,201.159 254.008,242.724 254.252,216.538 254.496,217.098 254.74,226.387 254.985,214.179 255.229,217.723 
  255.473,199.248 255.717,198.062 255.962,204.322 256.206,199.667 256.45,195.204 256.694,180.635 256.939,171.852 257.183,189.968 257.427,191.438 257.671,180.25 
  257.915,198.559 258.16,251.508 258.404,208.933 258.648,237.369 258.892,216.104 259.137,236.294 259.381,204.817 259.625,217.616 259.869,238.775 260.114,216.398 
  260.358,216.839 260.602,223.627 260.846,205.638 261.091,205.497 261.335,220.529 261.579,209.975 261.823,205.517 262.068,203.912 262.312,193.622 262.556,189.407 
  262.8,204.972 263.045,216.275 263.289,227.596 263.533,230.947 263.777,212.726 264.022,226.871 264.266,229.459 264.51,212.206 264.754,204.364 264.999,224.694 
  265.243,213.101 265.487,222.764 265.731,200.592 265.975,219.953 266.22,215.514 266.464,237.371 266.708,201.173 266.952,202.466 267.197,218.749 267.441,227.96 
  267.685,202.69 267.929,245.378 268.174,194.617 268.418,245.558 268.662,236.906 268.906,203.531 269.151,204.622 269.395,213.79 269.639,244.654 269.883,202.479 
  270.128,212.143 270.372,199.685 270.616,187.823 270.86,178.724 271.105,207.616 271.349,192.764 271.593,188.846 271.837,211.329 272.082,213.927 272.326,213.394 
  272.57,206.66 272.814,210.942 273.058,203.222 273.303,206.655 273.547,229.146 273.791,231.093 274.035,246.628 274.28,211.291 274.524,228.424 274.768,231.485 
  275.012,262.583 275.257,225.27 275.501,234.746 275.745,210.321 275.989,224.831 276.234,203.129 276.478,224.731 276.722,203.097 276.966,241.581 277.211,213.766 
  277.455,197.681 277.699,242.021 277.943,224.504 278.188,273.345 278.432,226.121 278.676,236.374 278.92,217.01 279.165,249.857 279.409,262.529 279.653,196.77 
  279.897,228.789 280.142,257.708 280.386,257.873 280.63,187.381 280.874,220.901 281.118,220.629 281.363,225.897 281.607,219.424 281.851,210.108 282.095,191.422 
  282.34,242.71 282.584,207.336 282.828,195.875 283.072,212.89 283.317,251.611 283.561,253.902 283.805,207.762 284.049,207.582 284.294,181.474 284.538,179.664 
  284.782,179.615 285.026,183.056 285.271,192.625 285.515,185.069 285.759,208.471 286.003,203.215 286.248,223.483 286.492,205.243 286.736,230.764 286.98,198.302 
  287.225,200.541 287.469,223.739 287.713,227.282 287.957,229.492 288.202,219.423 288.446,228.183 288.69,214.275 288.934,232.935 289.178,211.046 289.423,255.706 
  289.667,221.862 289.911,211.721 290.155,193.263 290.4,248.215 290.644,219.248 290.888,214.046 291.132,212.09 291.377,221.623 291.621,226.112 291.865,200.168 
  292.109,222.738 292.354,249.186 292.598,262.962 292.842,204.067 293.086,221.363 293.331,224.563 293.575,200.328 293.819,230.482 294.063,232.01 294.308,234.528 
  294.552,195.227 294.796,225.217 295.04,213.429 295.285,263.949 295.529,196.626 295.773,243.28 296.017,188.787 296.261,292.568 296.506,204.095 296.75,200.694 
  296.994,227.7 297.238,227.267 297.483,218.471 297.727,217.638 297.971,223.607 298.215,178.87 298.46,184.766 298.704,192.323 298.948,195.895 299.192,210.253 
  299.437,240.04 299.681,290.261 299.925,225.432 300.169,224.345 300.414,206.68 300.658,203.926 300.902,192.795 301.146,189.598 301.391,197.88 301.635,244.586 
  301.879,210.092 302.123,229.139 302.368,213.067 302.612,198.708 302.856,230.291 303.1,244.54 303.345,258.295 303.589,203.854 303.833,202.562 304.077,189.815 
  304.321,231.937 304.566,200.347 304.81,212.843 305.054,249.152 305.298,247.07 305.543,217.696 305.787,213.964 306.031,238.731 306.275,234.281 306.52,231.144 
  306.764,226.728 307.008,212.228 307.252,216.486 307.497,228.004 307.741,252.483 307.985,233.244 308.229,220.758 308.474,199.891 308.718,204.279 308.962,223.826 
  309.206,241.79 309.451,198.846 309.695,205.854 309.939,184.668 310.183,256.463 310.428,213.918 310.672,235.614 310.916,225.94 311.16,221.696 311.404,238.866 
  311.649,223.223 311.893,230.264 312.137,202.327 312.381,214.288 312.626,214.181 312.87,226.79 313.114,236.263 313.358,233.761 313.603,223.341 313.847,205.88 
  314.091,225.927 314.335,195.389 314.58,224.819 314.824,187.041 315.068,226.04 315.312,212.629 315.557,302.277 315.801,199.94 316.045,218.036 316.289,215.29 
  316.534,200.135 316.778,242.863 317.022,230.109 317.266,246.639 317.511,200.961 317.755,215.559 317.999,203.362 318.243,225.84 318.488,211.873 318.732,245.533 
  318.976,244.554 319.22,232.02 319.464,237.782 319.709,215.235 319.953,222.674 320.197,224.023 320.441,265.402 320.686,210.285 320.93,217.801 321.174,188.968 
  321.418,209.225 321.663,200.926 321.907,203.108 322.151,203.511 322.395,231.575 322.64,226.936 322.884,250.406 323.128,255.056 323.372,197.277 323.617,214.994 
  323.861,212.941 324.105,225.736 324.349,200.811 324.594,212.219 324.838,229.333 325.082,225.075 325.326,220.426 325.571,203.104 325.815,219.536 326.059,214.141 
  326.303,215.608 326.547,211.025 326.792,204.204 327.036,212.761 327.28,211.001 327.524,201.682 327.769,206.615 328.013,223.313 328.257,239.109 328.501,240.678 
  328.746,189.535 328.99,219.363 329.234,228.35 329.478,212.999 329.723,228.653 329.967,205.322 330.211,241.454 330.455,192.82 330.7,244.122 330.944,220.255 
  331.188,233.751 331.432,200.832 331.677,209.841 331.921,232.299 332.165,265.937 332.409,203.985 332.654,233.276 332.898,233.399 333.142,198.498 333.386,236.734 
  333.631,207.351 333.875,194.946 334.119,223.426 334.363,232.207 334.607,254.344 334.852,210.647 335.096,193.949 335.34,205.553 335.584,179.514 335.829,216.139 
  336.073,204.361 336.317,304.793 336.561,275.373 336.806,252.129 337.05,234.168 337.294,206.394 337.538,237.917 337.783,217.645 338.027,221.667 338.271,199.885 
  338.515,213.765 338.76,241.634 339.004,211.081 339.248,209.517 339.492,185.914 339.737,208.234 339.981,213.048 340.225,229.584 340.469,231.257 340.714,211.083 
  340.958,231 341.202,262.434 341.446,216.477 341.691,280.461 341.935,258.281 342.179,240.47 342.423,200.165 342.667,209.077 342.912,208.774 343.156,269.597 
  343.4,225.023 343.644,243.829 343.889,206.04 344.133,252.891 344.377,215.65 344.621,209.233 344.866,215.299 345.11,215.744 345.354,211.86 345.598,195.074 
  345.843,222.336 346.087,219.216 346.331,200.404 346.575,236.073 346.82,210.837 347.064,199.69 347.308,274.962 347.552,275.965 347.797,203.357 348.041,245.586 
  348.285,241.972 348.529,242.751 348.774,197.76 349.018,233.924 349.262,238.046 349.506,182.515 349.75,215.836 349.995,209.485 350.239,233.323 350.483,224.472 
  350.727,263.61 350.972,230.06 351.216,221.63 351.46,215.992 351.704,220.338 351.949,229.994 352.193,221.591 352.437,254.19 352.681,215.942 352.926,217.686 
  353.17,196.282 353.414,194.689 353.658,204.44 353.903,242.907 354.147,209.847 354.391,266.389 354.635,199.994 354.88,220.835 355.124,227.594 355.368,231.799 
  355.612,211.958 355.857,245.874 356.101,216.97 356.345,223.386 356.589,216.437 356.834,193.728 357.078,222.455 357.322,220.953 357.566,265.492 357.81,216.707 
  358.055,278.264 358.299,213.908 358.543,195.509 358.787,237.919 359.032,208.04 359.276,231.351 359.52,204.063 359.764,209.632 360.009,238.417 360.253,202.488 
  360.497,210.297 360.741,235.047 360.986,278.158 361.23,250.39 361.474,212.122 361.718,227.28 361.963,244.093 362.207,206.103 362.451,272.391 362.695,198.438 
  362.94,232.06 363.184,241.627 363.428,199.002 363.672,190.641 363.917,198.971 364.161,254.734 364.405,245.578 364.649,226.221 364.893,214.7 365.138,226.568 
  365.382,242.24 365.626,223.743 365.87,241.092 366.115,233.05 366.359,245.364 366.603,222.206 366.847,220.758 367.092,204.761 367.336,240.469 367.58,205.292 
  367.824,221.343 368.069,270.492 368.313,210.738 368.557,211.121 368.801,220.645 369.046,211.604 369.29,222.223 369.534,215.158 369.778,218.512 370.023,222.417 
  370.267,264.687 370.511,210.269 370.755,180.371 371,239.91 371.244,237.097 371.488,246.696 371.732,208.118 371.977,270.172 372.221,217.421 372.465,208.119 
  372.709,229.135 372.953,210.528 373.198,219.305 373.442,218.423 373.686,264.753 373.93,231.21 374.175,212.1 374.419,209.431 374.663,236.771 374.907,209.177 
  375.152,259.46 375.396,206.04 375.64,231.488 375.884,267.675 376.129,230.735 376.373,227.824 376.617,235.827 376.861,225.249 377.106,219.655 377.35,211.014 
  377.594,201.17 377.838,198.787 378.083,256.385 378.327,232.097 378.571,257.613 378.815,219.684 379.06,237.623 379.304,223.658 379.548,236.027 379.792,239.001 
  380.037,246.095 380.281,241.958 380.525,198.426 380.769,221.815 381.013,209.855 381.258,241.355 381.502,194.712 381.746,221.163 381.99,203.568 382.235,212.068 
  382.479,256.772 382.723,221.921 382.967,199.11 383.212,266.622 383.456,240.961 383.7,249.451 383.944,217.004 384.189,229.736 384.433,230.239 384.677,185.585 
  384.921,223.103 385.166,225.296 385.41,231.341 385.654,195.741 385.898,222.22 386.143,237.194 386.387,233.718 386.631,246.862 386.875,213.276 387.12,286.435 
  387.364,208.149 387.608,287.663 387.852,202.576 388.096,258.19 388.341,239.813 388.585,232.129 388.829,221.475 389.073,248.001 389.318,251.708 389.562,221.68 
  389.806,250.352 390.05,213.766 390.295,222.752 390.539,235.105 390.783,217.118 391.027,281.651 391.272,245.264 391.516,207.654 391.76,210.72 392.004,256.897 
  392.249,201.696 392.493,235.78 392.737,221.732 392.981,227.393 393.226,216.505 393.47,254.904 393.714,218.838 393.958,214.312 394.203,214.254 394.447,213.656 
  394.691,256.125 394.935,207.9 395.18,228.639 395.424,213.372 395.668,233.516 395.912,220.503 396.156,224.355 396.401,230.124 396.645,221.354 396.889,226.356 
  397.133,215.007 397.378,209.166 397.622,236.235 397.866,228.452 398.11,278.176 398.355,251.893 398.599,198.828 398.843,198.627 399.087,243.752 399.332,212.438 
  399.576,201.192 399.82,264.93 400.064,268.549 400.309,220.135 400.553,238.365 400.797,243.262 401.041,229.028 401.286,220.162 401.53,228.213 401.774,207.176 
  402.018,299.338 402.263,224.039 402.507,250.689 402.751,197.005 402.995,219.534 403.239,227.11 403.484,214.717 403.728,231.092 403.972,242.059 404.216,227.591 
  404.461,224.667 404.705,231.04 404.949,219.847 405.193,209.319 405.438,192.937 405.682,228.556 405.926,244.541 406.17,208.674 406.415,230.495 406.659,233.247 
  406.903,201.435 407.147,242.193 407.392,226.206 407.636,219.943 407.88,222.694 408.124,223.759 408.369,256.587 408.613,301.469 408.857,215.656 409.101,267.815 
  409.346,206.874 409.59,215.321 409.834,221.297 410.078,206.011 410.323,228.313 410.567,228.674 410.811,223.528 411.055,199.331 411.299,228.085 411.544,219.251 
  411.788,219.076 412.032,237.155 412.276,216.818 412.521,205.5 412.765,213.75 413.009,223.851 413.253,216.3 413.498,209.594 413.742,203.559 413.986,254.967 
  414.23,250.32 414.475,211.668 414.719,251.185 414.963,209.102 415.207,208.176 415.452,223.825 415.696,230.682 415.94,219.9 416.184,224.094 416.429,213.376 
  416.673,193.078 416.917,241.822 417.161,228.201 417.406,225.621 417.65,267.109 417.894,232.486 418.138,209.788 418.382,216.91 418.627,216.837 418.871,198.782 
  419.115,216.856 419.359,195.064 419.604,249.895 419.848,254.106 420.092,227.651 420.336,221.626 420.581,230.793 420.825,229.912 421.069,221.116 421.313,218.139 
  421.558,257.761 421.802,230.172 422.046,206.892 422.29,218.218 422.535,257.224 422.779,218.472 423.023,253.41 423.267,199.876 423.512,206.098 423.756,242.282 
  424,220.943 424.244,205.647 424.489,221.544 424.733,211.119 424.977,206.702 425.221,261.876 425.466,208.459 425.71,253.371 425.954,202.823 426.198,205.739 
  426.442,222.546 426.687,219.89 426.931,224.866 427.175,205.491 427.419,274.092 427.664,217.58 427.908,273.223 428.152,226.573 428.396,195.234 428.641,244.857 
  428.885,210.499 429.129,212.913 429.373,224.564 429.618,221.878 429.862,221.607 430.106,214.377 430.35,211.777 430.595,236.451 430.839,212.151 431.083,246.107 
  431.327,234.399 431.572,263.612 431.816,276.031 432.06,230.26 432.304,206.062 432.549,217.92 432.793,200.117 433.037,235.168 433.281,207.673 433.526,214.031 
  433.77,234.693 434.014,229.125 434.258,187.274 434.502,208.557 434.747,277.414 434.991,230.453 435.235,207.812 435.479,244.463 435.724,227.23 435.968,207.195 
  436.212,209.451 436.456,250.264 436.701,219.806 436.945,238.367 437.189,201.391 437.433,196.573 437.678,211.499 437.922,197.152 438.166,211.366 438.41,222.337 
  438.655,240.995 438.899,209.108 439.143,330.943 439.387,221.741 439.632,231.799 439.876,200.641 440.12,216.264 440.364,210.87 440.609,223.131 440.853,220.043 
  441.097,223.244 441.341,222.871 441.585,212.69 441.83,228.37 442.074,207.379 442.318,186.143 442.562,260.672 442.807,214.931 443.051,263.894 443.295,221.779 
  443.539,227.002 443.784,243.056 444.028,221.426 444.272,223.693 444.516,234.024 444.761,212.657 445.005,207.97 445.249,234.622 445.493,255.716 445.738,218.116 
  445.982,245.921 446.226,240.675 446.47,229.628 446.715,207.403 446.959,209.509 447.203,246.277 447.447,200.874 447.692,240.825 447.936,240.119 448.18,201.108 
  448.424,202.104 448.669,248.965 448.913,234.462 449.157,210.648 449.401,225.594 449.645,273.074 449.89,223.418 450.134,211.016 450.378,247.853 450.622,233.462 
  450.867,248.629 451.111,208.369 451.355,188.642 451.599,196.972 451.844,200.809 452.088,209.866 452.332,269.493 452.576,240.202 452.821,229.116 453.065,242.066 
  453.309,213.074 453.553,217.902 453.798,216.605 454.042,239.833 454.286,214.31 454.53,202.804 454.775,219.479 455.019,258.333 455.263,261.433 455.507,215.433 
  455.752,213.188 455.996,212.807 456.24,183.204 456.484,216.106 456.728,223.096 456.973,231.832 457.217,215.847 457.461,295.532 457.705,248.76 457.95,227.469 
  458.194,208.276 458.438,280.561 458.682,250.418 458.927,200.131 459.171,240.46 459.415,218.098 459.659,233.983 459.904,222.567 460.148,264.716 460.392,212.655 
  460.636,210.12 460.881,198.391 461.125,216.721 461.369,205.381 461.613,244.797 461.858,243.817 462.102,241.507 462.346,210.801 462.59,220.346 462.835,218.553 
  463.079,245.142 463.323,199.47 463.567,232.366 463.812,223.832 464.056,210.82 464.3,214.593 464.544,229.139 464.788,226.919 465.033,230.76 465.277,199.996 
  465.521,220.494 465.765,200.268 466.01,231.013 466.254,225.564 466.498,228.549 466.742,230.382 466.987,236.189 467.231,237.619 467.475,235.443 467.719,256.343 
  467.964,215.058 468.208,204.936 468.452,208.825 468.696,215.845 468.941,216.859 469.185,229.454 469.429,227.489 469.673,211.47 469.918,227.776 470.162,189.434 
  470.406,217.35 470.65,248.31 470.895,226.983 471.139,203.1 471.383,256.935 471.627,224.18 471.872,205.273 472.116,205.229 472.36,217.185 472.604,230.434 
  472.848,213.65 473.093,210.608 473.337,223.94 473.581,261.974 473.825,252.429 474.07,235.462 474.314,211.899 474.558,199.886 474.802,208.102 475.047,202.214 
  475.291,220.09 475.535,257.601 475.779,237.132 476.024,214.943 476.268,258.171 476.512,218.714 476.756,217.246 477.001,231.795 477.245,202.799 477.489,241.13 
  477.733,261.787 477.978,247.317 478.222,220.442 478.466,230.877 478.71,220.921 478.955,221.923 479.199,215.169 479.443,255.985 479.687,217.359 479.931,223.911 
  480.176,237.104 480.42,249.113 480.664,218.927 480.908,246.973 481.153,249.55 481.397,213.779 481.641,219.162 481.885,221.44 482.13,206.284 482.374,210.32 
  482.618,226.87 482.862,230.996 483.107,209.77 483.351,287.861 483.595,252.096 483.839,266.302 484.084,205.618 484.328,225.72 484.572,261.37 484.816,253.543 
  485.061,245.115 485.305,237.468 485.549,220.298 485.793,218.646 486.038,231.535 486.282,233.97 486.526,233.458 486.77,280.87 487.015,219.917 487.259,235.342 
  487.503,234.079 487.747,225.274 487.991,207.003 488.236,222.825 488.48,192.6 488.724,267.972 488.968,226.948 489.213,251.336 489.457,224.453 489.701,278.569 
  489.945,205.321 490.19,259.214 490.434,252.735 490.678,206.082 490.922,227.633 491.167,200.903 491.411,260.225 491.655,254.772 491.899,223.517 492.144,242.993 
  492.388,204.077 492.632,225.413 492.876,222.794 493.121,262.443 493.365,259.082 493.609,235.751 493.853,209.038 494.098,206.291 494.342,220.123 494.586,223.88 
  494.83,247.765 495.074,248.274 495.319,207.662 495.563,243.661 495.807,228.737 496.051,270.647 496.296,234.191 496.54,240.364 496.784,218.345 497.028,233.666 
  497.273,253.635 497.517,216.045 497.761,211.211 498.005,222.938 498.25,228.963 498.494,228.602 498.738,237.38 498.982,234.844 499.227,224.349 499.471,223.799 
  499.715,214.27 499.959,228.18 500.204,214.189 500.448,298.632 500.692,236.248 500.936,261.37 501.181,227.394 501.425,222.282 501.669,238.529 501.913,221.29 
  502.158,231.625 502.402,217.454 502.646,218.829 502.89,224.63 503.134,242.342 503.379,210.503 503.623,235.524 503.867,226.201 504.111,251.395 504.356,280.933 
  504.6,228.219 504.844,243.785 505.088,213.859 505.333,259.745 505.577,238.971 505.821,237.94 506.065,245.113 506.31,234.222 506.554,227.996 506.798,230.343 
  507.042,228.796 507.287,255.409 507.531,227.529 507.775,215.078 508.019,204.892 508.264,227.659 508.508,246.398 508.752,218.9 508.996,239.327 509.241,248.06 
  509.485,254.473 509.729,221.503 509.973,226.022 510.218,264.135 510.462,266.803 510.706,291.501 510.95,209.045 511.194,208.65 511.439,215.093 511.683,229.618 
  511.927,222.474 512.171,255.857 512.416,235.173 512.66,216.823 512.904,202.42 513.148,252.835 513.393,221.863 513.637,246.102 513.881,230.887 514.125,293.436 
  514.37,224.128 514.614,244.937 514.858,228.834 515.102,196.032 515.347,207.882 515.591,207.968 515.835,225.435 516.079,223.413 516.324,246.182 516.568,247.308 
  516.812,292.787 517.056,241.333 517.301,221.875 517.545,207.364 517.789,218.643 518.033,281.249 518.277,240.384 518.522,229.299 518.766,258.719 519.01,213.889 
  519.254,227.697 519.499,219.467 519.743,241.039 519.987,275.165 520.231,216.327 520.476,209.863 520.72,222.405 520.964,243.487 521.208,216.985 521.453,246.41 
  521.697,211.659 521.941,210.674 522.185,244.615 522.43,240.299 522.674,209.868 522.918,229.895 523.162,239.558 523.407,224.834 523.651,234.881 523.895,213.438 
  524.139,219.297 524.384,233.535 524.628,208.458 524.872,208.951 525.116,203.746 525.361,226.377 525.605,237.611 525.849,213.899 526.093,313.54 526.337,206.03 
  526.582,242.778 526.826,215.137 527.07,219.448 527.314,228.282 527.559,225.542 527.803,255.088 528.047,263.564 528.291,246.881 528.536,219.537 528.78,216.354 
  529.024,199.448 529.268,226.541 529.513,213.845 529.757,212.289 530.001,219.602 530.245,205.643 530.49,230.635 530.734,228.7 530.978,201.466 531.222,216.544 
  531.467,218.02 531.711,207.447 531.955,211.396 532.199,283.526 532.444,224.074 532.688,256.973 532.932,248.106 533.176,209.872 533.42,240.934 533.665,211.587 
  533.909,239.393 534.153,198.976 534.397,207.404 534.642,208.491 534.886,209.274 535.13,219.571 535.374,227.765 535.619,207.631 535.863,223.88 536.107,228.855 
  536.351,237.711 536.596,238.13 536.84,215.767 537.084,220.193 537.328,219.577 537.573,256.459 537.817,218.392 538.061,217.404 538.305,220.712 538.55,210.854 
  538.794,222.228 539.038,221.396 539.282,257.406 539.527,239.606 539.771,212.983 540.015,215.931 540.259,249.009 540.504,248.358 540.748,274.526 540.992,249.529 
  541.236,229.451 541.48,236.063 541.725,238.424 541.969,319.867 542.213,234.697 542.457,235.097 542.702,254.325 542.946,216.696 543.19,210.187 543.434,235.999 
  543.679,216.675 543.923,243.879 544.167,300.608 544.411,210.196 544.656,222.593 544.9,216.057 545.144,222.054 545.388,207.638 545.633,294.082 545.877,192.956 
  546.121,218.512 546.365,229.008 546.61,226.924 546.854,263.11 547.098,238.201 547.342,242.016 547.587,236.292 547.831,264.728 548.075,207.183 548.319,216.812 
  548.563,186.828 548.808,205.58 549.052,247.141 549.296,222.513 549.54,221.79 549.785,221.694 550.029,220.45 550.273,205.757 550.517,254.172 550.762,215.803 
  551.006,271.713 551.25,239.449 551.494,221.96 551.739,229.889 551.983,253.064 552.227,205.635 552.471,224.036 552.716,270.717 552.96,235.592 553.204,228.037 
  553.448,284.562 553.693,223.448 553.937,218.112 554.181,215.314 554.425,248.722 554.67,237.434 554.914,215.015 555.158,233.027 555.402,239.07 555.647,203.311 
  555.891,225.249 556.135,251.939 556.379,227.688 556.623,236.072 556.868,217.567 557.112,230.533 557.356,219.868 557.6,249.788 557.845,249.412 558.089,206.042 
  558.333,223.656 558.577,226.841 558.822,222.453 559.066,228.243 559.31,244.72 559.554,213.228 559.799,225.398 560.043,215.496 560.287,202.157 560.531,236.862 
  560.776,218.793 561.02,275.913 561.264,224.755 561.508,247.139 561.753,233.627 561.997,253.084 562.241,222.392 562.485,222.332 562.73,210.452 562.974,198.816 
  563.218,280.236 563.462,266.265 563.707,207.033 563.951,260.358 564.195,225.566 564.439,217.434 564.683,229.593 564.928,223.244 565.172,219.027 565.416,220.194 
  565.66,222.135 565.905,231.069 566.149,210.684 566.393,246.16 566.637,249.226 566.882,228.255 567.126,217.54 567.37,232.446 567.614,216.21 567.859,253.119 
  568.103,225.979 568.347,246.097 568.591,222.152 568.836,217.26 569.08,268.846 569.324,217.069 569.568,218.437 569.813,225.81 570.057,244.858 570.301,281.67 
  570.545,238.045 570.79,230.976 571.034,219.891 571.278,226.913 571.522,214.867 571.766,237.308 572.011,281.775 572.255,232.665 572.499,220.017 572.743,278.955 
  572.988,248.763 573.232,253.084 573.476,190.009 573.72,236.184 573.965,197.741 574.209,211.589 574.453,241.388 574.697,237.189 574.942,251.421 575.186,230.949 
  575.43,263.389 575.674,228.724 575.919,216.758 576.163,286.256 576.407,212.643 576.651,246.753 576.896,215.971 577.14,240.993 577.384,225.191 577.628,262.348 
  577.873,226.146 578.117,238.486 578.361,211.183 578.605,254.84 578.85,248.256 579.094,249.691 579.338,233.463 579.582,220.745 579.826,219.83 580.071,218.157 
  580.315,224.493 
  "/>
</svg>
