<?xml version="1.0" encoding="utf-8"?>
<svg xmlns="http://www.w3.org/2000/svg" xmlns:xlink="http://www.w3.org/1999/xlink" width="600" height="400" viewBox="0 0 600 400">
<defs>
  <clipPath id="clip00">
    <rect x="0" y="0" width="600" height="400"/>
  </clipPath>
</defs>
<polygon clip-path="url(#clip00)" points="
0,400 600,400 600,0 0,0 
  " fill="#ffffff" fill-opacity="1"/>
<defs>
  <clipPath id="clip01">
    <rect x="120" y="0" width="421" height="400"/>
  </clipPath>
</defs>
<polygon clip-path="url(#clip00)" points="
62.5219,357.163 580.315,357.163 580.315,15.748 62.5219,15.748 
  " fill="#ffffff" fill-opacity="1"/>
<defs>
  <clipPath id="clip02">
    <rect x="62" y="15" width="518" height="342"/>
  </clipPath>
</defs>
<g clip-path="url(#clip00)">
<text style="fill:#00002d; fill-opacity:1; font-family:Arial; font-size:12; text-anchor:start;" transform="rotate(0, 44.3591, 308.051)" x="44.3591" y="308.051">-</text>
</g>
<g clip-path="url(#clip00)">
<text style="fill:#00002d; fill-opacity:1; font-family:Arial; font-size:12; text-anchor:start;" transform="rotate(0, 51.2806, 308.051)" x="51.2806" y="308.051">5</text>
</g>
<g clip-path="url(#clip00)">
<text style="fill:#00002d; fill-opacity:1; font-family:Arial; font-size:12; text-anchor:start;" transform="rotate(0, 51.2806, 176.737)" x="51.2806" y="176.737">0</text>
</g>
<g clip-path="url(#clip00)">
<text style="fill:#00002d; fill-opacity:1; font-family:Arial; font-size:12; text-anchor:start;" transform="rotate(0, 51.2806, 45.4235)" x="51.2806" y="45.4235">5</text>
</g>
<polyline clip-path="url(#clip00)" style="stroke:#00002d; stroke-width:0.8; stroke-opacity:1; fill:none" points="
  62.5219,357.163 62.5219,304.638 71.8252,304.638 62.5219,304.638 62.5219,173.324 71.8252,173.324 62.5219,173.324 62.5219,42.0107 71.8252,42.0107 62.5219,42.0107 
  62.5219,15.748 
  "/>
<g clip-path="url(#clip00)">
<text style="fill:#00002d; fill-opacity:1; font-family:Arial; font-size:12; text-anchor:start;" transform="rotate(0, 226.213, 372.528)" x="226.213" y="372.528">50</text>
</g>
<g clip-path="url(#clip00)">
<text style="fill:#00002d; fill-opacity:1; font-family:Arial; font-size:12; text-anchor:start;" transform="rotate(0, 396.674, 372.528)" x="396.674" y="372.528">100</text>
</g>
<g clip-path="url(#clip00)">
<text style="fill:#00002d; fill-opacity:1; font-family:Arial; font-size:12; text-anchor:start;" transform="rotate(0, 570.431, 372.528)" x="570.431" y="372.528">150</text>
</g>
<polyline clip-path="url(#clip00)" style="stroke:#00002d; stroke-width:0.8; stroke-opacity:1; fill:none" points="
  62.5219,357.163 232.803,357.163 232.803,347.86 232.803,357.163 406.559,357.163 406.559,347.86 406.559,357.163 580.315,357.163 580.315,347.86 580.315,357.163 
  
  "/>
<polyline clip-path="url(#clip00)" style="stroke:#00002d; stroke-width:0.8; stroke-opacity:1; fill:none" points="
  580.315,357.163 580.315,304.638 571.012,304.638 580.315,304.638 580.315,173.324 571.012,173.324 580.315,173.324 580.315,42.0107 571.012,42.0107 580.315,42.0107 
  580.315,15.748 
  "/>
<polyline clip-path="url(#clip00)" style="stroke:#00002d; stroke-width:0.8; stroke-opacity:1; fill:none" points="
  62.5219,15.748 232.803,15.748 232.803,25.0513 232.803,15.748 406.559,15.748 406.559,25.0513 406.559,15.748 580.315,15.748 580.315,25.0513 580.315,15.748 
  
  "/>
<g clip-path="url(#clip00)">
<text style="fill:#00002d; fill-opacity:1; font-family:Arial; font-size:16; text-anchor:middle;" transform="rotate(0, 321.418, 397.6)" x="321.418" y="397.6">Lag</text>
</g>
<g clip-path="url(#clip00)">
<text style="fill:#00002d; fill-opacity:1; font-family:Arial; font-size:16; text-anchor:middle;" transform="rotate(-90, 14.4, 186.456)" x="14.4" y="186.456">Amplitude</text>
</g>
<polyline clip-path="url(#clip02)" style="stroke:#0099ff; stroke-width:0.8; stroke-opacity:1; fill:none" points="
  62.5219,40.9653 65.997,350.898 69.4721,138.712 72.9472,196.934 76.4224,191.527 79.8975,162.353 83.3726,185.062 86.8477,150.073 90.3228,159.444 93.798,161.214 
  97.2731,139.9 100.748,166.285 104.223,176.207 107.698,153.001 111.174,170.988 114.649,183.881 118.124,191.085 121.599,163.056 125.074,197.98 128.549,163.276 
  132.024,184.566 135.499,154.453 138.975,203.181 142.45,185.41 145.925,183.037 149.4,202.991 152.875,155.367 156.35,206.655 159.825,148.703 163.3,185.187 
  166.776,209.461 170.251,183.557 173.726,147.031 177.201,162.025 180.676,130.949 184.151,173.652 187.626,163.73 191.101,152.644 194.576,173.592 198.052,173.178 
  201.527,214.589 205.002,175.074 208.477,188.569 211.952,167.598 215.427,159.02 218.902,186.342 222.377,161.864 225.853,185.282 229.328,178.447 232.803,173.849 
  236.278,171.091 239.753,169.596 243.228,165.374 246.703,170.15 250.178,167.538 253.654,161.686 257.129,171.755 260.604,173.789 264.079,173.813 267.554,173.683 
  271.029,179.527 274.504,169.606 277.979,170.857 281.455,166.89 284.93,163.302 288.405,179.468 291.88,170.991 295.355,190.091 298.83,180.068 302.305,201.116 
  305.78,177.699 309.255,186.327 312.731,162.577 316.206,161.39 319.681,178.429 323.156,153.807 326.631,163.939 330.106,167.157 333.581,168.042 337.056,169.11 
  340.532,160.485 344.007,161.288 347.482,172.627 350.957,178.973 354.432,177.344 357.907,176.868 361.382,187.468 364.857,186.89 368.333,191.595 371.808,191.742 
  375.283,179.144 378.758,193.793 382.233,169.094 385.708,188.522 389.183,175.467 392.658,157.839 396.134,182.748 399.609,145.369 403.084,166.098 406.559,187.339 
  410.034,201.422 413.509,186.088 416.984,175.779 420.459,148.976 423.934,136.466 427.41,152.324 430.885,141.502 434.36,133.081 437.835,164.449 441.31,139.873 
  444.785,150.92 448.26,188.637 451.735,192.091 455.211,215.255 458.686,182.341 462.161,209.724 465.636,199.984 469.111,169.194 472.586,189.515 476.061,154.909 
  479.536,156.443 483.012,173.149 486.487,170.489 489.962,170.991 493.437,182.234 496.912,155.669 500.387,171.95 503.862,166.544 507.337,177.148 510.813,186.33 
  514.288,175.732 517.763,188.737 521.238,187.907 524.713,193.499 528.188,174.799 531.663,178.918 535.138,181.55 538.614,152.528 542.089,166.546 545.564,154.318 
  549.039,162.123 552.514,152.739 555.989,176.59 559.464,166.742 562.939,162.957 566.414,174.009 569.89,184.348 573.365,169.895 576.84,243.179 580.315,106.179 
  
  "/>
</svg>
