<?xml version="1.0" encoding="utf-8"?>
<svg xmlns="http://www.w3.org/2000/svg" xmlns:xlink="http://www.w3.org/1999/xlink" width="600" height="400" viewBox="0 0 600 400">
<defs>
  <clipPath id="clip00">
    <rect x="0" y="0" width="600" height="400"/>
  </clipPath>
</defs>
<polygon clip-path="url(#clip00)" points="
0,400 600,400 600,0 0,0 
  " fill="#ffffff" fill-opacity="1"/>
<defs>
  <clipPath id="clip01">
    <rect x="120" y="0" width="421" height="400"/>
  </clipPath>
</defs>
<polygon clip-path="url(#clip00)" points="
62.5219,357.163 580.315,357.163 580.315,15.748 62.5219,15.748 
  " fill="#ffffff" fill-opacity="1"/>
<defs>
  <clipPath id="clip02">
    <rect x="62" y="15" width="518" height="342"/>
  </clipPath>
</defs>
<g clip-path="url(#clip00)">
<text style="fill:#00002d; fill-opacity:1; font-family:Arial; font-size:12; text-anchor:start;" transform="rotate(0, 44.3591, 308.051)" x="44.3591" y="308.051">-</text>
</g>
<g clip-path="url(#clip00)">
<text style="fill:#00002d; fill-opacity:1; font-family:Arial; font-size:12; text-anchor:start;" transform="rotate(0, 51.2806, 308.051)" x="51.2806" y="308.051">5</text>
</g>
<g clip-path="url(#clip00)">
<text style="fill:#00002d; fill-opacity:1; font-family:Arial; font-size:12; text-anchor:start;" transform="rotate(0, 51.2806, 176.737)" x="51.2806" y="176.737">0</text>
</g>
<g clip-path="url(#clip00)">
<text style="fill:#00002d; fill-opacity:1; font-family:Arial; font-size:12; text-anchor:start;" transform="rotate(0, 51.2806, 45.4235)" x="51.2806" y="45.4235">5</text>
</g>
<polyline clip-path="url(#clip00)" style="stroke:#00002d; stroke-width:0.8; stroke-opacity:1; fill:none" points="
  62.5219,357.163 62.5219,304.638 71.8252,304.638 62.5219,304.638 62.5219,173.324 71.8252,173.324 62.5219,173.324 62.5219,42.0107 71.8252,42.0107 62.5219,42.0107 
  62.5219,15.748 
  "/>
<g clip-path="url(#clip00)">
<text style="fill:#00002d; fill-opacity:1; font-family:Arial; font-size:12; text-anchor:start;" transform="rotate(0, 226.213, 372.528)" x="226.213" y="372.528">50</text>
</g>
<g clip-path="url(#clip00)">
<text style="fill:#00002d; fill-opacity:1; font-family:Arial; font-size:12; text-anchor:start;" transform="rotate(0, 396.674, 372.528)" x="396.674" y="372.528">100</text>
</g>
<g clip-path="url(#clip00)">
<text style="fill:#00002d; fill-opacity:1; font-family:Arial; font-size:12; text-anchor:start;" transform="rotate(0, 570.431, 372.528)" x="570.431" y="372.528">150</text>
</g>
<polyline clip-path="url(#clip00)" style="stroke:#00002d; stroke-width:0.8; stroke-opacity:1; fill:none" points="
  62.5219,357.163 232.803,357.163 232.803,347.86 232.803,357.163 406.559,357.163 406.559,347.86 406.559,357.163 580.315,357.163 580.315,347.86 580.315,357.163 
  
  "/>
<polyline clip-path="url(#clip00)" style="stroke:#00002d; stroke-width:0.8; stroke-opacity:1; fill:none" points="
  580.315,357.163 580.315,304.638 571.012,304.638 580.315,304.638 580.315,173.324 571.012,173.324 580.315,173.324 580.315,42.0107 571.012,42.0107 580.315,42.0107 
  580.315,15.748 
  "/>
<polyline clip-path="url(#clip00)" style="stroke:#00002d; stroke-width:0.8; stroke-opacity:1; fill:none" points="
  62.5219,15.748 232.803,15.748 232.803,25.0513 232.803,15.748 406.559,15.748 406.559,25.0513 406.559,15.748 580.315,15.748 580.315,25.0513 580.315,15.748 
  
  "/>
<g clip-path="url(#clip00)">
<text style="fill:#00002d; fill-opacity:1; font-family:Arial; font-size:16; text-anchor:middle;" transform="rotate(0, 321.418, 397.6)" x="321.418" y="397.6">Lag</text>
</g>
<g clip-path="url(#clip00)">
<text style="fill:#00002d; fill-opacity:1; font-family:Arial; font-size:16; text-anchor:middle;" transform="rotate(-90, 14.4, 186.456)" x="14.4" y="186.456">Amplitude</text>
</g>
<polyline clip-path="url(#clip02)" style="stroke:#0099ff; stroke-width:0.8; stroke-opacity:1; fill:none" points="
  62.5219,165.807 65.997,183.144 69.4721,188.18 72.9472,187.711 76.4224,183.576 79.8975,176.317 83.3726,168.99 86.8477,162.587 90.3228,158.895 93.798,157.105 
  97.2731,157.309 100.748,160.426 104.223,164.248 107.698,167.762 111.174,172.209 114.649,176.639 118.124,178.786 121.599,178.693 125.074,178.41 128.549,177.466 
  132.024,178.169 135.499,180.564 138.975,184.33 142.45,186.293 145.925,186.045 149.4,184.398 152.875,181.752 156.35,180.406 159.825,179.554 163.3,180.807 
  166.776,180.195 170.251,174.498 173.726,166.442 177.201,159.84 180.676,156.13 184.151,157.214 187.626,160.824 191.101,165.919 194.576,172.622 198.052,179.391 
  201.527,183.94 205.002,183.812 208.477,181.255 211.952,177.454 215.427,174.709 218.902,173.695 222.377,173.453 225.853,174.187 229.328,173.989 232.803,172.809 
  236.278,171.247 239.753,169.982 243.228,169.272 246.703,169.178 250.178,168.979 253.654,169.065 257.129,169.863 260.604,170.985 264.079,172.103 267.554,172.752 
  271.029,172.686 274.504,171.929 277.979,171.102 281.455,171.082 284.93,172.775 288.405,175.547 291.88,178.571 295.355,181.751 298.83,183.659 302.305,183.774 
  305.78,181.204 309.255,177.225 312.731,172.415 316.206,168.988 319.681,167.045 323.156,165.373 326.631,164.985 330.106,165.096 333.581,165.167 337.056,165.567 
  340.532,166.412 344.007,167.72 347.482,170.4 350.957,173.841 354.432,177.568 357.907,181.281 361.382,184.326 364.857,186.561 368.333,187.744 371.808,187.303 
  375.283,185.925 378.758,184.071 382.233,181.22 385.708,178.426 389.183,174.335 392.658,170.363 396.134,168.835 399.609,169.402 403.084,173.73 406.559,179.68 
  410.034,182.266 413.509,178.503 416.984,169.576 420.459,158.611 423.934,149.597 427.41,144.661 430.885,142.395 434.36,143.656 437.835,149.139 441.31,156.212 
  444.785,165.59 448.26,177.268 451.735,187.876 455.211,195.198 458.686,198.044 462.161,197.29 465.636,192.259 469.111,184.439 472.586,176.83 476.061,170.368 
  479.536,167.011 483.012,166.739 486.487,167.686 489.962,168.865 493.437,169.256 496.912,169.359 500.387,170.905 503.862,173.394 507.337,176.957 510.813,180.194 
  514.288,182.697 517.763,184.51 521.238,184.779 524.713,183.244 528.188,180.186 531.663,176.807 535.138,172.657 538.614,168.062 542.089,164.489 545.564,161.921 
  549.039,161.001 552.514,161.245 555.989,163.105 559.464,165.668 562.939,168.673 566.414,172.15 569.89,175.227 573.365,176.778 576.84,176.01 580.315,172.368 
  
  "/>
</svg>
