<?xml version="1.0" encoding="utf-8"?>
<svg xmlns="http://www.w3.org/2000/svg" xmlns:xlink="http://www.w3.org/1999/xlink" width="600" height="400" viewBox="0 0 600 400">
<defs>
  <clipPath id="clip00">
    <rect x="0" y="0" width="600" height="400"/>
  </clipPath>
</defs>
<polygon clip-path="url(#clip00)" points="
0,400 600,400 600,0 0,0 
  " fill="#ffffff" fill-opacity="1"/>
<defs>
  <clipPath id="clip01">
    <rect x="120" y="0" width="421" height="400"/>
  </clipPath>
</defs>
<polygon clip-path="url(#clip00)" points="
62.5219,357.163 580.315,357.163 580.315,35.1925 62.5219,35.1925 
  " fill="#ffffff" fill-opacity="1"/>
<defs>
  <clipPath id="clip02">
    <rect x="62" y="35" width="518" height="322"/>
  </clipPath>
</defs>
<polyline clip-path="url(#clip00)" style="stroke:#cccccc; stroke-width:0.8; stroke-opacity:1; fill:none" points="
  62.5219,299.698 580.315,299.698 
  "/>
<polyline clip-path="url(#clip00)" style="stroke:#cccccc; stroke-width:0.8; stroke-opacity:1; fill:none" points="
  62.5219,216.386 580.315,216.386 
  "/>
<polyline clip-path="url(#clip00)" style="stroke:#cccccc; stroke-width:0.8; stroke-opacity:1; fill:none" points="
  62.5219,133.073 580.315,133.073 
  "/>
<polyline clip-path="url(#clip00)" style="stroke:#cccccc; stroke-width:0.8; stroke-opacity:1; fill:none" points="
  62.5219,49.7607 580.315,49.7607 
  "/>
<polyline clip-path="url(#clip00)" style="stroke:#cccccc; stroke-width:0.8; stroke-opacity:1; fill:none" points="
  233.965,357.163 233.965,35.1925 
  "/>
<polyline clip-path="url(#clip00)" style="stroke:#cccccc; stroke-width:0.8; stroke-opacity:1; fill:none" points="
  407.14,357.163 407.14,35.1925 
  "/>
<polyline clip-path="url(#clip00)" style="stroke:#cccccc; stroke-width:0.8; stroke-opacity:1; fill:none" points="
  580.315,357.163 580.315,35.1925 
  "/>
<g clip-path="url(#clip00)">
<text style="fill:#00002d; fill-opacity:1; font-family:Arial; font-size:12; text-anchor:start;" transform="rotate(0, 44.4378, 303.111)" x="44.4378" y="303.111">-</text>
</g>
<g clip-path="url(#clip00)">
<text style="fill:#00002d; fill-opacity:1; font-family:Arial; font-size:12; text-anchor:start;" transform="rotate(0, 51.3592, 303.111)" x="51.3592" y="303.111">1</text>
</g>
<g clip-path="url(#clip00)">
<text style="fill:#00002d; fill-opacity:1; font-family:Arial; font-size:12; text-anchor:start;" transform="rotate(0, 51.3592, 219.799)" x="51.3592" y="219.799">0</text>
</g>
<g clip-path="url(#clip00)">
<text style="fill:#00002d; fill-opacity:1; font-family:Arial; font-size:12; text-anchor:start;" transform="rotate(0, 51.3592, 136.486)" x="51.3592" y="136.486">1</text>
</g>
<g clip-path="url(#clip00)">
<text style="fill:#00002d; fill-opacity:1; font-family:Arial; font-size:12; text-anchor:start;" transform="rotate(0, 51.3592, 53.1735)" x="51.3592" y="53.1735">2</text>
</g>
<polyline clip-path="url(#clip00)" style="stroke:#00002d; stroke-width:0.8; stroke-opacity:1; fill:none" points="
  62.5219,357.163 62.5219,299.698 71.6679,299.698 62.5219,299.698 62.5219,216.386 71.6679,216.386 62.5219,216.386 62.5219,133.073 71.6679,133.073 62.5219,133.073 
  62.5219,49.7607 71.6679,49.7607 62.5219,49.7607 62.5219,35.1925 
  "/>
<g clip-path="url(#clip00)">
<text style="fill:#00002d; fill-opacity:1; font-family:Arial; font-size:12; text-anchor:start;" transform="rotate(0, 224.081, 372.45)" x="224.081" y="372.45">100</text>
</g>
<g clip-path="url(#clip00)">
<text style="fill:#00002d; fill-opacity:1; font-family:Arial; font-size:12; text-anchor:start;" transform="rotate(0, 397.256, 372.45)" x="397.256" y="372.45">200</text>
</g>
<g clip-path="url(#clip00)">
<text style="fill:#00002d; fill-opacity:1; font-family:Arial; font-size:12; text-anchor:start;" transform="rotate(0, 570.431, 372.45)" x="570.431" y="372.45">300</text>
</g>
<polyline clip-path="url(#clip00)" style="stroke:#00002d; stroke-width:0.8; stroke-opacity:1; fill:none" points="
  62.5219,357.163 233.965,357.163 233.965,348.017 233.965,357.163 407.14,357.163 407.14,348.017 407.14,357.163 580.315,357.163 580.315,348.017 580.315,357.163 
  
  "/>
<polyline clip-path="url(#clip00)" style="stroke:#00002d; stroke-width:0.8; stroke-opacity:1; fill:none" points="
  580.315,357.163 580.315,299.698 571.169,299.698 580.315,299.698 580.315,216.386 571.169,216.386 580.315,216.386 580.315,133.073 571.169,133.073 580.315,133.073 
  580.315,49.7607 571.169,49.7607 580.315,49.7607 580.315,35.1925 
  "/>
<polyline clip-path="url(#clip00)" style="stroke:#00002d; stroke-width:0.8; stroke-opacity:1; fill:none" points="
  62.5219,35.1925 233.965,35.1925 233.965,44.3385 233.965,35.1925 407.14,35.1925 407.14,44.3385 407.14,35.1925 580.315,35.1925 580.315,44.3385 580.315,35.1925 
  
  "/>
<g clip-path="url(#clip00)">
<text style="fill:#00002d; fill-opacity:1; font-family:Arial; font-size:21; text-anchor:middle;" transform="rotate(0, 321.418, 18)" x="321.418" y="18">TidalDischargeModels.RegularizedLTIModel</text>
</g>
<g clip-path="url(#clip00)">
<text style="fill:#00002d; fill-opacity:1; font-family:Arial; font-size:16; text-anchor:middle;" transform="rotate(0, 321.418, 397.6)" x="321.418" y="397.6">Lag</text>
</g>
<g clip-path="url(#clip00)">
<text style="fill:#00002d; fill-opacity:1; font-family:Arial; font-size:16; text-anchor:middle;" transform="rotate(-90, 14.4, 196.178)" x="14.4" y="196.178">Amplitude</text>
</g>
<polyline clip-path="url(#clip02)" style="stroke:#0099ff; stroke-width:0.8; stroke-opacity:1; fill:none" points="
  62.5219,130.431 64.2536,233.912 65.9854,269.904 67.7171,275.77 69.4489,262.34 71.1806,230.464 72.9124,195.985 74.6441,165.2 76.3759,147.528 78.1076,139.94 
  79.8394,139.206 81.5711,153.772 83.3029,170.203 85.0346,185.736 86.7664,208.5 88.4981,232.588 90.2299,244.277 91.9616,243.046 93.6934,238.733 95.4251,228.351 
  97.1569,228.484 98.8886,238.345 100.62,254.683 102.352,262.894 104.084,262.352 105.816,256.668 107.547,247.752 109.279,249.917 111.011,258.122 112.743,280.877 
  114.474,290.1 116.206,263.209 117.938,215.842 119.67,173.306 121.401,143.596 123.133,139.566 124.865,150.701 126.597,170.196 128.328,200.744 130.06,235.352 
  131.792,261.315 133.524,261.611 135.255,249.967 136.987,230.988 138.719,216.023 140.451,209.518 142.182,206.27 143.914,209.42 145.646,208.117 147.378,202.957 
  149.109,198.442 150.841,198.379 152.573,202.756 154.305,210.271 156.036,215.215 157.768,219.879 159.5,226.372 161.232,231.123 162.963,234.616 164.695,234.982 
  166.427,230.784 168.159,221.428 169.89,209.788 171.622,202.165 173.354,203.773 175.086,210.769 176.817,218.444 178.549,226.404 180.281,227.028 182.013,217.618 
  183.744,197.196 185.476,177.365 187.208,158.465 188.94,153.793 190.671,163.2 192.403,176.931 194.135,197.6 195.867,216.969 197.598,229.769 199.33,238.563 
  201.062,244.188 202.794,247.438 204.525,254.01 206.257,262.793 207.989,273.538 209.721,284.414 211.452,292.944 213.184,296.959 214.916,295.773 216.648,286.127 
  218.379,271.525 220.111,254.517 221.843,234.312 223.575,216.537 225.306,195.125 227.038,176.717 228.77,171.773 230.502,177.276 232.233,205.145 233.965,240.444 
  235.697,252.63 237.429,226.354 239.16,172.973 240.892,113.793 242.624,69.1546 244.356,46.318 246.087,35.1925 247.819,43.8685 249.551,76.3001 251.283,117.244 
  253.014,172.726 254.746,240.923 256.478,301.179 258.21,342.27 259.941,357.163 261.673,349.927 263.405,317.248 265.137,269.259 266.868,225.737 268.6,190.647 
  270.332,175.24 272.064,177.795 273.795,185.51 275.527,195.055 277.259,200.698 278.991,203.58 280.722,213.854 282.454,227.719 284.186,246.109 285.918,264.46 
  287.649,277.57 289.381,285.704 291.113,285.924 292.845,275.717 294.576,255.895 296.308,231.888 298.04,202.132 299.772,169.263 301.503,140.978 303.235,118.165 
  304.967,107.476 306.699,105.851 308.43,117.555 310.162,136.409 311.894,159.593 313.626,191.802 315.357,229.931 317.089,267.106 318.821,298.935 320.553,320.892 
  322.284,326.796 324.016,315.418 325.748,295.046 327.48,265.73 329.211,234.628 330.943,207.682 332.675,186.576 334.407,173.329 336.138,169.935 337.87,177.753 
  339.602,187.962 341.334,202.262 343.065,214.589 344.797,226.642 346.529,232.981 348.261,227.673 349.992,219.561 351.724,208.372 353.456,208.027 355.188,221.702 
  356.919,241.899 358.651,261.529 360.383,277.302 362.115,279.908 363.846,261.543 365.578,232.185 367.31,205.818 369.042,197.442 370.773,194.986 372.505,191.845 
  374.237,189.03 375.969,175.225 377.7,157.388 379.432,171.055 381.164,194.808 382.896,213.495 384.627,227.189 386.359,232.713 388.091,227.14 389.823,225.443 
  391.554,229.738 393.286,228.026 395.018,227.271 396.75,229.899 398.481,234.266 400.213,238.256 401.945,237.424 403.677,236.388 405.408,234.885 407.14,227.001 
  408.872,212.994 410.604,201.566 412.335,190.132 414.067,179.446 415.799,176.325 417.531,180.307 419.262,189.936 420.994,200.705 422.726,204.876 424.458,205.352 
  426.189,200.152 427.921,196.629 429.653,199.267 431.385,207.248 433.116,221.438 434.848,242.828 436.58,264.887 438.312,283.08 440.043,293.082 441.775,294.403 
  443.507,287.03 445.239,269.263 446.97,250.023 448.702,227.858 450.434,205.335 452.166,188.306 453.897,171.607 455.629,154.335 457.361,143.271 459.092,138.596 
  460.824,141.128 462.556,152.875 464.288,165.665 466.019,181.251 467.751,202.089 469.483,217.436 471.215,227.197 472.946,236.699 474.678,246.256 476.41,250.351 
  478.142,253.414 479.873,250.574 481.605,247.696 483.337,241.008 485.069,231.696 486.8,221.068 488.532,224.818 490.264,235.982 491.996,239.941 493.727,237.54 
  495.459,234.738 497.191,235.288 498.923,233.265 500.654,228.2 502.386,206.498 504.118,188.56 505.85,183.288 507.581,193.509 509.313,199.349 511.045,210.997 
  512.777,222.973 514.508,231.913 516.24,240.468 517.972,238.167 519.704,235.053 521.435,228.683 523.167,225.406 524.899,225.831 526.631,217.048 528.362,207.417 
  530.094,207.272 531.826,211.599 533.558,215.433 535.289,215.351 537.021,208.486 538.753,201.435 540.485,201.845 542.216,205.857 543.948,213.175 545.68,222.214 
  547.412,226.275 549.143,226.484 550.875,226.541 552.607,222.573 554.339,217.116 556.07,214.478 557.802,215.917 559.534,224.067 561.266,237.329 562.997,251.376 
  564.729,263.448 566.461,265.603 568.193,259.073 569.924,249.805 571.656,237.176 573.388,215.996 575.12,186.61 576.851,152.828 578.583,111.612 580.315,51.98 
  
  "/>
</svg>
