<?xml version="1.0" encoding="utf-8"?>
<svg xmlns="http://www.w3.org/2000/svg" xmlns:xlink="http://www.w3.org/1999/xlink" width="600" height="400" viewBox="0 0 600 400">
<defs>
  <clipPath id="clip00">
    <rect x="0" y="0" width="600" height="400"/>
  </clipPath>
</defs>
<polygon clip-path="url(#clip00)" points="
0,400 600,400 600,0 0,0 
  " fill="#ffffff" fill-opacity="1"/>
<defs>
  <clipPath id="clip01">
    <rect x="120" y="0" width="421" height="400"/>
  </clipPath>
</defs>
<polygon clip-path="url(#clip00)" points="
62.5219,357.163 580.315,357.163 580.315,15.748 62.5219,15.748 
  " fill="#ffffff" fill-opacity="1"/>
<defs>
  <clipPath id="clip02">
    <rect x="62" y="15" width="518" height="342"/>
  </clipPath>
</defs>
<g clip-path="url(#clip00)">
<text style="fill:#00002d; fill-opacity:1; font-family:Arial; font-size:12; text-anchor:start;" transform="rotate(0, 37.7695, 360.576)" x="37.7695" y="360.576">-</text>
</g>
<g clip-path="url(#clip00)">
<text style="fill:#00002d; fill-opacity:1; font-family:Arial; font-size:12; text-anchor:start;" transform="rotate(0, 44.691, 360.576)" x="44.691" y="360.576">10</text>
</g>
<g clip-path="url(#clip00)">
<text style="fill:#00002d; fill-opacity:1; font-family:Arial; font-size:12; text-anchor:start;" transform="rotate(0, 44.3591, 275.222)" x="44.3591" y="275.222">-</text>
</g>
<g clip-path="url(#clip00)">
<text style="fill:#00002d; fill-opacity:1; font-family:Arial; font-size:12; text-anchor:start;" transform="rotate(0, 51.2806, 275.222)" x="51.2806" y="275.222">5</text>
</g>
<g clip-path="url(#clip00)">
<text style="fill:#00002d; fill-opacity:1; font-family:Arial; font-size:12; text-anchor:start;" transform="rotate(0, 51.2806, 189.868)" x="51.2806" y="189.868">0</text>
</g>
<g clip-path="url(#clip00)">
<text style="fill:#00002d; fill-opacity:1; font-family:Arial; font-size:12; text-anchor:start;" transform="rotate(0, 51.2806, 104.515)" x="51.2806" y="104.515">5</text>
</g>
<g clip-path="url(#clip00)">
<text style="fill:#00002d; fill-opacity:1; font-family:Arial; font-size:12; text-anchor:start;" transform="rotate(0, 44.691, 19.1608)" x="44.691" y="19.1608">10</text>
</g>
<polyline clip-path="url(#clip00)" style="stroke:#00002d; stroke-width:0.8; stroke-opacity:1; fill:none" points="
  62.5219,357.163 62.5219,357.163 71.8252,357.163 62.5219,357.163 62.5219,271.809 71.8252,271.809 62.5219,271.809 62.5219,186.456 71.8252,186.456 62.5219,186.456 
  62.5219,101.102 71.8252,101.102 62.5219,101.102 62.5219,15.748 71.8252,15.748 62.5219,15.748 
  "/>
<g clip-path="url(#clip00)">
<text style="fill:#00002d; fill-opacity:1; font-family:Arial; font-size:12; text-anchor:start;" transform="rotate(0, 148.701, 372.528)" x="148.701" y="372.528">240</text>
</g>
<g clip-path="url(#clip00)">
<text style="fill:#00002d; fill-opacity:1; font-family:Arial; font-size:12; text-anchor:start;" transform="rotate(0, 324.473, 372.528)" x="324.473" y="372.528">250</text>
</g>
<g clip-path="url(#clip00)">
<text style="fill:#00002d; fill-opacity:1; font-family:Arial; font-size:12; text-anchor:start;" transform="rotate(0, 500.244, 372.528)" x="500.244" y="372.528">260</text>
</g>
<polyline clip-path="url(#clip00)" style="stroke:#00002d; stroke-width:0.8; stroke-opacity:1; fill:none" points="
  62.5219,357.163 158.586,357.163 158.586,347.86 158.586,357.163 334.357,357.163 334.357,347.86 334.357,357.163 510.128,357.163 510.128,347.86 510.128,357.163 
  580.315,357.163 
  "/>
<polyline clip-path="url(#clip00)" style="stroke:#00002d; stroke-width:0.8; stroke-opacity:1; fill:none" points="
  580.315,357.163 580.315,357.163 571.012,357.163 580.315,357.163 580.315,271.809 571.012,271.809 580.315,271.809 580.315,186.456 571.012,186.456 580.315,186.456 
  580.315,101.102 571.012,101.102 580.315,101.102 580.315,15.748 571.012,15.748 580.315,15.748 
  "/>
<polyline clip-path="url(#clip00)" style="stroke:#00002d; stroke-width:0.8; stroke-opacity:1; fill:none" points="
  62.5219,15.748 158.586,15.748 158.586,25.0513 158.586,15.748 334.357,15.748 334.357,25.0513 334.357,15.748 510.128,15.748 510.128,25.0513 510.128,15.748 
  580.315,15.748 
  "/>
<g clip-path="url(#clip00)">
<text style="fill:#00002d; fill-opacity:1; font-family:Arial; font-size:16; text-anchor:middle;" transform="rotate(0, 321.418, 397.6)" x="321.418" y="397.6">Day of Year</text>
</g>
<g clip-path="url(#clip00)">
<text style="fill:#00002d; fill-opacity:1; font-family:Arial; font-size:16; text-anchor:middle;" transform="rotate(-90, 14.4, 186.456)" x="14.4" y="186.456">Residual discharge</text>
</g>
<polyline clip-path="url(#clip02)" style="stroke:#0099ff; stroke-width:0.8; stroke-opacity:1; fill:none" points="
  62.5219,182.322 62.6439,183.846 62.766,185.341 62.8881,186.787 63.0101,188.331 63.1322,186.426 63.2543,188.201 63.3763,190.395 63.4984,191.939 63.6204,191.763 
  63.7425,195.369 63.8646,197.956 63.9866,197.438 64.1087,200.888 64.2308,200.554 64.3528,201.646 64.4749,199.977 64.597,200.639 64.719,194.558 64.8411,197.895 
  64.9631,190.546 65.0852,189.856 65.2073,190.913 65.3293,190.314 65.4514,189.429 65.5735,192.6 65.6955,191.229 65.8176,194.981 65.9396,196.562 66.0617,200.826 
  66.1838,193.17 66.3058,200.413 66.4279,199.083 66.55,198.506 66.672,196.043 66.7941,189.219 66.9162,181.985 67.0382,177.792 67.1603,174.693 67.2823,174.808 
  67.4044,175.86 67.5265,173.098 67.6485,170.658 67.7706,172.607 67.8927,167.982 68.0147,166.016 68.1368,166.696 68.2589,164.464 68.3809,163.833 68.503,167.886 
  68.625,171.018 68.7471,174.906 68.8692,176.379 68.9912,179.356 69.1133,184.194 69.2354,188.416 69.3574,192.793 69.4795,195.155 69.6016,199.344 69.7236,198.87 
  69.8457,198.193 69.9677,198.022 70.0898,196.694 70.2119,194.416 70.3339,191.38 70.456,187.79 70.5781,184 70.7001,180.574 70.8222,177.389 70.9442,174.587 
  71.0663,172.409 71.1884,171.113 71.3104,170.97 71.4325,171.989 71.5546,173.986 71.6766,176.62 71.7987,179.601 71.9208,182.813 72.0428,186.364 72.1649,189.644 
  72.2869,192.411 72.409,194.616 72.5311,192.747 72.6531,194.637 72.7752,194.907 72.8973,196.154 73.0193,197.054 73.1414,198.266 73.2635,198.548 73.3855,199.773 
  73.5076,199.084 73.6296,196.87 73.7517,197.156 73.8738,193.95 73.9958,192.907 74.1179,186.998 74.24,188.048 74.362,185.694 74.4841,182.766 74.6062,182.581 
  74.7282,188.051 74.8503,185.806 74.9723,186.184 75.0944,192.56 75.2165,186.371 75.3385,195.26 75.4606,194.212 75.5827,191.16 75.7047,192.21 75.8268,190.451 
  75.9489,183.46 76.0709,185.77 76.193,186.003 76.315,176.882 76.4371,180.793 76.5592,176.707 76.6812,172.361 76.8033,169.689 76.9254,169.163 77.0474,168.608 
  77.1695,166.349 77.2915,167.417 77.4136,171.35 77.5357,171.472 77.6577,172.117 77.7798,181.63 77.9019,182.878 78.0239,186.138 78.146,191.717 78.2681,192.467 
  78.3901,192.293 78.5122,196.066 78.6342,198.911 78.7563,197.288 78.8784,200.791 79.0004,200.419 79.1225,198.633 79.2446,195.454 79.3666,191.241 79.4887,186.506 
  79.6108,181.875 79.7328,177.916 79.8549,175.113 79.9769,173.506 80.099,173.045 80.2211,173.6 80.3431,174.862 80.4652,176.871 80.5873,179.246 80.7093,181.504 
  80.8314,183.556 80.9535,185.215 81.0755,186.455 81.1976,183.991 81.3196,184.885 81.4417,187.344 81.5638,185.795 81.6858,189.114 81.8079,189.261 81.93,189.739 
  82.052,193.232 82.1741,195.425 82.2961,194.986 82.4182,197.361 82.5403,194.429 82.6623,202.324 82.7844,199.245 82.9065,199.403 83.0285,198.334 83.1506,192.411 
  83.2727,195.375 83.3947,189.393 83.5168,191.289 83.6388,187.837 83.7609,185.945 83.883,186.208 84.005,188.701 84.1271,190.258 84.2492,188.467 84.3712,187.988 
  84.4933,199.917 84.6154,201.971 84.7374,204.889 84.8595,200.522 84.9815,190.25 85.1036,184.794 85.2257,178.914 85.3477,171.617 85.4698,170.239 85.5919,170.827 
  85.7139,169.581 85.836,169.753 85.9581,165.977 86.0801,166.119 86.2022,166.307 86.3242,164.462 86.4463,161.823 86.5684,165.384 86.6904,167.342 86.8125,168.854 
  86.9346,173.564 87.0566,176.967 87.1787,179.89 87.3007,183.715 87.4228,185.74 87.5449,188.17 87.6669,193.486 87.789,191.872 87.9111,197.972 88.0331,198.001 
  88.1552,196.507 88.2773,195.602 88.3993,193.39 88.5214,190.061 88.6434,185.93 88.7655,181.305 88.8876,176.815 89.0096,173.12 89.1317,170.514 89.2538,169.062 
  89.3758,168.903 89.4979,169.918 89.62,171.866 89.742,174.421 89.8641,177.184 89.9861,179.966 90.1082,182.873 90.2303,185.627 90.3523,188 90.4744,190.054 
  90.5965,190.239 90.7185,189.992 90.8406,192.384 90.9627,192.148 91.0847,194.024 91.2068,192.968 91.3288,197.974 91.4509,197.61 91.573,199.639 91.695,201.921 
  91.8171,199.657 91.9392,200.321 92.0612,196.524 92.1833,193.472 92.3054,190.664 92.4274,188.868 92.5495,186.665 92.6715,182.682 92.7936,182.147 92.9157,176.801 
  93.0377,177.228 93.1598,181.49 93.2819,179.883 93.4039,188.625 93.526,185.187 93.648,190.546 93.7701,203.594 93.8922,199.638 94.0142,198.292 94.1363,198.824 
  94.2584,193.79 94.3804,193.099 94.5025,185.692 94.6246,183.408 94.7466,182.398 94.8687,178.491 94.9907,180.138 95.1128,175.028 95.2349,175.944 95.3569,176.373 
  95.479,175.887 95.6011,179.055 95.7231,181.966 95.8452,182.802 95.9673,184.341 96.0893,187.795 96.2114,187.293 96.3334,187.845 96.4555,189.554 96.5776,187.03 
  96.6996,189.233 96.8217,193.024 96.9438,193.081 97.0658,193.579 97.1879,193.94 97.31,194.393 97.432,193.624 97.5541,191.69 97.6761,188.97 97.7982,185.924 
  97.9203,182.881 98.0423,180.323 98.1644,178.531 98.2865,177.592 98.4085,177.266 98.5306,177.64 98.6526,178.581 98.7747,179.871 98.8968,181.376 99.0188,182.966 
  99.1409,184.561 99.263,182.982 99.385,185.775 99.5071,185.94 99.6292,187.682 99.7512,190.375 99.8733,194.026 99.9953,196.406 100.117,197.861 100.239,200.192 
  100.362,202.988 100.484,202.238 100.606,202.038 100.728,206.501 100.85,204.789 100.972,203.774 101.094,200.461 101.216,200.216 101.338,195.579 101.46,190.996 
  101.582,188.938 101.704,186.789 101.826,176.693 101.948,176.235 102.07,168.602 102.192,169.521 102.315,164.805 102.437,166.193 102.559,169.921 102.681,172.187 
  102.803,183.969 102.925,202.621 103.047,207.049 103.169,214.615 103.291,213.638 103.413,207.047 103.535,202.337 103.657,188.736 103.779,183.96 103.901,174.725 
  104.023,176.595 104.146,174.552 104.268,166.736 104.39,169.303 104.512,168.06 104.634,168.624 104.756,168.743 104.878,168.007 105,171.189 105.122,172.322 
  105.244,174.885 105.366,178.908 105.488,182.449 105.61,185.06 105.732,185.421 105.854,187.226 105.976,191.092 106.099,190.098 106.221,192.504 106.343,191.195 
  106.465,189.954 106.587,189.365 106.709,187.894 106.831,185.625 106.953,182.835 107.075,179.893 107.197,177.249 107.319,175.304 107.441,173.689 107.563,172.453 
  107.685,171.717 107.807,171.677 107.929,172.514 108.052,174.292 108.174,177.063 108.296,180.729 108.418,185.022 108.54,189.824 108.662,194.639 108.784,198.711 
  108.906,201.698 109.028,201.571 109.15,200.947 109.272,199.713 109.394,199.732 109.516,195.766 109.638,195.532 109.76,197.557 109.882,195.685 110.005,194.218 
  110.127,193.314 110.249,193.894 110.371,192.729 110.493,188.954 110.615,186.69 110.737,181.027 110.859,177.971 110.981,175.113 111.103,177.036 111.225,173.162 
  111.347,175.626 111.469,179.598 111.591,180.75 111.713,185.136 111.835,193.477 111.958,198.404 112.08,202.533 112.202,207.744 112.324,204.332 112.446,203.475 
  112.568,196.11 112.69,196.477 112.812,189.66 112.934,183.157 113.056,183.788 113.178,177.511 113.3,180.006 113.422,180.486 113.544,178.659 113.666,176.446 
  113.789,179.917 113.911,181.088 114.033,184.088 114.155,185.037 114.277,188.289 114.399,190.037 114.521,192.85 114.643,188.648 114.765,188.885 114.887,189.383 
  115.009,189.332 115.131,189.699 115.253,191.188 115.375,190.756 115.497,189.707 115.619,190.737 115.742,191.397 115.864,191.541 115.986,190.961 116.108,189.593 
  116.23,187.613 116.352,185.352 116.474,183.221 116.596,181.336 116.718,179.931 116.84,179.223 116.962,179.352 117.084,180.224 117.206,181.411 117.328,182.619 
  117.45,183.768 117.572,184.899 117.695,183.445 117.817,185.091 117.939,185.805 118.061,188.68 118.183,192.086 118.305,191.984 118.427,197.199 118.549,198.153 
  118.671,198.492 118.793,201.075 118.915,201.653 119.037,201.763 119.159,200.713 119.281,199.434 119.403,199.78 119.525,195.527 119.648,189.977 119.77,192.303 
  119.892,190.184 120.014,185.885 120.136,178.475 120.258,176.237 120.38,168.786 120.502,167.955 120.624,165.666 120.746,165.805 120.868,166.279 120.99,165.337 
  121.112,169.474 121.234,183.727 121.356,202.864 121.479,215.117 121.601,213.614 121.723,214.326 121.845,208.058 121.967,207.495 122.089,193.916 122.211,184.25 
  122.333,181.25 122.455,176.11 122.577,167.87 122.699,169.54 122.821,168.195 122.943,170.829 123.065,168.143 123.187,169.118 123.309,173.218 123.432,171.313 
  123.554,174.198 123.676,178.126 123.798,178.071 123.92,178.856 124.042,184.274 124.164,185.563 124.286,185.372 124.408,187.675 124.53,186.869 124.652,188.498 
  124.774,187.384 124.896,186.612 125.018,185.213 125.14,183.401 125.262,181.366 125.385,179.373 125.507,177.9 125.629,176.909 125.751,176.109 125.873,175.483 
  125.995,175.013 126.117,174.692 126.239,174.731 126.361,175.299 126.483,176.508 126.605,178.49 126.727,181.421 126.849,185.353 126.971,190.184 127.093,195.112 
  127.215,199.435 127.338,199.573 127.46,202.445 127.582,203.821 127.704,202.373 127.826,201.314 127.948,200.653 128.07,199.177 128.192,198.918 128.314,197.619 
  128.436,196.639 128.558,190.422 128.68,192.44 128.802,193.451 128.924,187.872 129.046,181.322 129.169,178.34 129.291,171.778 129.413,168.293 129.535,169.327 
  129.657,162.314 129.779,170.383 129.901,168.346 130.023,172.591 130.145,184.878 130.267,195.043 130.389,199.878 130.511,204.946 130.633,211.737 130.755,207.297 
  130.877,199.256 130.999,200.202 131.122,194.659 131.244,186.518 131.366,185.677 131.488,185.457 131.61,182.393 131.732,180.841 131.854,182.958 131.976,181.731 
  132.098,179.301 132.22,177.124 132.342,180.33 132.464,184.972 132.586,184.286 132.708,189.592 132.83,187.066 132.952,189.358 133.075,187.784 133.197,186.708 
  133.319,186.327 133.441,188.34 133.563,184.565 133.685,183.129 133.807,185.144 133.929,186.337 134.051,187.768 134.173,189.167 134.295,190.231 134.417,190.704 
  134.539,190.398 134.661,189.495 134.783,187.872 134.905,185.53 135.028,182.76 135.15,180.042 135.272,177.954 135.394,176.588 135.516,176.653 135.638,178.148 
  135.76,180.544 135.882,183.497 136.004,186.656 136.126,185.56 136.248,190.705 136.37,192.608 136.492,193.029 136.614,194.252 136.736,194.388 136.859,197.402 
  136.981,198.039 137.103,197.281 137.225,198.042 137.347,200.38 137.469,198.338 137.591,196.857 137.713,197.031 137.835,193.183 137.957,189.855 138.079,186.562 
  138.201,183.234 138.323,179.207 138.445,176.261 138.567,165.775 138.689,169.182 138.812,164.803 138.934,164.966 139.056,161.647 139.178,158.664 139.3,163.785 
  139.422,165.387 139.544,168.255 139.666,188.933 139.788,211.159 139.91,222.039 140.032,230.698 140.154,230.361 140.276,228.45 140.398,221.72 140.52,206.04 
  140.642,192.865 140.765,187.086 140.887,177.779 141.009,175.891 141.131,171.905 141.253,172.678 141.375,169.793 141.497,170.692 141.619,173.662 141.741,173.351 
  141.863,178.681 141.985,179.462 142.107,181.121 142.229,183.221 142.351,184.556 142.473,186.464 142.595,188.106 142.718,190.082 142.84,186.756 142.962,187.045 
  143.084,186.547 143.206,185.545 143.328,184.308 143.45,183.049 143.572,181.944 143.694,181.199 143.816,180.159 143.938,178.814 144.06,177.334 144.182,176.045 
  144.304,175.221 144.426,174.999 144.549,175.479 144.671,176.667 144.793,178.516 144.915,180.925 145.037,183.916 145.159,187.672 145.281,192.004 145.403,196.67 
  145.525,201.42 145.647,206.337 145.769,210.278 145.891,208.921 146.013,209.77 146.135,208.647 146.257,204.933 146.379,202.011 146.502,197.778 146.624,195.897 
  146.746,190.798 146.868,187.43 146.99,184.891 147.112,179.775 147.234,176.594 147.356,169.986 147.478,168.639 147.6,169.029 147.722,163.895 147.844,166.05 
  147.966,166.863 148.088,168.197 148.21,167.702 148.332,178.596 148.455,180.486 148.577,192.448 148.699,207.905 148.821,211.976 148.943,215.387 149.065,213.195 
  149.187,207.841 149.309,202.365 149.431,198.236 149.553,191.469 149.675,187.626 149.797,186.604 149.919,183.876 150.041,178.99 150.163,183.108 150.285,179.295 
  150.408,182.157 150.53,182.22 150.652,181.591 150.774,184.04 150.896,183.086 151.018,184.529 151.14,187.048 151.262,187.996 151.384,188.617 151.506,188.242 
  151.628,186.57 151.75,187.365 151.872,184.767 151.994,184.801 152.116,185.071 152.238,185.725 152.361,186.844 152.483,188.348 152.605,190.047 152.727,191.231 
  152.849,191.531 152.971,190.584 153.093,188.485 153.215,185.731 153.337,182.977 153.459,180.848 153.581,179.941 153.703,180.487 153.825,182.473 153.947,185.295 
  154.069,188.645 154.192,192.209 154.314,196.25 154.436,199.644 154.558,201.492 154.68,196.374 154.802,193.792 154.924,192.035 155.046,189.027 155.168,183.297 
  155.29,184.767 155.412,181.866 155.534,179.196 155.656,179.167 155.778,177.689 155.9,178.467 156.022,182.491 156.145,177.931 156.267,181.725 156.389,185.46 
  156.511,180.7 156.633,184.83 156.755,179.868 156.877,184.234 156.999,176.162 157.121,177.818 157.243,181.708 157.365,180.596 157.487,177.306 157.609,167.486 
  157.731,173.612 157.853,173.714 157.975,183.038 158.098,206.87 158.22,215.241 158.342,212.688 158.464,214.958 158.586,217.461 158.708,218.714 158.83,212.941 
  158.952,202.225 159.074,191.811 159.196,181.016 159.318,177.718 159.44,176.828 159.562,174.565 159.684,177.36 159.806,177.162 159.928,179.568 160.051,181.481 
  160.173,180.588 160.295,181.829 160.417,181.048 160.539,181.399 160.661,183.494 160.783,185.635 160.905,184.572 161.027,185.69 161.149,184.082 161.271,186.04 
  161.393,187.742 161.515,189.055 161.637,189.918 161.759,190.413 161.882,190.73 162.004,190.211 162.126,188.818 162.248,186.781 162.37,184.564 162.492,182.478 
  162.614,180.701 162.736,179.343 162.858,178.432 162.98,178.031 163.102,178.198 163.224,178.843 163.346,179.872 163.468,181.308 163.59,183.128 163.712,185.365 
  163.835,188.462 163.957,192.493 164.079,197.922 164.201,196.915 164.323,199.75 164.445,202.213 164.567,201.407 164.689,196.719 164.811,195.902 164.933,191.349 
  165.055,186.74 165.177,183.795 165.299,180.002 165.421,181.101 165.543,176.603 165.665,174.151 165.788,174.329 165.91,177.099 166.032,178.739 166.154,176.769 
  166.276,175.757 166.398,170.441 166.52,163.21 166.642,161.629 166.764,167.644 166.886,173.961 167.008,192.542 167.13,208.511 167.252,211.433 167.374,203.028 
  167.496,203.471 167.618,200.839 167.741,192.524 167.863,193.039 167.985,189.541 168.107,184.104 168.229,183.273 168.351,179.986 168.473,177.431 168.595,179.799 
  168.717,173.139 168.839,177.811 168.961,177.947 169.083,175.697 169.205,179.147 169.327,176.909 169.449,179.346 169.572,180.34 169.694,182.714 169.816,184.349 
  169.938,187.369 170.06,186.417 170.182,187.835 170.304,188.956 170.426,189.851 170.548,190.59 170.67,191.327 170.792,192.332 170.914,193.077 171.036,193.433 
  171.158,193.117 171.28,191.942 171.402,189.863 171.525,187.351 171.647,185.016 171.769,183.287 171.891,182.392 172.013,182.503 172.135,183.326 172.257,184.554 
  172.379,186.117 172.501,188.113 172.623,190.459 172.745,193.349 172.867,196.717 172.989,194.693 173.111,195.648 173.233,194.401 173.355,187.062 173.478,182.82 
  173.6,177.734 173.722,173.991 173.844,171.009 173.966,164.567 174.088,166.199 174.21,164.237 174.332,170.125 174.454,169.315 174.576,173.886 174.698,175.308 
  174.82,178.573 174.942,165.372 175.064,176.1 175.186,169.754 175.308,173.389 175.431,175.259 175.553,173.267 175.675,173.196 175.797,158.595 175.919,166.078 
  176.041,156.732 176.163,162.736 176.285,185.453 176.407,215.356 176.529,218.377 176.651,217.854 176.773,213.065 176.895,209.248 177.017,222.965 177.139,220.815 
  177.262,222.466 177.384,219.312 177.506,203.501 177.628,195.155 177.75,191.717 177.872,190.013 177.994,191.12 178.116,193.024 178.238,195.679 178.36,195.36 
  178.482,194.118 178.604,193.757 178.726,191.379 178.848,187.317 178.97,185.721 179.092,181.992 179.215,182.383 179.337,181.938 179.459,180.488 179.581,183.391 
  179.703,186.744 179.825,189.889 179.947,192.321 180.069,193.87 180.191,194.134 180.313,192.782 180.435,190.201 180.557,186.996 180.679,183.795 180.801,181.174 
  180.923,179.422 181.045,178.55 181.168,178.317 181.29,178.418 181.412,178.571 181.534,178.784 181.656,179.348 181.778,180.336 181.9,181.401 182.022,182.716 
  182.144,184.65 182.266,187.998 182.388,192.332 182.51,188.909 182.632,189.443 182.754,189.052 182.876,187.356 182.998,180.996 183.121,179.993 183.243,177.875 
  183.365,178.423 183.487,179.003 183.609,182.197 183.731,181.943 183.853,179.893 183.975,187.037 184.097,183.215 184.219,180.485 184.341,180.299 184.463,172.693 
  184.585,165.664 184.707,163.538 184.829,161.267 184.951,158.525 185.074,167.485 185.196,177.585 185.318,205.813 185.44,221.363 185.562,229.517 185.684,225.342 
  185.806,218.686 185.928,208.327 186.05,194.281 186.172,185.31 186.294,183.384 186.416,183.112 186.538,182.615 186.66,189.743 186.782,188.859 186.905,190.349 
  187.027,191.405 187.149,189.469 187.271,183.267 187.393,182.435 187.515,179.006 187.637,175.923 187.759,173.529 187.881,172.836 188.003,173.092 188.125,171.52 
  188.247,170.076 188.369,172.705 188.491,176.198 188.613,180.281 188.735,184.628 188.858,188.975 188.98,193.258 189.102,196.688 189.224,199.075 189.346,200.167 
  189.468,200.244 189.59,199.522 189.712,198.326 189.834,196.824 189.956,195.35 190.078,194.136 190.2,193.18 190.322,192.482 190.444,191.926 190.566,191.347 
  190.688,190.68 190.811,190.1 190.933,190.124 191.055,191.242 191.177,193.933 191.299,197.228 191.421,193.846 191.543,190.012 191.665,186.519 191.787,181.244 
  191.909,173.958 192.031,168.633 192.153,165.459 192.275,160.285 192.397,156.745 192.519,159.19 192.641,163.076 192.764,168.438 192.886,162.085 193.008,164.84 
  193.13,159.753 193.252,159.51 193.374,166.839 193.496,166.431 193.618,168.541 193.74,167.788 193.862,167.656 193.984,163.415 194.106,164.637 194.228,161.394 
  194.35,167.797 194.472,180.078 194.595,210.721 194.717,216.489 194.839,211.899 194.961,203.397 195.083,200.761 195.205,209.393 195.327,217.633 195.449,227.245 
  195.571,237.13 195.693,230.614 195.815,221.039 195.937,211.608 196.059,210.734 196.181,209.781 196.303,209.211 196.425,209.585 196.548,207.416 196.67,206.34 
  196.792,201.052 196.914,199.416 197.036,192.468 197.158,188.024 197.28,184.556 197.402,179.953 197.524,178.124 197.646,175.6 197.768,178.176 197.89,182.354 
  198.012,187.45 198.134,192.631 198.256,197.072 198.378,200.069 198.501,200.641 198.623,198.73 198.745,194.937 198.867,190.22 198.989,185.685 199.111,182.051 
  199.233,179.685 199.355,178.537 199.477,178.201 199.599,178.194 199.721,177.866 199.843,177.128 199.965,176.126 200.087,175.195 200.209,174.644 200.331,174.947 
  200.454,177.213 200.576,181.178 200.698,178.129 200.82,179.18 200.942,175.937 201.064,173.841 201.186,167.836 201.308,168.607 201.43,164.145 201.552,168.375 
  201.674,175.134 201.796,180.292 201.918,185.109 202.04,190.12 202.162,193.724 202.285,184.993 202.407,182.259 202.529,173.944 202.651,166.027 202.773,154.612 
  202.895,149.594 203.017,145.886 203.139,144.025 203.261,141.124 203.383,142.345 203.505,141.525 203.627,166.981 203.749,206.144 203.871,217.059 203.993,220.061 
  204.115,227.849 204.238,231.216 204.36,230.008 204.482,231.26 204.604,220.946 204.726,210.385 204.848,206.356 204.97,207.618 205.092,208.752 205.214,207.34 
  205.336,208.378 205.458,201.54 205.58,194.515 205.702,187.219 205.824,180.931 205.946,173.161 206.068,167.211 206.191,164.026 206.313,161.262 206.435,159.516 
  206.557,158.021 206.679,161.346 206.801,166.197 206.923,172.113 207.045,178.653 207.167,185.494 207.289,192.146 207.411,198.028 207.533,202.254 207.655,204.597 
  207.777,205.178 207.899,204.653 208.021,203.606 208.144,202.455 208.266,201.338 208.388,200.014 208.51,198.161 208.632,195.625 208.754,192.373 208.876,188.668 
  208.998,185.008 209.12,182.097 209.242,180.749 209.364,181.841 209.486,185.403 209.608,181.702 209.73,183.687 209.852,184.047 209.975,180.568 210.097,177.498 
  210.219,173.176 210.341,168.79 210.463,166.612 210.585,165.888 210.707,164.089 210.829,172.082 210.951,175.682 211.073,176.184 211.195,172.702 211.317,159.06 
  211.439,155.799 211.561,156.089 211.683,160.111 211.805,155.671 211.928,151.68 212.05,145.764 212.172,136.595 212.294,132.295 212.416,139.802 212.538,153.078 
  212.66,171.049 212.782,191.404 212.904,205.587 213.026,205.476 213.148,206.739 213.27,206.868 213.392,206.443 213.514,224.648 213.636,243.625 213.758,249.064 
  213.881,266.426 214.003,261.79 214.125,251.979 214.247,240.395 214.369,230.009 214.491,224.62 214.613,215.402 214.735,209.474 214.857,208.224 214.979,202.269 
  215.101,195.971 215.223,191.149 215.345,182.844 215.467,178.079 215.589,172.921 215.711,169.946 215.834,169.829 215.956,169.689 216.078,175.027 216.2,181.726 
  216.322,189.031 216.444,196.133 216.566,202.308 216.688,206.897 216.81,209.178 216.932,208.875 217.054,206.135 217.176,201.602 217.298,196.133 217.42,190.418 
  217.542,185.094 217.664,180.384 217.787,176.441 217.909,173.139 218.031,170.399 218.153,168.388 218.275,167.392 218.397,167.559 218.519,169.046 218.641,172.948 
  218.763,177.693 218.885,173.816 219.007,175.992 219.129,175.886 219.251,172.692 219.373,171.088 219.495,170.578 219.618,169.956 219.74,171.298 219.862,174.34 
  219.984,173.118 220.106,186.415 220.228,189.522 220.35,182.378 220.472,175.383 220.594,171.001 220.716,167.202 220.838,160.51 220.96,160.804 221.082,154.34 
  221.204,147.791 221.326,145.735 221.448,132.581 221.571,126.182 221.693,133.084 221.815,140.393 221.937,174.474 222.059,200.173 222.181,203.479 222.303,214.101 
  222.425,218.059 222.547,235.853 222.669,245.709 222.791,257.863 222.913,264.051 223.035,258.343 223.157,240.954 223.279,233.829 223.401,229.854 223.524,223.956 
  223.646,217.708 223.768,208.578 223.89,200.878 224.012,189.608 224.134,180.002 224.256,173.513 224.378,162.064 224.5,156.346 224.622,153.969 224.744,151.408 
  224.866,151.303 224.988,157.37 225.11,165.145 225.232,173.686 225.354,182.222 225.477,190.003 225.599,196.515 225.721,201.502 225.843,204.4 225.965,205.346 
  226.087,204.907 226.209,203.913 226.331,202.956 226.453,202.204 226.575,201.472 226.697,200.336 226.819,198.296 226.941,195.074 227.063,190.724 227.185,185.705 
  227.308,180.967 227.43,177.602 227.552,176.635 227.674,179.032 227.796,183.38 227.918,181.519 228.04,182.561 228.162,184.117 228.284,183.578 228.406,182.349 
  228.528,180.673 228.65,180.433 228.772,182.991 228.894,178.565 229.016,183.505 229.138,181.94 229.261,186.53 229.383,179.226 229.505,170.268 229.627,156.852 
  229.749,155.147 229.871,151.144 229.993,148.516 230.115,142.566 230.237,138.73 230.359,138.844 230.481,135.35 230.603,127.938 230.725,131.248 230.847,150.666 
  230.969,181.854 231.091,207.39 231.214,208.473 231.336,205.459 231.458,214.72 231.58,228.237 231.702,236.464 231.824,249.059 231.946,259.892 232.068,264.904 
  232.19,255.092 232.312,243.491 232.434,233.159 232.556,229.397 232.678,223.914 232.8,219.181 232.922,213.22 233.044,205.811 233.167,197.162 233.289,190.387 
  233.411,183.156 233.533,176.512 233.655,168.119 233.777,165.249 233.899,163.658 234.021,162.788 234.143,167.125 234.265,173.25 234.387,180.47 234.509,188.03 
  234.631,195.142 234.753,201.179 234.875,205.68 234.998,208.34 235.12,209.226 235.242,208.645 235.364,206.893 235.486,204.138 235.608,200.667 235.73,196.659 
  235.852,192.139 235.974,187.148 236.096,181.822 236.218,176.54 236.34,171.901 236.462,168.584 236.584,167.113 236.706,167.897 236.828,172.355 236.951,176.909 
  237.073,173.12 237.195,175.779 237.317,175.128 237.439,171.137 237.561,169.491 237.683,168.419 237.805,169.294 237.927,171.727 238.049,170.335 238.171,173.759 
  238.293,178.335 238.415,177.556 238.537,172.047 238.659,164.913 238.781,154.533 238.904,157.494 239.026,158.122 239.148,150.294 239.27,144.286 239.392,145.451 
  239.514,136.368 239.636,132.619 239.758,120.476 239.88,130.342 240.002,145.867 240.124,174.904 240.246,197.764 240.368,206.298 240.49,214.003 240.612,219.291 
  240.734,236.861 240.857,247.441 240.979,263.732 241.101,272.259 241.223,277.201 241.345,267.99 241.467,252.113 241.589,239.652 241.711,230.34 241.833,220.07 
  241.955,214.59 242.077,204.201 242.199,197.067 242.321,189.358 242.443,177.925 242.565,169.933 242.688,161.671 242.81,160.134 242.932,151.996 243.054,154.71 
  243.176,156.912 243.298,163.736 243.42,171.825 243.542,180.285 243.664,188.303 243.786,195.2 243.908,200.625 244.03,204.311 244.152,205.887 244.274,205.675 
  244.396,204.292 244.518,202.158 244.641,199.517 244.763,196.565 244.885,193.361 245.007,189.738 245.129,185.608 245.251,181.091 245.373,176.657 245.495,173.041 
  245.617,171.128 245.739,171.555 245.861,175.127 245.983,180.797 246.105,178.887 246.227,183.7 246.349,183.883 246.471,186.296 246.594,185.616 246.716,182.9 
  246.838,184.26 246.96,184.397 247.082,184.497 247.204,185.125 247.326,187.256 247.448,189.719 247.57,186.132 247.692,176.753 247.814,163.007 247.936,151.198 
  248.058,149.127 248.18,137.259 248.302,138.097 248.424,127.949 248.547,130.558 248.669,126.792 248.791,120.782 248.913,125.758 249.035,124.697 249.157,143.648 
  249.279,185.164 249.401,196.797 249.523,202.096 249.645,207.475 249.767,217.365 249.889,242.565 250.011,254.367 250.133,265.876 250.255,273.589 250.377,267.878 
  250.5,253.326 250.622,240.496 250.744,234.837 250.866,228.094 250.988,219.254 251.11,214.155 251.232,207.324 251.354,198.066 251.476,188.869 251.598,181.066 
  251.72,173.888 251.842,168.161 251.964,164.765 252.086,163.728 252.208,163.857 252.331,165.581 252.453,171.726 252.575,178.461 252.697,185.106 252.819,191.034 
  252.941,195.829 253.063,199.327 253.185,201.476 253.307,202.466 253.429,202.577 253.551,202.216 253.673,201.459 253.795,200.41 253.917,198.885 254.039,196.51 
  254.161,192.973 254.284,188.212 254.406,182.559 254.528,176.69 254.65,171.518 254.772,168.054 254.894,168.1 255.016,169.811 255.138,165.804 255.26,165.487 
  255.382,167.941 255.504,168.034 255.626,167.317 255.748,168.138 255.87,166.117 255.992,171.727 256.114,172.291 256.237,179.234 256.359,182.999 256.481,181.346 
  256.603,180.839 256.725,174.63 256.847,164.131 256.969,161.765 257.091,160.316 257.213,149.83 257.335,146.058 257.457,144.612 257.579,142.168 257.701,135.327 
  257.823,119.152 257.945,129.427 258.067,136.766 258.19,155.464 258.312,178.591 258.434,201.211 258.556,208.371 258.678,213.857 258.8,211.192 258.922,225.123 
  259.044,245.483 259.166,260.093 259.288,272.674 259.41,279.677 259.532,276 259.654,263.443 259.776,244.651 259.898,233.675 260.021,225.704 260.143,217.029 
  260.265,207.971 260.387,200.279 260.509,189.914 260.631,182.522 260.753,170.324 260.875,163.859 260.997,156.525 261.119,155.383 261.241,154.306 261.363,154.756 
  261.485,161.846 261.607,170.638 261.729,179.909 261.851,188.57 261.974,195.848 262.096,201.375 262.218,205.297 262.34,207.463 262.462,207.963 262.584,207.146 
  262.706,205.215 262.828,202.32 262.95,198.63 263.072,194.281 263.194,189.397 263.316,184.214 263.438,179.197 263.56,174.866 263.682,171.899 263.804,170.858 
  263.927,172.127 264.049,176.443 264.171,183.151 264.293,185.095 264.415,189.636 264.537,193.951 264.659,196.236 264.781,196.666 264.903,197.839 265.025,196.049 
  265.147,195.81 265.269,193.555 265.391,193.554 265.513,189.161 265.635,193.595 265.757,188.358 265.88,186.105 266.002,173.439 266.124,165.122 266.246,155.668 
  266.368,145.783 266.49,147.669 266.612,141.981 266.734,137.965 266.856,141.359 266.978,140.956 267.1,139.692 267.222,149.73 267.344,169.606 267.466,196.469 
  267.588,208.949 267.711,217.096 267.833,226.439 267.955,228.097 268.077,237.931 268.199,237.094 268.321,224.753 268.443,217.085 268.565,216.065 268.687,217.236 
  268.809,213.394 268.931,213.904 269.053,210.884 269.175,206.228 269.297,201.486 269.419,195.092 269.541,190.461 269.664,182.481 269.786,177.055 269.908,168.673 
  270.03,166.622 270.152,163.665 270.274,164.314 270.396,165.432 270.518,170.796 270.64,177.153 270.762,183.781 270.884,189.981 271.006,195.229 271.128,199.235 
  271.25,201.815 271.372,202.872 271.494,202.898 271.617,202.554 271.739,202.097 271.861,201.613 271.983,200.877 272.105,199.544 272.227,197.251 272.349,193.939 
  272.471,189.83 272.593,185.359 272.715,181.218 272.837,178.234 272.959,177.788 273.081,179.209 273.203,175.38 273.325,177.276 273.447,176.646 273.57,173.285 
  273.692,173.793 273.814,171.545 273.936,169.083 274.058,173.237 274.18,175.4 274.302,177.28 274.424,178.271 274.546,182.829 274.668,181.716 274.79,182.737 
  274.912,176.148 275.034,166.248 275.156,165.97 275.278,160.751 275.401,156.941 275.523,157.756 275.645,155.117 275.767,144.926 275.889,142.234 276.011,139.139 
  276.133,130.953 276.255,145.34 276.377,150.428 276.499,175.46 276.621,201.21 276.743,204.533 276.865,203.893 276.987,213.043 277.109,224.737 277.231,241.495 
  277.354,247.974 277.476,252.435 277.598,259.366 277.72,246.78 277.842,231.415 277.964,221.952 278.086,215.394 278.208,211.641 278.33,206.654 278.452,204.64 
  278.574,198.997 278.696,195.505 278.818,189.566 278.94,184.981 279.062,179.536 279.184,172.733 279.307,172.117 279.429,167.427 279.551,167.431 279.673,169.506 
  279.795,174.526 279.917,180.374 280.039,186.449 280.161,192.306 280.283,197.624 280.405,202.148 280.527,205.238 280.649,206.168 280.771,204.703 280.893,201.058 
  281.015,195.827 281.137,189.75 281.26,183.572 281.382,177.85 281.504,173.161 281.626,169.862 281.748,168.136 281.87,168.146 281.992,169.863 282.114,173.245 
  282.236,178.608 282.358,184.882 282.48,186.226 282.602,191.159 282.724,193.007 282.846,193.102 282.968,194.38 283.09,195.553 283.213,195.382 283.335,194.761 
  283.457,195.46 283.579,194.476 283.701,195.786 283.823,189.428 283.945,189.647 284.067,191.003 284.189,187.392 284.311,169.332 284.433,164.511 284.555,159.392 
  284.677,154.899 284.799,143.211 284.921,142.591 285.044,149.774 285.166,143.757 285.288,146.911 285.41,151.717 285.532,174.493 285.654,191.556 285.776,202.05 
  285.898,211.305 286.02,213.756 286.142,222.847 286.264,219.981 286.386,216.141 286.508,202.818 286.63,205.194 286.752,205.705 286.874,204.71 286.997,203.484 
  287.119,203.172 287.241,202.159 287.363,194.6 287.485,187.115 287.607,185.247 287.729,179.758 287.851,174.725 287.973,170.225 288.095,166.911 288.217,163.669 
  288.339,163.233 288.461,170.479 288.583,168.487 288.705,172.796 288.827,180.035 288.95,185.726 289.072,190.95 289.194,195.265 289.316,198.524 289.438,200.686 
  289.56,201.858 289.682,201.995 289.804,201.52 289.926,200.47 290.048,198.839 290.17,196.666 290.292,193.747 290.414,190.289 290.536,186.495 290.658,182.564 
  290.78,179.56 290.903,176.714 291.025,174.431 291.147,165.122 291.269,168.509 291.391,169.154 291.513,170.658 291.635,170.116 291.757,175.33 291.879,176.869 
  292.001,180.821 292.123,183.034 292.245,188.181 292.367,186.023 292.489,188.67 292.611,184.018 292.734,191.197 292.856,193.053 292.978,186.44 293.1,183.292 
  293.222,172.337 293.344,170.619 293.466,165.862 293.588,162.627 293.71,160.136 293.832,164.078 293.954,153.788 294.076,159.68 294.198,151.798 294.32,152.172 
  294.442,150.285 294.564,161.094 294.687,185.558 294.809,202.595 294.931,205.513 295.053,208.729 295.175,218.898 295.297,225.981 295.419,232.688 295.541,231.83 
  295.663,225.363 295.785,210.417 295.907,197.158 296.029,196.055 296.151,191.337 296.273,189.206 296.395,190.808 296.517,190.316 296.64,188.615 296.762,186.615 
  296.884,188.111 297.006,185.292 297.128,183.789 297.25,182.225 297.372,180.284 297.494,180.615 297.616,181.61 297.738,180.903 297.86,181.876 297.982,184.849 
  298.104,187.992 298.226,191.249 298.348,194.579 298.47,197.861 298.593,200.871 298.715,202.599 298.837,202.085 298.959,199.131 299.081,194.082 299.203,187.734 
  299.325,181.1 299.447,175.028 299.569,170.176 299.691,166.971 299.813,165.593 299.935,166.102 300.057,168.424 300.179,172.397 300.301,177.845 300.424,184.616 
  300.546,192.287 300.668,200.592 300.79,202.91 300.912,207.174 301.034,209.781 301.156,210.065 301.278,203.753 301.4,203.052 301.522,199.209 301.644,198.666 
  301.766,191.927 301.888,186.105 302.01,182.872 302.132,178.577 302.254,181.115 302.377,176.31 302.499,173.16 302.621,171.754 302.743,171.947 302.865,174.007 
  302.987,175.611 303.109,169.325 303.231,172.055 303.353,179.32 303.475,183.218 303.597,211.027 303.719,210.904 303.841,207.154 303.963,210.33 304.085,202.51 
  304.207,205.037 304.33,203.227 304.452,200.175 304.574,198.176 304.696,194.543 304.818,191.768 304.94,188.41 305.062,185.685 305.184,187.817 305.306,185.988 
  305.428,186.333 305.55,189.001 305.672,185.633 305.794,185.056 305.916,184.267 306.038,183.524 306.16,183.584 306.283,182.963 306.405,185.137 306.527,184.364 
  306.649,186.019 306.771,185.885 306.893,185.135 307.015,186.505 307.137,187.885 307.259,189.26 307.381,190.622 307.503,191.98 307.625,193.402 307.747,194.763 
  307.869,195.598 307.991,195.785 308.114,195.165 308.236,193.882 308.358,192.347 308.48,190.461 308.602,188.534 308.724,186.593 308.846,184.9 308.968,183.857 
  309.09,183.673 309.212,185.342 309.334,186.913 309.456,188.181 309.578,184.608 309.7,184.297 309.822,183.867 309.944,185.459 310.067,183.574 310.189,181.907 
  310.311,182.966 310.433,183.115 310.555,183.01 310.677,186.929 310.799,187.233 310.921,190.028 311.043,196.174 311.165,197.05 311.287,195.448 311.409,202.539 
  311.531,204.894 311.653,210.351 311.775,209.931 311.897,211.683 312.02,215.347 312.142,212.143 312.264,212.567 312.386,214.78 312.508,209.391 312.63,215.05 
  312.752,227.132 312.874,228.67 312.996,218.559 313.118,209.356 313.24,199.629 313.362,187.21 313.484,171.06 313.606,158.352 313.728,156.349 313.85,152.483 
  313.973,154.958 314.095,155.323 314.217,162.781 314.339,167.483 314.461,166.826 314.583,171.158 314.705,173.165 314.827,175.324 314.949,175.694 315.071,179.042 
  315.193,180.298 315.315,183.203 315.437,185.427 315.559,185.914 315.681,191.487 315.803,191.078 315.926,194.54 316.048,195.552 316.17,198.866 316.292,201.534 
  316.414,203.257 316.536,203.824 316.658,203.242 316.78,201.923 316.902,199.434 317.024,195.799 317.146,191.212 317.268,186.041 317.39,180.753 317.512,175.822 
  317.634,171.731 317.757,168.943 317.879,167.76 318.001,168.411 318.123,170.697 318.245,174.302 318.367,178.837 318.489,183.783 318.611,188.768 318.733,193.749 
  318.855,198.956 318.977,204.645 319.099,210.184 319.221,211.254 319.343,210.522 319.465,213.449 319.587,211.769 319.71,209.824 319.832,204.452 319.954,200.479 
  320.076,197.337 320.198,192.886 320.32,189.375 320.442,183.105 320.564,181.41 320.686,180.799 320.808,175.277 320.93,177.922 321.052,181.637 321.174,182.051 
  321.296,183.953 321.418,178.527 321.54,179.319 321.663,184.317 321.785,188.468 321.907,184.083 322.029,187.798 322.151,188.186 322.273,186.697 322.395,192.285 
  322.517,187.337 322.639,188.533 322.761,192.815 322.883,183.904 323.005,186.73 323.127,184.805 323.249,181.873 323.371,180.744 323.493,179.527 323.616,177.773 
  323.738,183.915 323.86,184.546 323.982,187.068 324.104,188.908 324.226,192.848 324.348,197.063 324.47,199.029 324.592,199.473 324.714,203.537 324.836,204.247 
  324.958,202.651 325.08,202.836 325.202,198.615 325.324,196.145 325.447,193.368 325.569,190.574 325.691,187.865 325.813,185.24 325.935,182.807 326.057,180.188 
  326.179,177.378 326.301,174.686 326.423,172.55 326.545,171.497 326.667,171.947 326.789,173.831 326.911,176.624 327.033,179.807 327.155,182.963 327.277,185.873 
  327.4,189.208 327.522,191.404 327.644,191.941 327.766,191.06 327.888,186.126 328.01,184.059 328.132,180.291 328.254,176.705 328.376,179.145 328.498,180.628 
  328.62,181.175 328.742,181.551 328.864,184.534 328.986,187.22 329.108,189.848 329.23,193.189 329.353,196.353 329.475,201.173 329.597,206.18 329.719,209.211 
  329.841,217.069 329.963,216.348 330.085,220.27 330.207,219.394 330.329,215.716 330.451,215.36 330.573,206.465 330.695,202.528 330.817,202.474 330.939,203.177 
  331.061,200.211 331.183,206.667 331.306,208.271 331.428,203.471 331.55,199.958 331.672,184.888 331.794,172.513 331.916,161.644 332.038,154.984 332.16,149.747 
  332.282,150.482 332.404,154.708 332.526,158.101 332.648,161.217 332.77,161.889 332.892,168.178 333.014,168.559 333.137,170.015 333.259,171.854 333.381,172.847 
  333.503,173.628 333.625,178.014 333.747,180.414 333.869,186.233 333.991,187.917 334.113,189.386 334.235,194.477 334.357,197.401 334.479,196.701 334.601,198.407 
  334.723,199.07 334.845,198.766 334.967,197.633 335.09,195.78 335.212,193.518 335.334,190.568 335.456,186.655 335.578,181.985 335.7,176.962 335.822,172.184 
  335.944,168.38 336.066,166.035 336.188,165.517 336.31,166.823 336.432,169.708 336.554,173.85 336.676,178.717 336.798,183.807 336.92,188.822 337.043,193.802 
  337.165,198.358 337.287,202.104 337.409,201.717 337.531,199.54 337.653,204.141 337.775,203.328 337.897,203.647 338.019,204.947 338.141,201.879 338.263,199.416 
  338.385,195.49 338.507,193.387 338.629,192.623 338.751,189.554 338.873,185.287 338.996,184.061 339.118,179.448 339.24,182.403 339.362,178.211 339.484,178.916 
  339.606,180.68 339.728,178.794 339.85,184.06 339.972,179.944 340.094,188.77 340.216,189.316 340.338,184.635 340.46,191.905 340.582,188.692 340.704,188.833 
  340.827,189.303 340.949,183.93 341.071,189.148 341.193,184.525 341.315,182.101 341.437,182.461 341.559,177.287 341.681,177.387 341.803,175.996 341.925,177.471 
  342.047,177.141 342.169,182.117 342.291,184.401 342.413,188.069 342.535,192.234 342.657,192.992 342.78,196.97 342.902,199.817 343.024,201.212 343.146,200.328 
  343.268,201.342 343.39,203.067 343.512,194.89 343.634,192.741 343.756,190.507 343.878,188.424 344,186.49 344.122,184.801 344.244,183.179 344.366,181.619 
  344.488,179.971 344.61,178.374 344.733,176.759 344.855,175.429 344.977,174.652 345.099,174.547 345.221,175.109 345.343,176.322 345.465,178.234 345.587,180.973 
  345.709,184.284 345.831,188.566 345.953,191.954 346.075,194.125 346.197,195.124 346.319,189.474 346.441,189.288 346.563,187.801 346.686,189.614 346.808,188.451 
  346.93,190.538 347.052,190.36 347.174,192.95 347.296,193.77 347.418,196.578 347.54,199.993 347.662,198.495 347.784,202.19 347.906,202.619 348.028,203.736 
  348.15,209.688 348.272,207.038 348.394,211.411 348.516,212.848 348.639,209.475 348.761,213.182 348.883,217.378 349.005,218.28 349.127,214.144 349.249,214.249 
  349.371,219.303 349.493,206.192 349.615,191.47 349.737,182.131 349.859,170.656 349.981,164.814 350.103,156.576 350.225,160.45 350.347,162.224 350.47,160.89 
  350.592,165.228 350.714,169.057 350.836,166.927 350.958,168.049 351.08,167.261 351.202,171.391 351.324,168.321 351.446,170.692 351.568,174.073 351.69,175.077 
  351.812,175.583 351.934,181.014 352.056,184.799 352.178,187.029 352.3,191.414 352.423,195.094 352.545,197.07 352.667,197.915 352.789,200.205 352.911,200.943 
  353.033,199.958 353.155,197.429 353.277,193.893 353.399,190.218 353.521,186.331 353.643,182.309 353.765,178.414 353.887,175.006 354.009,172.469 354.131,171.09 
  354.253,170.966 354.376,172.157 354.498,174.531 354.62,177.869 354.742,181.773 354.864,185.825 354.986,189.8 355.108,193.678 355.23,197.496 355.352,201.194 
  355.474,204.888 355.596,208.679 355.718,211.617 355.84,211.023 355.962,209.908 356.084,207.852 356.206,206.52 356.329,203.714 356.451,199.385 356.573,198.71 
  356.695,194.929 356.817,189.694 356.939,186.342 357.061,181.815 357.183,183.151 357.305,180.084 357.427,179.276 357.549,178.916 357.671,184.163 357.793,185.12 
  357.915,187.09 358.037,189.507 358.16,192.229 358.282,186.878 358.404,187.916 358.526,199.297 358.648,192.706 358.77,194.705 358.892,196.589 359.014,189.416 
  359.136,186.554 359.258,189.381 359.38,185.218 359.502,181.911 359.624,181.548 359.746,179.044 359.868,180.178 359.99,177.801 360.113,179.968 360.235,182.175 
  360.357,183.645 360.479,188.338 360.601,189.01 360.723,191.962 360.845,193.773 360.967,196.279 361.089,195.762 361.211,198.366 361.333,198.141 361.455,200.15 
  361.577,198.459 361.699,197.589 361.821,194.816 361.943,193.3 362.066,191.175 362.188,188.579 362.31,185.529 362.432,182.142 362.554,178.694 362.676,175.495 
  362.798,172.886 362.92,170.796 363.042,169.607 363.164,169.743 363.286,171.167 363.408,173.669 363.53,177.013 363.652,180.748 363.774,184.512 363.896,187.784 
  364.019,189.839 364.141,190.342 364.263,189.676 364.385,184.128 364.507,182.946 364.629,182.94 364.751,179.425 364.873,180.632 364.995,180.84 365.117,182.475 
  365.239,182.579 365.361,187.431 365.483,188.427 365.605,192.31 365.727,192.615 365.85,195.703 365.972,202.107 366.094,199.423 366.216,202.185 366.338,206.042 
  366.46,201.962 366.582,203.714 366.704,204.009 366.826,192.803 366.948,188.09 367.07,185.577 367.192,184.315 367.314,183.667 367.436,180.917 367.558,178.578 
  367.68,181.867 367.803,199.441 367.925,208.05 368.047,204.856 368.169,207.193 368.291,197.252 368.413,187.963 368.535,177.381 368.657,166.911 368.779,161.952 
  368.901,155.62 369.023,156.688 369.145,159.321 369.267,163.021 369.389,163.954 369.511,166.24 369.633,167.479 369.756,162.069 369.878,165.511 370,167.332 
  370.122,168.123 370.244,170.143 370.366,175.272 370.488,178.401 370.61,184.255 370.732,186.523 370.854,188.191 370.976,192.587 371.098,195.307 371.22,195.478 
  371.342,196.492 371.464,196.316 371.586,195.204 371.709,193.2 371.831,190.422 371.953,187.15 372.075,183.596 372.197,179.534 372.319,175.334 372.441,171.52 
  372.563,168.664 372.685,167.199 372.807,167.32 372.929,169.02 373.051,172.005 373.173,175.838 373.295,180.166 373.417,184.662 373.54,189.189 373.662,193.117 
  373.784,196.199 373.906,194.216 374.028,195.741 374.15,197.888 374.272,196.547 374.394,196.208 374.516,198.638 374.638,197.647 374.76,195.231 374.882,196.779 
  375.004,195.204 375.126,193.355 375.248,187.715 375.37,188.462 375.493,183.361 375.615,182.738 375.737,180.908 375.859,179.676 375.981,172.165 376.103,174.985 
  376.225,177.289 376.347,175.411 376.469,174.962 376.591,176.883 376.713,182.361 376.835,183.78 376.957,196.254 377.079,197.125 377.201,195.287 377.323,194.486 
  377.446,198.749 377.568,189.178 377.69,189.795 377.812,189.07 377.934,181.962 378.056,180.608 378.178,178.757 378.3,176.265 378.422,173.998 378.544,175.556 
  378.666,178.377 378.788,177.13 378.91,181.274 379.032,180.439 379.154,185.427 379.276,187.114 379.399,189.673 379.521,190.683 379.643,191.424 379.765,189.862 
  379.887,192.489 380.009,193.229 380.131,189.668 380.253,189.688 380.375,189.737 380.497,189.904 380.619,190.17 380.741,190.347 380.863,190.292 380.985,189.921 
  381.107,188.805 381.229,186.778 381.352,184.033 381.474,180.901 381.596,177.729 381.718,174.932 381.84,173.086 381.962,172.709 382.084,174.09 382.206,177.224 
  382.328,181.945 382.45,187.004 382.572,191.789 382.694,195.772 382.816,194.858 382.938,197.981 383.06,196.482 383.183,197.788 383.305,196.647 383.427,197.969 
  383.549,196.817 383.671,198.194 383.793,199.787 383.915,200.079 384.037,196.476 384.159,195.625 384.281,195.329 384.403,191.839 384.525,195.794 384.647,195.115 
  384.769,195.347 384.891,192.636 385.013,195.132 385.136,195.467 385.258,192.722 385.38,196.942 385.502,196.067 385.624,192.854 385.746,196.688 385.868,202.945 
  385.99,219.906 386.112,210.474 386.234,209.056 386.356,205.626 386.478,199.488 386.6,184.366 386.722,178.891 386.844,169.691 386.966,169.535 387.089,166.611 
  387.211,163.495 387.333,167.295 387.455,166.712 387.577,165.62 387.699,163.554 387.821,164.614 387.943,165.371 388.065,170.951 388.187,173.466 388.309,178.39 
  388.431,177.991 388.553,181.589 388.675,185.449 388.797,186.992 388.919,188.641 389.042,188.66 389.164,190.77 389.286,192.295 389.408,194.054 389.53,195.042 
  389.652,195.091 389.774,194.211 389.896,192.643 390.018,190.612 390.14,188.363 390.262,185.686 390.384,182.65 390.506,179.505 390.628,176.609 390.75,174.327 
  390.873,173.058 390.995,173.083 391.117,174.446 391.239,176.981 391.361,180.418 391.483,184.35 391.605,188.333 391.727,192.236 391.849,196.076 391.971,199.77 
  392.093,202.524 392.215,204.116 392.337,199.64 392.459,199.637 392.581,200.742 392.703,198.214 392.826,197.949 392.948,195.15 393.07,195.026 393.192,192.413 
  393.314,189.679 393.436,188.616 393.558,183.401 393.68,184.634 393.802,181.172 393.924,178.441 394.046,179.482 394.168,185.342 394.29,187.218 394.412,190.558 
  394.534,185.672 394.656,190.854 394.779,197.291 394.901,195.717 395.023,196.797 395.145,203.313 395.267,196.167 395.389,191.863 395.511,189.004 395.633,185.101 
  395.755,179.665 395.877,179.484 395.999,180.163 396.121,176.386 396.243,174.491 396.365,171.793 396.487,173.463 396.609,172.789 396.732,172.946 396.854,178.165 
  396.976,176.791 397.098,177.382 397.22,179.979 397.342,182.089 397.464,183.073 397.586,186.268 397.708,188.313 397.83,189.839 397.952,188.512 398.074,193.577 
  398.196,193.67 398.318,193.427 398.44,193.981 398.563,194.303 398.685,194.137 398.807,193.438 398.929,192.117 399.051,190.183 399.173,187.732 399.295,185.018 
  399.417,181.916 399.539,178.833 399.661,176.198 399.783,174.463 399.905,173.891 400.027,174.511 400.149,176.152 400.271,178.502 400.393,181.388 400.516,184.784 
  400.638,188.07 400.76,190.675 400.882,189.038 401.004,190.846 401.126,187.849 401.248,187.466 401.37,184.808 401.492,187.895 401.614,188.515 401.736,188.047 
  401.858,188.132 401.98,186.008 402.102,191.759 402.224,191.941 402.346,190.915 402.469,190.933 402.591,188.527 402.713,191.414 402.835,191.179 402.957,186.777 
  403.079,191.645 403.201,186.995 403.323,176.471 403.445,183.379 403.567,180.773 403.689,174.874 403.811,180.885 403.933,179.247 404.055,180.513 404.177,182.873 
  404.299,202.434 404.422,205.087 404.544,209.546 404.666,201.765 404.788,203.897 404.91,193.574 405.032,181.035 405.154,169.392 405.276,165.206 405.398,160.772 
  405.52,161.565 405.642,167.217 405.764,163.868 405.886,167.052 406.008,165.056 406.13,166.707 406.253,167.58 406.375,169.294 406.497,174.55 406.619,175.505 
  406.741,180.991 406.863,182.347 406.985,183.786 407.107,186.87 407.229,187.327 407.351,188.252 407.473,195.415 407.595,193.896 407.717,192.668 407.839,194.404 
  407.961,193.652 408.083,191.962 408.206,189.657 408.328,187.037 408.45,184.233 408.572,181.376 408.694,178.703 408.816,176.403 408.938,174.628 409.06,173.391 
  409.182,172.884 409.304,173.115 409.426,174.088 409.548,175.865 409.67,177.878 409.792,179.593 409.914,180.768 410.036,177.379 410.159,178.326 410.281,178.564 
  410.403,179.088 410.525,178.93 410.647,183.307 410.769,185.976 410.891,186.613 411.013,187.947 411.135,195.677 411.257,194.416 411.379,195.176 411.501,199.151 
  411.623,190.959 411.745,193.025 411.867,194.358 411.989,187.994 412.112,188.376 412.234,184.662 412.356,183.31 412.478,180.692 412.6,178.481 412.722,177.658 
  412.844,165.723 412.966,171.919 413.088,176.791 413.21,183.266 413.332,186.463 413.454,191.955 413.576,193.229 413.698,191.621 413.82,188.741 413.942,182.262 
  414.065,183.025 414.187,179.821 414.309,180.349 414.431,176.198 414.553,177.476 414.675,176.316 414.797,171.82 414.919,172.28 415.041,170.057 415.163,171.441 
  415.285,173.474 415.407,176.972 415.529,176.818 415.651,180.822 415.773,182.2 415.896,181.455 416.018,182.764 416.14,186.787 416.262,185.298 416.384,188.987 
  416.506,188.329 416.628,188.468 416.75,189.68 416.872,191.377 416.994,192.979 417.116,194.401 417.238,195.482 417.36,196.003 417.482,195.81 417.604,194.821 
  417.726,192.604 417.849,189.17 417.971,184.788 418.093,179.911 418.215,175.201 418.337,171.372 418.459,169.298 418.581,169.427 418.703,171.223 418.825,174.255 
  418.947,175.88 419.069,178.646 419.191,182.451 419.313,187.311 419.435,190.115 419.557,194.014 419.679,195.971 419.802,195.888 419.924,197.529 420.046,196.912 
  420.168,201.214 420.29,197.982 420.412,195.829 420.534,196.877 420.656,192.139 420.778,193.44 420.9,188.885 421.022,188.144 421.144,187.97 421.266,181.223 
  421.388,174.272 421.51,171.082 421.632,169.042 421.755,161.154 421.877,159.092 421.999,163.682 422.121,172.457 422.243,175.42 422.365,192.148 422.487,215.016 
  422.609,222.993 422.731,224.879 422.853,221.163 422.975,222.09 423.097,210.983 423.219,196.897 423.341,186.966 423.463,182.41 423.586,169.732 423.708,169.642 
  423.83,161.759 423.952,162.767 424.074,162.309 424.196,164.235 424.318,166.451 424.44,171.241 424.562,175.106 424.684,180.911 424.806,183.389 424.928,187.082 
  425.05,187.23 425.172,191.04 425.294,192.647 425.416,193.616 425.539,194.267 425.661,193.594 425.783,190.918 425.905,190.123 426.027,190.038 426.149,189.863 
  426.271,189.627 426.393,189.288 426.515,188.937 426.637,188.085 426.759,186.435 426.881,184.026 427.003,181.175 427.125,178.343 427.247,176.081 427.369,174.908 
  427.492,175.028 427.614,176.482 427.736,179.262 427.858,183.42 427.98,188.922 428.102,194.116 428.224,195.082 428.346,195.551 428.468,198.147 428.59,198.094 
  428.712,197.445 428.834,197.506 428.956,197.34 429.078,194.543 429.2,193.897 429.322,193.439 429.445,190.278 429.567,189.666 429.689,190.074 429.811,189.061 
  429.933,186.597 430.055,181.212 430.177,178.133 430.299,180.836 430.421,177.486 430.543,178.303 430.665,174.004 430.787,176.02 430.909,170.554 431.031,173.137 
  431.153,178.465 431.276,186.747 431.398,197.793 431.52,203.05 431.642,210.1 431.764,204.541 431.886,188.521 432.008,186.288 432.13,180.229 432.252,179.073 
  432.374,178.705 432.496,176.575 432.618,176.632 432.74,173.866 432.862,174.625 432.984,174.129 433.106,172.23 433.229,174.723 433.351,177.934 433.473,181.859 
  433.595,181.825 433.717,186.644 433.839,186.668 433.961,189.366 434.083,187.658 434.205,187.675 434.327,188.185 434.449,189.576 434.571,189.529 434.693,187.884 
  434.815,188.228 434.937,188.431 435.059,188.593 435.182,188.829 435.304,189.384 435.426,190.216 435.548,191.179 435.67,191.469 435.792,190.885 435.914,189.362 
  436.036,187.054 436.158,184.391 436.28,181.854 436.402,179.88 436.524,178.8 436.646,179.138 436.768,181.352 436.89,184.474 437.012,187.888 437.135,187.213 
  437.257,190.134 437.379,189.948 437.501,189.967 437.623,191.061 437.745,191.497 437.867,191.059 437.989,191.684 438.111,193.889 438.233,195.297 438.355,195.342 
  438.477,194.36 438.599,192.595 438.721,194.149 438.843,191.655 438.966,190.667 439.088,187.871 439.21,183.69 439.332,181.456 439.454,178.064 439.576,176.368 
  439.698,173.754 439.82,175.277 439.942,177.864 440.064,174.277 440.186,181.884 440.308,181.654 440.43,191.224 440.552,212.868 440.674,214.745 440.796,214.197 
  440.919,209.599 441.041,204.878 441.163,195.472 441.285,184.727 441.407,179.141 441.529,170.989 441.651,168.216 441.773,164.941 441.895,165.929 442.017,168.523 
  442.139,167.857 442.261,165.536 442.383,172.795 442.505,174.487 442.627,177.572 442.749,178.424 442.872,182.519 442.994,183.109 443.116,183.887 443.238,187.071 
  443.36,188.562 443.482,191.357 443.604,193.686 443.726,194.761 443.848,193.884 443.97,195.305 444.092,196.137 444.214,196.311 444.336,195.955 444.458,195.027 
  444.58,193.662 444.702,191.783 444.825,189.233 444.947,186.092 445.069,182.525 445.191,179.064 445.313,176.29 445.435,174.643 445.557,174.37 445.679,175.418 
  445.801,177.616 445.923,180.953 446.045,184.48 446.167,187.549 446.289,185.293 446.411,186.202 446.533,186.424 446.656,187.762 446.778,186.146 446.9,187.16 
  447.022,186.397 447.144,190.072 447.266,191.564 447.388,189.69 447.51,188.762 447.632,192.783 447.754,190.571 447.876,185.822 447.998,186.49 448.12,184.218 
  448.242,180.821 448.364,176.532 448.486,179.917 448.609,172.899 448.731,171.154 448.853,170.742 448.975,164.286 449.097,178.215 449.219,185.339 449.341,193.673 
  449.463,212.128 449.585,213.98 449.707,207.853 449.829,201.924 449.951,189.112 450.073,179.798 450.195,174.103 450.317,173.982 450.439,171.424 450.562,172.471 
  450.684,167.915 450.806,174.329 450.928,170.104 451.05,168.01 451.172,168.936 451.294,170.253 451.416,171.581 451.538,173.298 451.66,177.12 451.782,178.604 
  451.904,180.992 452.026,182.698 452.148,184 452.27,184.797 452.392,185.022 452.515,187.461 452.637,185.972 452.759,189.138 452.881,190.085 453.003,191.839 
  453.125,193.363 453.247,194.443 453.369,194.998 453.491,195.042 453.613,194.637 453.735,193.908 453.857,192.377 453.979,189.974 454.101,186.875 454.223,183.435 
  454.345,180.126 454.468,177.381 454.59,175.72 454.712,175.236 454.834,175.82 454.956,177.419 455.078,176.551 455.2,179.006 455.322,182.12 455.444,184.833 
  455.566,187.304 455.688,190.256 455.81,190.478 455.932,191.891 456.054,194.727 456.176,195.169 456.299,194.737 456.421,196.196 456.543,192.977 456.665,192.114 
  456.787,192.561 456.909,186.934 457.031,186.471 457.153,180.965 457.275,180.41 457.397,176.881 457.519,168.597 457.641,162.539 457.763,164.554 457.885,160.429 
  458.007,158.027 458.129,165.529 458.252,165.36 458.374,174.66 458.496,193.472 458.618,211.923 458.74,215.504 458.862,218.966 458.984,210.974 459.106,206.814 
  459.228,198.692 459.35,189.397 459.472,183.509 459.594,180.71 459.716,170.394 459.838,171.711 459.96,170.313 460.082,169.628 460.205,169.561 460.327,171.203 
  460.449,172.995 460.571,179.313 460.693,183.663 460.815,182.895 460.937,186.73 461.059,188.474 461.181,188.377 461.303,190.157 461.425,190.485 461.547,191.062 
  461.669,192.883 461.791,193.349 461.913,192.554 462.035,193.567 462.158,194.066 462.28,194.007 462.402,193.325 462.524,192.08 462.646,190.619 462.768,188.73 
  462.89,186.227 463.012,183.159 463.134,180.059 463.256,177.545 463.378,175.972 463.5,175.621 463.622,176.465 463.744,178.339 463.866,181.005 463.989,184.741 
  464.111,187.772 464.233,187.794 464.355,189.494 464.477,184.693 464.599,187.962 464.721,187.33 464.843,188.798 464.965,193.174 465.087,191.355 465.209,194.781 
  465.331,198.056 465.453,198.541 465.575,195.019 465.697,195.616 465.819,194.108 465.942,190.014 466.064,193.698 466.186,188.914 466.308,186.124 466.43,183.196 
  466.552,184.832 466.674,186.458 466.796,174.033 466.918,174.983 467.04,182.636 467.162,191.557 467.284,187.504 467.406,208.867 467.528,209.822 467.65,217.54 
  467.772,203.25 467.895,197.156 468.017,186.703 468.139,185.951 468.261,184.906 468.383,183.962 468.505,184.32 468.627,182.73 468.749,183.345 468.871,180.915 
  468.993,175.679 469.115,174.714 469.237,171.93 469.359,174.63 469.481,176.949 469.603,180.008 469.725,180.918 469.848,182.189 469.97,185.447 470.092,184.865 
  470.214,186.437 470.336,187.373 470.458,187.769 470.58,187.172 470.702,187.713 470.824,188.931 470.946,190.116 471.068,191.222 471.19,192.478 471.312,194.028 
  471.434,195.984 471.556,197.723 471.679,198.563 471.801,198.174 471.923,196.628 472.045,193.99 472.167,190.466 472.289,186.538 472.411,182.774 472.533,179.823 
  472.655,178.288 472.777,178.556 472.899,180.555 473.021,184.136 473.143,189.052 473.265,194.015 473.387,196.212 473.509,195.383 473.632,198.642 473.754,200.41 
  473.876,199.765 473.998,202.544 474.12,201.23 474.242,199.199 474.364,197.647 474.486,195.802 474.608,192.505 474.73,192.777 474.852,190.485 474.974,188.89 
  475.096,187.325 475.218,187.051 475.34,186.322 475.462,193.804 475.585,192.168 475.707,197.956 475.829,202.943 475.951,204.598 476.073,211.554 476.195,213.301 
  476.317,223.67 476.439,224.143 476.561,219.01 476.683,203.664 476.805,193.57 476.927,182.61 477.049,175.726 477.171,167.272 477.293,168.655 477.415,171.073 
  477.538,173.05 477.66,167.855 477.782,169.551 477.904,167.967 478.026,170.29 478.148,166.914 478.27,166.061 478.392,167.186 478.514,171.891 478.636,173.1 
  478.758,177.377 478.88,184.924 479.002,186.909 479.124,192.663 479.246,194.829 479.369,198.074 479.491,201.22 479.613,204.464 479.735,204.285 479.857,205.873 
  479.979,206.424 480.101,205.832 480.223,204.117 480.345,201.617 480.467,197.877 480.589,193.036 480.711,187.901 480.833,183.37 480.955,180.062 481.077,178.385 
  481.199,178.47 481.322,179.997 481.444,182.476 481.566,185.228 481.688,187.728 481.81,189.757 481.932,191.267 482.054,192.58 482.176,195.079 482.298,195.831 
  482.42,194.759 482.542,188.441 482.664,186.37 482.786,180.537 482.908,178.441 483.03,175.675 483.152,176.589 483.275,179.84 483.397,182.009 483.519,185.075 
  483.641,187.068 483.763,191.64 483.885,191.028 484.007,192.732 484.129,195.873 484.251,194.569 484.373,198.212 484.495,204.803 484.617,204.699 484.739,208.645 
  484.861,214.059 484.983,225.028 485.105,222.931 485.228,222.098 485.35,232.283 485.472,225.53 485.594,211.36 485.716,202.414 485.838,179.826 485.96,166.873 
  486.082,164.731 486.204,153.31 486.326,150.886 486.448,155.804 486.57,157.893 486.692,166.514 486.814,165.743 486.936,168.94 487.058,169.596 487.181,171.459 
  487.303,171.342 487.425,173.652 487.547,173.91 487.669,177.4 487.791,180.079 487.913,183.055 488.035,186.111 488.157,188.01 488.279,190.641 488.401,191.293 
  488.523,195.273 488.645,195.494 488.767,198.821 488.889,201.877 489.012,204.165 489.134,205.305 489.256,204.973 489.378,202.969 489.5,199.086 489.622,193.946 
  489.744,188.376 489.866,183.269 489.988,179.26 490.11,176.735 490.232,175.794 490.354,176.13 490.476,177.368 490.598,179.117 490.72,181.163 490.842,183.308 
  490.965,185.574 491.087,187.942 491.209,190.534 491.331,192.737 491.453,190.938 491.575,190.098 491.697,191.218 491.819,190.74 491.941,192.303 492.063,193.371 
  492.185,193.886 492.307,194.838 492.429,195.459 492.551,194.769 492.673,196.225 492.795,197.928 492.918,198.048 493.04,195.775 493.162,196.17 493.284,194.267 
  493.406,202.789 493.528,203.224 493.65,200.783 493.772,205.344 493.894,214.77 494.016,213.281 494.138,220.841 494.26,220.209 494.382,217.345 494.504,200.502 
  494.626,188.328 494.748,177.655 494.871,166.954 494.993,153.769 495.115,151.001 495.237,149.914 495.359,152.6 495.481,153.906 495.603,157.466 495.725,161.591 
  495.847,164.943 495.969,166.541 496.091,166.48 496.213,167.636 496.335,166.898 496.457,167.672 496.579,171.372 496.702,175.347 496.824,179.384 496.946,184.825 
  497.068,190.732 497.19,195.802 497.312,201.605 497.434,205.731 497.556,209.785 497.678,211.984 497.8,214.463 497.922,215.255 498.044,214.097 498.166,210.926 
  498.288,205.958 498.41,199.592 498.532,192.582 498.655,185.454 498.777,179.079 498.899,174.291 499.021,171.639 499.143,171.342 499.265,173.11 499.387,176.394 
  499.509,180.378 499.631,184.342 499.753,187.81 499.875,190.191 499.997,193.035 500.119,192.305 500.241,189.158 500.363,181.62 500.485,173.551 500.608,172.634 
  500.73,169.545 500.852,168.834 500.974,168.782 501.096,171.685 501.218,175.562 501.34,179.775 501.462,185.102 501.584,185.134 501.706,189.729 501.828,193.174 
  501.95,191.132 502.072,196.523 502.194,201.605 502.316,202.317 502.438,209.347 502.561,208.958 502.683,215.096 502.805,219.348 502.927,216.009 503.049,218.342 
  503.171,219.379 503.293,223.13 503.415,225.585 503.537,215.698 503.659,201.172 503.781,185.541 503.903,168.459 504.025,159.699 504.147,153.908 504.269,150.418 
  504.392,154.589 504.514,155.855 504.636,160.88 504.758,162.069 504.88,162.308 505.002,165.572 505.124,163.52 505.246,163.541 505.368,165.39 505.49,166.512 
  505.612,168.768 505.734,171.233 505.856,175.921 505.978,177.033 506.1,181.76 506.222,184.176 506.345,187.184 506.467,191.733 506.589,194.167 506.711,198.17 
  506.833,201.355 506.955,203.333 507.077,203.887 507.199,202.975 507.321,200.91 507.443,198.31 507.565,195.073 507.687,191.435 507.809,187.622 507.931,183.87 
  508.053,180.461 508.175,177.53 508.298,175.317 508.42,173.989 508.542,173.785 508.664,174.781 508.786,176.919 508.908,179.803 509.03,183.061 509.152,186.767 
  509.274,190.164 509.396,189.173 509.518,192.001 509.64,192.756 509.762,194.098 509.884,193.841 510.006,198.801 510.128,199.978 510.251,200.619 510.373,200.476 
  510.495,199.199 510.617,198.925 510.739,197.286 510.861,197.044 510.983,194.015 511.105,190.382 511.227,188.785 511.349,189.481 511.471,191.764 511.593,197.4 
  511.715,198.033 511.837,201.311 511.959,204.523 512.082,201.992 512.204,199.535 512.326,197.936 512.448,192.701 512.57,181.414 512.692,179.397 512.814,166.115 
  512.936,163.544 513.058,159.673 513.18,162.837 513.302,166.397 513.424,171.254 513.546,169.625 513.668,173.991 513.79,171.159 513.912,169.281 514.035,167.176 
  514.157,162.295 514.279,163.532 514.401,165.801 514.523,167.462 514.645,174.861 514.767,180.779 514.889,186.963 515.011,190.256 515.133,197.243 515.255,202.816 
  515.377,206.408 515.499,208.721 515.621,211.176 515.743,210.375 515.865,209.933 515.988,207.99 516.11,204.634 516.232,200.116 516.354,194.761 516.476,188.988 
  516.598,183.162 516.72,177.947 516.842,173.874 516.964,171.506 517.086,170.987 517.208,172.287 517.33,175.031 517.452,178.602 517.574,182.325 517.696,185.734 
  517.818,188.99 517.941,190.206 518.063,189.189 518.185,187.21 518.307,181.768 518.429,176.796 518.551,176.609 518.673,173.817 518.795,174.247 518.917,173.406 
  519.039,177.05 519.161,181.069 519.283,187.416 519.405,190.145 519.527,190.974 519.649,195.24 519.771,195.624 519.894,197.267 520.016,197.546 520.138,200.245 
  520.26,202.645 520.382,208.726 520.504,212.012 520.626,210.715 520.748,210.507 520.87,213.444 520.992,209.388 521.114,211.74 521.236,218.427 521.358,225.885 
  521.48,215.758 521.602,204.908 521.725,185.382 521.847,176.629 521.969,164.317 522.091,160.09 522.213,156.844 522.335,158.746 522.457,156.625 522.579,159.196 
  522.701,159.414 522.823,165.872 522.945,162.272 523.067,160.762 523.189,164.979 523.311,163.482 523.433,164.424 523.555,167.92 523.678,174.644 523.8,175.232 
  523.922,178.047 524.044,182.133 524.166,185.272 524.288,188.514 524.41,190.717 524.532,194.229 524.654,197.372 524.776,201.45 524.898,204.453 525.02,205.975 
  525.142,205.797 525.264,204.016 525.386,201.032 525.508,197.468 525.631,193.182 525.753,188.269 525.875,183.124 525.997,178.177 526.119,173.916 526.241,170.797 
  526.363,169.21 526.485,169.349 526.607,171.082 526.729,174.025 526.851,177.76 526.973,181.985 527.095,186.531 527.217,191.365 527.339,195.746 527.461,196.312 
  527.584,197.647 527.706,198.277 527.828,202.193 527.95,203.266 528.072,204.044 528.194,202.403 528.316,204.282 528.438,201.589 528.56,199.05 528.682,200.152 
  528.804,196.469 528.926,191.697 529.048,190.1 529.17,187.419 529.292,187.901 529.415,187.911 529.537,186.035 529.659,193.981 529.781,194.761 529.903,195.538 
  530.025,196.345 530.147,192.934 530.269,193.554 530.391,193.116 530.513,186.42 530.635,185.26 530.757,182.067 530.879,177.593 531.001,175.849 531.123,174.982 
  531.245,178.296 531.368,177.869 531.49,175.736 531.612,175.124 531.734,170.869 531.856,167.362 531.978,169.452 532.1,166.046 532.222,165.451 532.344,167.224 
  532.466,171.549 532.588,175.148 532.71,180.952 532.832,188.796 532.954,194.526 533.076,199.904 533.198,203.591 533.321,205.722 533.443,209.15 533.565,211.16 
  533.687,209.949 533.809,209.13 533.931,206.778 534.053,203.039 534.175,198.186 534.297,192.553 534.419,186.625 534.541,181.062 534.663,176.351 534.785,172.917 
  534.907,171.181 535.029,171.294 535.151,173.081 535.274,176.147 535.396,179.766 535.518,183.237 535.64,186.049 535.762,188.378 535.884,189.805 536.006,189.732 
  536.128,188.505 536.25,184.403 536.372,182.196 536.494,179.599 536.616,177.99 536.738,178.267 536.86,177.8 536.982,181.242 537.105,185.02 537.227,186.921 
  537.349,192.371 537.471,193.359 537.593,196.237 537.715,197.729 537.837,199.56 537.959,202.02 538.081,196.265 538.203,204.299 538.325,203.649 538.447,200.744 
  538.569,206.461 538.691,204.154 538.813,207.414 538.935,205.023 539.058,204.497 539.18,212.39 539.302,223.263 539.424,219.531 539.546,211.421 539.668,201.906 
  539.79,188.401 539.912,177.403 540.034,168.112 540.156,162.692 540.278,163.047 540.4,161.188 540.522,160.847 540.644,159.994 540.766,160.585 540.888,159.454 
  541.011,159.66 541.133,161.241 541.255,164.106 541.377,164.655 541.499,165.403 541.621,166.791 541.743,172.274 541.865,173.616 541.987,178.711 542.109,179.458 
  542.231,185.188 542.353,187.483 542.475,192.244 542.597,194.809 542.719,197.987 542.841,198.828 542.964,200.88 543.086,201.748 543.208,201.389 543.33,199.878 
  543.452,197.412 543.574,194.229 543.696,190.594 543.818,186.223 543.94,181.497 544.062,176.922 544.184,173.046 544.306,170.391 544.428,169.338 544.55,169.996 
  544.672,172.161 544.795,175.469 544.917,179.469 545.039,183.895 545.161,188.428 545.283,192.452 545.405,195.732 545.527,195.351 545.649,193.884 545.771,197.85 
  545.893,199.212 546.015,200.813 546.137,200.383 546.259,199.785 546.381,202.668 546.503,201.615 546.625,203.939 546.748,199.635 546.87,196.742 546.992,190.217 
  547.114,193.662 547.236,189.532 547.358,187.23 547.48,184.91 547.602,187.919 547.724,184.668 547.846,184.745 547.968,179.939 548.09,184.907 548.212,186.813 
  548.334,186.014 548.456,185.67 548.578,182.699 548.701,185.326 548.823,185.874 548.945,183.978 549.067,180.402 549.189,181.223 549.311,182.155 549.433,181.458 
  549.555,179 549.677,175.718 549.799,173.275 549.921,171.442 550.043,169.77 550.165,164.148 550.287,168.013 550.409,170.698 550.531,172.699 550.654,179.455 
  550.776,182.535 550.898,191.074 551.02,193.58 551.142,197.615 551.264,200.704 551.386,202.716 551.508,203.103 551.63,202.827 551.752,202.94 551.874,201.138 
  551.996,199.486 552.118,196.89 552.24,193.48 552.362,189.554 552.484,185.543 552.607,181.883 552.729,178.969 552.851,176.973 552.973,175.863 553.095,175.701 
  553.217,176.342 553.339,177.682 553.461,179.378 553.583,181.477 553.705,182.854 553.827,183.093 553.949,182.544 554.071,181.641 554.193,178.219 554.315,177.284 
  554.438,178.641 554.56,179.069 554.682,181.575 554.804,183.765 554.926,186.949 555.048,190.476 555.17,193.323 555.292,195.298 555.414,199.943 555.536,202.015 
  555.658,203.695 555.78,202.538 555.902,204.939 556.024,201.728 556.146,201.593 556.268,195.316 556.391,198.774 556.513,192.287 556.635,194.197 556.757,192.34 
  556.879,196.001 557.001,197.645 557.123,196.761 557.245,198.217 557.367,204.454 557.489,202.436 557.611,202.847 557.733,199.234 557.855,190.607 557.977,184.488 
  558.099,177.571 558.221,170.33 558.344,169.067 558.466,164.568 558.588,165.496 558.71,164.617 558.832,161.307 558.954,162.828 559.076,160.875 559.198,162.464 
  559.32,163.136 559.442,163.039 559.564,165.187 559.686,169.025 559.808,170.792 559.93,173.827 560.052,176.25 560.174,180.566 560.297,183.794 560.419,188.11 
  560.541,190.836 560.663,193.333 560.785,197.888 560.907,198.157 561.029,200.326 561.151,201.558 561.273,201.705 561.395,200.633 561.517,198.295 561.639,194.803 
  561.761,190.576 561.883,185.694 562.005,180.226 562.128,174.831 562.25,170.284 562.372,167.307 562.494,166.276 562.616,167.173 562.738,169.788 562.86,173.684 
  562.982,178.386 563.104,183.567 563.226,189.214 563.348,194.654 563.47,199.416 563.592,201.674 563.714,203.045 563.836,203.503 563.958,203.954 564.081,204.379 
  564.203,201.903 564.325,201.039 564.447,202.675 564.569,199.549 564.691,198.14 564.813,197.162 564.935,194.2 565.057,189.746 565.179,187.253 565.301,187.835 
  565.423,184.104 565.545,182.518 565.667,181.403 565.789,180.374 565.911,179.272 566.034,172.941 566.156,174.953 566.278,179.388 566.4,180.361 566.522,188.521 
  566.644,188.768 566.766,192.103 566.888,198.709 567.01,197.223 567.132,193.328 567.254,188.537 567.376,192.938 567.498,184.886 567.62,182.458 567.742,178.764 
  567.864,173.908 567.987,171.865 568.109,173.536 568.231,172.408 568.353,172.298 568.475,174.65 568.597,176.525 568.719,181.253 568.841,185.203 568.963,189.773 
  569.085,192.532 569.207,195.737 569.329,198.953 569.451,201.474 569.573,202.587 569.695,201.937 569.818,199.575 569.94,195.882 570.062,193.67 570.184,191.313 
  570.306,188.966 570.428,186.708 570.55,184.655 570.672,182.82 570.794,181.378 570.916,180.224 571.038,179.39 571.16,178.78 571.282,178.522 571.404,178.856 
  571.526,179.409 571.648,180.009 571.771,181.928 571.893,183.704 572.015,184.979 572.137,185.691 572.259,186.049 572.381,184.114 572.503,184.495 572.625,182.974 
  572.747,185.359 572.869,187.098 572.991,190.642 573.113,194.084 573.235,193.103 573.357,199.091 573.479,199.423 573.601,204.36 573.724,202.057 573.846,203.225 
  573.968,199.717 574.09,201.848 574.212,202.899 574.334,202.171 574.456,200.471 574.578,200.868 574.7,194.482 574.822,198.677 574.944,203.171 575.066,204.444 
  575.188,206.241 575.31,206.236 575.432,209.134 575.554,208.846 575.677,202.304 575.799,193.378 575.921,189.98 576.043,182.233 576.165,174.796 576.287,174.525 
  576.409,169.027 576.531,170.188 576.653,168.012 576.775,168.118 576.897,163.672 577.019,163.595 577.141,163.058 577.263,162.472 577.385,159.158 577.508,164.007 
  577.63,164.879 577.752,166.264 577.874,169.57 577.996,170.353 578.118,171.659 578.24,178.374 578.362,182.21 578.484,184.816 578.606,188.288 578.728,193.392 
  578.85,195.724 578.972,198.566 579.094,199.285 579.216,200.503 579.338,200.574 579.461,199.505 579.583,197.275 579.705,194.041 579.827,190.049 579.949,185.849 
  580.071,181.233 580.193,176.54 580.315,172.386 
  "/>
</svg>
