<?xml version="1.0" encoding="utf-8"?>
<svg xmlns="http://www.w3.org/2000/svg" xmlns:xlink="http://www.w3.org/1999/xlink" width="600" height="400" viewBox="0 0 600 400">
<defs>
  <clipPath id="clip00">
    <rect x="0" y="0" width="600" height="400"/>
  </clipPath>
</defs>
<polygon clip-path="url(#clip00)" points="
0,400 600,400 600,0 0,0 
  " fill="#ffffff" fill-opacity="1"/>
<defs>
  <clipPath id="clip01">
    <rect x="120" y="0" width="421" height="400"/>
  </clipPath>
</defs>
<polygon clip-path="url(#clip00)" points="
62.5219,357.163 580.315,357.163 580.315,15.748 62.5219,15.748 
  " fill="#ffffff" fill-opacity="1"/>
<defs>
  <clipPath id="clip02">
    <rect x="62" y="15" width="518" height="342"/>
  </clipPath>
</defs>
<g clip-path="url(#clip00)">
<text style="fill:#00002d; fill-opacity:1; font-family:Arial; font-size:12; text-anchor:start;" transform="rotate(0, 37.7695, 360.576)" x="37.7695" y="360.576">-</text>
</g>
<g clip-path="url(#clip00)">
<text style="fill:#00002d; fill-opacity:1; font-family:Arial; font-size:12; text-anchor:start;" transform="rotate(0, 44.691, 360.576)" x="44.691" y="360.576">10</text>
</g>
<g clip-path="url(#clip00)">
<text style="fill:#00002d; fill-opacity:1; font-family:Arial; font-size:12; text-anchor:start;" transform="rotate(0, 44.3591, 275.222)" x="44.3591" y="275.222">-</text>
</g>
<g clip-path="url(#clip00)">
<text style="fill:#00002d; fill-opacity:1; font-family:Arial; font-size:12; text-anchor:start;" transform="rotate(0, 51.2806, 275.222)" x="51.2806" y="275.222">5</text>
</g>
<g clip-path="url(#clip00)">
<text style="fill:#00002d; fill-opacity:1; font-family:Arial; font-size:12; text-anchor:start;" transform="rotate(0, 51.2806, 189.868)" x="51.2806" y="189.868">0</text>
</g>
<g clip-path="url(#clip00)">
<text style="fill:#00002d; fill-opacity:1; font-family:Arial; font-size:12; text-anchor:start;" transform="rotate(0, 51.2806, 104.515)" x="51.2806" y="104.515">5</text>
</g>
<g clip-path="url(#clip00)">
<text style="fill:#00002d; fill-opacity:1; font-family:Arial; font-size:12; text-anchor:start;" transform="rotate(0, 44.691, 19.1608)" x="44.691" y="19.1608">10</text>
</g>
<polyline clip-path="url(#clip00)" style="stroke:#00002d; stroke-width:0.8; stroke-opacity:1; fill:none" points="
  62.5219,357.163 62.5219,357.163 71.8252,357.163 62.5219,357.163 62.5219,271.809 71.8252,271.809 62.5219,271.809 62.5219,186.456 71.8252,186.456 62.5219,186.456 
  62.5219,101.102 71.8252,101.102 62.5219,101.102 62.5219,15.748 71.8252,15.748 62.5219,15.748 
  "/>
<g clip-path="url(#clip00)">
<text style="fill:#00002d; fill-opacity:1; font-family:Arial; font-size:12; text-anchor:start;" transform="rotate(0, 148.701, 372.528)" x="148.701" y="372.528">240</text>
</g>
<g clip-path="url(#clip00)">
<text style="fill:#00002d; fill-opacity:1; font-family:Arial; font-size:12; text-anchor:start;" transform="rotate(0, 324.473, 372.528)" x="324.473" y="372.528">250</text>
</g>
<g clip-path="url(#clip00)">
<text style="fill:#00002d; fill-opacity:1; font-family:Arial; font-size:12; text-anchor:start;" transform="rotate(0, 500.244, 372.528)" x="500.244" y="372.528">260</text>
</g>
<polyline clip-path="url(#clip00)" style="stroke:#00002d; stroke-width:0.8; stroke-opacity:1; fill:none" points="
  62.5219,357.163 158.586,357.163 158.586,347.86 158.586,357.163 334.357,357.163 334.357,347.86 334.357,357.163 510.128,357.163 510.128,347.86 510.128,357.163 
  580.315,357.163 
  "/>
<polyline clip-path="url(#clip00)" style="stroke:#00002d; stroke-width:0.8; stroke-opacity:1; fill:none" points="
  580.315,357.163 580.315,357.163 571.012,357.163 580.315,357.163 580.315,271.809 571.012,271.809 580.315,271.809 580.315,186.456 571.012,186.456 580.315,186.456 
  580.315,101.102 571.012,101.102 580.315,101.102 580.315,15.748 571.012,15.748 580.315,15.748 
  "/>
<polyline clip-path="url(#clip00)" style="stroke:#00002d; stroke-width:0.8; stroke-opacity:1; fill:none" points="
  62.5219,15.748 158.586,15.748 158.586,25.0513 158.586,15.748 334.357,15.748 334.357,25.0513 334.357,15.748 510.128,15.748 510.128,25.0513 510.128,15.748 
  580.315,15.748 
  "/>
<g clip-path="url(#clip00)">
<text style="fill:#00002d; fill-opacity:1; font-family:Arial; font-size:16; text-anchor:middle;" transform="rotate(0, 321.418, 397.6)" x="321.418" y="397.6">Day of Year</text>
</g>
<g clip-path="url(#clip00)">
<text style="fill:#00002d; fill-opacity:1; font-family:Arial; font-size:16; text-anchor:middle;" transform="rotate(-90, 14.4, 186.456)" x="14.4" y="186.456">Residual discharge</text>
</g>
<polyline clip-path="url(#clip02)" style="stroke:#0099ff; stroke-width:0.8; stroke-opacity:1; fill:none" points="
  62.5219,185.071 62.6439,185.898 62.766,186.389 62.8881,187.584 63.0101,188.695 63.1322,185.174 63.2543,185.792 63.3763,186.709 63.4984,187.245 63.6204,185.498 
  63.7425,187.428 63.8646,187.574 63.9866,194.266 64.1087,198.488 64.2308,197.494 64.3528,203.448 64.4749,205.428 64.597,200.688 64.719,186.916 64.8411,187.042 
  64.9631,183.652 65.0852,192.05 65.2073,186.969 65.3293,191.761 65.4514,196.549 65.5735,201.134 65.6955,200.398 65.8176,196.71 65.9396,205.825 66.0617,215.333 
  66.1838,174.45 66.3058,174.335 66.4279,164.19 66.55,160.56 66.672,156.615 66.7941,156.665 66.9162,164.853 67.0382,179.899 67.1603,193.36 67.2823,198.8 
  67.4044,205.271 67.5265,190.729 67.6485,189.129 67.7706,188.522 67.8927,179.956 68.0147,181.689 68.1368,174.127 68.2589,165.703 68.3809,161.564 68.503,184.332 
  68.625,186.161 68.7471,186.883 68.8692,184.149 68.9912,184.044 69.1133,186.254 69.2354,187.274 69.3574,187.59 69.4795,187.269 69.6016,188.444 69.7236,186.077 
  69.8457,185.673 69.9677,185.114 70.0898,185.793 70.2119,186.255 70.3339,185.412 70.456,185.292 70.5781,185.694 70.7001,185.79 70.8222,185.785 70.9442,186.152 
  71.0663,186.034 71.1884,186.108 71.3104,186.827 71.4325,186.395 71.5546,186.604 71.6766,186.942 71.7987,186.488 71.9208,186.77 72.0428,186.532 72.1649,186.732 
  72.2869,187.771 72.409,187.926 72.5311,185.266 72.6531,186.483 72.7752,186.486 72.8973,187.287 73.0193,181.27 73.1414,187.688 73.2635,196.224 73.3855,193.014 
  73.5076,195.543 73.6296,203.225 73.7517,199.57 73.8738,193.989 73.9958,194.946 74.1179,193.275 74.24,191.995 74.362,188.31 74.4841,186.865 74.6062,185.661 
  74.7282,183.232 74.8503,186.17 74.9723,188.918 75.0944,196.901 75.2165,202.265 75.3385,179.31 75.4606,169.883 75.5827,181.24 75.7047,174.239 75.8268,174.343 
  75.9489,185.701 76.0709,180.08 76.193,190.968 76.315,191.754 76.4371,191.809 76.5592,179.629 76.6812,198.239 76.8033,191.272 76.9254,179.784 77.0474,182.08 
  77.1695,169.258 77.2915,170.807 77.4136,168.949 77.5357,158.477 77.6577,180.773 77.7798,186.011 77.9019,183.601 78.0239,184.543 78.146,186.605 78.2681,184.93 
  78.3901,182.704 78.5122,184.036 78.6342,184.074 78.7563,182.392 78.8784,185.974 79.0004,185.46 79.1225,186.245 79.2446,186.287 79.3666,185.679 79.4887,185.1 
  79.6108,185.977 79.7328,186.263 79.8549,186.46 79.9769,186.945 80.099,186.332 80.2211,186.636 80.3431,187.416 80.4652,186.661 80.5873,186.704 80.7093,186.787 
  80.8314,187.362 80.9535,188.104 81.0755,188.215 81.1976,185.335 81.3196,185.818 81.4417,188.411 81.5638,185.466 81.6858,188.316 81.8079,186.642 81.93,186.073 
  82.052,187.903 82.1741,182.606 82.2961,188.315 82.4182,188.86 82.5403,188.985 82.6623,202.762 82.7844,204.519 82.9065,191.621 83.0285,194.467 83.1506,193.398 
  83.2727,191.484 83.3947,190.753 83.5168,190.81 83.6388,189.518 83.7609,194.444 83.883,197.708 84.005,198.9 84.1271,196.555 84.2492,197.652 84.3712,176.706 
  84.4933,182.472 84.6154,174.801 84.7374,168.918 84.8595,178.193 84.9815,168.095 85.1036,182.602 85.2257,182.107 85.3477,188.932 85.4698,193.361 85.5919,194.223 
  85.7139,182.621 85.836,189.26 85.9581,178.936 86.0801,175.316 86.2022,181.704 86.3242,175.456 86.4463,165.882 86.5684,174.483 86.6904,184.588 86.8125,184.023 
  86.9346,185.295 87.0566,186.07 87.1787,185.4 87.3007,185.863 87.4228,185.956 87.5449,185.768 87.6669,187.045 87.789,183.955 87.9111,187.949 88.0331,186.497 
  88.1552,185.834 88.2773,186.83 88.3993,184.435 88.5214,185.52 88.6434,185.37 88.7655,185.509 88.8876,185.511 89.0096,185.797 89.1317,185.619 89.2538,186.135 
  89.3758,186.154 89.4979,186.519 89.62,186.321 89.742,186.348 89.8641,186.453 89.9861,186.56 90.1082,186.312 90.2303,186.173 90.3523,186.683 90.4744,187.764 
  90.5965,186.531 90.7185,185.458 90.8406,187.232 90.9627,186.379 91.0847,187.567 91.2068,185.682 91.3288,178.151 91.4509,182.666 91.573,184.943 91.695,188.055 
  91.8171,192.917 91.9392,191.055 92.0612,190.123 92.1833,188.799 92.3054,191.328 92.4274,185.351 92.5495,186.063 92.6715,186.635 92.7936,181.13 92.9157,181.879 
  93.0377,183.177 93.1598,190.765 93.2819,191.238 93.4039,199.777 93.526,192.334 93.648,205.781 93.7701,187.624 93.8922,186.2 94.0142,185.173 94.1363,177.5 
  94.2584,182.316 94.3804,183.064 94.5025,189.004 94.6246,193.007 94.7466,188.806 94.8687,194.668 94.9907,192.585 95.1128,191.206 95.2349,196.383 95.3569,179.083 
  95.479,185.079 95.6011,177.524 95.7231,175.212 95.8452,187.43 95.9673,187.291 96.0893,189.127 96.2114,186.587 96.3334,186.395 96.4555,187.873 96.5776,183.655 
  96.6996,186.013 96.8217,188.547 96.9438,187.084 97.0658,186.053 97.1879,185.129 97.31,186.853 97.432,185.79 97.5541,186.306 97.6761,186.263 97.7982,185.738 
  97.9203,185.975 98.0423,186.959 98.1644,186.136 98.2865,186.517 98.4085,186.039 98.5306,185.91 98.6526,186.884 98.7747,186.665 98.8968,186.86 99.0188,187.917 
  99.1409,187.706 99.263,185.274 99.385,187.59 99.5071,185.777 99.6292,186.794 99.7512,187.663 99.8733,189.266 99.9953,189.545 100.117,188.114 100.239,188.451 
  100.362,180.236 100.484,185.176 100.606,186.05 100.728,191.823 100.85,191.306 100.972,198.144 101.094,191.096 101.216,196.24 101.338,197.703 101.46,186.679 
  101.582,188.624 101.704,193.026 101.826,176.381 101.948,179.062 102.07,182.257 102.192,185.323 102.315,182.198 102.437,185.347 102.559,201.772 102.681,173.2 
  102.803,184.334 102.925,194.084 103.047,197.477 103.169,197.718 103.291,188.311 103.413,183.085 103.535,185.594 103.657,179.361 103.779,181.205 103.901,181.235 
  104.023,191.919 104.146,194.707 104.268,190.063 104.39,191.381 104.512,194.638 104.634,192.742 104.756,189.32 104.878,186.863 105,186.783 105.122,185.245 
  105.244,184.282 105.366,184.948 105.488,186.789 105.61,186.746 105.732,185.076 105.854,186.283 105.976,188.605 106.099,186.005 106.221,187.217 106.343,186.118 
  106.465,185.486 106.587,185.634 106.709,185.838 106.831,186.972 106.953,186.636 107.075,186.07 107.197,185.466 107.319,185.913 107.441,185.49 107.563,186.311 
  107.685,186.643 107.807,185.923 107.929,186.308 108.052,186.042 108.174,185.776 108.296,185.701 108.418,185.955 108.54,185.821 108.662,185.557 108.784,186.863 
  108.906,187.712 109.028,185.902 109.15,186.276 109.272,186.435 109.394,187.433 109.516,167.049 109.638,172.872 109.76,177.983 109.882,182.274 110.005,185.288 
  110.127,183.811 110.249,186.997 110.371,186.628 110.493,187.76 110.615,177.531 110.737,179.418 110.859,183.457 110.981,177.685 111.103,183.796 111.225,185.546 
  111.347,186.948 111.469,188.522 111.591,194.325 111.713,196.485 111.835,185.26 111.958,191.924 112.08,184.398 112.202,189.119 112.324,183.475 112.446,187.771 
  112.568,197.643 112.69,180.951 112.812,179.33 112.934,189.001 113.056,179.956 113.178,177.52 113.3,191.75 113.422,177.127 113.544,187.421 113.666,177.325 
  113.789,189.098 113.911,196.063 114.033,187.015 114.155,185.627 114.277,186.567 114.399,187.297 114.521,189.949 114.643,185.003 114.765,185.602 114.887,185.748 
  115.009,186.438 115.131,186.454 115.253,187.576 115.375,187.622 115.497,186.007 115.619,186.517 115.742,186.586 115.864,185.842 115.986,186.453 116.108,185.822 
  116.23,186.535 116.352,186.109 116.474,186.657 116.596,186.2 116.718,186.31 116.84,185.774 116.962,185.904 117.084,186.136 117.206,186.023 117.328,186.414 
  117.45,187.42 117.572,187.794 117.695,185.776 117.817,185.878 117.939,186.531 118.061,187.771 118.183,187.933 118.305,186.145 118.427,188.377 118.549,187.366 
  118.671,174.663 118.793,185.863 118.915,191.792 119.037,190.011 119.159,189.77 119.281,189.812 119.403,190.768 119.525,187.284 119.648,181.219 119.77,188.284 
  119.892,181.818 120.014,188.462 120.136,183.721 120.258,184.273 120.38,178.108 120.502,180.497 120.624,185.331 120.746,189.461 120.868,192.776 120.99,165.135 
  121.112,166.384 121.234,174.101 121.356,187.719 121.479,197.53 121.601,200.171 121.723,199.96 121.845,192.406 121.967,190.343 122.089,176.441 122.211,176.712 
  122.333,181.544 122.455,180.218 122.577,173.922 122.699,179.117 122.821,185.544 122.943,185.822 123.065,186.485 123.187,185.906 123.309,187.443 123.432,184.394 
  123.554,185.053 123.676,187.422 123.798,185.48 123.92,184.544 124.042,188.254 124.164,188.011 124.286,185.348 124.408,186.154 124.53,184.282 124.652,185.813 
  124.774,185.32 124.896,185.805 125.018,185.933 125.14,187.011 125.262,187.411 125.385,187.207 125.507,185.218 125.629,185.575 125.751,185.935 125.873,185.618 
  125.995,186.127 126.117,186.006 126.239,185.418 126.361,185.521 126.483,185.799 126.605,186.154 126.727,185.874 126.849,185.395 126.971,185.699 127.093,185.743 
  127.215,187.185 127.338,184.805 127.46,186.316 127.582,188.28 127.704,187.18 127.826,179.051 127.948,181.751 128.07,184.765 128.192,188.45 128.314,192.095 
  128.436,185.132 128.558,178.423 128.68,184.914 128.802,190.768 128.924,188.534 129.046,186.565 129.169,180.719 129.291,181.307 129.413,183.583 129.535,189.113 
  129.657,186.458 129.779,190.344 129.901,197.458 130.023,201.317 130.145,180.389 130.267,184.344 130.389,177.955 130.511,189.789 130.633,185.572 130.755,183.266 
  130.877,191.27 130.999,181.634 131.122,171.529 131.244,186.485 131.366,175.932 131.488,183.915 131.61,182.479 131.732,180.4 131.854,179.055 131.976,186.155 
  132.098,178.689 132.22,176.701 132.342,178.526 132.464,187.422 132.586,184.292 132.708,189.062 132.83,185.085 132.952,187.118 133.075,185.525 133.197,185.198 
  133.319,185.622 133.441,188.365 133.563,184.493 133.685,184.559 133.807,185.806 133.929,185.806 134.051,185.651 134.173,186.677 134.295,186.486 134.417,186.418 
  134.539,186.466 134.661,185.787 134.783,185.447 134.905,186.055 135.028,186.525 135.15,185.945 135.272,185.615 135.394,186.243 135.516,185.88 135.638,185.496 
  135.76,185.861 135.882,187.216 136.004,187.725 136.126,184.285 136.248,187.839 136.37,187.633 136.492,185.796 136.614,186.241 136.736,185.213 136.859,186.204 
  136.981,178.989 137.103,180.296 137.225,183.933 137.347,195.163 137.469,189.096 137.591,191.112 137.713,194.674 137.835,189.303 137.957,184.365 138.079,182.811 
  138.201,184.265 138.323,185.468 138.445,186.377 138.567,179.966 138.689,181.05 138.812,170.317 138.934,180.148 139.056,178.66 139.178,185.619 139.3,167.881 
  139.422,165.319 139.544,166.139 139.666,178.425 139.788,195.664 139.91,206.374 140.032,213.445 140.154,214.969 140.276,208.759 140.398,198.633 140.52,181.303 
  140.642,181.076 140.765,186.088 140.887,184.051 141.009,183.205 141.131,188.295 141.253,187.483 141.375,181.921 141.497,187.65 141.619,186.761 141.741,184.315 
  141.863,187.677 141.985,186.688 142.107,186.7 142.229,187.022 142.351,187.201 142.473,187.674 142.595,187.262 142.718,188.109 142.84,184.467 142.962,184.972 
  143.084,185.756 143.206,186.567 143.328,186.769 143.45,186.591 143.572,186.962 143.694,186.273 143.816,184.934 143.938,186.123 144.06,186.404 144.182,186.076 
  144.304,186.296 144.426,186.428 144.549,186.923 144.671,186.665 144.793,186.672 144.915,187.058 145.037,185.91 145.159,186.678 145.281,186.585 145.403,186.206 
  145.525,186.676 145.647,187.379 145.769,188.139 145.891,185.854 146.013,186.672 146.135,201.108 146.257,189.245 146.379,190.281 146.502,194.82 146.624,191.926 
  146.746,187.622 146.868,187.208 146.99,186.784 147.112,184.946 147.234,184.31 147.356,176.619 147.478,173.245 147.6,180.893 147.722,177.678 147.844,175.498 
  147.966,180.124 148.088,180.898 148.21,186.744 148.332,194.285 148.455,166.117 148.577,176.901 148.699,181.827 148.821,184.09 148.943,188.949 149.065,186.729 
  149.187,180.25 149.309,182.021 149.431,181.119 149.553,185.291 149.675,189.797 149.797,186.269 149.919,184.973 150.041,193.612 150.163,192.695 150.285,203.556 
  150.408,195.537 150.53,188.927 150.652,185.21 150.774,187.489 150.896,185.962 151.018,185.93 151.14,187.11 151.262,186.854 151.384,186.402 151.506,186.378 
  151.628,184.398 151.75,186.668 151.872,185.266 151.994,185.551 152.116,186.298 152.238,186.381 152.361,186.429 152.483,186.836 152.605,186.843 152.727,186.793 
  152.849,186.52 152.971,186.597 153.093,186.221 153.215,186.262 153.337,186.022 153.459,186.129 153.581,186.167 153.703,185.667 153.825,185.256 153.947,185.26 
  154.069,185.725 154.192,185.564 154.314,185.405 154.436,186.101 154.558,187.779 154.68,184.691 154.802,184.775 154.924,186.442 155.046,187.241 155.168,185.35 
  155.29,187.802 155.412,187.196 155.534,184.664 155.656,183.614 155.778,184.323 155.9,183.273 156.022,190.017 156.145,184.48 156.267,187.266 156.389,184.593 
  156.511,181.262 156.633,187.252 156.755,184.248 156.877,187.457 156.999,175.225 157.121,177.029 157.243,182.838 157.365,189.118 157.487,198.098 157.609,169.371 
  157.731,171.473 157.853,165.471 157.975,170.559 158.098,185.035 158.22,191.241 158.342,197.362 158.464,198.782 158.586,200.516 158.708,197.494 158.83,184.639 
  158.952,170.354 159.074,166.955 159.196,180.492 159.318,184.513 159.44,179.128 159.562,174.908 159.684,179.731 159.806,173.938 159.928,186.564 160.051,187.108 
  160.173,186.32 160.295,186.809 160.417,185.86 160.539,185.53 160.661,187.94 160.783,189.14 160.905,187.203 161.027,187.362 161.149,184.999 161.271,185.909 
  161.393,185.895 161.515,186.344 161.637,186.319 161.759,186.429 161.882,186.202 162.004,185.675 162.126,186.664 162.248,186.539 162.37,186.141 162.492,186.894 
  162.614,186.682 162.736,187.071 162.858,187.124 162.98,187.412 163.102,187.13 163.224,187.457 163.346,188.111 163.468,187.744 163.59,186.828 163.712,187.529 
  163.835,187.989 163.957,188.349 164.079,188.442 164.201,182.492 164.323,185.572 164.445,232.791 164.567,207.19 164.689,199.952 164.811,199.103 164.933,196.116 
  165.055,191.446 165.177,189.197 165.299,190.375 165.421,184.617 165.543,179.915 165.665,176.433 165.788,176.32 165.91,177.84 166.032,181.51 166.154,182.232 
  166.276,180.451 166.398,177.665 166.52,179.342 166.642,191.201 166.764,133.616 166.886,157.581 167.008,176.526 167.13,183.007 167.252,193.245 167.374,180.892 
  167.496,178.372 167.618,188.194 167.741,190.605 167.863,200.582 167.985,198.975 168.107,194.447 168.229,192.958 168.351,188.362 168.473,178.161 168.595,188.758 
  168.717,181.298 168.839,174.495 168.961,187.4 169.083,183.859 169.205,187.705 169.327,184.864 169.449,185.859 169.572,185.433 169.694,185.901 169.816,184.691 
  169.938,186.987 170.06,184.832 170.182,185.794 170.304,185.995 170.426,185.981 170.548,185.996 170.67,186.11 170.792,186.905 170.914,186.451 171.036,187.284 
  171.158,187.421 171.28,186.975 171.402,186.969 171.525,186.752 171.647,186.229 171.769,186.194 171.891,186.248 172.013,186.124 172.135,185.823 172.257,186.596 
  172.379,186.818 172.501,186.29 172.623,186.38 172.745,186.793 172.867,187.428 172.989,184.598 173.111,186.687 173.233,188.817 173.355,185.95 173.478,186.581 
  173.6,204.147 173.722,198.24 173.844,192.804 173.966,181.681 174.088,174.638 174.21,175.813 174.332,179.053 174.454,178.99 174.576,177.863 174.698,176.962 
  174.82,175.038 174.942,161.955 175.064,175.704 175.186,169.51 175.308,176.661 175.431,179.059 175.553,184.998 175.675,193.925 175.797,179.296 175.919,181.028 
  176.041,165.205 176.163,162.5 176.285,172.328 176.407,194.167 176.529,199.484 176.651,195.793 176.773,193.303 176.895,187.464 177.017,199.704 177.139,198.121 
  177.262,191.131 177.384,181.091 177.506,164.248 177.628,176.9 177.75,186.896 177.872,184.82 177.994,175.398 178.116,180.436 178.238,184.333 178.36,186.55 
  178.482,186.273 178.604,188.162 178.726,187.092 178.848,185.912 178.97,186.485 179.092,184.95 179.215,186.728 179.337,187.339 179.459,184.989 179.581,185.562 
  179.703,186.66 179.825,187.212 179.947,186.856 180.069,187.096 180.191,186.75 180.313,186.449 180.435,187.739 180.557,187.625 180.679,187.527 180.801,186.939 
  180.923,187.07 181.045,187.238 181.168,187.089 181.29,187.562 181.412,187.037 181.534,186.845 181.656,186.795 181.778,187.02 181.9,186.41 182.022,186.753 
  182.144,187.056 182.266,188.678 182.388,188.658 182.51,183.508 182.632,185.585 182.754,215.572 182.876,196.47 182.998,192.717 183.121,187.597 183.243,183.788 
  183.365,179.479 183.487,177.734 183.609,179.132 183.731,180.754 183.853,176.704 183.975,177.986 184.097,174.351 184.219,179.814 184.341,185.334 184.463,183.578 
  184.585,176.407 184.707,173.655 184.829,177.766 184.951,147.596 185.074,174.046 185.196,185.123 185.318,201.149 185.44,207.738 185.562,217.484 185.684,205.461 
  185.806,196.636 185.928,186.318 186.05,179.003 186.172,184.657 186.294,197.73 186.416,195.999 186.538,188.283 186.66,192.102 186.782,182.714 186.905,184.211 
  187.027,183.068 187.149,172.427 187.271,184.201 187.393,186.316 187.515,187.301 187.637,186.52 187.759,186.045 187.881,186.628 188.003,188.115 188.125,186.992 
  188.247,185.533 188.369,185.999 188.491,186.512 188.613,186.684 188.735,187.191 188.858,186.825 188.98,186.618 189.102,186.389 189.224,187.652 189.346,188.346 
  189.468,189.725 189.59,187.76 189.712,187.334 189.834,186.678 189.956,186.7 190.078,186.712 190.2,186.559 190.322,186.019 190.444,186.648 190.566,186.963 
  190.688,186.778 190.811,187.249 190.933,187.449 191.055,188.104 191.177,188.954 191.299,189.676 191.421,186.456 191.543,185.866 191.665,186.731 191.787,185.748 
  191.909,210.058 192.031,192.285 192.153,181.982 192.275,167.133 192.397,168.527 192.519,170.128 192.641,173.245 192.764,175.921 192.886,169.659 193.008,169.146 
  193.13,164.064 193.252,165.688 193.374,173.123 193.496,174.691 193.618,181.938 193.74,193.408 193.862,198.066 193.984,187.053 194.106,192.974 194.228,182.518 
  194.35,181.377 194.472,185.509 194.595,197.418 194.717,193.631 194.839,193.119 194.961,187.795 195.083,180.454 195.205,181.521 195.327,189.643 195.449,195.981 
  195.571,196.2 195.693,187.542 195.815,174.627 195.937,170.427 196.059,185.71 196.181,183.861 196.303,193.361 196.425,180.255 196.548,183.668 196.67,186.916 
  196.792,185.546 196.914,187.495 197.036,185.251 197.158,185.323 197.28,186.957 197.402,185.456 197.524,186.639 197.646,183.827 197.768,185.235 197.89,186.518 
  198.012,187.748 198.134,187.653 198.256,186.955 198.378,186.433 198.501,186.757 198.623,188.058 198.745,187.558 198.867,187.439 198.989,187.209 199.111,186.851 
  199.233,186.571 199.355,186.495 199.477,186.89 199.599,186.69 199.721,186.082 199.843,186.565 199.965,186.468 200.087,186.533 200.209,186.984 200.331,186.116 
  200.454,187.495 200.576,188.326 200.698,185.07 200.82,187.273 200.942,205.64 201.064,187.374 201.186,181.424 201.308,185.417 201.43,178.17 201.552,174.726 
  201.674,173.57 201.796,169.794 201.918,175.317 202.04,176.543 202.162,179.148 202.285,173.366 202.407,177.171 202.529,178.562 202.651,174.58 202.773,169.414 
  202.895,175.805 203.017,175.84 203.139,180.533 203.261,175.645 203.383,187.524 203.505,167 203.627,167.193 203.749,195.126 203.871,200.692 203.993,205.906 
  204.115,209.585 204.238,207.261 204.36,198.961 204.482,193.352 204.604,168.041 204.726,160.905 204.848,183.603 204.97,191.495 205.092,192.23 205.214,182.342 
  205.336,177.462 205.458,164.534 205.58,185.31 205.702,186.222 205.824,186.744 205.946,185.764 206.068,185.994 206.191,186.424 206.313,186.717 206.435,186.593 
  206.557,184.719 206.679,186.017 206.801,186.717 206.923,187 207.045,187.149 207.167,187.093 207.289,187.224 207.411,186.865 207.533,186.432 207.655,187.758 
  207.777,187.954 207.899,187.09 208.021,186.202 208.144,186.032 208.266,186.003 208.388,186.018 208.51,186.138 208.632,186.08 208.754,186.119 208.876,186.763 
  208.998,187.266 209.12,187.017 209.242,186.94 209.364,187.886 209.486,189.919 209.608,183.485 209.73,185.935 209.852,187.597 209.975,186.856 210.097,200.877 
  210.219,186.005 210.341,182.882 210.463,170.799 210.585,174.082 210.707,169.284 210.829,175.239 210.951,176.114 211.073,180.554 211.195,177.288 211.317,168.295 
  211.439,167.792 211.561,172.837 211.683,184.729 211.805,190.949 211.928,193.308 212.05,190.404 212.172,180.873 212.294,180.704 212.416,195.12 212.538,178.107 
  212.66,175.482 212.782,182.759 212.904,185.102 213.026,184.35 213.148,183.879 213.27,184.35 213.392,179.633 213.514,187.403 213.636,195.071 213.758,189.176 
  213.881,201.622 214.003,196.052 214.125,184.165 214.247,179.004 214.369,191.02 214.491,197.089 214.613,180.299 214.735,182.044 214.857,186.458 214.979,186.271 
  215.101,186.321 215.223,188.866 215.345,187.186 215.467,188.838 215.589,188.418 215.711,188.073 215.834,188.133 215.956,185.843 216.078,186.779 216.2,186.885 
  216.322,186.297 216.444,186.648 216.566,187.039 216.688,187.2 216.81,186.671 216.932,187.31 217.054,186.766 217.176,186.685 217.298,186.539 217.42,186.17 
  217.542,186.131 217.664,185.782 217.787,185.951 217.909,185.624 218.031,185.745 218.153,185.908 218.275,186.004 218.397,186.25 218.519,186.245 218.641,186.558 
  218.763,187.842 218.885,184.283 219.007,186.083 219.129,186.125 219.251,175.701 219.373,176.806 219.495,175.645 219.618,170.872 219.74,166.022 219.862,172.252 
  219.984,171.21 220.106,188.961 220.228,186.036 220.35,178.516 220.472,175.855 220.594,177.375 220.716,183.316 220.838,187.885 220.96,196.307 221.082,195.721 
  221.204,189.607 221.326,181.118 221.448,217.14 221.571,200.999 221.693,190.04 221.815,165.316 221.937,172.366 222.059,175.47 222.181,173.479 222.303,182.002 
  222.425,183.77 222.547,194.242 222.669,195.986 222.791,205.826 222.913,199.817 223.035,183.868 223.157,161.702 223.279,179.404 223.401,192.271 223.524,197.408 
  223.646,187.481 223.768,185.433 223.89,186.033 224.012,185.88 224.134,186.448 224.256,189.848 224.378,185.797 224.5,186.931 224.622,188.119 224.744,187.765 
  224.866,186.205 224.988,186.62 225.11,186.9 225.232,187.557 225.354,187.746 225.477,187.304 225.599,187.019 225.721,186.227 225.843,186.027 225.965,188.024 
  226.087,186.439 226.209,186.369 226.331,186.196 226.453,186.506 226.575,186.099 226.697,186.037 226.819,186.202 226.941,186.274 227.063,186.102 227.185,187.189 
  227.308,186.769 227.43,186.909 227.552,187.9 227.674,188.336 227.796,189.816 227.918,186.439 228.04,186.1 228.162,186.552 228.284,178.559 228.406,177.614 
  228.528,183.908 228.65,180.854 228.772,186.312 228.894,183.193 229.016,188.68 229.138,187.053 229.261,192.396 229.383,192.534 229.505,187.655 229.627,177.452 
  229.749,178.891 229.871,180.873 229.993,188.709 230.115,184.581 230.237,183.307 230.359,178.255 230.481,174.99 230.603,212.569 230.725,192.706 230.847,185.879 
  230.969,190.029 231.091,199.411 231.214,187.548 231.336,185.779 231.458,184.469 231.58,184.897 231.702,185.319 231.824,194.957 231.946,197.796 232.068,195.198 
  232.19,186.619 232.312,179.713 232.434,190.34 232.556,198.149 232.678,208.849 232.8,197.83 232.922,185.969 233.044,186.711 233.167,186.32 233.289,186.879 
  233.411,187.66 233.533,187.842 233.655,185.88 233.777,186.926 233.899,186.938 234.021,185.148 234.143,186.061 234.265,187.453 234.387,187.125 234.509,186.712 
  234.631,186.288 234.753,186.117 234.875,186.323 234.998,186.701 235.12,187.375 235.242,187.077 235.364,186.203 235.486,186.162 235.608,185.899 235.73,185.559 
  235.852,185.319 235.974,185.693 236.096,185.582 236.218,185.294 236.34,185.318 236.462,185.681 236.584,186.254 236.706,186.276 236.828,186.789 236.951,188.426 
  237.073,185.824 237.195,188.404 237.317,188 237.439,164.816 237.561,171.156 237.683,175.962 237.805,180.175 237.927,170.498 238.049,168.534 238.171,177.297 
  238.293,181.421 238.415,181.112 238.537,177.173 238.659,175.367 238.781,171.922 238.904,183.357 239.026,190.506 239.148,188.917 239.27,187.505 239.392,193.9 
  239.514,175.874 239.636,230.256 239.758,201.435 239.88,182.075 240.002,174.098 240.124,170.98 240.246,177.701 240.368,182.472 240.49,186.826 240.612,176.97 
  240.734,190.364 240.857,189.924 240.979,206.797 241.101,206.477 241.223,202.961 241.345,190.202 241.467,174.529 241.589,177.314 241.711,197.812 241.833,201.126 
  241.955,188.223 242.077,183.453 242.199,185.424 242.321,187.064 242.443,185.443 242.565,185.759 242.688,186.002 242.81,189.512 242.932,185.306 243.054,187.994 
  243.176,186.368 243.298,186.8 243.42,187.135 243.542,186.883 243.664,187.346 243.786,186.74 243.908,186.626 244.03,186.435 244.152,186.821 244.274,186.599 
  244.396,186.576 244.518,187.024 244.641,187.279 244.763,186.161 244.885,186.772 245.007,186.722 245.129,187.013 245.251,186.912 245.373,187.087 245.495,187.251 
  245.617,186.689 245.739,188.006 245.861,188.034 245.983,189.182 246.105,183.899 246.227,186.687 246.349,184.08 246.471,184.382 246.594,180.492 246.716,185.199 
  246.838,185.818 246.96,187.008 247.082,184.666 247.204,190.861 247.326,194.228 247.448,189.574 247.57,193.248 247.692,188.762 247.814,179.609 247.936,172.152 
  248.058,181.455 248.18,177.001 248.302,182.195 248.424,175.738 248.547,173.338 248.669,160.478 248.791,213.549 248.913,200.473 249.035,174.432 249.157,164.291 
  249.279,182.229 249.401,181.219 249.523,179.131 249.645,180.354 249.767,183.778 249.889,198.076 250.011,206.714 250.133,205.491 250.255,209.944 250.377,194.484 
  250.5,173.025 250.622,172.654 250.744,190.67 250.866,204.447 250.988,196.435 251.11,187.262 251.232,187.189 251.354,186.396 251.476,185.945 251.598,185.681 
  251.72,185.988 251.842,186.534 251.964,187.714 252.086,188.67 252.208,187.569 252.331,186.108 252.453,186.91 252.575,186.02 252.697,186.497 252.819,186.128 
  252.941,186.041 253.063,185.713 253.185,186.16 253.307,187.38 253.429,186.075 253.551,186.079 253.673,186.562 253.795,185.662 253.917,185.226 254.039,184.92 
  254.161,185.125 254.284,185.439 254.406,185.508 254.528,185.694 254.65,185.457 254.772,186.401 254.894,186.563 255.016,187.825 255.138,185.491 255.26,185.185 
  255.382,187.85 255.504,186.806 255.626,150.199 255.748,159.729 255.87,160.052 255.992,173.15 256.114,170.219 256.237,173.025 256.359,184.278 256.481,181.441 
  256.603,180.393 256.725,179.59 256.847,174.4 256.969,181.35 257.091,189.302 257.213,190.649 257.335,193.152 257.457,196.341 257.579,189.31 257.701,178.08 
  257.823,166.58 257.945,222.575 258.067,201.623 258.19,187.973 258.312,186.133 258.434,188.426 258.556,187.36 258.678,179.187 258.8,172.9 258.922,177.362 
  259.044,191.817 259.166,201.029 259.288,211.493 259.41,214.739 259.532,207.841 259.654,180.76 259.776,179.172 259.898,203.667 260.021,210.184 260.143,189.501 
  260.265,185.853 260.387,185.319 260.509,184.719 260.631,187.601 260.753,186.103 260.875,187.544 260.997,186.954 261.119,189.523 261.241,188.875 261.363,186.1 
  261.485,187.903 261.607,187.424 261.729,187.504 261.851,187.095 261.974,187.094 262.096,186.607 262.218,186.556 262.34,186.233 262.462,185.786 262.584,186.633 
  262.706,187.463 262.828,186.893 262.95,186.662 263.072,186.402 263.194,186.413 263.316,186.359 263.438,186.813 263.56,186.569 263.682,186.769 263.804,187.552 
  263.927,186.627 264.049,187.576 264.171,188.143 264.293,185.625 264.415,186.093 264.537,186.629 264.659,185.141 264.781,170.227 264.903,184.404 265.025,193.794 
  265.147,197.899 265.269,191.059 265.391,193.258 265.513,191.357 265.635,200.556 265.757,200.592 265.88,202.465 266.002,196.95 266.124,194.151 266.246,193.261 
  266.368,186.776 266.49,188.02 266.612,178.729 266.734,167.17 266.856,169.347 266.978,165.12 267.1,214.506 267.222,202.046 267.344,203.164 267.466,200.287 
  267.588,197.833 267.711,193.53 267.833,194.177 267.955,178.928 268.077,177.943 268.199,178.701 268.321,174.748 268.443,179.554 268.565,194.543 268.687,191.505 
  268.809,186.226 268.931,198.659 269.053,197.359 269.175,199.859 269.297,187.467 269.419,186.543 269.541,187.954 269.664,186.159 269.786,186.856 269.908,183.59 
  270.03,185.741 270.152,185.02 270.274,186.346 270.396,185.031 270.518,186.86 270.64,186.544 270.762,186.461 270.884,186.247 271.006,186.812 271.128,185.989 
  271.25,186.122 271.372,187.327 271.494,185.727 271.617,185.221 271.739,185.787 271.861,186.156 271.983,185.884 272.105,185.756 272.227,185.88 272.349,185.754 
  272.471,185.18 272.593,185.88 272.715,186.563 272.837,185.838 272.959,186.069 273.081,187.527 273.203,184.846 273.325,187.202 273.447,186.997 273.57,184.487 
  273.692,185.145 273.814,165.074 273.936,169.216 274.058,175.5 274.18,171.096 274.302,174.327 274.424,175.525 274.546,187.735 274.668,186.225 274.79,185.576 
  274.912,188.319 275.034,186.648 275.156,189.659 275.278,188.416 275.401,191.392 275.523,200.548 275.645,198.468 275.767,184.697 275.889,178.532 276.011,177.447 
  276.133,193.204 276.255,192.693 276.377,173.418 276.499,184.361 276.621,198.257 276.743,190.581 276.865,178.411 276.987,185.451 277.109,184.648 277.231,187.841 
  277.354,180.51 277.476,187.189 277.598,197.403 277.72,187.59 277.842,172.159 277.964,187.468 278.086,205.615 278.208,204.868 278.33,184.907 278.452,186 
  278.574,184.211 278.696,185.93 278.818,185.751 278.94,187.209 279.062,187.402 279.184,186.488 279.307,190.589 279.429,187.449 279.551,186.532 279.673,186.061 
  279.795,186.954 279.917,187.161 280.039,187.033 280.161,187.758 280.283,187.269 280.405,187.162 280.527,186.265 280.649,186.456 280.771,186.904 280.893,186.494 
  281.015,186.512 281.137,186.496 281.26,186.753 281.382,186.548 281.504,186.441 281.626,186.488 281.748,186.124 281.87,186.668 281.992,186.277 282.114,186.388 
  282.236,186.614 282.358,187.331 282.48,185.327 282.602,187.703 282.724,187.161 282.846,185.716 282.968,186.969 283.09,184.985 283.213,188.343 283.335,193.919 
  283.457,195.851 283.579,190.461 283.701,197.453 283.823,196.123 283.945,202.493 284.067,196.338 284.189,195.302 284.311,189.372 284.433,198.951 284.555,198.005 
  284.677,189.642 284.799,167.856 284.921,158.787 285.044,164.115 285.166,197.276 285.288,187.378 285.41,178.796 285.532,191.556 285.654,185.754 285.776,174.374 
  285.898,181.381 286.02,183.171 286.142,194.784 286.264,177.525 286.386,167.886 286.508,158.778 286.63,177.67 286.752,178.775 286.874,176.659 286.997,182.822 
  287.119,190.2 287.241,197.464 287.363,184.245 287.485,181.213 287.607,184.792 287.729,183.409 287.851,182.694 287.973,182.094 288.095,183.185 288.217,183.034 
  288.339,182.917 288.461,188.661 288.583,184.422 288.705,183.952 288.827,185.465 288.95,185.005 289.072,186.111 289.194,186.104 289.316,185.673 289.438,185.797 
  289.56,186.151 289.682,186.064 289.804,186.586 289.926,186.358 290.048,186.829 290.17,186.719 290.292,186.069 290.414,186.395 290.536,186.298 290.658,186.106 
  290.78,185.989 290.903,185.986 291.025,188.202 291.147,180.863 291.269,185.212 291.391,185.605 291.513,185.629 291.635,183.685 291.757,185.968 291.879,183.821 
  292.001,170.109 292.123,175.424 292.245,186.385 292.367,183.916 292.489,191.785 292.611,186.276 292.734,197.214 292.856,197.638 292.978,190.625 293.1,194.536 
  293.222,192.074 293.344,195.537 293.466,190.096 293.588,187.06 293.71,188.051 293.832,196.875 293.954,186.944 294.076,185.456 294.198,176.873 294.32,196.663 
  294.442,191.239 294.564,183.932 294.687,200.06 294.809,203.226 294.931,202.296 295.053,194.662 295.175,199.533 295.297,192.674 295.419,188.721 295.541,183.962 
  295.663,171.567 295.785,162.267 295.907,174.792 296.029,189.765 296.151,193.108 296.273,202.189 296.395,207.902 296.517,184.067 296.64,185.494 296.762,184.502 
  296.884,188.15 297.006,187.157 297.128,187.351 297.25,186.443 297.372,185.968 297.494,187.375 297.616,188.731 297.738,185.475 297.86,185.485 297.982,186.78 
  298.104,187.322 298.226,186.589 298.348,186.153 298.47,186.357 298.593,186.642 298.715,185.578 298.837,187.526 298.959,187.262 299.081,187.448 299.203,187.521 
  299.325,187.881 299.447,188.166 299.569,188.006 299.691,188.198 299.813,187.518 299.935,187.196 300.057,187.439 300.179,187.713 300.301,187.216 300.424,187.164 
  300.546,187.078 300.668,188.275 300.79,184.259 300.912,185.026 301.034,186.778 301.156,209.386 301.278,189.89 301.4,179.637 301.522,189.429 301.644,192.663 
  301.766,190.756 301.888,187.538 302.01,185.949 302.132,191.6 302.254,187.86 302.377,181.696 302.499,186.162 302.621,178.574 302.743,184.705 302.865,184.717 
  302.987,183.444 303.109,174.415 303.231,172.106 303.353,179.156 303.475,180.711 303.597,202.714 303.719,190.768 303.841,191.525 303.963,191.958 304.085,192.792 
  304.207,189.828 304.33,199.368 304.452,203.268 304.574,207.416 304.696,191.469 304.818,183.416 304.94,184.307 305.062,186.373 305.184,193.447 305.306,197.043 
  305.428,199.421 305.55,193.451 305.672,185.164 305.794,186.347 305.916,187.091 306.038,186.893 306.16,186.986 306.283,186.028 306.405,188.436 306.527,186.453 
  306.649,187.213 306.771,186.595 306.893,185.985 307.015,186.439 307.137,185.794 307.259,186.598 307.381,185.933 307.503,185.659 307.625,185.671 307.747,186.129 
  307.869,186.374 307.991,186.941 308.114,186.215 308.236,186.173 308.358,185.122 308.48,185.499 308.602,185.689 308.724,185.356 308.846,185.106 308.968,184.126 
  309.09,184.773 309.212,185.3 309.334,185.191 309.456,187.895 309.578,185.068 309.7,185.026 309.822,186.245 309.944,188.229 310.067,187.679 310.189,186.678 
  310.311,178.778 310.433,176.116 310.555,179.677 310.677,181.56 310.799,186.125 310.921,189.873 311.043,197.594 311.165,199.004 311.287,198.003 311.409,207.271 
  311.531,209.477 311.653,211.687 311.775,208.969 311.897,207.433 312.02,213.621 312.142,213.462 312.264,217.399 312.386,220.137 312.508,224.726 312.63,218.639 
  312.752,224.696 312.874,219.674 312.996,203.379 313.118,186.176 313.24,172.282 313.362,160.861 313.484,154.541 313.606,158.134 313.728,164.404 313.85,168.013 
  313.973,176.41 314.095,180.864 314.217,183.886 314.339,179.187 314.461,174.233 314.583,178.787 314.705,164.266 314.827,183.308 314.949,183.538 315.071,186.549 
  315.193,185.933 315.315,186.919 315.437,187.854 315.559,185.567 315.681,189.149 315.803,186.616 315.926,186.733 316.048,185.833 316.17,185.784 316.292,186.66 
  316.414,187.201 316.536,187.122 316.658,187.358 316.78,185.943 316.902,185.409 317.024,186.257 317.146,187.067 317.268,187.614 317.39,187.411 317.512,187.319 
  317.634,187.803 317.757,188.348 317.879,187.699 318.001,187.403 318.123,187.799 318.245,187.48 318.367,187.539 318.489,187.067 318.611,187.346 318.733,186.796 
  318.855,187.179 318.977,187.281 319.099,187.987 319.221,186.116 319.343,241.569 319.465,219.006 319.587,202.951 319.71,201.165 319.832,192.894 319.954,190.495 
  320.076,193.143 320.198,191.385 320.32,186.179 320.442,180.568 320.564,183.976 320.686,188.766 320.808,180.677 320.93,176.696 321.052,171.965 321.174,171.867 
  321.296,172.328 321.418,168.513 321.54,186.12 321.663,149.171 321.785,162.847 321.907,169.845 322.029,175.214 322.151,179.891 322.273,187.295 322.395,189.492 
  322.517,180.605 322.639,203.518 322.761,200.418 322.883,207.564 323.005,195.959 323.127,186.089 323.249,190.322 323.371,183.638 323.493,189.653 323.616,190.935 
  323.738,182.76 323.86,161.009 323.982,185.903 324.104,185.088 324.226,186.003 324.348,187.295 324.47,186.716 324.592,184.232 324.714,186.697 324.836,187.412 
  324.958,185.215 325.08,187.088 325.202,184.278 325.324,185.611 325.447,185.665 325.569,186.257 325.691,186.259 325.813,186.313 325.935,186.291 326.057,186.526 
  326.179,186.838 326.301,186.463 326.423,185.765 326.545,185.374 326.667,184.73 326.789,184.77 326.911,184.943 327.033,185.338 327.155,184.392 327.277,184.289 
  327.4,184.852 327.522,184.87 327.644,186.897 327.766,187.905 327.888,185.941 328.01,187.302 328.132,185.806 328.254,185.006 328.376,188.446 328.498,179.682 
  328.62,181.739 328.742,181.07 328.864,184.446 328.986,187.621 329.108,188.223 329.23,191.959 329.353,194.542 329.475,197.484 329.597,197.94 329.719,207.344 
  329.841,209.931 329.963,205.561 330.085,207.261 330.207,207.001 330.329,210.262 330.451,215.618 330.573,212.85 330.695,228.316 330.817,187.969 330.939,188.241 
  331.061,186.903 331.183,190.156 331.306,189.739 331.428,187.343 331.55,175.128 331.672,160.606 331.794,159.262 331.916,156.393 332.038,161.993 332.16,160.636 
  332.282,166.81 332.404,176.735 332.526,177.793 332.648,177.903 332.77,181.618 332.892,168.125 333.014,140.752 333.137,183.1 333.259,185.651 333.381,185.949 
  333.503,185.003 333.625,186.57 333.747,185.398 333.869,189.093 333.991,187.095 334.113,185.478 334.235,187.476 334.357,187.587 334.479,184.852 334.601,185.495 
  334.723,185.175 334.845,186.33 334.967,186.017 335.09,186.734 335.212,186.677 335.334,184.903 335.456,186.651 335.578,187.04 335.7,186.665 335.822,186.803 
  335.944,186.748 336.066,186.908 336.188,186.641 336.31,187.149 336.432,186.845 336.554,186.387 336.676,186.971 336.798,186.998 336.92,186.678 337.043,185.884 
  337.165,185.937 337.287,187.901 337.409,186.151 337.531,182.547 337.653,186.708 337.775,191.825 337.897,196.041 338.019,195.029 338.141,191.973 338.263,193.139 
  338.385,190.956 338.507,191.381 338.629,189.85 338.751,183.005 338.873,184.828 338.996,188.121 339.118,191.28 339.24,191.348 339.362,185.346 339.484,180.767 
  339.606,188.062 339.728,190.089 339.85,202.306 339.972,169.438 340.094,174.928 340.216,172.393 340.338,183.497 340.46,185.882 340.582,183.357 340.704,190.495 
  340.827,189.116 340.949,200.415 341.071,200.879 341.193,180.848 341.315,180.927 341.437,178.527 341.559,176.032 341.681,185.804 341.803,174.057 341.925,175.947 
  342.047,181.567 342.169,176.798 342.291,188.838 342.413,188.348 342.535,188.151 342.657,185.379 342.78,187.543 342.902,188.13 343.024,188.177 343.146,186.38 
  343.268,187.627 343.39,191.151 343.512,185.164 343.634,185.396 343.756,185.396 343.878,186.023 344,186.102 344.122,185.997 344.244,186.082 344.366,186.46 
  344.488,186.987 344.61,185.819 344.733,185.666 344.855,185.69 344.977,185.353 345.099,185.671 345.221,185.56 345.343,185.35 345.465,185.399 345.587,184.798 
  345.709,185.004 345.831,185.201 345.953,185.284 346.075,188.013 346.197,188.32 346.319,184.197 346.441,186.34 346.563,185.456 346.686,188.952 346.808,187.914 
  346.93,172.611 347.052,176.599 347.174,182.193 347.296,181.575 347.418,185.086 347.54,190.801 347.662,188.832 347.784,194.026 347.906,193.247 348.028,196.285 
  348.15,202.289 348.272,199.851 348.394,208.03 348.516,209.101 348.639,213.015 348.761,221.328 348.883,220.541 349.005,218.722 349.127,230.902 349.249,194.75 
  349.371,193.849 349.493,183.048 349.615,173.158 349.737,168.661 349.859,168.657 349.981,171.187 350.103,168.426 350.225,180.165 350.347,188.76 350.47,186.925 
  350.592,194.468 350.714,190.402 350.836,186.127 350.958,174.862 351.08,164.16 351.202,167.93 351.324,154.743 351.446,185.092 351.568,187.149 351.69,185.705 
  351.812,183.295 351.934,185.889 352.056,187.167 352.178,186.362 352.3,187.994 352.423,188.587 352.545,187.408 352.667,185.843 352.789,186.451 352.911,186.24 
  353.033,186.171 353.155,185.912 353.277,186.762 353.399,185.521 353.521,185.654 353.643,185.561 353.765,186.051 353.887,185.992 354.009,186.189 354.131,186.489 
  354.253,186.505 354.376,186.552 354.498,186.272 354.62,185.881 354.742,186.617 354.864,186.285 354.986,186.573 355.108,185.819 355.23,185.91 355.352,186.575 
  355.474,186.592 355.596,187.298 355.718,187.816 355.84,187.516 355.962,187.626 356.084,199.001 356.206,189.507 356.329,191.463 356.451,185.054 356.573,192.009 
  356.695,191.048 356.817,189.178 356.939,183.891 357.061,183.545 357.183,188.937 357.305,186.691 357.427,184.713 357.549,186.738 357.671,186.211 357.793,185.724 
  357.915,183.205 358.037,187.992 358.16,196.367 358.282,218.97 358.404,166.993 358.526,173.285 358.648,170.896 358.77,175.851 358.892,166.435 359.014,180.268 
  359.136,185.228 359.258,194.238 359.38,196.346 359.502,190.416 359.624,195.303 359.746,182.652 359.868,193.145 359.99,188.324 360.113,180.795 360.235,182.13 
  360.357,179.434 360.479,167.682 360.601,185.139 360.723,186.783 360.845,186.77 360.967,186.798 361.089,184.749 361.211,186.929 361.333,184.748 361.455,187.932 
  361.577,185.801 361.699,185.842 361.821,184.423 361.943,185.521 362.066,186.239 362.188,185.911 362.31,186.388 362.432,186.416 362.554,185.613 362.676,185.769 
  362.798,186.616 362.92,186.143 363.042,185.704 363.164,185.312 363.286,185.122 363.408,184.95 363.53,185.114 363.652,185.025 363.774,185.394 363.896,184.718 
  364.019,185.48 364.141,187.299 364.263,187.909 364.385,184.397 364.507,185.3 364.629,187.923 364.751,186.008 364.873,187.94 364.995,188.066 365.117,187.442 
  365.239,185.27 365.361,187.018 365.483,184.595 365.605,189.416 365.727,189.055 365.85,198.024 365.972,203.657 366.094,198.556 366.216,202.476 366.338,202.4 
  366.46,199.713 366.582,196.843 366.704,197.387 366.826,197.993 366.948,198.142 367.07,206.581 367.192,201.165 367.314,211.652 367.436,168.841 367.558,166.654 
  367.68,168.401 367.803,184.159 367.925,183.482 368.047,181.642 368.169,187.855 368.291,171.593 368.413,166.644 368.535,163.384 368.657,163.549 368.779,170.249 
  368.901,174.413 369.023,180.181 369.145,184.106 369.267,174.88 369.389,173.287 369.511,176.769 369.633,162.007 369.756,181.108 369.878,185.175 370,186.085 
  370.122,185.113 370.244,184.733 370.366,185.695 370.488,185.608 370.61,187.833 370.732,186.666 370.854,185.044 370.976,186.742 371.098,185.703 371.22,185.233 
  371.342,185.413 371.464,185.638 371.586,185.816 371.709,185.826 371.831,186.036 371.953,187.092 372.075,185.863 372.197,185.78 372.319,186.62 372.441,186.526 
  372.563,185.649 372.685,186.277 372.807,186.644 372.929,185.525 373.051,186.442 373.173,186.776 373.295,186.239 373.417,186.506 373.54,186.641 373.662,186.248 
  373.784,186.996 373.906,184.336 374.028,185.427 374.15,187.873 374.272,187.31 374.394,193.527 374.516,188.348 374.638,190.108 374.76,190.24 374.882,192.48 
  375.004,193.912 375.126,198.281 375.248,192.499 375.37,189.858 375.493,189.634 375.615,188.911 375.737,184.498 375.859,186.615 375.981,180.658 376.103,190.546 
  376.225,192.463 376.347,191.957 376.469,196.292 376.591,170.871 376.713,176.561 376.835,176.517 376.957,180.889 377.079,177.186 377.201,180.505 377.323,181.959 
  377.446,180.905 377.568,175.823 377.69,174.72 377.812,173.348 377.934,178.09 378.056,189.149 378.178,187.812 378.3,192.353 378.422,183.487 378.544,186.657 
  378.666,190.165 378.788,187.066 378.91,187.524 379.032,184.814 379.154,187.024 379.276,186.58 379.399,187.086 379.521,187.152 379.643,185.899 379.765,184.331 
  379.887,186.642 380.009,187.797 380.131,184.498 380.253,185.717 380.375,186.637 380.497,186.991 380.619,186.931 380.741,186.804 380.863,186.222 380.985,186.236 
  381.107,185.714 381.229,185.905 381.352,186.35 381.474,186.649 381.596,186.518 381.718,186.387 381.84,186.455 381.962,186.085 382.084,185.737 382.206,185.746 
  382.328,185.346 382.45,186.143 382.572,187.471 382.694,188.252 382.816,185.104 382.938,187.274 383.06,185.992 383.183,187.738 383.305,186.144 383.427,188.04 
  383.549,187.703 383.671,192.503 383.793,193.198 383.915,194.65 384.037,189.914 384.159,189.073 384.281,183.907 384.403,184.688 384.525,195.265 384.647,195.642 
  384.769,200.15 384.891,202.339 385.013,204.259 385.136,203.386 385.258,199.27 385.38,202.791 385.502,198.963 385.624,195.87 385.746,207.917 385.868,188.048 
  385.99,196.686 386.112,191.414 386.234,184.941 386.356,192.04 386.478,181.731 386.6,175.518 386.722,180.777 386.844,176.31 386.966,178.163 387.089,179.054 
  387.211,178.591 387.333,188.955 387.455,183.788 387.577,179.628 387.699,166.604 387.821,167.384 387.943,175.277 388.065,186.223 388.187,184.976 388.309,187.319 
  388.431,183.405 388.553,185.109 388.675,186.673 388.797,187.077 388.919,185.774 389.042,184.413 389.164,184.65 389.286,185.121 389.408,185.341 389.53,185.878 
  389.652,186.268 389.774,186.948 389.896,186.007 390.018,186.654 390.14,185.637 390.262,185.412 390.384,185.467 390.506,185.951 390.628,186.028 390.75,186.467 
  390.873,186.569 390.995,185.908 391.117,186.054 391.239,186.436 391.361,185.78 391.483,185.985 391.605,186.456 391.727,186.488 391.849,185.855 391.971,186.363 
  392.093,187.247 392.215,188.845 392.337,184.905 392.459,186.061 392.581,189.34 392.703,190.084 392.826,193.327 392.948,191.214 393.07,194.973 393.192,189.774 
  393.314,189.576 393.436,182.928 393.558,189.089 393.68,193.333 393.802,191.025 393.924,187.219 394.046,189.942 394.168,189.483 394.29,189.933 394.412,193.632 
  394.534,188.988 394.656,194.946 394.779,203.934 394.901,184.157 395.023,179.16 395.145,177.022 395.267,166.341 395.389,170.623 395.511,171.009 395.633,172.769 
  395.755,178.754 395.877,179.515 395.999,181.581 396.121,185.95 396.243,190.175 396.365,189.223 396.487,188.089 396.609,188.176 396.732,184.936 396.854,186.2 
  396.976,179.393 397.098,171.617 397.22,185.778 397.342,185.649 397.464,184.731 397.586,185.586 397.708,185.635 397.83,185.984 397.952,182.659 398.074,186.218 
  398.196,185.66 398.318,185.46 398.44,185.459 398.563,186.272 398.685,186.399 398.807,186.878 398.929,185.659 399.051,186.072 399.173,185.557 399.295,185.749 
  399.417,185.212 399.539,186.731 399.661,186.637 399.783,186.673 399.905,186.579 400.027,186.934 400.149,186.566 400.271,186.484 400.393,186.639 400.516,186.154 
  400.638,186.134 400.76,188.049 400.882,185.637 401.004,186.713 401.126,184.688 401.248,185.722 401.37,184.1 401.492,187.216 401.614,188.515 401.736,182.516 
  401.858,185.881 401.98,185.599 402.102,199.277 402.224,196.349 402.346,195.37 402.469,192.344 402.591,191.609 402.713,189.503 402.835,190.352 402.957,187.455 
  403.079,192.182 403.201,188.284 403.323,179.563 403.445,189.283 403.567,191.343 403.689,181.723 403.811,188.633 403.933,194.12 404.055,174.802 404.177,171.019 
  404.299,188.376 404.422,193.667 404.544,202.102 404.666,187.721 404.788,187.439 404.91,181.082 405.032,167.505 405.154,163.896 405.276,168.629 405.398,169.009 
  405.52,181.35 405.642,188.126 405.764,177.086 405.886,182.674 406.008,181.26 406.13,180.604 406.253,182.264 406.375,181.856 406.497,185.69 406.619,183.527 
  406.741,186.252 406.863,185.058 406.985,184.739 407.107,185.309 407.229,184.389 407.351,183.779 407.473,188.829 407.595,185.595 407.717,183.992 407.839,185.334 
  407.961,186.113 408.083,186.129 408.206,186.656 408.328,186.524 408.45,186.405 408.572,187.243 408.694,186.993 408.816,186.509 408.938,186.741 409.06,186.775 
  409.182,186.873 409.304,186.6 409.426,186.584 409.548,186.547 409.67,186.848 409.792,187.737 409.914,188.429 410.036,184.821 410.159,185.335 410.281,185.508 
  410.403,185.302 410.525,184.227 410.647,186.742 410.769,187.473 410.891,187.44 411.013,191.104 411.135,192.004 411.257,192.285 411.379,195.867 411.501,191.41 
  411.623,186.368 411.745,188.636 411.867,190.224 411.989,187.698 412.112,187.507 412.234,187.271 412.356,183.812 412.478,185.639 412.6,185.225 412.722,190.736 
  412.844,186.85 412.966,193.467 413.088,176.711 413.21,181.98 413.332,191.335 413.454,192.88 413.576,183.388 413.698,175.012 413.82,175.93 413.942,173.387 
  414.065,174.507 414.187,172.195 414.309,166.178 414.431,178.558 414.553,176.85 414.675,187.164 414.797,182.997 414.919,183.811 415.041,194.13 415.163,189.449 
  415.285,182.031 415.407,188.331 415.529,185.602 415.651,188.057 415.773,187.36 415.896,184.877 416.018,184.813 416.14,187.707 416.262,185.571 416.384,187.411 
  416.506,185.545 416.628,184.92 416.75,185.484 416.872,186.133 416.994,186.709 417.116,187.486 417.238,186.403 417.36,186.42 417.482,186.504 417.604,186.049 
  417.726,186.331 417.849,186.579 417.971,187.024 418.093,187.734 418.215,187.551 418.337,187.511 418.459,186.966 418.581,187.053 418.703,186.975 418.825,188.259 
  418.947,186.548 419.069,185.879 419.191,186.404 419.313,186.33 419.435,185.734 419.557,186.756 419.679,186.35 419.802,183.419 419.924,183.014 420.046,186.623 
  420.168,189.557 420.29,182.656 420.412,188.83 420.534,185.379 420.656,177.421 420.778,181.186 420.9,178.812 421.022,183.911 421.144,190.089 421.266,190.013 
  421.388,182.601 421.51,185.32 421.632,181.029 421.755,172.981 421.877,174.966 421.999,182.967 422.121,189.484 422.243,189.463 422.365,205.323 422.487,223.343 
  422.609,227.146 422.731,220.397 422.853,223.096 422.975,216.327 423.097,186.981 423.219,181.818 423.341,187.725 423.463,180.082 423.586,176.096 423.708,171.374 
  423.83,171.364 423.952,182.921 424.074,182.781 424.196,179.036 424.318,181.415 424.44,186.081 424.562,185.274 424.684,187.066 424.806,185.956 424.928,186.066 
  425.05,183.365 425.172,185.43 425.294,186.271 425.416,186.574 425.539,187.068 425.661,187.312 425.783,185.723 425.905,185.858 426.027,185.929 426.149,186.37 
  426.271,186.806 426.393,187.154 426.515,186.76 426.637,185.899 426.759,186.435 426.881,187.014 427.003,187.048 427.125,187.605 427.247,187.047 427.369,187.342 
  427.492,187.819 427.614,187.07 427.736,186.878 427.858,186.679 427.98,187.025 428.102,187.184 428.224,185.32 428.346,183.897 428.468,185.926 428.59,185.772 
  428.712,185.997 428.834,186.735 428.956,181.008 429.078,184.964 429.2,184.98 429.322,180.201 429.445,179.654 429.567,178.316 429.689,179.423 429.811,177.101 
  429.933,173.322 430.055,184.788 430.177,181.843 430.299,188.494 430.421,181.511 430.543,186.697 430.665,180.044 430.787,178.574 430.909,174.403 431.031,183.588 
  431.153,193.618 431.276,196.565 431.398,197.61 431.52,206.494 431.642,208.146 431.764,184.957 431.886,186.144 432.008,183.49 432.13,181.641 432.252,176.966 
  432.374,190.393 432.496,192.217 432.618,175.347 432.74,173.058 432.862,191.275 432.984,200.377 433.106,183.845 433.229,188.761 433.351,201.485 433.473,185.819 
  433.595,183.843 433.717,187.191 433.839,184.6 433.961,187.735 434.083,184.615 434.205,184.588 434.327,185.655 434.449,186.478 434.571,186.338 434.693,184.271 
  434.815,185.714 434.937,187.03 435.059,186.534 435.182,187.367 435.304,187.571 435.426,187.062 435.548,186.091 435.67,185.301 435.792,186.879 435.914,186.548 
  436.036,187.116 436.158,186.716 436.28,186.927 436.402,187.044 436.524,186.984 436.646,187.048 436.768,186.451 436.89,187.442 437.012,189.082 437.135,184.936 
  437.257,186.264 437.379,185.58 437.501,185.632 437.623,186.614 437.745,186.472 437.867,186.031 437.989,179.494 438.111,186.007 438.233,191.166 438.355,192.647 
  438.477,181.47 438.599,184.167 438.721,183.948 438.843,185.112 438.966,184.391 439.088,181.787 439.21,183.864 439.332,193.568 439.454,185.879 439.576,195.146 
  439.698,187.759 439.82,187.288 439.942,187.258 440.064,181.87 440.186,196.034 440.308,186.814 440.43,190.685 440.552,211.46 440.674,206.712 440.796,199.679 
  440.919,201.325 441.041,193.338 441.163,185.672 441.285,179.134 441.407,182.044 441.529,176.689 441.651,166.005 441.773,166.976 441.895,190.355 442.017,200.04 
  442.139,171.088 442.261,176.236 442.383,211.211 442.505,185.86 442.627,185.956 442.749,185.076 442.872,185.93 442.994,185.689 443.116,183.292 443.238,185.13 
  443.36,184.993 443.482,185.874 443.604,187.22 443.726,187.404 443.848,185.745 443.97,186.228 444.092,186.015 444.214,185.969 444.336,186.551 444.458,187.554 
  444.58,185.809 444.702,185.282 444.825,186.621 444.947,187.295 445.069,187.036 445.191,187.069 445.313,187.106 445.435,186.147 445.557,187.161 445.679,186.954 
  445.801,186.47 445.923,186.868 446.045,187.312 446.167,188.421 446.289,183.777 446.411,185.108 446.533,186.029 446.656,186.424 446.778,185.19 446.9,186.135 
  447.022,182.895 447.144,192.416 447.266,191.308 447.388,188.138 447.51,184.082 447.632,182.006 447.754,184.02 447.876,185.987 447.998,182.467 448.12,176.212 
  448.242,181.827 448.364,190.34 448.486,193.066 448.609,177.915 448.731,177.564 448.853,185.419 448.975,181.164 449.097,188.416 449.219,192.169 449.341,193.393 
  449.463,203.104 449.585,203.936 449.707,209.846 449.829,198.347 449.951,190.508 450.073,184.198 450.195,178.298 450.317,180.518 450.439,169.436 450.562,167.702 
  450.684,174.186 450.806,168.998 450.928,182.696 451.05,183.181 451.172,174.206 451.294,180.14 451.416,184.045 451.538,183.573 451.66,184.737 451.782,183.621 
  451.904,184.212 452.026,184.862 452.148,185.798 452.27,185.472 452.392,184.429 452.515,186.24 452.637,183.481 452.759,186.084 452.881,185.961 453.003,186.887 
  453.125,186.736 453.247,185.636 453.369,186.139 453.491,185.975 453.613,185.968 453.735,185.691 453.857,186.365 453.979,186.471 454.101,187.284 454.223,187.829 
  454.345,187.594 454.468,187.217 454.59,187.07 454.712,186.97 454.834,187.799 454.956,187.878 455.078,185.917 455.2,186.09 455.322,186.168 455.444,186.731 
  455.566,187.057 455.688,187.454 455.81,184.72 455.932,183.999 456.054,186.435 456.176,185.463 456.299,194.263 456.421,192.604 456.543,186.302 456.665,180.918 
  456.787,173.168 456.909,173.468 457.031,179.624 457.153,185.201 457.275,190.176 457.397,191.677 457.519,183.856 457.641,172.016 457.763,173.735 457.885,176.745 
  458.007,178.041 458.129,181.71 458.252,188.858 458.374,199.619 458.496,205.256 458.618,209.478 458.74,210.533 458.862,222.976 458.984,207.37 459.106,197.151 
  459.228,181.438 459.35,175.769 459.472,173.058 459.594,178.767 459.716,186.991 459.838,182.831 459.96,182.627 460.082,188.997 460.205,191.971 460.327,196.663 
  460.449,193.674 460.571,187.075 460.693,188.889 460.815,186.055 460.937,187.278 461.059,187.915 461.181,187.149 461.303,187.614 461.425,186.311 461.547,186.388 
  461.669,186.637 461.791,186.469 461.913,185.417 462.035,186.693 462.158,186.996 462.28,185.68 462.402,186.499 462.524,187.41 462.646,187.84 462.768,186.404 
  462.89,187.128 463.012,187.532 463.134,186.78 463.256,186.82 463.378,187.417 463.5,186.868 463.622,186.651 463.744,186.862 463.866,186.725 463.989,185.72 
  464.111,186.22 464.233,186.222 464.355,187.204 464.477,182.56 464.599,185.808 464.721,186.118 464.843,186.83 464.965,189.962 465.087,182.333 465.209,188.721 
  465.331,190.104 465.453,183.984 465.575,181.389 465.697,182.695 465.819,179.395 465.942,179.63 466.064,190.718 466.186,189.957 466.308,185.136 466.43,179.352 
  466.552,192.243 466.674,196.162 466.796,184.384 466.918,184.23 467.04,194.398 467.162,203.888 467.284,202.998 467.406,216.812 467.528,208.686 467.65,217.805 
  467.772,201.87 467.895,199.446 468.017,191.832 468.139,190.144 468.261,184.04 468.383,183.905 468.505,188.435 468.627,188.699 468.749,191.691 468.871,193.91 
  468.993,178.261 469.115,190.628 469.237,193.811 469.359,194.149 469.481,197.194 469.603,186.446 469.725,185.497 469.848,185.745 469.97,187.528 470.092,185.59 
  470.214,186.494 470.336,186.373 470.458,186.923 470.58,184.902 470.702,185.05 470.824,186.741 470.946,187.041 471.068,186.864 471.19,186.94 471.312,187.127 
  471.434,186.301 471.556,185.822 471.679,186.286 471.801,186.494 471.923,186.599 472.045,187.482 472.167,187.879 472.289,187.895 472.411,187.834 472.533,187.607 
  472.655,187.087 472.777,186.975 472.899,188.168 473.021,187.849 473.143,187.67 473.265,187.777 473.387,187.699 473.509,184.673 473.632,186.013 473.754,186.453 
  473.876,186.535 473.998,189.551 474.12,187.308 474.242,191.292 474.364,192.58 474.486,190.853 474.608,188.791 474.73,184.116 474.852,186.651 474.974,185.456 
  475.096,185.04 475.218,186.496 475.34,194.894 475.462,202.677 475.585,202.595 475.707,205.602 475.829,200.556 475.951,195.859 476.073,200.674 476.195,209.29 
  476.317,216.669 476.439,213.214 476.561,199.846 476.683,188.569 476.805,190.487 476.927,187.329 477.049,187.975 477.171,198.641 477.293,206.496 477.415,211.514 
  477.538,197.377 477.66,184.957 477.782,189.115 477.904,191.682 478.026,191.322 478.148,180.578 478.27,187.892 478.392,177.025 478.514,187.118 478.636,184.341 
  478.758,184.52 478.88,187.091 479.002,184.788 479.124,186.539 479.246,185.86 479.369,185.136 479.491,186.684 479.613,187.769 479.735,185.745 479.857,185.677 
  479.979,186.173 480.101,186.834 480.223,186.945 480.345,186.107 480.467,185.819 480.589,185.415 480.711,186.583 480.833,186.964 480.955,186.733 481.077,186.957 
  481.199,186.588 481.322,187.055 481.444,186.98 481.566,186.599 481.688,186.131 481.81,186.416 481.932,186.251 482.054,185.484 482.176,185.38 482.298,186.11 
  482.42,190.294 482.542,187.246 482.664,188.938 482.786,186.969 482.908,188.553 483.03,175.144 483.152,179.155 483.275,185.24 483.397,188.263 483.519,189.359 
  483.641,190.525 483.763,194.927 483.885,187.855 484.007,183.132 484.129,193.045 484.251,196.757 484.373,197.611 484.495,200.755 484.617,194.551 484.739,197.108 
  484.861,198.616 484.983,204.829 485.105,214.631 485.228,229.856 485.35,210.174 485.472,199.629 485.594,192.731 485.716,188.774 485.838,182.746 485.96,178.288 
  486.082,180.762 486.204,181.128 486.326,185.055 486.448,179.75 486.57,184.747 486.692,190.731 486.814,193.334 486.936,192.036 487.058,183.312 487.181,189.501 
  487.303,179.363 487.425,163.543 487.547,183.954 487.669,184.924 487.791,185.557 487.913,185.935 488.035,187.07 488.157,186.468 488.279,186.769 488.401,185.617 
  488.523,188.063 488.645,185.875 488.767,186.957 488.889,186.691 489.012,187.766 489.134,187.135 489.256,186.827 489.378,185.808 489.5,185.495 489.622,186.345 
  489.744,186.855 489.866,186.987 489.988,187.105 490.11,186.642 490.232,187.398 490.354,187.548 490.476,187.773 490.598,187.734 490.72,187.721 490.842,188.049 
  490.965,187.687 491.087,187.879 491.209,186.679 491.331,188.574 491.453,187.061 491.575,186.086 491.697,187.04 491.819,187.458 491.941,189.318 492.063,199.63 
  492.185,201.344 492.307,204.71 492.429,201.441 492.551,199.011 492.673,198.394 492.795,198.579 492.918,201.535 493.04,195.313 493.162,195.224 493.284,197.364 
  493.406,200.779 493.528,193.895 493.65,192.065 493.772,196.152 493.894,197.638 494.016,193.161 494.138,211.844 494.26,223.592 494.382,180.56 494.504,171.711 
  494.626,170.967 494.748,183.092 494.871,181.122 494.993,183.684 495.115,194.355 495.237,184.008 495.359,190.485 495.481,190.408 495.603,188.039 495.725,191.465 
  495.847,193.644 495.969,178.131 496.091,172.607 496.213,176.04 496.335,156.54 496.457,151.324 496.579,187.341 496.702,187.758 496.824,186.525 496.946,186.077 
  497.068,185.92 497.19,185.117 497.312,185.161 497.434,186.417 497.556,186.806 497.678,185.112 497.8,186.4 497.922,186.148 498.044,185.246 498.166,185.071 
  498.288,185.364 498.41,185.812 498.532,186.212 498.655,186.666 498.777,186.954 498.899,186.092 499.021,186.384 499.143,186.269 499.265,186.318 499.387,185.893 
  499.509,185.798 499.631,185.673 499.753,185.232 499.875,185.382 499.997,185.544 500.119,185.377 500.241,189.313 500.363,186.21 500.485,183.823 500.608,187.696 
  500.73,187.292 500.852,189.101 500.974,188.005 501.096,191.114 501.218,195.246 501.34,195.986 501.462,194.889 501.584,199.015 501.706,195.479 501.828,196.376 
  501.95,195.999 502.072,194.423 502.194,197.289 502.316,195.119 502.438,198.34 502.561,199.405 502.683,199.238 502.805,208.041 502.927,209.685 503.049,218.653 
  503.171,234.716 503.293,209.323 503.415,199.243 503.537,191.099 503.659,186.044 503.781,163.363 503.903,161.186 504.025,162.091 504.147,166.457 504.269,166.296 
  504.392,181.876 504.514,189.155 504.636,189.715 504.758,191.051 504.88,191.28 505.002,184.519 505.124,170.753 505.246,162.818 505.368,163.327 505.49,184.206 
  505.612,184.34 505.734,183.842 505.856,186.884 505.978,184.864 506.1,186.454 506.222,185.883 506.345,185.289 506.467,186.136 506.589,185.244 506.711,185.767 
  506.833,186.899 506.955,186.984 507.077,186.79 507.199,186.835 507.321,186.436 507.443,186.403 507.565,184.925 507.687,186.547 507.809,187.253 507.931,186.082 
  508.053,186.807 508.175,187.261 508.298,187.417 508.42,187.101 508.542,187.589 508.664,187.411 508.786,187.054 508.908,189.049 509.03,187.146 509.152,187.252 
  509.274,187.077 509.396,185.614 509.518,186.868 509.64,186.23 509.762,185.239 509.884,185.687 510.006,188.684 510.128,209.36 510.251,206.304 510.373,207.452 
  510.495,203.462 510.617,199.35 510.739,201.431 510.861,195.93 510.983,193.644 511.105,189.436 511.227,193.395 511.349,191.369 511.471,190.739 511.593,196.92 
  511.715,197.866 511.837,194.496 511.959,199.202 512.082,193.318 512.204,213.432 512.326,163.51 512.448,168.991 512.57,170.808 512.692,181.279 512.814,183.433 
  512.936,185.302 513.058,189.958 513.18,194.063 513.302,193.638 513.424,195.277 513.546,187.197 513.668,189.051 513.79,177.932 513.912,171.399 514.035,176.393 
  514.157,158.176 514.279,167.7 514.401,165.489 514.523,185.021 514.645,187.624 514.767,187.516 514.889,187.288 515.011,183.98 515.133,185.369 515.255,186.737 
  515.377,185.84 515.499,185.496 515.621,186.908 515.743,184.966 515.865,185.803 515.988,185.432 516.11,185.725 516.232,184.87 516.354,185.339 516.476,186.624 
  516.598,185.862 516.72,186.782 516.842,186.51 516.964,185.781 517.086,185.636 517.208,186.205 517.33,186.261 517.452,185.635 517.574,185.309 517.696,185.688 
  517.818,185.033 517.941,185.442 518.063,187.378 518.185,188.311 518.307,186.418 518.429,185.631 518.551,188.519 518.673,187.438 518.795,188.101 518.917,186.489 
  519.039,183.333 519.161,189.429 519.283,197.487 519.405,196.781 519.527,196.588 519.649,193.016 519.771,189.248 519.894,193.462 520.016,192.084 520.138,196.253 
  520.26,200.098 520.382,208.531 520.504,206.62 520.626,201.107 520.748,205.318 520.87,213.773 520.992,211.507 521.114,217.014 521.236,230.718 521.358,197.817 
  521.48,190.312 521.602,184.192 521.725,168.641 521.847,168.964 521.969,171.235 522.091,177.33 522.213,180.579 522.335,185.672 522.457,189.167 522.579,190.6 
  522.701,191.974 522.823,189.337 522.945,182.729 523.067,177.494 523.189,172.438 523.311,162.467 523.433,159.6 523.555,183.111 523.678,188.201 523.8,185.58 
  523.922,185.696 524.044,187.212 524.166,187.214 524.288,187.744 524.41,186.704 524.532,186.125 524.654,185.316 524.776,186.485 524.898,186.62 525.02,186.361 
  525.142,186.59 525.264,186.51 525.386,186.253 525.508,186.337 525.631,185.454 525.753,185.248 525.875,186.69 525.997,187.065 526.119,187.14 526.241,187.295 
  526.363,187.25 526.485,187.112 526.607,187.451 526.729,187.843 526.851,186.956 526.973,187.331 527.095,187.227 527.217,187.066 527.339,187.502 527.461,185.803 
  527.584,184.774 527.706,184.832 527.828,186.612 527.95,186.99 528.072,198.428 528.194,196.656 528.316,202.39 528.438,201.277 528.56,199.183 528.682,200.907 
  528.804,195.932 528.926,194.162 529.048,194.595 529.17,190.767 529.292,191.118 529.415,190.235 529.537,188.482 529.659,185.517 529.781,186.425 529.903,187.08 
  530.025,187.442 530.147,190.738 530.269,204.578 530.391,172.439 530.513,180.26 530.635,187.077 530.757,187.556 530.879,193.844 531.001,196.433 531.123,194.899 
  531.245,191.075 531.368,195.919 531.49,201.965 531.612,198.953 531.734,180.491 531.856,180.378 531.978,174.573 532.1,177.626 532.222,168.866 532.344,170.546 
  532.466,158.764 532.588,185.524 532.71,185.439 532.832,187.129 532.954,186.74 533.076,187.003 533.198,185.492 533.321,184.39 533.443,185.701 533.565,186.355 
  533.687,184.75 533.809,185.721 533.931,185.69 534.053,185.717 534.175,185.243 534.297,185.957 534.419,185.687 534.541,186.833 534.663,186.309 534.785,185.91 
  534.907,185.918 535.029,185.798 535.151,185.499 535.274,185.637 535.396,185.4 535.518,185.846 535.64,185.689 535.762,185.151 535.884,184.633 536.006,186.578 
  536.128,188.394 536.25,186.941 536.372,187.344 536.494,187.575 536.616,187.318 536.738,188.173 536.86,186.011 536.982,187.533 537.105,189.84 537.227,195.116 
  537.349,197.721 537.471,198.613 537.593,200.025 537.715,194.588 537.837,194.366 537.959,200.013 538.081,192.606 538.203,202.611 538.325,193.12 538.447,191.202 
  538.569,202.388 538.691,205.221 538.813,209.635 538.935,213.526 539.058,215.935 539.18,230.741 539.302,197.116 539.424,191.533 539.546,186.978 539.668,176.459 
  539.79,171.228 539.912,175.021 540.034,178.502 540.156,180.24 540.278,183.039 540.4,180.359 540.522,185.149 540.644,184.384 540.766,182.833 540.888,174.27 
  541.011,177.332 541.133,173.131 541.255,170.028 541.377,163.121 541.499,162.844 541.621,183.829 541.743,187.361 541.865,185.619 541.987,187.33 542.109,184.669 
  542.231,186.69 542.353,186.068 542.475,187.521 542.597,186.934 542.719,187.323 542.841,185.937 542.964,186.036 543.086,186.379 543.208,186.213 543.33,186.11 
  543.452,186.053 543.574,186.122 543.696,185.524 543.818,185.743 543.94,186.611 544.062,186.383 544.184,186.628 544.306,186.86 544.428,186.912 544.55,187.4 
  544.672,187.8 544.795,187.544 544.917,186.868 545.039,186.773 545.161,187.401 545.283,187.371 545.405,187.791 545.527,185.741 545.649,183.254 545.771,186.722 
  545.893,186.798 546.015,187.447 546.137,197.555 546.259,197.157 546.381,199.674 546.503,194.914 546.625,200.773 546.748,199.759 546.87,201.016 546.992,191.693 
  547.114,195.873 547.236,192.917 547.358,187.913 547.48,188.227 547.602,191.12 547.724,188.065 547.846,190.11 547.968,185.884 548.09,194.8 548.212,199.615 
  548.334,172.774 548.456,182.215 548.578,182.421 548.701,183.89 548.823,182.182 548.945,179.699 549.067,189.713 549.189,183.361 549.311,187.557 549.433,196.518 
  549.555,185.77 549.677,184.801 549.799,186.691 549.921,182.714 550.043,181.568 550.165,176.663 550.287,174.879 550.409,168.341 550.531,175.011 550.654,185.858 
  550.776,183.537 550.898,187.137 551.02,185.143 551.142,185.529 551.264,185.523 551.386,186.118 551.508,186.307 551.63,184.846 551.752,186.298 551.874,185.348 
  551.996,185.468 552.118,185.508 552.24,186.167 552.362,186.658 552.484,185.824 552.607,186.287 552.729,186.796 552.851,185.949 552.973,186.374 553.095,186.315 
  553.217,186.382 553.339,185.849 553.461,185.765 553.583,186.183 553.705,185.523 553.827,186.569 553.949,187.296 554.071,187.943 554.193,186.517 554.315,186.132 
  554.438,188.178 554.56,187.807 554.682,188.976 554.804,188.05 554.926,187.433 555.048,188.348 555.17,190.039 555.292,186.063 555.414,190.022 555.536,190.848 
  555.658,195.526 555.78,197.008 555.902,206.549 556.024,200.777 556.146,197.092 556.268,193.616 556.391,194.772 556.513,191.823 556.635,196.678 556.757,200.067 
  556.879,201.511 557.001,203.56 557.123,212.422 557.245,214.971 557.367,190.281 557.489,189.039 557.611,188.861 557.733,184.366 557.855,182.661 557.977,174.664 
  558.099,172.004 558.221,169.887 558.344,177.279 558.466,180.022 558.588,184.602 558.71,187.883 558.832,182.013 558.954,185.331 559.076,182.437 559.198,180.301 
  559.32,177 559.442,180.831 559.564,183.351 559.686,187.201 559.808,186.621 559.93,186.678 560.052,185.459 560.174,186.765 560.297,186.262 560.419,186.843 
  560.541,186.199 560.663,185.568 560.785,187.234 560.907,185.063 561.029,185.989 561.151,185.916 561.273,185.981 561.395,186.392 561.517,186.244 561.639,186.835 
  561.761,186.914 561.883,185.887 562.005,186.47 562.128,186.874 562.25,186.948 562.372,186.943 562.494,187.432 562.616,187.251 562.738,187.083 562.86,187.125 
  562.982,187.173 563.104,186.634 563.226,186.372 563.348,186.493 563.47,187.417 563.592,186.204 563.714,185.779 563.836,185.632 563.958,186.133 564.081,186.756 
  564.203,187.747 564.325,192.61 564.447,190.598 564.569,190.552 564.691,197.294 564.813,196.255 564.935,192.029 565.057,192.289 565.179,191.962 565.301,188.619 
  565.423,182.322 565.545,178.904 565.667,175.221 565.789,186.897 565.911,179.502 566.034,178.795 566.156,187.168 566.278,194.412 566.4,178.164 566.522,178.259 
  566.644,173.895 566.766,191.338 566.888,191.053 567.01,182.127 567.132,191.181 567.254,189.707 567.376,184.873 567.498,190.067 567.62,182.222 567.742,179.719 
  567.864,191.364 567.987,188.263 568.109,188.226 568.231,187.05 568.353,180.269 568.475,166.894 568.597,175.79 568.719,184.791 568.841,184.907 568.963,185.871 
  569.085,184.679 569.207,184.754 569.329,185.759 569.451,186.483 569.573,186.795 569.695,186.239 569.818,185.103 569.94,185.244 570.062,186.271 570.184,186.574 
  570.306,186.302 570.428,186.315 570.55,186 570.672,186.065 570.794,186.74 570.916,186.242 571.038,186.064 571.16,186.171 571.282,186.216 571.404,185.99 
  571.526,185.844 571.648,185.714 571.771,185.627 571.893,185.425 572.015,186.823 572.137,187.506 572.259,188.67 572.381,186.444 572.503,186.851 572.625,185.312 
  572.747,186.152 572.869,187.258 572.991,188.313 573.113,187.323 573.235,177.521 573.357,186.707 573.479,195.43 573.601,201.15 573.724,193.207 573.846,195.156 
  573.968,189.062 574.09,188.292 574.212,193.129 574.334,198.38 574.456,203.149 574.578,197.368 574.7,197.222 574.822,200.796 574.944,202.478 575.066,208.765 
  575.188,217.275 575.31,218.985 575.432,223.506 575.554,186.645 575.677,177.591 575.799,176.251 575.921,173.574 576.043,168.702 576.165,174.105 576.287,187.742 
  576.409,192.603 576.531,187.884 576.653,182.78 576.775,186.853 576.897,181.09 577.019,186.546 577.141,177.345 577.263,178.039 577.385,176.123 577.508,174.219 
  577.63,171.626 577.752,184.977 577.874,186.306 577.996,184.914 578.118,182.136 578.24,186.412 578.362,187.274 578.484,185.346 578.606,185.171 578.728,187.146 
  578.85,185.875 578.972,186.016 579.094,185.085 579.216,185.203 579.338,185.524 579.461,186.411 579.583,185.991 579.705,185.47 579.827,185.487 579.949,186.418 
  580.071,186.04 580.193,186.928 580.315,187.09 
  "/>
</svg>
