<?xml version="1.0" encoding="utf-8"?>
<svg xmlns="http://www.w3.org/2000/svg" xmlns:xlink="http://www.w3.org/1999/xlink" width="600" height="400" viewBox="0 0 600 400">
<defs>
  <clipPath id="clip00">
    <rect x="0" y="0" width="600" height="400"/>
  </clipPath>
</defs>
<polygon clip-path="url(#clip00)" points="
0,400 600,400 600,0 0,0 
  " fill="#ffffff" fill-opacity="1"/>
<defs>
  <clipPath id="clip01">
    <rect x="120" y="0" width="421" height="400"/>
  </clipPath>
</defs>
<polygon clip-path="url(#clip00)" points="
62.5219,357.163 580.315,357.163 580.315,15.748 62.5219,15.748 
  " fill="#ffffff" fill-opacity="1"/>
<defs>
  <clipPath id="clip02">
    <rect x="62" y="15" width="518" height="342"/>
  </clipPath>
</defs>
<g clip-path="url(#clip00)">
<text style="fill:#00002d; fill-opacity:1; font-family:Arial; font-size:12; text-anchor:start;" transform="rotate(0, 37.7695, 360.576)" x="37.7695" y="360.576">-</text>
</g>
<g clip-path="url(#clip00)">
<text style="fill:#00002d; fill-opacity:1; font-family:Arial; font-size:12; text-anchor:start;" transform="rotate(0, 44.691, 360.576)" x="44.691" y="360.576">10</text>
</g>
<g clip-path="url(#clip00)">
<text style="fill:#00002d; fill-opacity:1; font-family:Arial; font-size:12; text-anchor:start;" transform="rotate(0, 44.3591, 275.222)" x="44.3591" y="275.222">-</text>
</g>
<g clip-path="url(#clip00)">
<text style="fill:#00002d; fill-opacity:1; font-family:Arial; font-size:12; text-anchor:start;" transform="rotate(0, 51.2806, 275.222)" x="51.2806" y="275.222">5</text>
</g>
<g clip-path="url(#clip00)">
<text style="fill:#00002d; fill-opacity:1; font-family:Arial; font-size:12; text-anchor:start;" transform="rotate(0, 51.2806, 189.868)" x="51.2806" y="189.868">0</text>
</g>
<g clip-path="url(#clip00)">
<text style="fill:#00002d; fill-opacity:1; font-family:Arial; font-size:12; text-anchor:start;" transform="rotate(0, 51.2806, 104.515)" x="51.2806" y="104.515">5</text>
</g>
<g clip-path="url(#clip00)">
<text style="fill:#00002d; fill-opacity:1; font-family:Arial; font-size:12; text-anchor:start;" transform="rotate(0, 44.691, 19.1608)" x="44.691" y="19.1608">10</text>
</g>
<polyline clip-path="url(#clip00)" style="stroke:#00002d; stroke-width:0.8; stroke-opacity:1; fill:none" points="
  62.5219,357.163 62.5219,357.163 71.8252,357.163 62.5219,357.163 62.5219,271.809 71.8252,271.809 62.5219,271.809 62.5219,186.456 71.8252,186.456 62.5219,186.456 
  62.5219,101.102 71.8252,101.102 62.5219,101.102 62.5219,15.748 71.8252,15.748 62.5219,15.748 
  "/>
<g clip-path="url(#clip00)">
<text style="fill:#00002d; fill-opacity:1; font-family:Arial; font-size:12; text-anchor:start;" transform="rotate(0, 162.919, 372.528)" x="162.919" y="372.528">240</text>
</g>
<g clip-path="url(#clip00)">
<text style="fill:#00002d; fill-opacity:1; font-family:Arial; font-size:12; text-anchor:start;" transform="rotate(0, 332.765, 372.528)" x="332.765" y="372.528">250</text>
</g>
<g clip-path="url(#clip00)">
<text style="fill:#00002d; fill-opacity:1; font-family:Arial; font-size:12; text-anchor:start;" transform="rotate(0, 502.61, 372.528)" x="502.61" y="372.528">260</text>
</g>
<polyline clip-path="url(#clip00)" style="stroke:#00002d; stroke-width:0.8; stroke-opacity:1; fill:none" points="
  62.5219,357.163 172.804,357.163 172.804,347.86 172.804,357.163 342.649,357.163 342.649,347.86 342.649,357.163 512.495,357.163 512.495,347.86 512.495,357.163 
  580.315,357.163 
  "/>
<polyline clip-path="url(#clip00)" style="stroke:#00002d; stroke-width:0.8; stroke-opacity:1; fill:none" points="
  580.315,357.163 580.315,357.163 571.012,357.163 580.315,357.163 580.315,271.809 571.012,271.809 580.315,271.809 580.315,186.456 571.012,186.456 580.315,186.456 
  580.315,101.102 571.012,101.102 580.315,101.102 580.315,15.748 571.012,15.748 580.315,15.748 
  "/>
<polyline clip-path="url(#clip00)" style="stroke:#00002d; stroke-width:0.8; stroke-opacity:1; fill:none" points="
  62.5219,15.748 172.804,15.748 172.804,25.0513 172.804,15.748 342.649,15.748 342.649,25.0513 342.649,15.748 512.495,15.748 512.495,25.0513 512.495,15.748 
  580.315,15.748 
  "/>
<g clip-path="url(#clip00)">
<text style="fill:#00002d; fill-opacity:1; font-family:Arial; font-size:16; text-anchor:middle;" transform="rotate(0, 321.418, 397.6)" x="321.418" y="397.6">Day of Year</text>
</g>
<g clip-path="url(#clip00)">
<text style="fill:#00002d; fill-opacity:1; font-family:Arial; font-size:16; text-anchor:middle;" transform="rotate(-90, 14.4, 186.456)" x="14.4" y="186.456">Residual discharge</text>
</g>
<polyline clip-path="url(#clip02)" style="stroke:#0099ff; stroke-width:0.8; stroke-opacity:1; fill:none" points="
  62.5219,187.398 62.6398,187.398 62.7578,187.398 62.8757,187.398 62.9937,187.399 63.1116,184.487 63.2296,185.367 63.3475,180.439 63.4655,182.6 63.5834,183.542 
  63.7014,181.839 63.8193,182.257 63.9373,180.109 64.0552,178.281 64.1731,178.307 64.2911,178.71 64.409,180.706 64.527,180.762 64.6449,184.883 64.7629,185.733 
  64.8808,188.628 64.9988,190.53 65.1167,194.23 65.2347,198.946 65.3526,194.648 65.4706,191.845 65.5885,188.69 65.7065,187.137 65.8244,189.201 65.9424,180.854 
  66.0603,182.182 66.1783,183.233 66.2962,183.187 66.4142,180.058 66.5321,182.479 66.6501,186.867 66.768,188.642 66.886,189.485 67.0039,192.723 67.1219,193.775 
  67.2398,194.372 67.3578,192.142 67.4757,194.387 67.5936,191.891 67.7116,195.468 67.8295,195.884 67.9475,194.932 68.0654,195.249 68.1834,194.38 68.3013,201.738 
  68.4193,200.905 68.5372,200.209 68.6552,195.215 68.7731,195.569 68.8911,194.574 69.009,195.138 69.127,192.516 69.2449,193.027 69.3629,193.046 69.4808,187.398 
  69.5988,187.398 69.7167,187.398 69.8347,187.398 69.9526,187.398 70.0706,187.398 70.1885,187.398 70.3065,187.398 70.4244,187.398 70.5424,187.398 70.6603,187.398 
  70.7783,187.398 70.8962,187.398 71.0142,187.398 71.1321,187.398 71.25,187.398 71.368,187.398 71.4859,187.398 71.6039,187.398 71.7218,187.398 71.8398,187.398 
  71.9577,187.399 72.0757,185.303 72.1936,185.61 72.3116,185.357 72.4295,182.941 72.5475,180.454 72.6654,179.658 72.7834,180.904 72.9013,180.086 73.0193,179.616 
  73.1372,182.37 73.2552,179.202 73.3731,179.568 73.4911,183.916 73.609,180.898 73.727,182.702 73.8449,190.455 73.9629,189.326 74.0808,187.957 74.1988,191.279 
  74.3167,187.844 74.4347,187.426 74.5526,188.714 74.6705,186.379 74.7885,180.044 74.9064,189.106 75.0244,188.462 75.1423,189.286 75.2603,190.742 75.3782,192.741 
  75.4962,187.233 75.6141,192.336 75.7321,194.722 75.85,189.887 75.968,195.744 76.0859,192.964 76.2039,193.912 76.3218,194.358 76.4398,195.405 76.5577,192.683 
  76.6757,195.784 76.7936,194.009 76.9116,193.699 77.0295,194.268 77.1475,190.795 77.2654,190.618 77.3834,193.617 77.5013,190.143 77.6193,189.065 77.7372,192.139 
  77.8552,189.672 77.9731,183.896 78.091,187.398 78.209,187.398 78.3269,187.398 78.4449,187.398 78.5628,187.398 78.6808,187.398 78.7987,187.398 78.9167,187.398 
  79.0346,187.398 79.1526,187.398 79.2705,187.398 79.3885,187.398 79.5064,187.398 79.6244,187.398 79.7423,187.398 79.8603,187.398 79.9782,187.398 80.0962,187.398 
  80.2141,187.398 80.3321,187.398 80.45,187.398 80.568,183.778 80.6859,183.784 80.8039,184.052 80.9218,183.434 81.0398,180.838 81.1577,181.792 81.2757,181.686 
  81.3936,178.733 81.5116,180.239 81.6295,178.567 81.7474,179.128 81.8654,177.972 81.9833,180.446 82.1013,177.771 82.2192,184.608 82.3372,181.897 82.4551,187.641 
  82.5731,190.194 82.691,191.921 82.809,195.981 82.9269,199.002 83.0449,192.929 83.1628,193.207 83.2808,194.019 83.3987,190.756 83.5167,179.18 83.6346,184.01 
  83.7526,178.019 83.8705,180.321 83.9885,183.43 84.1064,183.443 84.2244,183.503 84.3423,184.913 84.4603,186.182 84.5782,187.649 84.6962,190.616 84.8141,189.573 
  84.9321,190.435 85.05,195.471 85.1679,193.568 85.2859,194.031 85.4038,195.691 85.5218,193.323 85.6397,191.442 85.7577,193.202 85.8756,193.356 85.9936,193.817 
  86.1115,191.73 86.2295,191.054 86.3474,192.055 86.4654,192.227 86.5833,192.52 86.7013,191.005 86.8192,191.92 86.9372,189.158 87.0551,187.398 87.1731,187.398 
  87.291,187.398 87.409,187.398 87.5269,187.398 87.6449,187.398 87.7628,187.398 87.8808,187.398 87.9987,187.398 88.1167,187.398 88.2346,187.398 88.3526,187.398 
  88.4705,187.398 88.5884,187.398 88.7064,187.398 88.8243,187.398 88.9423,187.398 89.0602,187.398 89.1782,187.398 89.2961,187.398 89.4141,187.398 89.532,187.398 
  89.65,183.833 89.7679,184.325 89.8859,183.312 90.0038,183.212 90.1218,182.622 90.2397,182.173 90.3577,180.826 90.4756,180.923 90.5936,179.885 90.7115,178.442 
  90.8295,180.39 90.9474,179.41 91.0654,181.617 91.1833,179.795 91.3013,183.57 91.4192,183.694 91.5372,186.053 91.6551,187.764 91.7731,189.625 91.891,190.419 
  92.009,189.537 92.1269,189.265 92.2448,186.72 92.3628,190.425 92.4807,182.934 92.5987,184.642 92.7166,185.659 92.8346,185.807 92.9525,184.658 93.0705,187.975 
  93.1884,191.054 93.3064,185.837 93.4243,191.992 93.5423,190.217 93.6602,190.489 93.7782,190.961 93.8961,192.576 94.0141,194.03 94.132,192.117 94.25,192.169 
  94.3679,193.797 94.4859,190.729 94.6038,187.659 94.7218,193.247 94.8397,190.639 94.9577,190.308 95.0756,192.488 95.1936,190.038 95.3115,186.799 95.4295,187.688 
  95.5474,188.096 95.6653,184.707 95.7833,187.398 95.9012,187.398 96.0192,187.398 96.1371,187.398 96.2551,187.398 96.373,187.398 96.491,187.398 96.6089,187.398 
  96.7269,187.398 96.8448,187.398 96.9628,187.398 97.0807,187.398 97.1987,187.398 97.3166,187.398 97.4346,187.398 97.5525,187.398 97.6705,187.398 97.7884,187.398 
  97.9064,187.399 98.0243,183.879 98.1423,183.681 98.2602,184.871 98.3782,181.796 98.4961,183.199 98.6141,181.241 98.732,179.436 98.85,180.558 98.9679,180.347 
  99.0858,177.74 99.2038,178.096 99.3217,174.04 99.4397,182.191 99.5576,181.639 99.6756,182.415 99.7935,186.784 99.9115,188.916 100.029,190.194 100.147,192.83 
  100.265,201.105 100.383,192.667 100.501,202.866 100.619,205.009 100.737,194.944 100.855,191.26 100.973,186.196 101.091,184.099 101.209,186.281 101.327,179.061 
  101.445,176.462 101.563,182.701 101.681,178.131 101.799,184.317 101.917,183.741 102.035,181.858 102.153,185.047 102.27,187.673 102.388,187.896 102.506,191.341 
  102.624,190.275 102.742,192.765 102.86,194.814 102.978,193.336 103.096,190.266 103.214,192.68 103.332,192.582 103.45,191.522 103.568,193.263 103.686,193.509 
  103.804,193.167 103.922,193.589 104.04,192.14 104.158,190.926 104.276,192.569 104.394,187.596 104.511,190.956 104.629,189.295 104.747,187.398 104.865,187.398 
  104.983,187.398 105.101,187.398 105.219,187.398 105.337,187.398 105.455,187.398 105.573,187.398 105.691,187.398 105.809,187.398 105.927,187.398 106.045,187.398 
  106.163,187.398 106.281,187.398 106.399,187.398 106.517,187.398 106.635,187.398 106.752,187.398 106.87,187.398 106.988,187.398 107.106,185.819 107.224,183.945 
  107.342,184.823 107.46,183.075 107.578,183.266 107.696,180.368 107.814,183.355 107.932,180.884 108.05,181.007 108.168,182.018 108.286,179.489 108.404,181.05 
  108.522,179.824 108.64,180.802 108.758,182.765 108.876,185.05 108.994,188.335 109.111,190.701 109.229,191.793 109.347,189.791 109.465,190.317 109.583,192.956 
  109.701,189.744 109.819,186.708 109.937,182.84 110.055,190.563 110.173,188.454 110.291,185.979 110.409,189.442 110.527,189.756 110.645,189.082 110.763,191.666 
  110.881,189.724 110.999,190.933 111.117,192.059 111.235,192.099 111.352,195.793 111.47,192.978 111.588,195.46 111.706,195.602 111.824,194.507 111.942,195.895 
  112.06,196.434 112.178,194.803 112.296,193.946 112.414,195.23 112.532,193.018 112.65,192.233 112.768,192.781 112.886,189.154 113.004,189.999 113.122,191.974 
  113.24,189.978 113.358,188.496 113.476,187.398 113.593,187.398 113.711,187.398 113.829,187.398 113.947,187.398 114.065,187.398 114.183,187.398 114.301,187.398 
  114.419,187.398 114.537,187.398 114.655,187.398 114.773,187.398 114.891,187.398 115.009,187.398 115.127,187.398 115.245,187.398 115.363,187.398 115.481,184.231 
  115.599,185.389 115.717,183.784 115.835,183.417 115.952,183.609 116.07,184.318 116.188,183.508 116.306,181.698 116.424,180.898 116.542,181.002 116.66,178.226 
  116.778,176.936 116.896,181.421 117.014,180.94 117.132,183.485 117.25,184.522 117.368,191.602 117.486,194.489 117.604,196.509 117.722,200.79 117.84,203.937 
  117.958,200.225 118.076,200.09 118.193,192.032 118.311,190.838 118.429,181.628 118.547,179.496 118.665,176.897 118.783,174.642 118.901,178.861 119.019,188.924 
  119.137,186.764 119.255,187.474 119.373,185.824 119.491,184.197 119.609,185.232 119.727,180.136 119.845,183.422 119.963,181.787 120.081,190.395 120.199,193.071 
  120.317,189.779 120.434,195.265 120.552,195.645 120.67,196.901 120.788,196.407 120.906,193.929 121.024,194.66 121.142,192.877 121.26,192.249 121.378,193.073 
  121.496,193.565 121.614,193.42 121.732,191.342 121.85,190.945 121.968,192.801 122.086,190.051 122.204,191.048 122.322,188.847 122.44,187.398 122.558,187.398 
  122.676,187.398 122.793,187.398 122.911,187.398 123.029,187.398 123.147,187.398 123.265,187.398 123.383,187.398 123.501,187.398 123.619,187.398 123.737,187.398 
  123.855,187.398 123.973,187.398 124.091,187.398 124.209,187.398 124.327,187.398 124.445,187.398 124.563,187.398 124.681,187.398 124.799,187.398 124.917,185.507 
  125.034,184.156 125.152,182.907 125.27,183.244 125.388,179.65 125.506,179.642 125.624,181.653 125.742,179.673 125.86,178.311 125.978,177.971 126.096,179.897 
  126.214,180.932 126.332,180.818 126.45,182.719 126.568,182.582 126.686,186.358 126.804,188.259 126.922,194.168 127.04,193.091 127.158,192.808 127.275,191.47 
  127.393,192.092 127.511,187.361 127.629,183.781 127.747,185.342 127.865,181.521 127.983,183.596 128.101,183.506 128.219,188.382 128.337,190.131 128.455,191.294 
  128.573,189.801 128.691,190.816 128.809,192.726 128.927,189.683 129.045,195.57 129.163,196.799 129.281,196.292 129.399,193.732 129.517,196.1 129.634,195.178 
  129.752,195.319 129.87,193.45 129.988,194.182 130.106,193.982 130.224,195.564 130.342,190.739 130.46,190.701 130.578,190.989 130.696,190.588 130.814,190.436 
  130.932,191.129 131.05,189.616 131.168,187.398 131.286,187.398 131.404,187.398 131.522,187.398 131.64,187.398 131.758,187.398 131.875,187.398 131.993,187.398 
  132.111,187.398 132.229,187.398 132.347,187.398 132.465,187.398 132.583,187.398 132.701,187.398 132.819,187.398 132.937,187.398 133.055,187.398 133.173,187.398 
  133.291,184.718 133.409,184.805 133.527,183.366 133.645,183.534 133.763,183.751 133.881,180.193 133.999,181.996 134.116,179.795 134.234,177.51 134.352,178.253 
  134.47,178.265 134.588,178.854 134.706,180.215 134.824,182.836 134.942,189.29 135.06,192.996 135.178,191.517 135.296,202.476 135.414,201.085 135.532,205.167 
  135.65,200.129 135.768,190.344 135.886,178.645 136.004,183.234 136.122,172.846 136.24,165.387 136.358,168.208 136.475,167.903 136.593,169.357 136.711,177.535 
  136.829,189.225 136.947,194.993 137.065,189.924 137.183,193.788 137.301,189.109 137.419,193.502 137.537,187.594 137.655,189.549 137.773,192.887 137.891,192.135 
  138.009,187.718 138.127,192.094 138.245,192.436 138.363,195.753 138.481,193.273 138.599,193.478 138.716,196.164 138.834,192.326 138.952,192.984 139.07,194.783 
  139.188,192.589 139.306,191.104 139.424,194.146 139.542,192.981 139.66,190.373 139.778,190.519 139.896,188.025 140.014,188.623 140.132,187.398 140.25,187.398 
  140.368,187.398 140.486,187.398 140.604,187.398 140.722,187.398 140.84,187.398 140.957,187.398 141.075,187.398 141.193,187.398 141.311,187.398 141.429,187.398 
  141.547,187.398 141.665,187.398 141.783,187.398 141.901,187.398 142.019,187.398 142.137,187.398 142.255,187.398 142.373,187.398 142.491,187.398 142.609,184.257 
  142.727,185.003 142.845,185.192 142.963,183.258 143.081,182.103 143.199,181.524 143.316,180.151 143.434,180.065 143.552,179.265 143.67,179.088 143.788,174.474 
  143.906,179.919 144.024,185.331 144.142,186.065 144.26,188.882 144.378,190.726 144.496,192.379 144.614,197.123 144.732,197.496 144.85,196.613 144.968,196.84 
  145.086,192.658 145.204,188.209 145.322,182.588 145.44,184.312 145.557,178.561 145.675,182.909 145.793,187.492 145.911,184.527 146.029,186.647 146.147,188.459 
  146.265,186.519 146.383,188.468 146.501,190.092 146.619,193.121 146.737,194.083 146.855,194.878 146.973,198.334 147.091,197.916 147.209,195.042 147.327,191.561 
  147.445,192.837 147.563,195.211 147.681,192.202 147.799,195.616 147.916,191.655 148.034,193.074 148.152,191.186 148.27,190.193 148.388,189.979 148.506,192.075 
  148.624,188.16 148.742,186.25 148.86,187.398 148.978,187.398 149.096,187.398 149.214,187.398 149.332,187.398 149.45,187.398 149.568,187.398 149.686,187.398 
  149.804,187.398 149.922,187.398 150.04,187.398 150.157,187.398 150.275,187.398 150.393,187.398 150.511,187.398 150.629,187.398 150.747,187.398 150.865,187.398 
  150.983,187.398 151.101,183.137 151.219,185.286 151.337,184.366 151.455,182.119 151.573,180.856 151.691,178.637 151.809,179.397 151.927,178.078 152.045,175.785 
  152.163,176.166 152.281,179.98 152.398,180.914 152.516,186.275 152.634,193.473 152.752,198.127 152.87,203.082 152.988,205.711 153.106,204.827 153.224,205.166 
  153.342,202.983 153.46,187.66 153.578,177.698 153.696,162.904 153.814,166.704 153.932,161.061 154.05,159.01 154.168,161.101 154.286,162.493 154.404,167.435 
  154.522,179.208 154.64,188.205 154.757,195.733 154.875,204.935 154.993,211.001 155.111,212.483 155.229,210.934 155.347,204.009 155.465,201.197 155.583,202.588 
  155.701,197.754 155.819,197.932 155.937,195.53 156.055,196.76 156.173,193.587 156.291,193.622 156.409,194.972 156.527,192.62 156.645,195.763 156.763,194.402 
  156.881,193.968 156.998,193.881 157.116,192.852 157.234,192.303 157.352,191.679 157.47,191.855 157.588,187.398 157.706,187.398 157.824,187.398 157.942,187.398 
  158.06,187.398 158.178,187.398 158.296,187.398 158.414,187.398 158.532,187.398 158.65,187.398 158.768,187.398 158.886,187.398 159.004,187.398 159.122,187.398 
  159.239,187.398 159.357,187.398 159.475,187.398 159.593,187.398 159.711,187.398 159.829,187.398 159.947,187.398 160.065,187.398 160.183,187.398 160.301,187.398 
  160.419,187.399 160.537,183.621 160.655,183.519 160.773,182.741 160.891,180.251 161.009,179.114 161.127,177.129 161.245,178.041 161.363,176.468 161.481,177.556 
  161.598,181.026 161.716,183.342 161.834,187.277 161.952,189.596 162.07,195.406 162.188,201.813 162.306,201.86 162.424,202.033 162.542,203.061 162.66,197.601 
  162.778,194.025 162.896,189.475 163.014,181.825 163.132,183.829 163.25,182.637 163.368,179.6 163.486,182.297 163.604,180.519 163.722,177.41 163.839,181.073 
  163.957,184.884 164.075,186.047 164.193,189.405 164.311,193.093 164.429,194.704 164.547,193.077 164.665,198.054 164.783,194.708 164.901,196.854 165.019,196.094 
  165.137,194.62 165.255,195.924 165.373,193.477 165.491,193.063 165.609,193.585 165.727,192.753 165.845,192.076 165.963,190.948 166.08,189.042 166.198,189.901 
  166.316,187.398 166.434,187.398 166.552,187.398 166.67,187.398 166.788,187.398 166.906,187.398 167.024,187.398 167.142,187.398 167.26,187.398 167.378,187.398 
  167.496,187.398 167.614,187.398 167.732,187.398 167.85,187.398 167.968,187.398 168.086,187.398 168.204,187.398 168.322,187.398 168.439,187.398 168.557,187.398 
  168.675,187.398 168.793,187.398 168.911,187.398 169.029,182.127 169.147,180.828 169.265,181.17 169.383,180.342 169.501,176.361 169.619,178.992 169.737,176.987 
  169.855,175.445 169.973,177.176 170.091,180.497 170.209,186.879 170.327,199.093 170.445,202.77 170.563,212.998 170.68,214.63 170.798,213.756 170.916,214.505 
  171.034,195.499 171.152,188.575 171.27,170.18 171.388,161.266 171.506,158.7 171.624,156.62 171.742,156.925 171.86,148.209 171.978,159.569 172.096,157.121 
  172.214,160.993 172.332,175.45 172.45,184.965 172.568,199.551 172.686,205.674 172.804,214.106 172.921,220.775 173.039,219.632 173.157,216.283 173.275,213.095 
  173.393,207.919 173.511,204.06 173.629,200.544 173.747,196.778 173.865,197.733 173.983,195.811 174.101,196.68 174.219,197.244 174.337,195.197 174.455,195.357 
  174.573,193.492 174.691,192.734 174.809,193.657 174.927,194.443 175.045,191.743 175.163,190.997 175.28,187.398 175.398,187.398 175.516,187.398 175.634,187.398 
  175.752,187.398 175.87,187.398 175.988,187.398 176.106,187.398 176.224,187.398 176.342,187.398 176.46,187.398 176.578,187.398 176.696,187.398 176.814,187.398 
  176.932,187.398 177.05,187.398 177.168,187.398 177.286,187.398 177.404,187.398 177.521,187.398 177.639,187.398 177.757,187.398 177.875,187.398 177.993,187.398 
  178.111,187.398 178.229,181.423 178.347,180.748 178.465,181.461 178.583,180.622 178.701,177.18 178.819,178.583 178.937,176.987 179.055,176.171 179.173,178.117 
  179.291,180.461 179.409,188.203 179.527,190.939 179.645,194.211 179.762,200.173 179.88,205.177 179.998,208.462 180.116,209.617 180.234,202.142 180.352,193.072 
  180.47,188.285 180.588,180.707 180.706,174.571 180.824,173.795 180.942,179.413 181.06,180.131 181.178,181.396 181.296,174.432 181.414,177.359 181.532,182.348 
  181.65,180.86 181.768,187.281 181.886,188.863 182.004,188.579 182.121,191.444 182.239,191.038 182.357,191.333 182.475,195.703 182.593,190.052 182.711,195.254 
  182.829,195.483 182.947,192.921 183.065,195.695 183.183,192.165 183.301,192.601 183.419,190.981 183.537,190.485 183.655,189.416 183.773,190.158 183.891,187.398 
  184.009,187.398 184.127,187.398 184.245,187.398 184.362,187.398 184.48,187.398 184.598,187.398 184.716,187.398 184.834,187.398 184.952,187.398 185.07,187.398 
  185.188,187.398 185.306,187.398 185.424,187.398 185.542,187.398 185.66,187.398 185.778,187.398 185.896,187.398 186.014,187.398 186.132,187.398 186.25,187.398 
  186.368,187.398 186.486,187.398 186.603,187.398 186.721,182.85 186.839,182.955 186.957,182.567 187.075,177.507 187.193,176.489 187.311,175.241 187.429,175.812 
  187.547,178.334 187.665,178.906 187.783,188.212 187.901,198.218 188.019,213.934 188.137,220.34 188.255,225.27 188.373,225.754 188.491,210.903 188.609,191.516 
  188.727,196.178 188.845,165.499 188.962,150.938 189.08,146.084 189.198,157.302 189.316,160.28 189.434,146.995 189.552,155.147 189.67,143.616 189.788,139.586 
  189.906,148.182 190.024,179.657 190.142,195.664 190.26,198.174 190.378,203.604 190.496,202.558 190.614,223.1 190.732,230.71 190.85,237.265 190.968,241.398 
  191.086,229.742 191.203,222.638 191.321,215.104 191.439,206.937 191.557,202.315 191.675,199.787 191.793,199.446 191.911,197.675 192.029,196.168 192.147,196.444 
  192.265,195.336 192.383,192.921 192.501,193.036 192.619,190.712 192.737,191.736 192.855,190.718 192.973,187.398 193.091,187.398 193.209,187.398 193.327,187.398 
  193.444,187.398 193.562,187.398 193.68,187.398 193.798,187.398 193.916,187.398 194.034,187.398 194.152,187.398 194.27,187.398 194.388,187.398 194.506,187.398 
  194.624,187.398 194.742,187.398 194.86,187.398 194.978,187.398 195.096,187.398 195.214,187.398 195.332,187.398 195.45,187.398 195.568,187.398 195.686,187.398 
  195.803,187.398 195.921,180.771 196.039,179.77 196.157,179.465 196.275,178.937 196.393,174.262 196.511,175.116 196.629,175.004 196.747,178.604 196.865,183.001 
  196.983,192.184 197.101,201.196 197.219,210.494 197.337,218.858 197.455,211.849 197.573,214.183 197.691,215.566 197.809,200.578 197.927,186.277 198.044,168.949 
  198.162,162.027 198.28,154.655 198.398,169.128 198.516,164.761 198.634,175.627 198.752,182.208 198.87,194.054 198.988,192.447 199.106,194.023 199.224,194.638 
  199.342,193.342 199.46,195.281 199.578,198.318 199.696,197.258 199.814,194.075 199.932,198.795 200.05,195.601 200.168,195.916 200.286,197.254 200.403,196.937 
  200.521,193.419 200.639,195.569 200.757,194.817 200.875,193.777 200.993,192.684 201.111,192.623 201.229,192.833 201.347,190.497 201.465,187.398 201.583,187.398 
  201.701,187.398 201.819,187.398 201.937,187.398 202.055,187.398 202.173,187.398 202.291,187.398 202.409,187.398 202.527,187.398 202.644,187.398 202.762,187.398 
  202.88,187.398 202.998,187.398 203.116,187.398 203.234,187.398 203.352,187.398 203.47,187.398 203.588,187.398 203.706,187.398 203.824,187.398 203.942,187.398 
  204.06,187.398 204.178,187.398 204.296,187.398 204.414,187.399 204.532,181.973 204.65,178.015 204.768,176.337 204.885,174.618 205.003,172.514 205.121,173.803 
  205.239,179.548 205.357,183.756 205.475,193.893 205.593,209.695 205.711,221.785 205.829,230.815 205.947,225.23 206.065,218.669 206.183,194.533 206.301,177.097 
  206.419,170.322 206.537,160.173 206.655,155.311 206.773,160.447 206.891,161.476 207.009,149.675 207.127,164.278 207.244,157.746 207.362,154.708 207.48,163.636 
  207.598,162.415 207.716,165.243 207.834,183.865 207.952,196.345 208.07,200.352 208.188,208.46 208.306,222.911 208.424,236.74 208.542,249.061 208.66,248.204 
  208.778,238.5 208.896,225.674 209.014,218.672 209.132,210.274 209.25,204.308 209.368,201.553 209.485,198.497 209.603,198.241 209.721,195.002 209.839,196.236 
  209.957,192.797 210.075,192.217 210.193,192.496 210.311,190.865 210.429,190.487 210.547,187.398 210.665,187.398 210.783,187.398 210.901,187.398 211.019,187.398 
  211.137,187.398 211.255,187.398 211.373,187.398 211.491,187.398 211.609,187.398 211.726,187.398 211.844,187.398 211.962,187.398 212.08,187.398 212.198,187.398 
  212.316,187.398 212.434,187.398 212.552,187.398 212.67,187.398 212.788,187.398 212.906,187.398 213.024,187.398 213.142,187.398 213.26,187.398 213.378,187.398 
  213.496,181.174 213.614,180.532 213.732,177.184 213.85,176.024 213.968,171.642 214.085,174.673 214.203,173.158 214.321,181.711 214.439,193.263 214.557,204.787 
  214.675,220.153 214.793,226.665 214.911,226.33 215.029,220.233 215.147,212.368 215.265,194.005 215.383,170.404 215.501,156.295 215.619,150.164 215.737,145.986 
  215.855,144.821 215.973,148.584 216.091,159.72 216.209,146.022 216.326,145.483 216.444,174.141 216.562,186.635 216.68,191.804 216.798,200.324 216.916,210.276 
  217.034,216.626 217.152,227.027 217.27,223.027 217.388,217.815 217.506,214.708 217.624,209.769 217.742,204.699 217.86,199.853 217.978,200.994 218.096,197.566 
  218.214,196.257 218.332,195.579 218.45,195.699 218.567,193.495 218.685,192.099 218.803,192.331 218.921,191.68 219.039,190.375 219.157,187.398 219.275,187.398 
  219.393,187.398 219.511,187.398 219.629,187.398 219.747,187.398 219.865,187.398 219.983,187.398 220.101,187.398 220.219,187.398 220.337,187.398 220.455,187.398 
  220.573,187.398 220.691,187.398 220.809,187.398 220.926,187.398 221.044,187.398 221.162,187.398 221.28,187.398 221.398,187.398 221.516,187.398 221.634,187.398 
  221.752,187.398 221.87,187.398 221.988,187.398 222.106,179.959 222.224,179.345 222.342,178.736 222.46,175.889 222.578,175.104 222.696,174.707 222.814,177.587 
  222.932,183.39 223.05,194.862 223.167,207.446 223.285,224 223.403,228.696 223.521,234.195 223.639,222.701 223.757,189.559 223.875,173.054 223.993,163.95 
  224.111,163.599 224.229,166.511 224.347,172.067 224.465,163.492 224.583,169.26 224.701,189.315 224.819,189.213 224.937,154.353 225.055,134.288 225.173,148.038 
  225.291,153.615 225.408,166.093 225.526,183.917 225.644,199.474 225.762,198.264 225.88,211.813 225.998,230.262 226.116,236.405 226.234,257.2 226.352,257.218 
  226.47,247.534 226.588,234.113 226.706,220.926 226.824,212.537 226.942,202.469 227.06,197.946 227.178,199.786 227.296,198.088 227.414,196.718 227.532,197.245 
  227.65,194.362 227.767,194.546 227.885,193.088 228.003,191.766 228.121,190.825 228.239,187.398 228.357,187.398 228.475,187.398 228.593,187.398 228.711,187.398 
  228.829,187.398 228.947,187.398 229.065,187.398 229.183,187.398 229.301,187.398 229.419,187.398 229.537,187.398 229.655,187.398 229.773,187.398 229.891,187.398 
  230.008,187.398 230.126,187.398 230.244,187.398 230.362,187.398 230.48,187.398 230.598,187.398 230.716,187.398 230.834,187.398 230.952,187.398 231.07,179.625 
  231.188,179.348 231.306,178.073 231.424,174.567 231.542,173.796 231.66,175.306 231.778,178.832 231.896,186.368 232.014,197.889 232.132,208.995 232.249,233.391 
  232.367,228.983 232.485,222.202 232.603,211.72 232.721,195.055 232.839,175.478 232.957,163.897 233.075,155.632 233.193,163.218 233.311,171.63 233.429,155.002 
  233.547,149.253 233.665,141.082 233.783,156.957 233.901,143.23 234.019,158.286 234.137,168.828 234.255,176.977 234.373,193.769 234.491,193.462 234.608,205.322 
  234.726,215.335 234.844,235.398 234.962,245.802 235.08,244.91 235.198,229.102 235.316,221.233 235.434,214.339 235.552,207.113 235.67,203.055 235.788,199.166 
  235.906,198.828 236.024,196.042 236.142,195.202 236.26,197.122 236.378,193.062 236.496,192.942 236.614,193.575 236.732,190.86 236.849,187.398 236.967,187.398 
  237.085,187.398 237.203,187.398 237.321,187.398 237.439,187.398 237.557,187.398 237.675,187.398 237.793,187.398 237.911,187.398 238.029,187.398 238.147,187.398 
  238.265,187.398 238.383,187.398 238.501,187.398 238.619,187.398 238.737,187.398 238.855,187.398 238.973,187.398 239.09,187.398 239.208,187.398 239.326,187.398 
  239.444,187.398 239.562,187.398 239.68,187.399 239.798,181.016 239.916,178.24 240.034,177.081 240.152,175.173 240.27,174.234 240.388,175.326 240.506,179.74 
  240.624,190.414 240.742,196.269 240.86,214.095 240.978,219.389 241.096,227.468 241.214,225.297 241.332,215.236 241.449,184.245 241.567,172.77 241.685,160.829 
  241.803,163.932 241.921,161.526 242.039,160.445 242.157,164.848 242.275,167.576 242.393,165.914 242.511,149.748 242.629,145.767 242.747,152.732 242.865,167.137 
  242.983,173.826 243.101,187.373 243.219,201.145 243.337,203.625 243.455,214.144 243.573,233.877 243.69,247.713 243.808,254.328 243.926,247.178 244.044,234.941 
  244.162,221.943 244.28,214.32 244.398,206.816 244.516,203.094 244.634,200.899 244.752,198.975 244.87,196.728 244.988,196.666 245.106,195.988 245.224,195.254 
  245.342,191.544 245.46,191.491 245.578,190.342 245.696,187.398 245.814,187.398 245.931,187.398 246.049,187.398 246.167,187.398 246.285,187.398 246.403,187.398 
  246.521,187.398 246.639,187.398 246.757,187.398 246.875,187.398 246.993,187.398 247.111,187.398 247.229,187.398 247.347,187.398 247.465,187.398 247.583,187.398 
  247.701,187.398 247.819,187.398 247.937,187.398 248.055,187.398 248.173,187.398 248.29,187.398 248.408,187.398 248.526,187.399 248.644,180.017 248.762,180.481 
  248.88,178.792 248.998,174.608 249.116,173.668 249.234,175.125 249.352,183.459 249.47,190.852 249.588,198.402 249.706,222.01 249.824,228.706 249.942,223.804 
  250.06,221.808 250.178,204.043 250.296,179.405 250.414,167.767 250.531,164.925 250.649,161.875 250.767,158.894 250.885,160.781 251.003,154.787 251.121,162.188 
  251.239,156.195 251.357,140.509 251.475,134.48 251.593,140.364 251.711,154.687 251.829,184.315 251.947,195.421 252.065,195.44 252.183,211.411 252.301,214.339 
  252.419,231.953 252.537,243.92 252.655,253.602 252.772,249.418 252.89,235.008 253.008,223.206 253.126,213.868 253.244,204.773 253.362,202.959 253.48,198.128 
  253.598,197.804 253.716,197.767 253.834,194.296 253.952,194.017 254.07,192.375 254.188,195.357 254.306,188.81 254.424,189.851 254.542,187.398 254.66,187.398 
  254.778,187.398 254.896,187.398 255.014,187.398 255.131,187.398 255.249,187.398 255.367,187.398 255.485,187.398 255.603,187.398 255.721,187.398 255.839,187.398 
  255.957,187.398 256.075,187.398 256.193,187.398 256.311,187.398 256.429,187.398 256.547,187.398 256.665,187.398 256.783,187.398 256.901,187.398 257.019,187.398 
  257.137,187.398 257.255,187.399 257.372,179.607 257.49,179.343 257.608,175.547 257.726,175.245 257.844,173.508 257.962,172.059 258.08,177.985 258.198,186.234 
  258.316,197.065 258.434,211.545 258.552,226.035 258.67,229.589 258.788,235.174 258.906,222.305 259.024,196.613 259.142,175.146 259.26,164.425 259.378,149.16 
  259.496,156.169 259.614,153.956 259.731,160.094 259.849,156.901 259.967,158.512 260.085,163.386 260.203,142.716 260.321,138.938 260.439,161.674 260.557,169.454 
  260.675,186.631 260.793,197.617 260.911,204.306 261.029,218 261.147,228.269 261.265,235.914 261.383,247.729 261.501,245.946 261.619,234.012 261.737,222.841 
  261.855,216.586 261.972,209.307 262.09,202.366 262.208,201.192 262.326,199.805 262.444,197.065 262.562,194.912 262.68,194.252 262.798,193.75 262.916,193.44 
  263.034,193.28 263.152,192.645 263.27,190.372 263.388,187.398 263.506,187.398 263.624,187.398 263.742,187.398 263.86,187.398 263.978,187.398 264.096,187.398 
  264.213,187.398 264.331,187.398 264.449,187.398 264.567,187.398 264.685,187.398 264.803,187.398 264.921,187.398 265.039,187.398 265.157,187.398 265.275,187.398 
  265.393,187.398 265.511,187.398 265.629,187.398 265.747,187.398 265.865,187.398 265.983,187.399 266.101,181.124 266.219,178.577 266.337,179.035 266.455,177.287 
  266.572,175.16 266.69,175.531 266.808,175.195 266.926,185.193 267.044,193.906 267.162,211.453 267.28,228.795 267.398,227.116 267.516,223.844 267.634,215.864 
  267.752,192.751 267.87,178.914 267.988,168.82 268.106,156.891 268.224,160.747 268.342,160.31 268.46,156.511 268.578,167.441 268.696,175.009 268.813,161.927 
  268.931,140.551 269.049,138.108 269.167,146.492 269.285,157.32 269.403,173.776 269.521,190.927 269.639,193.538 269.757,202.995 269.875,215.905 269.993,228.508 
  270.111,241.673 270.229,251.839 270.347,252.258 270.465,242.439 270.583,227.052 270.701,217.559 270.819,210.623 270.937,204.75 271.054,200.278 271.172,198.829 
  271.29,196.092 271.408,197.253 271.526,193.655 271.644,194.662 271.762,192.601 271.88,193.673 271.998,191.388 272.116,187.398 272.234,187.398 272.352,187.398 
  272.47,187.398 272.588,187.398 272.706,187.398 272.824,187.398 272.942,187.398 273.06,187.398 273.178,187.398 273.296,187.398 273.413,187.398 273.531,187.398 
  273.649,187.398 273.767,187.398 273.885,187.398 274.003,187.398 274.121,187.398 274.239,187.398 274.357,187.398 274.475,187.398 274.593,187.398 274.711,187.398 
  274.829,187.398 274.947,182.157 275.065,180.235 275.183,179.334 275.301,177.684 275.419,175.501 275.537,175.6 275.654,175.041 275.772,179.412 275.89,182.458 
  276.008,192.127 276.126,201.218 276.244,217.254 276.362,221.094 276.48,219.219 276.598,216.954 276.716,205.267 276.834,189.693 276.952,173.172 277.07,162.916 
  277.188,154.075 277.306,145.387 277.424,153.09 277.542,149.11 277.66,149.001 277.778,152.957 277.895,164.748 278.013,175.912 278.131,186.946 278.249,197.185 
  278.367,207.396 278.485,206.549 278.603,218.624 278.721,223.371 278.839,214.436 278.957,210.122 279.075,209.302 279.193,206.34 279.311,199.445 279.429,199.183 
  279.547,197.629 279.665,196.485 279.783,196.591 279.901,195.638 280.019,196.576 280.137,194.254 280.254,194.333 280.372,190.844 280.49,192.268 280.608,190.56 
  280.726,189.922 280.844,187.398 280.962,187.398 281.08,187.398 281.198,187.398 281.316,187.398 281.434,187.398 281.552,187.398 281.67,187.398 281.788,187.398 
  281.906,187.398 282.024,187.398 282.142,187.398 282.26,187.398 282.378,187.398 282.495,187.398 282.613,187.398 282.731,187.398 282.849,187.398 282.967,187.398 
  283.085,187.398 283.203,187.398 283.321,187.398 283.439,187.398 283.557,181.685 283.675,181.939 283.793,180.17 283.911,175.997 284.029,175.909 284.147,173.37 
  284.265,171.764 284.383,178.606 284.501,183.855 284.619,193.132 284.736,204.774 284.854,220.402 284.972,223.822 285.09,220.967 285.208,216.213 285.326,197.951 
  285.444,183.053 285.562,165.894 285.68,157.811 285.798,158.094 285.916,160.416 286.034,160.299 286.152,152.93 286.27,157.942 286.388,158.078 286.506,162.456 
  286.624,138.441 286.742,153.392 286.86,168.31 286.978,167.992 287.095,173.27 287.213,201.19 287.331,210.196 287.449,220.517 287.567,228.495 287.685,239.089 
  287.803,248.674 287.921,240.514 288.039,228.136 288.157,219.75 288.275,211.421 288.393,205.735 288.511,200.388 288.629,199.322 288.747,196.03 288.865,196.076 
  288.983,194.706 289.101,195.3 289.219,194.972 289.336,192.433 289.454,194.515 289.572,190.46 289.69,188.882 289.808,187.398 289.926,187.398 290.044,187.398 
  290.162,187.398 290.28,187.398 290.398,187.398 290.516,187.398 290.634,187.398 290.752,187.398 290.87,187.398 290.988,187.398 291.106,187.398 291.224,187.398 
  291.342,187.398 291.46,187.398 291.577,187.398 291.695,187.398 291.813,187.398 291.931,187.398 292.049,187.398 292.167,187.398 292.285,187.398 292.403,187.398 
  292.521,182.91 292.639,183.12 292.757,181.402 292.875,178.739 292.993,177.782 293.111,177.089 293.229,175.826 293.347,175.9 293.465,178.645 293.583,181.064 
  293.701,191.825 293.819,197.275 293.936,210.729 294.054,212.905 294.172,210.598 294.29,207.108 294.408,209.894 294.526,188.585 294.644,177.817 294.762,154.296 
  294.88,143.19 294.998,153.273 295.116,150.79 295.234,156.497 295.352,158.417 295.47,175.453 295.588,183.176 295.706,180.497 295.824,196.385 295.942,200.295 
  296.06,210.722 296.177,204.069 296.295,200.356 296.413,190.364 296.531,197.403 296.649,197.494 296.767,194.729 296.885,193.099 297.003,194.178 297.121,196.206 
  297.239,192.88 297.357,190.368 297.475,193.311 297.593,192.257 297.711,191.379 297.829,190.613 297.947,190.305 298.065,188.674 298.183,187.857 298.301,192.708 
  298.418,186.673 298.536,185.837 298.654,187.398 298.772,187.398 298.89,187.398 299.008,187.398 299.126,187.398 299.244,187.398 299.362,187.398 299.48,187.398 
  299.598,187.398 299.716,187.398 299.834,187.398 299.952,187.398 300.07,187.398 300.188,187.398 300.306,187.398 300.424,187.398 300.542,187.398 300.66,187.398 
  300.777,187.398 300.895,179.21 301.013,182.393 301.131,181.485 301.249,180.292 301.367,176.233 301.485,177.459 301.603,174.965 301.721,175.304 301.839,174.937 
  301.957,180.187 302.075,180.243 302.193,189.084 302.311,195.689 302.429,212.797 302.547,218.253 302.665,215.552 302.783,218.063 302.901,202.962 303.018,192.821 
  303.136,177.926 303.254,167.705 303.372,160.397 303.49,159.438 303.608,146.573 303.726,155.215 303.844,148.713 303.962,149.359 304.08,150.759 304.198,155.5 
  304.316,174.256 304.434,184.415 304.552,193.043 304.67,200.827 304.788,210.178 304.906,214.394 305.024,220.581 305.142,224.644 305.259,221.849 305.377,214.656 
  305.495,209.356 305.613,209.604 305.731,202.544 305.849,198.296 305.967,198.17 306.085,196.915 306.203,195.383 306.321,194.068 306.439,196.48 306.557,194.647 
  306.675,194.075 306.793,193.298 306.911,191.785 307.029,191.88 307.147,191.741 307.265,189.043 307.383,187.398 307.501,187.398 307.618,187.398 307.736,187.398 
  307.854,187.398 307.972,187.398 308.09,187.398 308.208,187.398 308.326,187.398 308.444,187.398 308.562,187.398 308.68,187.398 308.798,187.398 308.916,187.398 
  309.034,187.398 309.152,187.398 309.27,187.398 309.388,187.398 309.506,187.398 309.624,187.398 309.742,187.398 309.859,187.398 309.977,187.398 310.095,187.398 
  310.213,182.578 310.331,181.829 310.449,181.673 310.567,181.253 310.685,175.714 310.803,176.758 310.921,175.579 311.039,178.732 311.157,177.198 311.275,178.613 
  311.393,182.683 311.511,190.141 311.629,200.319 311.747,201.416 311.865,213.102 311.983,202.792 312.1,204.455 312.218,210.976 312.336,200.112 312.454,192.565 
  312.572,185.385 312.69,184.039 312.808,174.384 312.926,183.169 313.044,174.782 313.162,177.147 313.28,181.64 313.398,179.418 313.516,179.126 313.634,180.443 
  313.752,184.513 313.87,187.697 313.988,189.135 314.106,191.202 314.224,192.465 314.342,192.394 314.459,195.851 314.577,194.385 314.695,194.627 314.813,197.383 
  314.931,194.606 315.049,194.743 315.167,194.573 315.285,194.042 315.403,193.727 315.521,192.171 315.639,193.13 315.757,190.949 315.875,191.091 315.993,189.519 
  316.111,187.398 316.229,187.398 316.347,187.398 316.465,187.398 316.583,187.398 316.7,187.398 316.818,187.398 316.936,187.398 317.054,187.398 317.172,187.398 
  317.29,187.398 317.408,187.398 317.526,187.398 317.644,187.398 317.762,187.398 317.88,187.398 317.998,187.398 318.116,187.398 318.234,187.398 318.352,187.398 
  318.47,187.398 318.588,187.398 318.706,182.876 318.824,182.023 318.942,181.23 319.059,182.465 319.177,180.006 319.295,177.565 319.413,177.591 319.531,176.579 
  319.649,175.795 319.767,179.97 319.885,181.615 320.003,187.392 320.121,198.212 320.239,204.127 320.357,205.578 320.475,214.726 320.593,210.679 320.711,211.664 
  320.829,207.78 320.947,193.869 321.065,185.872 321.183,179.009 321.3,175.024 321.418,170.751 321.536,168.068 321.654,172.9 321.772,182.153 321.89,189.852 
  322.008,192.791 322.126,192.186 322.244,193.336 322.362,192.533 322.48,190.466 322.598,190.035 322.716,191.937 322.834,190.041 322.952,191.936 323.07,189.994 
  323.188,194.041 323.306,195.51 323.424,192.306 323.541,194.174 323.659,194.083 323.777,194.484 323.895,193.155 324.013,194.695 324.131,193.735 324.249,194.024 
  324.367,193.466 324.485,191.026 324.603,193.573 324.721,189.938 324.839,189.927 324.957,187.398 325.075,187.398 325.193,187.398 325.311,187.398 325.429,187.398 
  325.547,187.398 325.665,187.398 325.783,187.398 325.9,187.398 326.018,187.398 326.136,187.398 326.254,187.398 326.372,187.398 326.49,187.398 326.608,187.398 
  326.726,187.398 326.844,187.398 326.962,187.398 327.08,187.398 327.198,187.398 327.316,187.398 327.434,187.398 327.552,187.398 327.67,187.398 327.788,187.398 
  327.906,187.399 328.024,183.929 328.141,180.151 328.259,181.897 328.377,180.712 328.495,180.53 328.613,177.954 328.731,177.503 328.849,178.529 328.967,178.905 
  329.085,180.9 329.203,180.293 329.321,185.715 329.439,191.915 329.557,191.299 329.675,198.287 329.793,198.297 329.911,199.102 330.029,198.269 330.147,189.656 
  330.265,191.507 330.382,189.658 330.5,186.645 330.618,181.58 330.736,180.495 330.854,178.595 330.972,181.486 331.09,185.597 331.208,179.911 331.326,185.448 
  331.444,190.431 331.562,186.172 331.68,191.58 331.798,192.791 331.916,193.795 332.034,194.828 332.152,194.569 332.27,192.226 332.388,196.473 332.506,194.417 
  332.624,193.787 332.741,192.29 332.859,192.952 332.977,193.852 333.095,192.508 333.213,189.941 333.331,191.593 333.449,190.798 333.567,188.8 333.685,189.779 
  333.803,187.398 333.921,187.398 334.039,187.398 334.157,187.398 334.275,187.398 334.393,187.398 334.511,187.398 334.629,187.398 334.747,187.398 334.865,187.398 
  334.982,187.398 335.1,187.398 335.218,187.398 335.336,187.398 335.454,187.398 335.572,187.398 335.69,187.398 335.808,187.398 335.926,187.398 336.044,187.398 
  336.162,187.398 336.28,187.398 336.398,184.21 336.516,184.057 336.634,181.827 336.752,178.894 336.87,180.848 336.988,180.805 337.106,179.058 337.223,176.961 
  337.341,177.763 337.459,179.192 337.577,181.924 337.695,185.253 337.813,190.32 337.931,198.42 338.049,202.083 338.167,209.064 338.285,215.239 338.403,207.434 
  338.521,207.66 338.639,203.042 338.757,191.836 338.875,186.119 338.993,176.03 339.111,171.958 339.229,163.85 339.347,172.939 339.465,178.807 339.582,183.898 
  339.7,187.389 339.818,193.705 339.936,191.911 340.054,186.329 340.172,188.964 340.29,188.057 340.408,189.284 340.526,186.467 340.644,188.082 340.762,191.782 
  340.88,192.363 340.998,192.969 341.116,191.097 341.234,195.147 341.352,193.984 341.47,194.336 341.588,194.974 341.706,194.29 341.823,192.62 341.941,193.777 
  342.059,192.398 342.177,194.248 342.295,191.976 342.413,189.593 342.531,191.035 342.649,190.72 342.767,187.398 342.885,187.398 343.003,187.398 343.121,187.398 
  343.239,187.398 343.357,187.398 343.475,187.398 343.593,187.398 343.711,187.398 343.829,187.398 343.947,187.398 344.064,187.398 344.182,187.398 344.3,187.398 
  344.418,187.398 344.536,187.398 344.654,187.398 344.772,187.398 344.89,187.398 345.008,187.398 345.126,187.398 345.244,187.398 345.362,187.398 345.48,187.399 
  345.598,184.151 345.716,179.805 345.834,182.857 345.952,181.074 346.07,180.899 346.188,182.379 346.306,180.226 346.423,179.411 346.541,177.94 346.659,179.092 
  346.777,182.489 346.895,183.731 347.013,185.711 347.131,190.909 347.249,193.718 347.367,200.308 347.485,195.223 347.603,193.378 347.721,197.009 347.839,195.281 
  347.957,195.401 348.075,191.258 348.193,191.435 348.311,180.067 348.429,181.158 348.547,184.035 348.664,179.46 348.782,185.445 348.9,187.428 349.018,187.063 
  349.136,194.159 349.254,190.655 349.372,193.138 349.49,196.547 349.608,194.626 349.726,196.724 349.844,195.442 349.962,196.53 350.08,194.631 350.198,196.84 
  350.316,195.653 350.434,195.456 350.552,195.688 350.67,192.659 350.788,193.283 350.905,193.408 351.023,192.808 351.141,190.753 351.259,191.505 351.377,193.966 
  351.495,187.398 351.613,187.398 351.731,187.398 351.849,187.398 351.967,187.398 352.085,187.398 352.203,187.398 352.321,187.398 352.439,187.398 352.557,187.398 
  352.675,187.398 352.793,187.398 352.911,187.398 353.029,187.398 353.147,187.398 353.264,187.398 353.382,187.398 353.5,187.398 353.618,187.398 353.736,187.398 
  353.854,187.398 353.972,187.398 354.09,187.399 354.208,181.829 354.326,182.295 354.444,181.34 354.562,183.014 354.68,180.765 354.798,180.732 354.916,177.704 
  355.034,177.449 355.152,176.191 355.27,178.245 355.388,183.617 355.505,184.256 355.623,190.997 355.741,194.71 355.859,197.961 355.977,201.78 356.095,200.658 
  356.213,201.193 356.331,198.327 356.449,194.784 356.567,193.709 356.685,187.303 356.803,179.394 356.921,186.533 357.039,184.3 357.157,185.083 357.275,182.245 
  357.393,177.018 357.511,177.681 357.629,179.816 357.746,183.384 357.864,181.118 357.982,188.696 358.1,191.559 358.218,189.432 358.336,192.679 358.454,195.181 
  358.572,192.716 358.69,193.528 358.808,192.462 358.926,196.185 359.044,192.336 359.162,193.341 359.28,194.635 359.398,192.961 359.516,190.393 359.634,192.566 
  359.752,192.977 359.87,191.647 359.988,192.25 360.105,191.951 360.223,189.973 360.341,187.398 360.459,187.398 360.577,187.398 360.695,187.398 360.813,187.398 
  360.931,187.398 361.049,187.398 361.167,187.398 361.285,187.398 361.403,187.398 361.521,187.398 361.639,187.398 361.757,187.398 361.875,187.398 361.993,187.398 
  362.111,187.398 362.229,187.398 362.346,187.398 362.464,187.398 362.582,187.398 362.7,187.398 362.818,187.398 362.936,187.398 363.054,187.398 363.172,187.398 
  363.29,187.398 363.408,185.198 363.526,183.828 363.644,182.619 363.762,182.86 363.88,181.991 363.998,179.825 364.116,181.605 364.234,180.709 364.352,178.803 
  364.47,179.372 364.587,179.423 364.705,185.873 364.823,186.652 364.941,187.898 365.059,191.376 365.177,195.641 365.295,193.568 365.413,193.637 365.531,192.436 
  365.649,188.936 365.767,187.854 365.885,186.345 366.003,187.733 366.121,182.462 366.239,188.009 366.357,187.182 366.475,186.816 366.593,187.451 366.711,191.32 
  366.829,190.812 366.946,190.616 367.064,193.029 367.182,191.675 367.3,194.336 367.418,192.703 367.536,193.809 367.654,194.581 367.772,193.778 367.89,195.74 
  368.008,193.765 368.126,194.219 368.244,193.747 368.362,194.13 368.48,191.599 368.598,192.447 368.716,190.889 368.834,192.056 368.952,189.981 369.07,189.294 
  369.187,187.398 369.305,187.398 369.423,187.398 369.541,187.398 369.659,187.398 369.777,187.398 369.895,187.398 370.013,187.398 370.131,187.398 370.249,187.398 
  370.367,187.398 370.485,187.398 370.603,187.398 370.721,187.398 370.839,187.398 370.957,187.398 371.075,187.398 371.193,187.398 371.311,187.398 371.429,187.398 
  371.546,187.398 371.664,183.155 371.782,183.409 371.9,184.501 372.018,181.317 372.136,181.891 372.254,180.466 372.372,179.574 372.49,176.596 372.608,178.39 
  372.726,176.739 372.844,179.592 372.962,180.514 373.08,186.307 373.198,195.412 373.316,196.587 373.434,206.55 373.552,208.293 373.67,204.369 373.787,211.109 
  373.905,204.552 374.023,192.221 374.141,187.976 374.259,178.436 374.377,169.131 374.495,166.959 374.613,165.452 374.731,163.692 374.849,168.278 374.967,185.375 
  375.085,188.046 375.203,189.752 375.321,197.647 375.439,190.855 375.557,191.202 375.675,190.397 375.793,189.616 375.911,191.454 376.028,188.342 376.146,190.386 
  376.264,192.187 376.382,193.772 376.5,194.031 376.618,195.779 376.736,196.526 376.854,191.114 376.972,193.889 377.09,194.354 377.208,192.806 377.326,191.601 
  377.444,192.917 377.562,191.927 377.68,193.525 377.798,191.531 377.916,189.009 378.034,189.578 378.152,189.294 378.27,187.398 378.387,187.398 378.505,187.398 
  378.623,187.398 378.741,187.398 378.859,187.398 378.977,187.398 379.095,187.398 379.213,187.398 379.331,187.398 379.449,187.398 379.567,187.398 379.685,187.398 
  379.803,187.398 379.921,187.398 380.039,187.398 380.157,187.398 380.275,187.398 380.393,187.398 380.511,187.398 380.628,187.398 380.746,187.398 380.864,183.324 
  380.982,183.534 381.1,184.729 381.218,182.487 381.336,181.061 381.454,182.3 381.572,180.179 381.69,177.077 381.808,178.814 381.926,178.622 382.044,180.023 
  382.162,178.75 382.28,184.622 382.398,186.261 382.516,192.37 382.634,193.241 382.752,196.702 382.869,195.033 382.987,199.221 383.105,195.644 383.223,194.938 
  383.341,194.123 383.459,185.935 383.577,183.835 383.695,181.012 383.813,182.035 383.931,177.376 384.049,179.862 384.167,182.782 384.285,188.923 384.403,185.063 
  384.521,190.058 384.639,193.163 384.757,191.273 384.875,194.055 384.993,194.447 385.111,194.328 385.228,193.227 385.346,194.831 385.464,196.928 385.582,194.016 
  385.7,195.789 385.818,192.197 385.936,194.187 386.054,192.998 386.172,193.08 386.29,192.122 386.408,191.341 386.526,188.729 386.644,190.715 386.762,191.1 
  386.88,187.398 386.998,187.398 387.116,187.398 387.234,187.398 387.352,187.398 387.469,187.398 387.587,187.398 387.705,187.398 387.823,187.398 387.941,187.398 
  388.059,187.398 388.177,187.398 388.295,187.398 388.413,187.398 388.531,187.398 388.649,187.398 388.767,187.398 388.885,187.398 389.003,187.398 389.121,187.398 
  389.239,187.398 389.357,187.399 389.475,183.596 389.593,184.803 389.71,182.027 389.828,182.354 389.946,180.255 390.064,180.471 390.182,178.104 390.3,178.46 
  390.418,179.804 390.536,180.953 390.654,179.524 390.772,183.218 390.89,187.492 391.008,189.883 391.126,201.775 391.244,204.29 391.362,204.451 391.48,204.627 
  391.598,205.493 391.716,202.785 391.834,195.346 391.952,191.728 392.069,179.394 392.187,174.488 392.305,175.778 392.423,179 392.541,186.029 392.659,184.932 
  392.777,185.574 392.895,187.276 393.013,186.262 393.131,181.868 393.249,186.578 393.367,183.494 393.485,187.318 393.603,187.1 393.721,186.647 393.839,192.613 
  393.957,193.522 394.075,193.988 394.193,192.168 394.31,192.764 394.428,191.886 394.546,194.65 394.664,193.744 394.782,195.117 394.9,191.336 395.018,191.854 
  395.136,192.981 395.254,191.999 395.372,191.159 395.49,188.604 395.608,188.171 395.726,187.398 395.844,187.398 395.962,187.398 396.08,187.398 396.198,187.398 
  396.316,187.398 396.434,187.398 396.551,187.398 396.669,187.398 396.787,187.398 396.905,187.398 397.023,187.398 397.141,187.398 397.259,187.398 397.377,187.398 
  397.495,187.398 397.613,187.398 397.731,187.398 397.849,187.398 397.967,187.398 398.085,187.398 398.203,187.398 398.321,187.398 398.439,187.398 398.557,187.399 
  398.675,182.298 398.793,182.332 398.91,183.639 399.028,181.228 399.146,181.071 399.264,178.566 399.382,179.225 399.5,178.085 399.618,177.812 399.736,179.737 
  399.854,179.797 399.972,186.916 400.09,188.322 400.208,189.998 400.326,195.912 400.444,199.885 400.562,198.853 400.68,200.246 400.798,194.411 400.916,194.119 
  401.034,191.528 401.151,192.99 401.269,186.146 401.387,179.153 401.505,172.496 401.623,175.822 401.741,176.507 401.859,177.494 401.977,180.138 402.095,184.026 
  402.213,187.421 402.331,187.66 402.449,188.847 402.567,187.807 402.685,191.054 402.803,191.441 402.921,191.97 403.039,196.827 403.157,194.353 403.275,193.236 
  403.392,193.639 403.51,193.329 403.628,191.773 403.746,192.421 403.864,192.056 403.982,191.301 404.1,187.867 404.218,190.96 404.336,189.314 404.454,187.701 
  404.572,187.398 404.69,187.398 404.808,187.398 404.926,187.398 405.044,187.398 405.162,187.398 405.28,187.398 405.398,187.398 405.516,187.398 405.634,187.398 
  405.751,187.398 405.869,187.398 405.987,187.398 406.105,187.398 406.223,187.398 406.341,187.398 406.459,187.398 406.577,187.398 406.695,187.398 406.813,187.398 
  406.931,183.967 407.049,184.777 407.167,181.399 407.285,180.933 407.403,178.135 407.521,180.717 407.639,180.323 407.757,178.34 407.875,176.825 407.992,173.612 
  408.11,179.946 408.228,182.438 408.346,185.667 408.464,193.629 408.582,199.232 408.7,205.609 408.818,212.254 408.936,211.524 409.054,210.768 409.172,204.461 
  409.29,196.1 409.408,188.136 409.526,177.857 409.644,174.354 409.762,170.217 409.88,158.854 409.998,163.268 410.116,162.333 410.233,177.441 410.351,186.923 
  410.469,197.783 410.587,185.89 410.705,190.223 410.823,190.962 410.941,187.587 411.059,185.011 411.177,187.535 411.295,185.277 411.413,188.598 411.531,194.603 
  411.649,190.74 411.767,194.059 411.885,191.424 412.003,191.826 412.121,191.171 412.239,190.906 412.357,193.509 412.475,191.525 412.592,194.066 412.71,192.626 
  412.828,191.433 412.946,191.899 413.064,189.68 413.182,187.84 413.3,192.327 413.418,188.623 413.536,186.011 413.654,187.398 413.772,187.398 413.89,187.398 
  414.008,187.398 414.126,187.398 414.244,187.398 414.362,187.398 414.48,187.398 414.598,187.398 414.716,187.398 414.833,187.398 414.951,187.398 415.069,187.398 
  415.187,187.398 415.305,187.398 415.423,187.398 415.541,187.398 415.659,187.399 415.777,183.162 415.895,183.305 416.013,182.496 416.131,181.514 416.249,179.219 
  416.367,180.92 416.485,180.463 416.603,177.686 416.721,175.785 416.839,180.931 416.957,178.227 417.074,180.374 417.192,186.558 417.31,185.113 417.428,194.567 
  417.546,202.453 417.664,205.175 417.782,207.98 417.9,208.12 418.018,204.706 418.136,206.377 418.254,199.283 418.372,197.025 418.49,192.128 418.608,184.839 
  418.726,179.649 418.844,177.055 418.962,183.277 419.08,183.438 419.198,171.198 419.316,170.013 419.433,172.873 419.551,172.036 419.669,175.95 419.787,177.78 
  419.905,180.619 420.023,183.336 420.141,187.877 420.259,191.652 420.377,191.098 420.495,193.825 420.613,193.233 420.731,194.198 420.849,194.765 420.967,196.29 
  421.085,193.697 421.203,195.1 421.321,194.1 421.439,191.201 421.557,190.532 421.674,192.802 421.792,189.701 421.91,191.765 422.028,189.438 422.146,187.907 
  422.264,187.398 422.382,187.398 422.5,187.398 422.618,187.398 422.736,187.398 422.854,187.398 422.972,187.398 423.09,187.398 423.208,187.398 423.326,187.398 
  423.444,187.398 423.562,187.398 423.68,187.398 423.798,187.398 423.915,187.398 424.033,187.398 424.151,187.398 424.269,187.398 424.387,185.209 424.505,183.752 
  424.623,183.057 424.741,183.281 424.859,181.524 424.977,181.143 425.095,179.326 425.213,176.289 425.331,176.157 425.449,175.446 425.567,181.809 425.685,181.725 
  425.803,187.241 425.921,195.293 426.039,199.312 426.157,210.446 426.274,207.593 426.392,215.7 426.51,218.819 426.628,215.146 426.746,200.465 426.864,194.554 
  426.982,183.787 427.1,173.854 427.218,163.944 427.336,163.1 427.454,162.594 427.572,157.013 427.69,173.366 427.808,185.253 427.926,193.964 428.044,192.089 
  428.162,194.088 428.28,195.627 428.398,182.139 428.515,182.1 428.633,188.231 428.751,189.599 428.869,185.839 428.987,192.059 429.105,189.057 429.223,193.18 
  429.341,193.144 429.459,193.811 429.577,193.133 429.695,193.979 429.813,193.374 429.931,194.609 430.049,192.907 430.167,192.923 430.285,190.081 430.403,191.595 
  430.521,191.553 430.639,191.495 430.757,191.657 430.874,190.795 430.992,188.136 431.11,187.398 431.228,187.398 431.346,187.398 431.464,187.398 431.582,187.398 
  431.7,187.398 431.818,187.398 431.936,187.398 432.054,187.398 432.172,187.398 432.29,187.398 432.408,187.398 432.526,187.398 432.644,187.398 432.762,187.398 
  432.88,187.398 432.998,187.398 433.115,187.398 433.233,187.398 433.351,184.239 433.469,181.908 433.587,182.9 433.705,182.025 433.823,180.905 433.941,180.6 
  434.059,180.106 434.177,177.082 434.295,176.593 434.413,176.634 434.531,175.543 434.649,178.532 434.767,185.157 434.885,190.549 435.003,192.771 435.121,203.214 
  435.239,205.948 435.356,211.358 435.474,205.431 435.592,207.475 435.71,200.678 435.828,193.577 435.946,181.53 436.064,175.804 436.182,178.125 436.3,183.559 
  436.418,175.543 436.536,181.805 436.654,179.348 436.772,166.739 436.89,167.835 437.008,173.053 437.126,173.374 437.244,177.12 437.362,183.675 437.48,185.844 
  437.598,185.555 437.715,186.397 437.833,190.772 437.951,191.509 438.069,189.474 438.187,191.239 438.305,192.636 438.423,194.066 438.541,191.624 438.659,194.119 
  438.777,192.236 438.895,193.511 439.013,190.637 439.131,189.705 439.249,189.434 439.367,190.179 439.485,189.533 439.603,187.398 439.721,187.398 439.839,187.398 
  439.956,187.398 440.074,187.398 440.192,187.398 440.31,187.398 440.428,187.398 440.546,187.398 440.664,187.398 440.782,187.398 440.9,187.398 441.018,187.398 
  441.136,187.398 441.254,187.398 441.372,187.398 441.49,187.398 441.608,187.398 441.726,187.398 441.844,187.399 441.962,183.558 442.08,183.874 442.197,181.893 
  442.315,180.529 442.433,180.356 442.551,179.502 442.669,177.541 442.787,176.682 442.905,177.758 443.023,179.287 443.141,182.379 443.259,184.865 443.377,189.838 
  443.495,200.634 443.613,209.987 443.731,210.665 443.849,212.284 443.967,212.076 444.085,215.733 444.203,196.436 444.321,195.924 444.439,191.128 444.556,181.522 
  444.674,169.326 444.792,156.968 444.91,168.889 445.028,164.018 445.146,164.97 445.264,184.423 445.382,187.019 445.5,187.795 445.618,186.887 445.736,186.985 
  445.854,188.859 445.972,187.688 446.09,189.536 446.208,184.799 446.326,185.113 446.444,185.41 446.562,189.638 446.68,192.88 446.797,191.252 446.915,188.926 
  447.033,195.069 447.151,194.153 447.269,194.507 447.387,192.575 447.505,193.92 447.623,192.035 447.741,190.504 447.859,191.414 447.977,190.628 448.095,191.107 
  448.213,191.214 448.331,190.16 448.449,187.398 448.567,187.398 448.685,187.398 448.803,187.398 448.921,187.398 449.038,187.398 449.156,187.398 449.274,187.398 
  449.392,187.398 449.51,187.398 449.628,187.398 449.746,187.398 449.864,187.398 449.982,187.398 450.1,187.398 450.218,187.398 450.336,187.398 450.454,187.398 
  450.572,187.398 450.69,187.399 450.808,182.992 450.926,182.476 451.044,181.841 451.162,182.468 451.28,179.852 451.397,179.407 451.515,176.779 451.633,178.645 
  451.751,178.4 451.869,176.239 451.987,178.3 452.105,185.422 452.223,189.755 452.341,200.309 452.459,204.283 452.577,203.2 452.695,210.175 452.813,215.051 
  452.931,214.927 453.049,190.735 453.167,187.488 453.285,193.829 453.403,180.213 453.521,167.846 453.638,170.05 453.756,173.957 453.874,178.982 453.992,176.228 
  454.11,183.091 454.228,174.341 454.346,171.687 454.464,171.906 454.582,172.351 454.7,177.386 454.818,175.505 454.936,179.073 455.054,180.537 455.172,189.163 
  455.29,189.359 455.408,189.375 455.526,191.066 455.644,192.286 455.762,192.112 455.879,191.519 455.997,192.572 456.115,191.545 456.233,191.808 456.351,191.813 
  456.469,191.603 456.587,190.793 456.705,189.433 456.823,190.236 456.941,186.975 457.059,188.287 457.177,187.398 457.295,187.398 457.413,187.398 457.531,187.398 
  457.649,187.398 457.767,187.398 457.885,187.398 458.003,187.398 458.121,187.398 458.238,187.398 458.356,187.398 458.474,187.398 458.592,187.398 458.71,187.398 
  458.828,187.398 458.946,187.398 459.064,187.398 459.182,187.399 459.3,184.122 459.418,183.522 459.536,183.299 459.654,182.45 459.772,181.311 459.89,180.733 
  460.008,177.65 460.126,176.279 460.244,177.295 460.362,177.158 460.479,179.158 460.597,183.335 460.715,186.081 460.833,197.856 460.951,202.12 461.069,205.743 
  461.187,213.3 461.305,219.181 461.423,222.598 461.541,210.275 461.659,200.764 461.777,181.306 461.895,166.764 462.013,162.43 462.131,160.426 462.249,160.768 
  462.367,160.413 462.485,168.347 462.603,173.994 462.72,187.041 462.838,185.929 462.956,200.273 463.074,190.835 463.192,187.632 463.31,184.173 463.428,183.847 
  463.546,186.778 463.664,190.905 463.782,187.935 463.9,190.652 464.018,190.458 464.136,191.853 464.254,191.913 464.372,192.548 464.49,192.077 464.608,195.593 
  464.726,196.966 464.844,193.343 464.962,194.821 465.079,194.742 465.197,193.064 465.315,193.244 465.433,191.875 465.551,190.742 465.669,190.828 465.787,189.615 
  465.905,187.398 466.023,187.398 466.141,187.398 466.259,187.398 466.377,187.398 466.495,187.398 466.613,187.398 466.731,187.398 466.849,187.398 466.967,187.398 
  467.085,187.398 467.203,187.398 467.32,187.398 467.438,187.398 467.556,187.398 467.674,187.398 467.792,187.398 467.91,187.398 468.028,187.398 468.146,185.181 
  468.264,185.459 468.382,179.857 468.5,182.414 468.618,180.742 468.736,180.547 468.854,182.649 468.972,178.263 469.09,179.36 469.208,181.569 469.326,182.218 
  469.444,180.8 469.561,185.52 469.679,191.397 469.797,197.68 469.915,207.752 470.033,206.891 470.151,211.955 470.269,209.442 470.387,211.572 470.505,209.555 
  470.623,199.311 470.741,186.749 470.859,186.233 470.977,179.757 471.095,174.92 471.213,186.954 471.331,174.763 471.449,181.416 471.567,175.731 471.685,176.891 
  471.803,173.446 471.92,177.679 472.038,180.853 472.156,184.64 472.274,189.58 472.392,191.295 472.51,196.055 472.628,197.586 472.746,194.994 472.864,196.066 
  472.982,193.434 473.1,194.745 473.218,194.898 473.336,195.286 473.454,193.538 473.572,192.396 473.69,193.631 473.808,191.278 473.926,191.29 474.044,190.85 
  474.161,189.964 474.279,188.11 474.397,187.398 474.515,187.398 474.633,187.398 474.751,187.398 474.869,187.398 474.987,187.398 475.105,187.398 475.223,187.398 
  475.341,187.398 475.459,187.398 475.577,187.398 475.695,187.398 475.813,187.398 475.931,187.398 476.049,187.398 476.167,187.398 476.285,187.398 476.402,187.398 
  476.52,187.398 476.638,187.398 476.756,187.398 476.874,187.399 476.992,185.333 477.11,181.123 477.228,181.799 477.346,181.646 477.464,179.541 477.582,181.36 
  477.7,179.661 477.818,178.023 477.936,177.917 478.054,178.397 478.172,180.192 478.29,185.74 478.408,191.199 478.526,198.794 478.644,201.341 478.761,203.042 
  478.879,208.359 478.997,213.048 479.115,206.799 479.233,205.667 479.351,197.135 479.469,189.113 479.587,191.437 479.705,183.098 479.823,183.569 479.941,178.943 
  480.059,175.405 480.177,172.293 480.295,178.179 480.413,180.324 480.531,181.884 480.649,182.623 480.767,187.778 480.885,191.529 481.002,193.759 481.12,189.745 
  481.238,193.27 481.356,193.319 481.474,196.821 481.592,194.33 481.71,193.302 481.828,192.679 481.946,194.3 482.064,191.402 482.182,191.035 482.3,193.915 
  482.418,191.453 482.536,193.024 482.654,191.122 482.772,190.474 482.89,190.006 483.008,190.067 483.126,187.398 483.244,187.398 483.361,187.398 483.479,187.398 
  483.597,187.398 483.715,187.398 483.833,187.398 483.951,187.398 484.069,187.398 484.187,187.398 484.305,187.398 484.423,187.398 484.541,187.398 484.659,187.398 
  484.777,187.398 484.895,187.398 485.013,187.398 485.131,187.398 485.249,187.398 485.367,187.398 485.485,187.398 485.602,187.398 485.72,187.399 485.838,183.535 
  485.956,184.583 486.074,181.551 486.192,181.147 486.31,178.503 486.428,178.044 486.546,178.821 486.664,178.239 486.782,178.862 486.9,180.153 487.018,186.502 
  487.136,188.358 487.254,191.376 487.372,201.249 487.49,207.759 487.608,207.797 487.726,205.749 487.843,202.898 487.961,202.613 488.079,196.705 488.197,195.408 
  488.315,187.495 488.433,183.029 488.551,178.428 488.669,172.789 488.787,174.742 488.905,175.673 489.023,171.571 489.141,176.753 489.259,185.147 489.377,182.747 
  489.495,184.417 489.613,188.751 489.731,190.671 489.849,196.894 489.967,193.133 490.085,194.284 490.202,193.449 490.32,194.484 490.438,193.407 490.556,194.206 
  490.674,192.182 490.792,192.73 490.91,192.216 491.028,192.147 491.146,192.43 491.264,191.76 491.382,191.775 491.5,189.593 491.618,190.465 491.736,187.398 
  491.854,187.398 491.972,187.398 492.09,187.398 492.208,187.398 492.326,187.398 492.443,187.398 492.561,187.398 492.679,187.398 492.797,187.398 492.915,187.398 
  493.033,187.398 493.151,187.398 493.269,187.398 493.387,187.398 493.505,187.398 493.623,187.398 493.741,187.398 493.859,187.398 493.977,187.398 494.095,187.398 
  494.213,187.398 494.331,187.399 494.449,184.03 494.567,182.135 494.684,182.431 494.802,181.111 494.92,181.595 495.038,181.276 495.156,180.231 495.274,179.793 
  495.392,179.505 495.51,179.081 495.628,182.438 495.746,186.161 495.864,190.757 495.982,193.383 496.1,195.712 496.218,200.233 496.336,208.494 496.454,202.885 
  496.572,197.699 496.69,196.768 496.808,195.273 496.926,184.168 497.043,187.083 497.161,179.046 497.279,179.201 497.397,177.374 497.515,175.048 497.633,179.162 
  497.751,181.024 497.869,180.607 497.987,185.034 498.105,185.514 498.223,189.824 498.341,189.807 498.459,190.37 498.577,192.002 498.695,193.155 498.813,193.222 
  498.931,192.6 499.049,193.797 499.167,192.997 499.284,192.731 499.402,193.955 499.52,193.83 499.638,192.46 499.756,191.848 499.874,191.564 499.992,190.664 
  500.11,190.844 500.228,189.72 500.346,189.049 500.464,187.398 500.582,187.398 500.7,187.398 500.818,187.398 500.936,187.398 501.054,187.398 501.172,187.398 
  501.29,187.398 501.408,187.398 501.525,187.398 501.643,187.398 501.761,187.398 501.879,187.398 501.997,187.398 502.115,187.398 502.233,187.398 502.351,187.398 
  502.469,187.398 502.587,187.398 502.705,187.398 502.823,187.398 502.941,187.399 503.059,183.985 503.177,180.317 503.295,183.022 503.413,182.055 503.531,181.456 
  503.649,179.556 503.767,178.948 503.884,178.37 504.002,178.278 504.12,180.164 504.238,179.473 504.356,184.82 504.474,189.589 504.592,192.155 504.71,198.988 
  504.828,207.229 504.946,208.413 505.064,206.511 505.182,199.494 505.3,200.763 505.418,197.059 505.536,186.311 505.654,181.516 505.772,180.7 505.89,183.492 
  506.008,181.617 506.125,178.012 506.243,176.168 506.361,171.463 506.479,173.066 506.597,179.428 506.715,181.399 506.833,182.253 506.951,188.652 507.069,189.292 
  507.187,191.848 507.305,192.245 507.423,192.124 507.541,194.974 507.659,193.01 507.777,192.702 507.895,193.463 508.013,192.829 508.131,192.584 508.249,192.127 
  508.366,193.625 508.484,191.258 508.602,192.205 508.72,190.562 508.838,189.245 508.956,189.337 509.074,187.398 509.192,187.398 509.31,187.398 509.428,187.398 
  509.546,187.398 509.664,187.398 509.782,187.398 509.9,187.398 510.018,187.398 510.136,187.398 510.254,187.398 510.372,187.398 510.49,187.398 510.608,187.398 
  510.725,187.398 510.843,187.398 510.961,187.398 511.079,187.398 511.197,187.398 511.315,187.398 511.433,187.398 511.551,187.398 511.669,187.398 511.787,183.551 
  511.905,184.038 512.023,182.734 512.141,182.016 512.259,179.486 512.377,181.95 512.495,180.776 512.613,179.579 512.731,178.53 512.849,177.838 512.966,179.782 
  513.084,182.499 513.202,186.881 513.32,189.285 513.438,192.981 513.556,196.015 513.674,198.3 513.792,201.58 513.91,204.483 514.028,202.643 514.146,201.602 
  514.264,192.118 514.382,186.525 514.5,185.923 514.618,176.121 514.736,175.03 514.854,174.766 514.972,181.112 515.09,176.068 515.207,179.912 515.325,181.012 
  515.443,184.869 515.561,186.707 515.679,189.887 515.797,187.566 515.915,192.955 516.033,191.828 516.151,192.721 516.269,193.586 516.387,190.914 516.505,192.777 
  516.623,193.646 516.741,191.649 516.859,193.694 516.977,193.413 517.095,193.243 517.213,190.434 517.331,191.647 517.449,191.814 517.566,190.681 517.684,189.228 
  517.802,189.224 517.92,187.398 518.038,187.398 518.156,187.398 518.274,187.398 518.392,187.398 518.51,187.398 518.628,187.398 518.746,187.398 518.864,187.398 
  518.982,187.398 519.1,187.398 519.218,187.398 519.336,187.398 519.454,187.398 519.572,187.398 519.69,187.398 519.807,187.398 519.925,187.398 520.043,187.398 
  520.161,187.398 520.279,187.399 520.397,184.723 520.515,182.474 520.633,184.269 520.751,182.121 520.869,181.645 520.987,178.342 521.105,178.195 521.223,177.829 
  521.341,180.022 521.459,179.25 521.577,178.629 521.695,183.324 521.813,185.717 521.931,190.528 522.048,193.668 522.166,198.123 522.284,204.681 522.402,212.296 
  522.52,207.791 522.638,202.212 522.756,196.59 522.874,193.542 522.992,184.887 523.11,178.519 523.228,177.937 523.346,181.031 523.464,178.647 523.582,181.878 
  523.7,171.739 523.818,177.311 523.936,178.037 524.054,181.133 524.172,182.984 524.29,188.163 524.407,186.739 524.525,189.806 524.643,190.669 524.761,197.258 
  524.879,194.166 524.997,192.533 525.115,195.565 525.233,192.511 525.351,191.118 525.469,191.807 525.587,195.458 525.705,192.784 525.823,192.264 525.941,192.936 
  526.059,192.486 526.177,191.923 526.295,189.959 526.413,188.883 526.531,187.398 526.648,187.398 526.766,187.398 526.884,187.398 527.002,187.398 527.12,187.398 
  527.238,187.398 527.356,187.398 527.474,187.398 527.592,187.398 527.71,187.398 527.828,187.398 527.946,187.398 528.064,187.398 528.182,187.398 528.3,187.398 
  528.418,187.398 528.536,187.398 528.654,187.398 528.772,187.398 528.889,187.398 529.007,187.398 529.125,187.398 529.243,184.36 529.361,182.826 529.479,181.122 
  529.597,183.053 529.715,182.364 529.833,181.61 529.951,178.882 530.069,180.302 530.187,178.047 530.305,177.154 530.423,181.074 530.541,181.179 530.659,181.656 
  530.777,185.599 530.895,188.911 531.013,195.305 531.131,195.693 531.248,196.621 531.366,199.389 531.484,194.334 531.602,196.026 531.72,191.332 531.838,185.202 
  531.956,182.093 532.074,181.613 532.192,180.825 532.31,182.709 532.428,182.504 532.546,183.251 532.664,185.215 532.782,185.781 532.9,188.84 533.018,190.181 
  533.136,190.881 533.254,192.672 533.372,191.068 533.489,190.945 533.607,195.68 533.725,193.89 533.843,193.106 533.961,192.847 534.079,193.296 534.197,191.736 
  534.315,191.658 534.433,193.384 534.551,193.222 534.669,193.043 534.787,191.696 534.905,189.473 535.023,189.508 535.141,189.355 535.259,187.398 535.377,187.398 
  535.495,187.398 535.613,187.398 535.73,187.398 535.848,187.398 535.966,187.398 536.084,187.398 536.202,187.398 536.32,187.398 536.438,187.398 536.556,187.398 
  536.674,187.398 536.792,187.398 536.91,187.398 537.028,187.398 537.146,187.398 537.264,187.398 537.382,187.398 537.5,187.398 537.618,187.398 537.736,185.238 
  537.854,185 537.972,183.745 538.089,182.505 538.207,182.019 538.325,179.593 538.443,180.022 538.561,180.061 538.679,178.184 538.797,180.286 538.915,179.074 
  539.033,181.791 539.151,184.237 539.269,189.098 539.387,196.263 539.505,193.144 539.623,206.101 539.741,201.725 539.859,197.678 539.977,203.945 540.095,198.722 
  540.213,191.966 540.33,191.054 540.448,184.552 540.566,183.387 540.684,184.07 540.802,180.595 540.92,180.439 541.038,176.642 541.156,175.762 541.274,179.29 
  541.392,178.7 541.51,181.039 541.628,186.203 541.746,187.232 541.864,189.354 541.982,189.789 542.1,191.695 542.218,191.303 542.336,192.198 542.454,193.471 
  542.572,195.249 542.689,194.317 542.807,193.09 542.925,192.056 543.043,194.605 543.161,192.477 543.279,193.802 543.397,190.676 543.515,192.515 543.633,190.836 
  543.751,191.547 543.869,190.104 543.987,189.582 544.105,187.398 544.223,187.398 544.341,187.398 544.459,187.398 544.577,187.398 544.695,187.398 544.813,187.398 
  544.93,187.398 545.048,187.398 545.166,187.398 545.284,187.398 545.402,187.398 545.52,187.398 545.638,187.398 545.756,187.398 545.874,187.398 545.992,187.398 
  546.11,187.398 546.228,187.398 546.346,187.398 546.464,187.398 546.582,187.399 546.7,184.492 546.818,181.048 546.936,183.277 547.054,182.929 547.171,182.68 
  547.289,180.355 547.407,178.072 547.525,179.876 547.643,178.715 547.761,182.149 547.879,180.107 547.997,181.484 548.115,179.313 548.233,187.75 548.351,190.034 
  548.469,192.192 548.587,192.836 548.705,198.653 548.823,193.938 548.941,197.33 549.059,193.356 549.177,193.887 549.295,187.624 549.413,184.931 549.53,186.6 
  549.648,180.909 549.766,181.837 549.884,183.311 550.002,183.106 550.12,183.842 550.238,184.667 550.356,187.493 550.474,190.591 550.592,190.401 550.71,191.153 
  550.828,193.167 550.946,194.917 551.064,195.777 551.182,191.13 551.3,193.947 551.418,193.594 551.536,191.15 551.654,192.572 551.771,190.199 551.889,193.656 
  552.007,191.624 552.125,191.768 552.243,191.695 552.361,191.213 552.479,189.837 552.597,188.575 552.715,188.502 552.833,187.398 552.951,187.398 553.069,187.398 
  553.187,187.398 553.305,187.398 553.423,187.398 553.541,187.398 553.659,187.398 553.777,187.398 553.895,187.398 554.012,187.398 554.13,187.398 554.248,187.398 
  554.366,187.398 554.484,187.398 554.602,187.398 554.72,187.398 554.838,187.398 554.956,187.399 555.074,184.85 555.192,184.199 555.31,184.845 555.428,183.546 
  555.546,183.271 555.664,181.839 555.782,180.986 555.9,180.376 556.018,179.326 556.136,177.871 556.254,179.922 556.371,180.763 556.489,183.2 556.607,184.893 
  556.725,191.801 556.843,194.703 556.961,197.706 557.079,199.341 557.197,202.592 557.315,197.853 557.433,198.767 557.551,196.006 557.669,194.705 557.787,188.488 
  557.905,186.288 558.023,179.098 558.141,179.058 558.259,181.054 558.377,183.821 558.495,181.698 558.612,179.436 558.73,177.742 558.848,177.21 558.966,178.007 
  559.084,182.686 559.202,182.694 559.32,187.587 559.438,190.052 559.556,189.071 559.674,192.408 559.792,191.726 559.91,193.753 560.028,194.092 560.146,193.119 
  560.264,193.533 560.382,194.95 560.5,193.689 560.618,193.224 560.736,191.891 560.853,192.328 560.971,191.532 561.089,191.702 561.207,190.328 561.325,188.944 
  561.443,190.031 561.561,187.398 561.679,187.398 561.797,187.398 561.915,187.398 562.033,187.398 562.151,187.398 562.269,187.398 562.387,187.398 562.505,187.398 
  562.623,187.398 562.741,187.398 562.859,187.398 562.977,187.398 563.095,187.398 563.212,187.398 563.33,187.398 563.448,187.398 563.566,187.398 563.684,187.398 
  563.802,187.398 563.92,187.398 564.038,187.398 564.156,185.892 564.274,184.469 564.392,183.044 564.51,182.302 564.628,182.066 564.746,179.388 564.864,178.747 
  564.982,181.04 565.1,179.06 565.218,179.502 565.336,180.808 565.453,180.859 565.571,180.509 565.689,182.655 565.807,186.513 565.925,187.763 566.043,188.472 
  566.161,189.965 566.279,197.256 566.397,194.825 566.515,188.898 566.633,190.637 566.751,188.309 566.869,185.317 566.987,185.167 567.105,178.928 567.223,183.558 
  567.341,186.581 567.459,183.502 567.577,185.725 567.694,184.124 567.812,190.316 567.93,188.358 568.048,189.992 568.166,190.569 568.284,190.469 568.402,191.237 
  568.52,194.467 568.638,193.634 568.756,192.491 568.874,192.637 568.992,191.468 569.11,192.373 569.228,192.08 569.346,192.297 569.464,190.926 569.582,190.539 
  569.7,190.801 569.818,191.233 569.936,191.242 570.053,190.603 570.171,189.292 570.289,187.398 570.407,187.398 570.525,187.398 570.643,187.398 570.761,187.398 
  570.879,187.398 570.997,187.398 571.115,187.398 571.233,187.398 571.351,187.398 571.469,187.398 571.587,187.398 571.705,187.398 571.823,187.398 571.941,187.398 
  572.059,187.398 572.177,187.398 572.294,187.398 572.412,187.398 572.53,187.398 572.648,185.113 572.766,184.872 572.884,182.125 573.002,182.473 573.12,181.5 
  573.238,181.812 573.356,181.757 573.474,177.256 573.592,179.894 573.71,177.427 573.828,180.753 573.946,178.125 574.064,180.982 574.182,180.738 574.3,186.917 
  574.418,192.813 574.535,197.449 574.653,200.163 574.771,199.027 574.889,198.913 575.007,199.966 575.125,192.887 575.243,198.969 575.361,199.875 575.479,186.524 
  575.597,183.711 575.715,182.858 575.833,177.116 575.951,176.01 576.069,177.484 576.187,175.133 576.305,175.67 576.423,182.772 576.541,182.722 576.659,186.06 
  576.777,186.874 576.894,190.391 577.012,188.437 577.13,191.3 577.248,191.937 577.366,192.723 577.484,189.941 577.602,194.189 577.72,193.832 577.838,193.209 
  577.956,193.823 578.074,191.461 578.192,189.226 578.31,192.228 578.428,192.171 578.546,190.662 578.664,189.919 578.782,190.833 578.9,189.313 579.018,188.979 
  579.135,187.398 579.253,187.398 579.371,187.398 579.489,187.398 579.607,187.398 579.725,187.398 579.843,187.398 579.961,187.398 580.079,187.398 580.197,187.398 
  580.315,187.398 
  "/>
</svg>
