<?xml version="1.0" encoding="utf-8"?>
<svg xmlns="http://www.w3.org/2000/svg" xmlns:xlink="http://www.w3.org/1999/xlink" width="600" height="400" viewBox="0 0 600 400">
<defs>
  <clipPath id="clip00">
    <rect x="0" y="0" width="600" height="400"/>
  </clipPath>
</defs>
<polygon clip-path="url(#clip00)" points="
0,400 600,400 600,0 0,0 
  " fill="#ffffff" fill-opacity="1"/>
<defs>
  <clipPath id="clip01">
    <rect x="120" y="0" width="421" height="400"/>
  </clipPath>
</defs>
<polygon clip-path="url(#clip00)" points="
62.5219,357.163 580.315,357.163 580.315,15.748 62.5219,15.748 
  " fill="#ffffff" fill-opacity="1"/>
<defs>
  <clipPath id="clip02">
    <rect x="62" y="15" width="518" height="342"/>
  </clipPath>
</defs>
<g clip-path="url(#clip00)">
<text style="fill:#00002d; fill-opacity:1; font-family:Arial; font-size:12; text-anchor:start;" transform="rotate(0, 33.7132, 363.095)" x="33.7132" y="363.095">10</text>
</g>
<g clip-path="url(#clip00)">
<text style="fill:#00002d; fill-opacity:1; font-family:Arial; font-size:10; text-anchor:start;" transform="rotate(0, 46.8924, 356.242)" x="46.8924" y="356.242">-</text>
</g>
<g clip-path="url(#clip00)">
<text style="fill:#00002d; fill-opacity:1; font-family:Arial; font-size:10; text-anchor:start;" transform="rotate(0, 52.5161, 356.242)" x="52.5161" y="356.242">2</text>
</g>
<g clip-path="url(#clip00)">
<text style="fill:#00002d; fill-opacity:1; font-family:Arial; font-size:12; text-anchor:start;" transform="rotate(0, 33.7132, 325.16)" x="33.7132" y="325.16">10</text>
</g>
<g clip-path="url(#clip00)">
<text style="fill:#00002d; fill-opacity:1; font-family:Arial; font-size:10; text-anchor:start;" transform="rotate(0, 46.8924, 318.307)" x="46.8924" y="318.307">-</text>
</g>
<g clip-path="url(#clip00)">
<text style="fill:#00002d; fill-opacity:1; font-family:Arial; font-size:10; text-anchor:start;" transform="rotate(0, 52.5161, 318.307)" x="52.5161" y="318.307">1</text>
</g>
<g clip-path="url(#clip00)">
<text style="fill:#00002d; fill-opacity:1; font-family:Arial; font-size:12; text-anchor:start;" transform="rotate(0, 39.3369, 287.225)" x="39.3369" y="287.225">10</text>
</g>
<g clip-path="url(#clip00)">
<text style="fill:#00002d; fill-opacity:1; font-family:Arial; font-size:10; text-anchor:start;" transform="rotate(0, 52.5161, 280.372)" x="52.5161" y="280.372">0</text>
</g>
<g clip-path="url(#clip00)">
<text style="fill:#00002d; fill-opacity:1; font-family:Arial; font-size:12; text-anchor:start;" transform="rotate(0, 39.3369, 249.29)" x="39.3369" y="249.29">10</text>
</g>
<g clip-path="url(#clip00)">
<text style="fill:#00002d; fill-opacity:1; font-family:Arial; font-size:10; text-anchor:start;" transform="rotate(0, 52.5161, 242.437)" x="52.5161" y="242.437">1</text>
</g>
<g clip-path="url(#clip00)">
<text style="fill:#00002d; fill-opacity:1; font-family:Arial; font-size:12; text-anchor:start;" transform="rotate(0, 39.3369, 211.355)" x="39.3369" y="211.355">10</text>
</g>
<g clip-path="url(#clip00)">
<text style="fill:#00002d; fill-opacity:1; font-family:Arial; font-size:10; text-anchor:start;" transform="rotate(0, 52.5161, 204.502)" x="52.5161" y="204.502">2</text>
</g>
<g clip-path="url(#clip00)">
<text style="fill:#00002d; fill-opacity:1; font-family:Arial; font-size:12; text-anchor:start;" transform="rotate(0, 39.3369, 173.42)" x="39.3369" y="173.42">10</text>
</g>
<g clip-path="url(#clip00)">
<text style="fill:#00002d; fill-opacity:1; font-family:Arial; font-size:10; text-anchor:start;" transform="rotate(0, 52.5161, 166.567)" x="52.5161" y="166.567">3</text>
</g>
<g clip-path="url(#clip00)">
<text style="fill:#00002d; fill-opacity:1; font-family:Arial; font-size:12; text-anchor:start;" transform="rotate(0, 39.3369, 135.485)" x="39.3369" y="135.485">10</text>
</g>
<g clip-path="url(#clip00)">
<text style="fill:#00002d; fill-opacity:1; font-family:Arial; font-size:10; text-anchor:start;" transform="rotate(0, 52.5161, 128.632)" x="52.5161" y="128.632">4</text>
</g>
<g clip-path="url(#clip00)">
<text style="fill:#00002d; fill-opacity:1; font-family:Arial; font-size:12; text-anchor:start;" transform="rotate(0, 39.3369, 97.55)" x="39.3369" y="97.55">10</text>
</g>
<g clip-path="url(#clip00)">
<text style="fill:#00002d; fill-opacity:1; font-family:Arial; font-size:10; text-anchor:start;" transform="rotate(0, 52.5161, 90.6974)" x="52.5161" y="90.6974">5</text>
</g>
<g clip-path="url(#clip00)">
<text style="fill:#00002d; fill-opacity:1; font-family:Arial; font-size:12; text-anchor:start;" transform="rotate(0, 39.3369, 59.6149)" x="39.3369" y="59.6149">10</text>
</g>
<g clip-path="url(#clip00)">
<text style="fill:#00002d; fill-opacity:1; font-family:Arial; font-size:10; text-anchor:start;" transform="rotate(0, 52.5161, 52.7623)" x="52.5161" y="52.7623">6</text>
</g>
<g clip-path="url(#clip00)">
<text style="fill:#00002d; fill-opacity:1; font-family:Arial; font-size:12; text-anchor:start;" transform="rotate(0, 39.3369, 21.6799)" x="39.3369" y="21.6799">10</text>
</g>
<g clip-path="url(#clip00)">
<text style="fill:#00002d; fill-opacity:1; font-family:Arial; font-size:10; text-anchor:start;" transform="rotate(0, 52.5161, 14.8273)" x="52.5161" y="14.8273">7</text>
</g>
<polyline clip-path="url(#clip00)" style="stroke:#00002d; stroke-width:0.8; stroke-opacity:1; fill:none" points="
  62.5219,357.163 62.5219,357.163 71.8252,357.163 62.5219,357.163 62.5219,345.744 67.1735,345.744 62.5219,345.744 62.5219,339.064 67.1735,339.064 62.5219,339.064 
  62.5219,334.324 67.1735,334.324 62.5219,334.324 62.5219,330.648 67.1735,330.648 62.5219,330.648 62.5219,327.644 67.1735,327.644 62.5219,327.644 62.5219,325.104 
  67.1735,325.104 62.5219,325.104 62.5219,322.904 67.1735,322.904 62.5219,322.904 62.5219,320.964 67.1735,320.964 62.5219,320.964 62.5219,319.228 67.1735,319.228 
  62.5219,319.228 71.8252,319.228 62.5219,319.228 62.5219,307.809 67.1735,307.809 62.5219,307.809 62.5219,301.129 67.1735,301.129 62.5219,301.129 
  62.5219,296.389 67.1735,296.389 62.5219,296.389 62.5219,292.713 67.1735,292.713 62.5219,292.713 62.5219,289.709 67.1735,289.709 62.5219,289.709 62.5219,287.169 
  67.1735,287.169 62.5219,287.169 62.5219,284.969 67.1735,284.969 62.5219,284.969 62.5219,283.029 67.1735,283.029 62.5219,283.029 62.5219,281.293 67.1735,281.293 
  62.5219,281.293 71.8252,281.293 62.5219,281.293 62.5219,269.874 67.1735,269.874 62.5219,269.874 62.5219,263.194 67.1735,263.194 62.5219,263.194 
  62.5219,258.454 67.1735,258.454 62.5219,258.454 62.5219,254.778 67.1735,254.778 62.5219,254.778 62.5219,251.774 67.1735,251.774 62.5219,251.774 62.5219,249.234 
  67.1735,249.234 62.5219,249.234 62.5219,247.034 67.1735,247.034 62.5219,247.034 62.5219,245.094 67.1735,245.094 62.5219,245.094 62.5219,243.358 67.1735,243.358 
  62.5219,243.358 71.8252,243.358 62.5219,243.358 62.5219,231.939 67.1735,231.939 62.5219,231.939 62.5219,225.259 67.1735,225.259 62.5219,225.259 
  62.5219,220.519 67.1735,220.519 62.5219,220.519 62.5219,216.843 67.1735,216.843 62.5219,216.843 62.5219,213.839 67.1735,213.839 62.5219,213.839 62.5219,211.299 
  67.1735,211.299 62.5219,211.299 62.5219,209.099 67.1735,209.099 62.5219,209.099 62.5219,207.159 67.1735,207.159 62.5219,207.159 62.5219,205.423 67.1735,205.423 
  62.5219,205.423 71.8252,205.423 62.5219,205.423 62.5219,194.004 67.1735,194.004 62.5219,194.004 62.5219,187.324 67.1735,187.324 62.5219,187.324 
  62.5219,182.584 67.1735,182.584 62.5219,182.584 62.5219,178.908 67.1735,178.908 62.5219,178.908 62.5219,175.904 67.1735,175.904 62.5219,175.904 62.5219,173.364 
  67.1735,173.364 62.5219,173.364 62.5219,171.164 67.1735,171.164 62.5219,171.164 62.5219,169.224 67.1735,169.224 62.5219,169.224 62.5219,167.488 67.1735,167.488 
  62.5219,167.488 71.8252,167.488 62.5219,167.488 62.5219,156.069 67.1735,156.069 62.5219,156.069 62.5219,149.388 67.1735,149.388 62.5219,149.388 
  62.5219,144.649 67.1735,144.649 62.5219,144.649 62.5219,140.973 67.1735,140.973 62.5219,140.973 62.5219,137.969 67.1735,137.969 62.5219,137.969 62.5219,135.429 
  67.1735,135.429 62.5219,135.429 62.5219,133.229 67.1735,133.229 62.5219,133.229 62.5219,131.289 67.1735,131.289 62.5219,131.289 62.5219,129.553 67.1735,129.553 
  62.5219,129.553 71.8252,129.553 62.5219,129.553 62.5219,118.133 67.1735,118.133 62.5219,118.133 62.5219,111.453 67.1735,111.453 62.5219,111.453 
  62.5219,106.714 67.1735,106.714 62.5219,106.714 62.5219,103.038 67.1735,103.038 62.5219,103.038 62.5219,100.034 67.1735,100.034 62.5219,100.034 62.5219,97.4943 
  67.1735,97.4943 62.5219,97.4943 62.5219,95.2943 67.1735,95.2943 62.5219,95.2943 62.5219,93.3539 67.1735,93.3539 62.5219,93.3539 62.5219,91.6181 67.1735,91.6181 
  62.5219,91.6181 71.8252,91.6181 62.5219,91.6181 62.5219,80.1985 67.1735,80.1985 62.5219,80.1985 62.5219,73.5185 67.1735,73.5185 62.5219,73.5185 
  62.5219,68.7789 67.1735,68.7789 62.5219,68.7789 62.5219,65.1026 67.1735,65.1026 62.5219,65.1026 62.5219,62.0989 67.1735,62.0989 62.5219,62.0989 62.5219,59.5593 
  67.1735,59.5593 62.5219,59.5593 62.5219,57.3593 67.1735,57.3593 62.5219,57.3593 62.5219,55.4189 67.1735,55.4189 62.5219,55.4189 62.5219,53.683 67.1735,53.683 
  62.5219,53.683 71.8252,53.683 62.5219,53.683 62.5219,42.2635 67.1735,42.2635 62.5219,42.2635 62.5219,35.5834 67.1735,35.5834 62.5219,35.5834 
  62.5219,30.8439 67.1735,30.8439 62.5219,30.8439 62.5219,27.1676 67.1735,27.1676 62.5219,27.1676 62.5219,24.1639 67.1735,24.1639 62.5219,24.1639 62.5219,21.6242 
  67.1735,21.6242 62.5219,21.6242 62.5219,19.4243 67.1735,19.4243 62.5219,19.4243 62.5219,17.4838 67.1735,17.4838 62.5219,17.4838 62.5219,15.748 67.1735,15.748 
  62.5219,15.748 71.8252,15.748 62.5219,15.748 
  "/>
<g clip-path="url(#clip00)">
<text style="fill:#00002d; fill-opacity:1; font-family:Arial; font-size:12; text-anchor:start;" transform="rotate(0, 59.2271, 372.528)" x="59.2271" y="372.528">0</text>
</g>
<g clip-path="url(#clip00)">
<text style="fill:#00002d; fill-opacity:1; font-family:Arial; font-size:12; text-anchor:start;" transform="rotate(0, 224.046, 372.528)" x="224.046" y="372.528">1</text>
</g>
<g clip-path="url(#clip00)">
<text style="fill:#00002d; fill-opacity:1; font-family:Arial; font-size:12; text-anchor:start;" transform="rotate(0, 388.864, 372.528)" x="388.864" y="372.528">2</text>
</g>
<g clip-path="url(#clip00)">
<text style="fill:#00002d; fill-opacity:1; font-family:Arial; font-size:12; text-anchor:start;" transform="rotate(0, 553.683, 372.528)" x="553.683" y="372.528">3</text>
</g>
<polyline clip-path="url(#clip00)" style="stroke:#00002d; stroke-width:0.8; stroke-opacity:1; fill:none" points="
  62.5219,357.163 62.5219,357.163 62.5219,347.86 62.5219,357.163 227.341,357.163 227.341,347.86 227.341,357.163 392.159,357.163 392.159,347.86 392.159,357.163 
  556.978,357.163 556.978,347.86 556.978,357.163 580.315,357.163 
  "/>
<polyline clip-path="url(#clip00)" style="stroke:#00002d; stroke-width:0.8; stroke-opacity:1; fill:none" points="
  580.315,357.163 580.315,357.163 571.012,357.163 580.315,357.163 580.315,345.744 575.663,345.744 580.315,345.744 580.315,339.064 575.663,339.064 580.315,339.064 
  580.315,334.324 575.663,334.324 580.315,334.324 580.315,330.648 575.663,330.648 580.315,330.648 580.315,327.644 575.663,327.644 580.315,327.644 580.315,325.104 
  575.663,325.104 580.315,325.104 580.315,322.904 575.663,322.904 580.315,322.904 580.315,320.964 575.663,320.964 580.315,320.964 580.315,319.228 575.663,319.228 
  580.315,319.228 571.012,319.228 580.315,319.228 580.315,307.809 575.663,307.809 580.315,307.809 580.315,301.129 575.663,301.129 580.315,301.129 
  580.315,296.389 575.663,296.389 580.315,296.389 580.315,292.713 575.663,292.713 580.315,292.713 580.315,289.709 575.663,289.709 580.315,289.709 580.315,287.169 
  575.663,287.169 580.315,287.169 580.315,284.969 575.663,284.969 580.315,284.969 580.315,283.029 575.663,283.029 580.315,283.029 580.315,281.293 575.663,281.293 
  580.315,281.293 571.012,281.293 580.315,281.293 580.315,269.874 575.663,269.874 580.315,269.874 580.315,263.194 575.663,263.194 580.315,263.194 
  580.315,258.454 575.663,258.454 580.315,258.454 580.315,254.778 575.663,254.778 580.315,254.778 580.315,251.774 575.663,251.774 580.315,251.774 580.315,249.234 
  575.663,249.234 580.315,249.234 580.315,247.034 575.663,247.034 580.315,247.034 580.315,245.094 575.663,245.094 580.315,245.094 580.315,243.358 575.663,243.358 
  580.315,243.358 571.012,243.358 580.315,243.358 580.315,231.939 575.663,231.939 580.315,231.939 580.315,225.259 575.663,225.259 580.315,225.259 
  580.315,220.519 575.663,220.519 580.315,220.519 580.315,216.843 575.663,216.843 580.315,216.843 580.315,213.839 575.663,213.839 580.315,213.839 580.315,211.299 
  575.663,211.299 580.315,211.299 580.315,209.099 575.663,209.099 580.315,209.099 580.315,207.159 575.663,207.159 580.315,207.159 580.315,205.423 575.663,205.423 
  580.315,205.423 571.012,205.423 580.315,205.423 580.315,194.004 575.663,194.004 580.315,194.004 580.315,187.324 575.663,187.324 580.315,187.324 
  580.315,182.584 575.663,182.584 580.315,182.584 580.315,178.908 575.663,178.908 580.315,178.908 580.315,175.904 575.663,175.904 580.315,175.904 580.315,173.364 
  575.663,173.364 580.315,173.364 580.315,171.164 575.663,171.164 580.315,171.164 580.315,169.224 575.663,169.224 580.315,169.224 580.315,167.488 575.663,167.488 
  580.315,167.488 571.012,167.488 580.315,167.488 580.315,156.069 575.663,156.069 580.315,156.069 580.315,149.388 575.663,149.388 580.315,149.388 
  580.315,144.649 575.663,144.649 580.315,144.649 580.315,140.973 575.663,140.973 580.315,140.973 580.315,137.969 575.663,137.969 580.315,137.969 580.315,135.429 
  575.663,135.429 580.315,135.429 580.315,133.229 575.663,133.229 580.315,133.229 580.315,131.289 575.663,131.289 580.315,131.289 580.315,129.553 575.663,129.553 
  580.315,129.553 571.012,129.553 580.315,129.553 580.315,118.133 575.663,118.133 580.315,118.133 580.315,111.453 575.663,111.453 580.315,111.453 
  580.315,106.714 575.663,106.714 580.315,106.714 580.315,103.038 575.663,103.038 580.315,103.038 580.315,100.034 575.663,100.034 580.315,100.034 580.315,97.4943 
  575.663,97.4943 580.315,97.4943 580.315,95.2943 575.663,95.2943 580.315,95.2943 580.315,93.3539 575.663,93.3539 580.315,93.3539 580.315,91.6181 575.663,91.6181 
  580.315,91.6181 571.012,91.6181 580.315,91.6181 580.315,80.1985 575.663,80.1985 580.315,80.1985 580.315,73.5185 575.663,73.5185 580.315,73.5185 
  580.315,68.7789 575.663,68.7789 580.315,68.7789 580.315,65.1026 575.663,65.1026 580.315,65.1026 580.315,62.0989 575.663,62.0989 580.315,62.0989 580.315,59.5593 
  575.663,59.5593 580.315,59.5593 580.315,57.3593 575.663,57.3593 580.315,57.3593 580.315,55.4189 575.663,55.4189 580.315,55.4189 580.315,53.683 575.663,53.683 
  580.315,53.683 571.012,53.683 580.315,53.683 580.315,42.2635 575.663,42.2635 580.315,42.2635 580.315,35.5834 575.663,35.5834 580.315,35.5834 
  580.315,30.8439 575.663,30.8439 580.315,30.8439 580.315,27.1676 575.663,27.1676 580.315,27.1676 580.315,24.1639 575.663,24.1639 580.315,24.1639 580.315,21.6242 
  575.663,21.6242 580.315,21.6242 580.315,19.4243 575.663,19.4243 580.315,19.4243 580.315,17.4838 575.663,17.4838 580.315,17.4838 580.315,15.748 575.663,15.748 
  580.315,15.748 571.012,15.748 580.315,15.748 
  "/>
<polyline clip-path="url(#clip00)" style="stroke:#00002d; stroke-width:0.8; stroke-opacity:1; fill:none" points="
  62.5219,15.748 62.5219,15.748 62.5219,25.0513 62.5219,15.748 227.341,15.748 227.341,25.0513 227.341,15.748 392.159,15.748 392.159,25.0513 392.159,15.748 
  556.978,15.748 556.978,25.0513 556.978,15.748 580.315,15.748 
  "/>
<g clip-path="url(#clip00)">
<text style="fill:#00002d; fill-opacity:1; font-family:Arial; font-size:16; text-anchor:middle;" transform="rotate(0, 321.418, 397.6)" x="321.418" y="397.6">Angular frequency</text>
</g>
<g clip-path="url(#clip00)">
<text style="fill:#00002d; fill-opacity:1; font-family:Arial; font-size:16; text-anchor:middle;" transform="rotate(-90, 14.4, 186.456)" x="14.4" y="186.456">Power</text>
</g>
<polyline clip-path="url(#clip02)" style="stroke:#0099ff; stroke-width:0.8; stroke-opacity:1; fill:none" points="
  62.5219,148.947 62.7661,124.741 63.0104,126.046 63.2546,139.547 63.4988,182.482 63.7431,178.774 63.9873,165.496 64.2316,162.851 64.4758,173.441 64.7201,167.459 
  64.9643,167.393 65.2085,171.359 65.4528,144.808 65.697,141.634 65.9413,181.443 66.1855,188.369 66.4297,203.189 66.674,207.378 66.9182,174.582 67.1625,190.759 
  67.4067,186.433 67.651,194.436 67.8952,197.872 68.1394,186.067 68.3837,166.932 68.6279,161.228 68.8722,159.171 69.1164,157.007 69.3606,169.743 69.6049,159.835 
  69.8491,143.361 70.0934,169.452 70.3376,132.764 70.5819,182.713 70.8261,177.783 71.0703,202.142 71.3146,228.469 71.5588,159.194 71.8031,200.504 72.0473,198.735 
  72.2916,183.023 72.5358,182.115 72.78,171.701 73.0243,195.515 73.2685,143.866 73.5128,171.211 73.757,156.235 74.0012,163.429 74.2455,173.188 74.4897,184.555 
  74.734,160.159 74.9782,190.877 75.2225,152.882 75.4667,170.211 75.7109,145.702 75.9552,128.06 76.1994,125.041 76.4437,108.05 76.6879,97.7539 76.9322,105.695 
  77.1764,111.083 77.4206,135.52 77.6649,155.463 77.9091,141.299 78.1534,169.047 78.3976,178.03 78.6418,162.189 78.8861,157.106 79.1303,148.074 79.3746,128.42 
  79.6188,148.818 79.8631,174.549 80.1073,175.226 80.3515,168.216 80.5958,194.628 80.84,183.107 81.0843,174.863 81.3285,152.663 81.5728,164.489 81.817,157.2 
  82.0612,152.043 82.3055,159.985 82.5497,130.532 82.794,164.832 83.0382,127.533 83.2824,118.528 83.5267,139.839 83.7709,115.47 84.0152,146.26 84.2594,140.97 
  84.5037,143.786 84.7479,156.549 84.9921,208.308 85.2364,176.712 85.4806,152.54 85.7249,170.059 85.9691,234.433 86.2133,170.117 86.4576,166.319 86.7018,151.773 
  86.9461,162.715 87.1903,153.281 87.4346,223.741 87.6788,159.672 87.923,159.658 88.1673,158.255 88.4115,194.321 88.6558,188.47 88.9,204.48 89.1443,156.382 
  89.3885,172.567 89.6327,138.025 89.877,111.569 90.1212,151.383 90.3655,121.278 90.6097,105.94 90.8539,110.041 91.0982,126.025 91.3424,119.985 91.5867,169.216 
  91.8309,151.477 92.0752,153.153 92.3194,255.137 92.5636,158.711 92.8079,199.547 93.0521,153.344 93.2964,140.102 93.5406,173.421 93.7849,179.338 94.0291,188.399 
  94.2733,149.806 94.5176,172.959 94.7618,160.643 95.0061,205.756 95.2503,144.49 95.4945,163.76 95.7388,148.252 95.983,147.717 96.2273,143.578 96.4715,139.496 
  96.7158,127.196 96.96,120.968 97.2042,110.887 97.4485,162.827 97.6927,110.272 97.937,162.525 98.1812,166.547 98.4254,130.675 98.6697,175.799 98.9139,176.569 
  99.1582,155.617 99.4024,175.955 99.6467,184.205 99.8909,217.192 100.135,150.197 100.379,174.098 100.624,144.6 100.868,162.138 101.112,237.809 101.356,180.557 
  101.601,221.043 101.845,176.243 102.089,173.194 102.333,175.059 102.578,188.159 102.822,183.601 103.066,208.937 103.31,158.812 103.555,149.459 103.799,124.65 
  104.043,163.079 104.287,126.449 104.532,155.431 104.776,131.537 105.02,136.736 105.264,119.273 105.508,174.618 105.753,155.429 105.997,162.583 106.241,165.531 
  106.485,174.06 106.73,205.173 106.974,180.213 107.218,163.831 107.462,169.406 107.707,242.01 107.951,223.319 108.195,148.969 108.439,204.854 108.684,183.865 
  108.928,215.016 109.172,161.081 109.416,211.807 109.661,159.332 109.905,145.041 110.149,184.182 110.393,137.489 110.638,129.279 110.882,138.729 111.126,128.071 
  111.37,148.655 111.615,115.819 111.859,182.855 112.103,190.96 112.347,128.69 112.591,181.35 112.836,155.501 113.08,163.267 113.324,188.558 113.568,181.88 
  113.813,187.658 114.057,155.149 114.301,240.006 114.545,194.547 114.79,217.835 115.034,159.542 115.278,172.183 115.522,203.666 115.767,165.482 116.011,191.796 
  116.255,172.195 116.499,168.344 116.744,249.601 116.988,164.735 117.232,150.609 117.476,175.935 117.721,141.996 117.965,196.555 118.209,157.891 118.453,132.747 
  118.698,186.636 118.942,133.159 119.186,128.76 119.43,153.575 119.675,151.852 119.919,149.557 120.163,161.892 120.407,158.035 120.651,167.187 120.896,206.654 
  121.14,161.988 121.384,146.508 121.628,200.324 121.873,205.073 122.117,160.769 122.361,167.48 122.605,170.187 122.85,241.819 123.094,223.397 123.338,160.56 
  123.582,155.743 123.827,140.723 124.071,158.617 124.315,147.641 124.559,152.742 124.804,263.24 125.048,145.085 125.292,142.612 125.536,135.548 125.781,144.881 
  126.025,167.822 126.269,136.796 126.513,171.624 126.758,163.58 127.002,154.531 127.246,187.84 127.49,186.012 127.734,201.395 127.979,174.69 128.223,172.93 
  128.467,150.977 128.711,261.441 128.956,161.034 129.2,166.16 129.444,194.746 129.688,174.084 129.933,211.482 130.177,155.075 130.421,148.279 130.665,197.207 
  130.91,127.366 131.154,129.286 131.398,164.305 131.642,139.662 131.887,176.299 132.131,152.519 132.375,135.683 132.619,154.299 132.864,126.409 133.108,126.519 
  133.352,132.852 133.596,135.613 133.841,167.603 134.085,145.42 134.329,142.861 134.573,149.061 134.818,168.942 135.062,168.098 135.306,145.302 135.55,188.858 
  135.794,162.473 136.039,185.551 136.283,173.358 136.527,156.33 136.771,172.244 137.016,182.572 137.26,158.047 137.504,151.64 137.748,164.946 137.993,149.745 
  138.237,144.029 138.481,159.264 138.725,154.96 138.97,165.715 139.214,183.16 139.458,136.666 139.702,138.333 139.947,218.011 140.191,138.586 140.435,223.618 
  140.679,217.787 140.924,148.327 141.168,189.183 141.412,152.663 141.656,227.417 141.901,176.229 142.145,161.154 142.389,165.743 142.633,174.755 142.877,154.089 
  143.122,165.241 143.366,155.185 143.61,173.673 143.854,162.28 144.099,154.408 144.343,147.49 144.587,143.631 144.831,119.657 145.076,143.778 145.32,168.242 
  145.564,127.908 145.808,161.312 146.053,173.59 146.297,114.017 146.541,137.278 146.785,150.568 147.03,119.683 147.274,129.009 147.518,129.679 147.762,151.182 
  148.007,151.833 148.251,141.308 148.495,152.013 148.739,153.361 148.984,167.522 149.228,162.241 149.472,181.018 149.716,158.264 149.961,190.748 150.205,197.156 
  150.449,159.536 150.693,165.779 150.937,180.91 151.182,159.759 151.426,143.071 151.67,271.508 151.914,155.029 152.159,137.011 152.403,192.789 152.647,153.567 
  152.891,175.75 153.136,165.378 153.38,168.354 153.624,133.643 153.868,166.609 154.113,144.417 154.357,175.514 154.601,187.868 154.845,164.294 155.09,206.764 
  155.334,158.361 155.578,198.083 155.822,153.12 156.067,159.249 156.311,188.435 156.555,161.416 156.799,162.59 157.044,158.337 157.288,160.126 157.532,191.874 
  157.776,143.523 158.021,166.173 158.265,177.548 158.509,147.168 158.753,155.768 158.997,173.96 159.242,147 159.486,148.641 159.73,151.981 159.974,163.782 
  160.219,153.125 160.463,126.739 160.707,164.67 160.951,135.329 161.196,140.263 161.44,141.885 161.684,147.246 161.928,169.743 162.173,163.302 162.417,182.132 
  162.661,168.48 162.905,150.571 163.15,171.173 163.394,169.053 163.638,180.075 163.882,167.804 164.127,212.277 164.371,175.68 164.615,192.237 164.859,152.517 
  165.104,162.811 165.348,144.696 165.592,175.657 165.836,161.065 166.08,160.848 166.325,161.923 166.569,224.162 166.813,172.335 167.057,198.888 167.302,170.962 
  167.546,146.64 167.79,185.901 168.034,168.465 168.279,174.29 168.523,179.872 168.767,197.25 169.011,198.871 169.256,171.908 169.5,171.604 169.744,159.051 
  169.988,158.681 170.233,185.576 170.477,184.548 170.721,181.506 170.965,169.675 171.21,199.222 171.454,164.357 171.698,150.27 171.942,156.832 172.187,171.353 
  172.431,172.419 172.675,156.14 172.919,147.344 173.164,167.209 173.408,218.154 173.652,169.53 173.896,161.481 174.14,207.073 174.385,164.966 174.629,157.351 
  174.873,158.608 175.117,154.323 175.362,167.404 175.606,163.549 175.85,172.034 176.094,186.261 176.339,183.187 176.583,161.791 176.827,157.247 177.071,181.521 
  177.316,166.702 177.56,217.309 177.804,172.378 178.048,188.052 178.293,176.511 178.537,178.773 178.781,157.788 179.025,157.987 179.27,170.626 179.514,166.511 
  179.758,180.461 180.002,188.389 180.247,144.896 180.491,164.783 180.735,176.382 180.979,209.652 181.223,170.436 181.468,167.271 181.712,193.155 181.956,226.213 
  182.2,183.228 182.445,168.443 182.689,186.828 182.933,224.679 183.177,181.431 183.422,184.695 183.666,173.311 183.91,174.663 184.154,168.51 184.399,175.935 
  184.643,172.692 184.887,191.941 185.131,188.423 185.376,163.591 185.62,171.979 185.864,164.014 186.108,178.964 186.353,192.506 186.597,133.367 186.841,142.794 
  187.085,239.548 187.33,171.071 187.574,219.177 187.818,152.831 188.062,148.728 188.307,158.77 188.551,173.039 188.795,172.511 189.039,158.035 189.283,186.393 
  189.528,166.448 189.772,166.346 190.016,172.662 190.26,169.406 190.505,167.59 190.749,172.096 190.993,223.79 191.237,157.019 191.482,205.79 191.726,155.979 
  191.97,175.834 192.214,184.48 192.459,232.531 192.703,176.151 192.947,150.571 193.191,196.819 193.436,180.879 193.68,180.025 193.924,170.638 194.168,159.376 
  194.413,248.66 194.657,178.03 194.901,207.998 195.145,185.983 195.39,168.364 195.634,161.405 195.878,209.142 196.122,175.435 196.367,201.279 196.611,200.037 
  196.855,213.47 197.099,228.896 197.343,164.585 197.588,201.039 197.832,168.152 198.076,176.177 198.32,180.507 198.565,150.926 198.809,163.865 199.053,189.062 
  199.297,160.82 199.542,171.221 199.786,155.593 200.03,189.413 200.274,170.131 200.519,141.639 200.763,176.08 201.007,165.679 201.251,171.052 201.496,143.992 
  201.74,133.89 201.984,147.164 202.228,179.007 202.473,163.16 202.717,164.397 202.961,154.327 203.205,162.212 203.45,155.406 203.694,159.172 203.938,170.237 
  204.182,158.625 204.426,286.51 204.671,173.78 204.915,178.868 205.159,169.112 205.403,210.648 205.648,153.694 205.892,168.54 206.136,147.949 206.38,165.744 
  206.625,170.479 206.869,156.045 207.113,190.487 207.357,155.541 207.602,187.973 207.846,179.726 208.09,184.461 208.334,170.717 208.579,175.558 208.823,164.49 
  209.067,171.378 209.311,158.366 209.556,183.046 209.8,218.502 210.044,194.049 210.288,191.5 210.533,207.646 210.777,185.382 211.021,195.49 211.265,208.89 
  211.51,194.346 211.754,176.664 211.998,190.375 212.242,239.311 212.486,146.116 212.731,161.266 212.975,178.352 213.219,165.205 213.463,184.586 213.708,187.189 
  213.952,159.674 214.196,172.011 214.44,185.812 214.685,164.46 214.929,155.392 215.173,176.586 215.417,143.215 215.662,161.178 215.906,184.694 216.15,209.489 
  216.394,202.561 216.639,151.373 216.883,164.224 217.127,171.593 217.371,173.608 217.616,173.852 217.86,179.363 218.104,177.991 218.348,226.219 218.593,166.628 
  218.837,186.709 219.081,179.767 219.325,236.527 219.569,194.839 219.814,184.413 220.058,158.039 220.302,166.26 220.546,186.268 220.791,170.291 221.035,179.045 
  221.279,176.274 221.523,179.767 221.768,172.121 222.012,196.774 222.256,195.94 222.5,192.436 222.745,156.752 222.989,177.021 223.233,187.255 223.477,172.739 
  223.722,230.733 223.966,214.409 224.21,191.846 224.454,177.416 224.699,197.029 224.943,189.096 225.187,203.937 225.431,183.65 225.676,214.529 225.92,191.854 
  226.164,198.564 226.408,164.281 226.653,201.487 226.897,197.815 227.141,196.7 227.385,176.01 227.629,172.028 227.874,175.44 228.118,196.804 228.362,166.236 
  228.606,173.402 228.851,213.612 229.095,200.163 229.339,196.392 229.583,200.258 229.828,162.527 230.072,183.58 230.316,187.68 230.56,177.605 230.805,181.654 
  231.049,197.184 231.293,191.141 231.537,186.717 231.782,175.492 232.026,195.509 232.27,232.623 232.514,185.058 232.759,216.307 233.003,185.24 233.247,184.323 
  233.491,176.561 233.736,212.434 233.98,182.18 234.224,214.965 234.468,206.678 234.712,186.378 234.957,171.884 235.201,193.007 235.445,212.222 235.689,195.143 
  235.934,191.103 236.178,201.167 236.422,212.601 236.666,193.803 236.911,199.024 237.155,165.601 237.399,186.074 237.643,185.579 237.888,243.05 238.132,200.717 
  238.376,187.99 238.62,209.657 238.865,174.696 239.109,201.649 239.353,201.478 239.597,167.227 239.842,208.696 240.086,226.327 240.33,187.139 240.574,178.849 
  240.819,168.189 241.063,202.525 241.307,170.829 241.551,183.365 241.796,220.964 242.04,135.962 242.284,131.444 242.528,147.663 242.772,190.009 243.017,151.641 
  243.261,174.345 243.505,157.948 243.749,149.878 243.994,171.312 244.238,174.38 244.482,220.955 244.726,205.783 244.971,176.836 245.215,183.696 245.459,178.506 
  245.703,162.481 245.948,188.114 246.192,207.439 246.436,208.846 246.68,202.152 246.925,230.659 247.169,165.803 247.413,205.211 247.657,205.815 247.902,235.129 
  248.146,176.943 248.39,173.186 248.634,169.907 248.879,184.327 249.123,179.792 249.367,223.563 249.611,183.078 249.856,213.333 250.1,192.484 250.344,194.493 
  250.588,191.577 250.832,187.635 251.077,183.529 251.321,202.234 251.565,201.704 251.809,228.695 252.054,174.808 252.298,181.716 252.542,219.983 252.786,173.538 
  253.031,224.464 253.275,179.519 253.519,175.351 253.763,175.755 254.008,218.382 254.252,187.45 254.496,177.55 254.74,167.206 254.985,199.597 255.229,183.738 
  255.473,195.136 255.717,168.846 255.962,134.146 256.206,132.96 256.45,155.739 256.694,168.844 256.939,150.529 257.183,149.742 257.427,144.965 257.671,145.955 
  257.915,198.808 258.16,166.854 258.404,249.343 258.648,192.726 258.892,169.054 259.137,172.301 259.381,161.471 259.625,160.335 259.869,173.079 260.114,214.425 
  260.358,181.888 260.602,193.592 260.846,173.985 261.091,183.248 261.335,190.266 261.579,169.183 261.823,172.24 262.068,190.389 262.312,184.159 262.556,178.669 
  262.8,179.797 263.045,225.319 263.289,235.667 263.533,172.938 263.777,192.669 264.022,193.888 264.266,193.246 264.51,196.674 264.754,192.379 264.999,210.823 
  265.243,189.34 265.487,196.002 265.731,226.306 265.975,226.124 266.22,209.126 266.464,189.877 266.708,194.225 266.952,186.242 267.197,174.867 267.441,196.2 
  267.685,180.725 267.929,209.961 268.174,192.682 268.418,212.504 268.662,179.607 268.906,193.264 269.151,213.959 269.395,196.913 269.639,190.712 269.883,156.738 
  270.128,165.304 270.372,245.308 270.616,173.094 270.86,158.626 271.105,157.971 271.349,181.531 271.593,185.801 271.837,182.736 272.082,196.846 272.326,249.488 
  272.57,179.548 272.814,165.874 273.058,165.311 273.303,187.688 273.547,188.76 273.791,175.976 274.035,211.573 274.28,187.999 274.524,182.936 274.768,176.441 
  275.012,192.223 275.257,184.666 275.501,158.948 275.745,169.352 275.989,192.049 276.234,195.434 276.478,190.525 276.722,167.255 276.966,226.149 277.211,205.288 
  277.455,213.577 277.699,211.328 277.943,176.811 278.188,210.555 278.432,195.383 278.676,187.753 278.92,224.169 279.165,219.849 279.409,176.739 279.653,193.661 
  279.897,195.339 280.142,179.016 280.386,191.116 280.63,195.005 280.874,183.408 281.118,187.724 281.363,210.844 281.607,193.753 281.851,179.44 282.095,183.376 
  282.34,201.84 282.584,176.848 282.828,170.179 283.072,200.694 283.317,200.544 283.561,179.03 283.805,208.508 284.049,227.877 284.294,178.468 284.538,180.865 
  284.782,191.023 285.026,199.529 285.271,201.995 285.515,184.317 285.759,205.109 286.003,180.1 286.248,200.599 286.492,195.6 286.736,193.905 286.98,196.486 
  287.225,200.182 287.469,190.025 287.713,191.312 287.957,214.385 288.202,193.896 288.446,197.3 288.69,212.197 288.934,207.425 289.178,189.419 289.423,184.749 
  289.667,212.526 289.911,181.163 290.155,167.783 290.4,180.541 290.644,210.58 290.888,175.997 291.132,195.288 291.377,219.483 291.621,189.765 291.865,197.565 
  292.109,186.573 292.354,222.081 292.598,210.759 292.842,199.452 293.086,206.219 293.331,207.444 293.575,197.391 293.819,226.729 294.063,217.584 294.308,206.338 
  294.552,198.515 294.796,208.497 295.04,198.947 295.285,204.94 295.529,196.714 295.773,183.192 296.017,186.093 296.261,176.238 296.506,172.547 296.75,227.15 
  296.994,215.749 297.238,206.121 297.483,185.321 297.727,158.305 297.971,199.144 298.215,173.909 298.46,177.963 298.704,174.516 298.948,187.057 299.192,159.277 
  299.437,190.634 299.681,164.436 299.925,234.295 300.169,184.488 300.414,200.894 300.658,250.475 300.902,179.84 301.146,180.202 301.391,184.863 301.635,196.579 
  301.879,181.324 302.123,189.199 302.368,221.34 302.612,188.185 302.856,167.407 303.1,200.518 303.345,183.731 303.589,200.107 303.833,181.338 304.077,204.352 
  304.321,206.291 304.566,175.615 304.81,181.067 305.054,190.75 305.298,201.718 305.543,224.513 305.787,163.73 306.031,177.082 306.275,177.321 306.52,222.59 
  306.764,212.708 307.008,200.776 307.252,216.16 307.497,184.758 307.741,187.266 307.985,212.044 308.229,206.239 308.474,193.08 308.718,189.369 308.962,252.849 
  309.206,184.402 309.451,186.374 309.695,180.615 309.939,162.815 310.183,182.49 310.428,193.185 310.672,167.112 310.916,197.214 311.16,199.265 311.404,159.111 
  311.649,157.577 311.893,161.759 312.137,181.211 312.381,151.577 312.626,167.264 312.87,153.98 313.114,148.196 313.358,174.263 313.603,156.662 313.847,177.943 
  314.091,177.705 314.335,201.134 314.58,228.031 314.824,158.941 315.068,172.009 315.312,191.172 315.557,198.142 315.801,195.351 316.045,176.162 316.289,166.247 
  316.534,161.293 316.778,175.278 317.022,185.468 317.266,209.97 317.511,180.199 317.755,200.251 317.999,174.983 318.243,194.208 318.488,216.051 318.732,195.184 
  318.976,190.325 319.22,192.229 319.464,180.625 319.709,180.247 319.953,198.051 320.197,194.718 320.441,249.519 320.686,192.759 320.93,195.423 321.174,186.749 
  321.418,184.778 321.663,264.456 321.907,221.523 322.151,233.564 322.395,197.355 322.64,184.314 322.884,202.618 323.128,193.818 323.372,179.661 323.617,195.37 
  323.861,185.567 324.105,205.526 324.349,173.658 324.594,215.786 324.838,192.943 325.082,226.949 325.326,180.027 325.571,191.655 325.815,182.837 326.059,216.875 
  326.303,139.486 326.547,167.675 326.792,164.906 327.036,165.266 327.28,209.976 327.524,185.479 327.769,232.353 328.013,171.652 328.257,189.448 328.501,197.604 
  328.746,154.495 328.99,180.701 329.234,171.217 329.478,177.719 329.723,231.446 329.967,201.183 330.211,177.635 330.455,172.649 330.7,177.222 330.944,174.921 
  331.188,179.611 331.432,196.233 331.677,200.498 331.921,184.53 332.165,208.171 332.409,178.032 332.654,213.244 332.898,177.701 333.142,186.961 333.386,197.319 
  333.631,194.925 333.875,205.781 334.119,236.877 334.363,212.414 334.607,219.179 334.852,182.316 335.096,170.753 335.34,214.645 335.584,184.011 335.829,218.37 
  336.073,208.164 336.317,198.875 336.561,193.254 336.806,235.413 337.05,200.775 337.294,220.101 337.538,193.462 337.783,197.156 338.027,217.995 338.271,169.542 
  338.515,210.851 338.76,231.633 339.004,198.095 339.248,235.843 339.492,214.54 339.737,173.35 339.981,259.688 340.225,158.52 340.469,184.942 340.714,190.144 
  340.958,203.13 341.202,204.457 341.446,198.631 341.691,158.819 341.935,182.967 342.179,171.419 342.423,180.192 342.667,205.524 342.912,175.14 343.156,173.61 
  343.4,200.6 343.644,198.762 343.889,208.593 344.133,255.43 344.377,180.807 344.621,195.696 344.866,187.225 345.11,170.086 345.354,224.11 345.598,178.95 
  345.843,237.116 346.087,209.738 346.331,221.571 346.575,198.399 346.82,205.125 347.064,185.282 347.308,217.319 347.552,193.664 347.797,196.26 348.041,199.93 
  348.285,214.55 348.529,198.029 348.774,182.453 349.018,189.816 349.262,223.216 349.506,182.584 349.75,226.238 349.995,231.821 350.239,193.12 350.483,202.909 
  350.727,215.312 350.972,192.543 351.216,215.844 351.46,238.575 351.704,183.372 351.949,186.848 352.193,199.994 352.437,176.258 352.681,216.06 352.926,165.456 
  353.17,176.059 353.414,171.246 353.658,185.811 353.903,239.581 354.147,184.53 354.391,202.125 354.635,171.029 354.88,199.437 355.124,206.976 355.368,183.012 
  355.612,152.806 355.857,186.834 356.101,236.606 356.345,219.945 356.589,176.921 356.834,177.194 357.078,200.244 357.322,230.036 357.566,188.577 357.81,182.136 
  358.055,197.707 358.299,206.702 358.543,212.671 358.787,200.399 359.032,175.354 359.276,204.693 359.52,226.936 359.764,222.874 360.009,220.369 360.253,177.639 
  360.497,177.916 360.741,180.441 360.986,241.898 361.23,187.557 361.474,186.689 361.718,179.662 361.963,275.219 362.207,238.595 362.451,215.535 362.695,192.29 
  362.94,219.672 363.184,226.502 363.428,219.288 363.672,258.55 363.917,207.139 364.161,195.815 364.405,195.387 364.649,188.696 364.893,181.978 365.138,183.203 
  365.382,181.85 365.626,172.803 365.87,183.696 366.115,180.718 366.359,198.387 366.603,223.374 366.847,157.389 367.092,174.822 367.336,237.055 367.58,214.063 
  367.824,164.646 368.069,214.354 368.313,172.77 368.557,152.955 368.801,168.725 369.046,166.807 369.29,179.961 369.534,166.72 369.778,189.232 370.023,204.736 
  370.267,233.052 370.511,205.095 370.755,177.088 371,187.061 371.244,203.63 371.488,185.048 371.732,180.787 371.977,174.739 372.221,170.597 372.465,184.81 
  372.709,218.394 372.953,209.936 373.198,218.024 373.442,188.244 373.686,212.045 373.93,211.332 374.175,193.303 374.419,165.123 374.663,206.115 374.907,214.621 
  375.152,179.441 375.396,208.487 375.64,190.594 375.884,210.715 376.129,204.553 376.373,185.32 376.617,211.986 376.861,214.687 377.106,219.691 377.35,236.368 
  377.594,194.273 377.838,212.639 378.083,193.494 378.327,177.384 378.571,219.073 378.815,177.06 379.06,214.719 379.304,186.849 379.548,201.205 379.792,203.568 
  380.037,180.676 380.281,243.191 380.525,204.074 380.769,186.357 381.013,192.083 381.258,196.919 381.502,161.156 381.746,166.466 381.99,161.671 382.235,168.501 
  382.479,158.858 382.723,198.09 382.967,188.907 383.212,218.658 383.456,193.837 383.7,207.352 383.944,189.901 384.189,179.82 384.433,213.036 384.677,212.825 
  384.921,202.075 385.166,181.352 385.41,191.023 385.654,215.736 385.898,202.967 386.143,175.878 386.387,184.11 386.631,182.677 386.875,205.453 387.12,215.454 
  387.364,189.277 387.608,223.011 387.852,208.59 388.096,194.126 388.341,199.131 388.585,214.6 388.829,250.253 389.073,219.187 389.318,207.61 389.562,223.957 
  389.806,189.815 390.05,213.447 390.295,169.538 390.539,203.627 390.783,193.49 391.027,222.242 391.272,194.534 391.516,207.469 391.76,198.791 392.004,215.212 
  392.249,246.388 392.493,185.42 392.737,189.052 392.981,211.173 393.226,184.232 393.47,207.564 393.714,172.268 393.958,179.219 394.203,207.048 394.447,217.775 
  394.691,298.292 394.935,205.892 395.18,196.6 395.424,167.723 395.668,199.284 395.912,174.855 396.156,194.54 396.401,178.139 396.645,206.264 396.889,262.688 
  397.133,217.577 397.378,204.204 397.622,191.707 397.866,215.015 398.11,204.761 398.355,219.682 398.599,233.235 398.843,194.585 399.087,240.812 399.332,182.637 
  399.576,192.604 399.82,197.57 400.064,210.099 400.309,224.063 400.553,204.153 400.797,182.74 401.041,224.218 401.286,192.452 401.53,210.313 401.774,183.389 
  402.018,196.732 402.263,211.518 402.507,207.436 402.751,203.378 402.995,175.98 403.239,232.321 403.484,201.411 403.728,250.13 403.972,203.567 404.216,175.319 
  404.461,240.683 404.705,187.621 404.949,217.071 405.193,193.339 405.438,223.162 405.682,190.029 405.926,200.874 406.17,212.975 406.415,221.917 406.659,194.975 
  406.903,201.931 407.147,176.17 407.392,187.648 407.636,191.227 407.88,199.628 408.124,194.831 408.369,188.859 408.613,179.186 408.857,192.883 409.101,199.647 
  409.346,203.39 409.59,170.706 409.834,198.433 410.078,175.249 410.323,184.212 410.567,195.671 410.811,217.234 411.055,182.801 411.299,197.49 411.544,190.376 
  411.788,216.409 412.032,198.858 412.276,238.585 412.521,180.553 412.765,241.234 413.009,180.766 413.253,214.482 413.498,187.237 413.742,204.571 413.986,201.119 
  414.23,174.317 414.475,222.778 414.719,188.902 414.963,198.276 415.207,178.15 415.452,254.147 415.696,175.659 415.94,195.628 416.184,186.607 416.429,199.738 
  416.673,210.721 416.917,196.444 417.161,201.357 417.406,199.213 417.65,190.093 417.894,182.111 418.138,174.936 418.382,227.169 418.627,183.528 418.871,182.894 
  419.115,190.263 419.359,200.72 419.604,204.549 419.848,199.313 420.092,191.421 420.336,190.265 420.581,194.041 420.825,172.646 421.069,182.075 421.313,204.908 
  421.558,169.45 421.802,200.105 422.046,173.464 422.29,165.258 422.535,172.899 422.779,191.521 423.023,200.177 423.267,172.081 423.512,180.756 423.756,200.967 
  424,182.851 424.244,182.694 424.489,188.939 424.733,216.862 424.977,196.1 425.221,195.704 425.466,214.222 425.71,199.229 425.954,202.912 426.198,175.937 
  426.442,177.279 426.687,211.479 426.931,178.411 427.175,180.375 427.419,192.11 427.664,228.8 427.908,197.164 428.152,165.114 428.396,198.928 428.641,215.979 
  428.885,202.482 429.129,185.45 429.373,203.776 429.618,188.468 429.862,198.572 430.106,187.782 430.35,204.957 430.595,210.763 430.839,178.997 431.083,199.798 
  431.327,192.961 431.572,202.089 431.816,194.941 432.06,204.907 432.304,239.751 432.549,178.4 432.793,197.421 433.037,193.693 433.281,181.254 433.526,228.678 
  433.77,219.813 434.014,229.843 434.258,191.164 434.502,181.037 434.747,181.63 434.991,204.688 435.235,212.572 435.479,198.602 435.724,195.439 435.968,173.499 
  436.212,181.917 436.456,233.806 436.701,185.534 436.945,215.036 437.189,178.834 437.433,211.103 437.678,188.256 437.922,205.615 438.166,195.632 438.41,217.301 
  438.655,230.662 438.899,187.909 439.143,190.699 439.387,228.127 439.632,199.681 439.876,201.058 440.12,184.413 440.364,195.779 440.609,203.214 440.853,205.551 
  441.097,182.209 441.341,196.355 441.585,237.189 441.83,184.772 442.074,180.101 442.318,193.706 442.562,183.135 442.807,226.783 443.051,204.48 443.295,201.726 
  443.539,190.009 443.784,198.693 444.028,222.997 444.272,200.981 444.516,204.683 444.761,212.974 445.005,200.414 445.249,186.52 445.493,228.295 445.738,197.348 
  445.982,181.324 446.226,224.595 446.47,191.076 446.715,241.034 446.959,208.929 447.203,211.088 447.447,201.817 447.692,257.842 447.936,182.274 448.18,191.02 
  448.424,183.65 448.669,178.995 448.913,191.084 449.157,217.389 449.401,228.084 449.645,215.884 449.89,181.174 450.134,241.885 450.378,248.877 450.622,183.774 
  450.867,200.152 451.111,225.005 451.355,198.789 451.599,206.207 451.844,211.019 452.088,224.116 452.332,192.98 452.576,186.039 452.821,185.827 453.065,215.19 
  453.309,219.204 453.553,181.074 453.798,194.861 454.042,232.351 454.286,235.459 454.53,207.897 454.775,205.261 455.019,204.802 455.263,177.455 455.507,230.208 
  455.752,173.544 455.996,204.799 456.24,216.255 456.484,186.769 456.728,272.401 456.973,206.912 457.217,245.604 457.461,184.561 457.705,200.406 457.95,230.642 
  458.194,196.227 458.438,186.404 458.682,177.365 458.927,187.037 459.171,187.216 459.415,235.778 459.659,180.603 459.904,186.606 460.148,200.759 460.392,228.245 
  460.636,210.985 460.881,199.552 461.125,177.105 461.369,201.892 461.613,226.621 461.858,194.522 462.102,195.864 462.346,233.907 462.59,179.189 462.835,179.334 
  463.079,203.255 463.323,182.084 463.567,192.787 463.812,188.723 464.056,185.181 464.3,167.132 464.544,174.387 464.788,195.068 465.033,209.741 465.277,197.658 
  465.521,189.318 465.765,219.535 466.01,195.469 466.254,232.024 466.498,184.333 466.742,201.247 466.987,228 467.231,263.966 467.475,223.057 467.719,178.023 
  467.964,207.375 468.208,247.074 468.452,294.381 468.696,186.628 468.941,193.681 469.185,259.844 469.429,209.62 469.673,176.35 469.918,183.331 470.162,189.883 
  470.406,209.012 470.65,193.838 470.895,207.249 471.139,178.939 471.383,200.362 471.627,182.496 471.872,178.814 472.116,194.745 472.36,179.013 472.604,214.538 
  472.848,209.69 473.093,200.75 473.337,229.623 473.581,193.871 473.825,197.908 474.07,208.394 474.314,240.424 474.558,176.313 474.802,206.868 475.047,176.276 
  475.291,186.059 475.535,278.132 475.779,232.083 476.024,190.158 476.268,179.625 476.512,171.364 476.756,195.732 477.001,195.191 477.245,168.994 477.489,181 
  477.733,178.75 477.978,168.804 478.222,210.219 478.466,211.392 478.71,216.054 478.955,203.47 479.199,222.187 479.443,180.265 479.687,193.394 479.931,165.937 
  480.176,223.667 480.42,215.2 480.664,205.839 480.908,211.017 481.153,206.499 481.397,185.353 481.641,182.303 481.885,196.252 482.13,208.656 482.374,212.529 
  482.618,192.888 482.862,192.172 483.107,177.792 483.351,273.212 483.595,206.599 483.839,176.015 484.084,183.434 484.328,175.466 484.572,180.575 484.816,192.526 
  485.061,200.714 485.305,243.948 485.549,186.052 485.793,175.07 486.038,212.151 486.282,204.813 486.526,196.944 486.77,334.71 487.015,200.329 487.259,201.021 
  487.503,179.995 487.747,230.093 487.991,237.783 488.236,191.584 488.48,176.972 488.724,296.084 488.968,188.826 489.213,204.734 489.457,201.651 489.701,228.649 
  489.945,176.344 490.19,210.366 490.434,180.155 490.678,212.277 490.922,230.8 491.167,199.556 491.411,171.021 491.655,192.106 491.899,208.797 492.144,181.806 
  492.388,228.361 492.632,233.314 492.876,231.905 493.121,201.909 493.365,191.184 493.609,190.647 493.853,190.07 494.098,205.14 494.342,218.957 494.586,176.92 
  494.83,189.522 495.074,186.537 495.319,188.869 495.563,203.275 495.807,236.125 496.051,252.281 496.296,214.238 496.54,203.626 496.784,234.951 497.028,196.618 
  497.273,222.424 497.517,210.501 497.761,204.274 498.005,235.3 498.25,181.359 498.494,198.839 498.738,205.501 498.982,219.488 499.227,202.88 499.471,279.711 
  499.715,180.93 499.959,213.956 500.204,201.454 500.448,218.921 500.692,248.687 500.936,211.246 501.181,192.487 501.425,176.388 501.669,204.304 501.913,204.068 
  502.158,192.179 502.402,220.255 502.646,217.237 502.89,191.609 503.134,195.753 503.379,182.695 503.623,209.54 503.867,220.637 504.111,191.962 504.356,198.386 
  504.6,176.395 504.844,243.488 505.088,223.841 505.333,204.658 505.577,197.116 505.821,212.093 506.065,208.053 506.31,189.307 506.554,193.724 506.798,193.146 
  507.042,267.185 507.287,201.993 507.531,227.74 507.775,213.075 508.019,180.583 508.264,209.513 508.508,179.475 508.752,187.668 508.996,188.083 509.241,223.724 
  509.485,202.373 509.729,290.031 509.973,200.984 510.218,186.424 510.462,222.123 510.706,188.689 510.95,182.827 511.194,200.441 511.439,239.428 511.683,200.409 
  511.927,223.885 512.171,262.275 512.416,206.811 512.66,195.211 512.904,215.112 513.148,196.686 513.393,204.098 513.637,206.734 513.881,186.535 514.125,211.559 
  514.37,222.8 514.614,203.571 514.858,210.839 515.102,173.155 515.347,190.386 515.591,211.238 515.835,195.455 516.079,203.556 516.324,227.781 516.568,189.659 
  516.812,199.791 517.056,198.166 517.301,196.603 517.545,182.3 517.789,215.302 518.033,204.551 518.277,180.338 518.522,175.837 518.766,192.269 519.01,227.145 
  519.254,209.943 519.499,190.32 519.743,179.54 519.987,168.76 520.231,189.193 520.476,179.681 520.72,199.897 520.964,198.61 521.208,182.302 521.453,214.924 
  521.697,200.758 521.941,171.976 522.185,282 522.43,225.072 522.674,188.963 522.918,197.757 523.162,194.012 523.407,194.954 523.651,204.086 523.895,177.934 
  524.139,169.26 524.384,196.414 524.628,201.614 524.872,205.335 525.116,231.619 525.361,239.913 525.605,220.631 525.849,190.29 526.093,254.636 526.337,208.251 
  526.582,191.921 526.826,220.397 527.07,204.136 527.314,183.017 527.559,192.373 527.803,206.238 528.047,222.705 528.291,244.552 528.536,212.854 528.78,201.631 
  529.024,184.226 529.268,227.698 529.513,220.784 529.757,188.991 530.001,202.434 530.245,187.574 530.49,189.658 530.734,270.752 530.978,254.363 531.222,262.114 
  531.467,177.296 531.711,193.97 531.955,184.95 532.199,177.897 532.444,199.231 532.688,187.875 532.932,258.87 533.176,171.359 533.42,180.142 533.665,165.893 
  533.909,176.79 534.153,188.371 534.397,177.773 534.642,197.376 534.886,180.846 535.13,182.118 535.374,185.655 535.619,228.581 535.863,188.717 536.107,196.353 
  536.351,234.991 536.596,189.119 536.84,182.866 537.084,202.133 537.328,188.075 537.573,224.414 537.817,192.989 538.061,211.788 538.305,210.165 538.55,239.215 
  538.794,217.189 539.038,207.878 539.282,200.86 539.527,198.894 539.771,178.347 540.015,205.667 540.259,202.335 540.504,190.478 540.748,205.08 540.992,195.946 
  541.236,198.057 541.48,182.843 541.725,211.61 541.969,192.864 542.213,189.614 542.457,206.067 542.702,199.519 542.946,178.714 543.19,199.83 543.434,205.69 
  543.679,191.771 543.923,238.636 544.167,211.761 544.411,215.536 544.656,234.934 544.9,214.153 545.144,194.224 545.388,172.046 545.633,213.388 545.877,185.616 
  546.121,217.583 546.365,188.774 546.61,192.094 546.854,193.886 547.098,173.191 547.342,196.805 547.587,191.569 547.831,191.179 548.075,199.718 548.319,186.888 
  548.563,174.162 548.808,179.785 549.052,178.94 549.296,187.103 549.54,196.842 549.785,184.697 550.029,184.642 550.273,196.237 550.517,187.135 550.762,175.653 
  551.006,200.04 551.25,185.689 551.494,230.193 551.739,213.736 551.983,206.395 552.227,228.456 552.471,212.956 552.716,222.711 552.96,263.672 553.204,203.325 
  553.448,212.207 553.693,192.262 553.937,203.264 554.181,200.969 554.425,196.217 554.67,229.808 554.914,188.916 555.158,235.407 555.402,232.201 555.647,200.162 
  555.891,194.893 556.135,193.354 556.379,202.439 556.623,180.679 556.868,174.22 557.112,206.325 557.356,207.755 557.6,196.507 557.845,224.223 558.089,232.322 
  558.333,200.89 558.577,182.535 558.822,196.933 559.066,180.865 559.31,229.127 559.554,194.829 559.799,213.588 560.043,193.246 560.287,226.339 560.531,174.594 
  560.776,198.92 561.02,272.03 561.264,246.323 561.508,186.002 561.753,186.984 561.997,209.459 562.241,222.056 562.485,186.656 562.73,205.944 562.974,175.371 
  563.218,239.902 563.462,203.077 563.707,208.965 563.951,212.053 564.195,196.474 564.439,201.593 564.683,173.189 564.928,192.175 565.172,194.702 565.416,193.943 
  565.66,196.998 565.905,210.711 566.149,211.865 566.393,196.697 566.637,200.639 566.882,237.857 567.126,216.347 567.37,223.558 567.614,227.04 567.859,213.115 
  568.103,240.099 568.347,202.541 568.591,220.488 568.836,203.183 569.08,261.569 569.324,182.744 569.568,180.054 569.813,230.838 570.057,230.246 570.301,217.371 
  570.545,190.638 570.79,210.86 571.034,217.871 571.278,212.267 571.522,178.042 571.766,244.941 572.011,196.564 572.255,209.186 572.499,170.608 572.743,179.842 
  572.988,208.046 573.232,224.635 573.476,181.992 573.72,185.619 573.965,171.948 574.209,212.031 574.453,185.886 574.697,209.54 574.942,216.518 575.186,193.507 
  575.43,197.956 575.674,194.286 575.919,178.974 576.163,237.671 576.407,185.597 576.651,220.362 576.896,187.125 577.14,217.026 577.384,217.218 577.628,202.396 
  577.873,211.94 578.117,197.155 578.361,218.94 578.605,193.764 578.85,201.925 579.094,196.79 579.338,190.206 579.582,196.729 579.826,215.629 580.071,202.088 
  580.315,198.851 
  "/>
</svg>
