<?xml version="1.0" encoding="utf-8"?>
<svg xmlns="http://www.w3.org/2000/svg" xmlns:xlink="http://www.w3.org/1999/xlink" width="600" height="400" viewBox="0 0 600 400">
<defs>
  <clipPath id="clip00">
    <rect x="0" y="0" width="600" height="400"/>
  </clipPath>
</defs>
<polygon clip-path="url(#clip00)" points="
0,400 600,400 600,0 0,0 
  " fill="#ffffff" fill-opacity="1"/>
<defs>
  <clipPath id="clip01">
    <rect x="120" y="0" width="421" height="400"/>
  </clipPath>
</defs>
<polygon clip-path="url(#clip00)" points="
62.5219,357.163 580.315,357.163 580.315,15.748 62.5219,15.748 
  " fill="#ffffff" fill-opacity="1"/>
<defs>
  <clipPath id="clip02">
    <rect x="62" y="15" width="518" height="342"/>
  </clipPath>
</defs>
<g clip-path="url(#clip00)">
<text style="fill:#00002d; fill-opacity:1; font-family:Arial; font-size:12; text-anchor:start;" transform="rotate(0, 33.7132, 363.095)" x="33.7132" y="363.095">10</text>
</g>
<g clip-path="url(#clip00)">
<text style="fill:#00002d; fill-opacity:1; font-family:Arial; font-size:10; text-anchor:start;" transform="rotate(0, 46.8924, 356.242)" x="46.8924" y="356.242">-</text>
</g>
<g clip-path="url(#clip00)">
<text style="fill:#00002d; fill-opacity:1; font-family:Arial; font-size:10; text-anchor:start;" transform="rotate(0, 52.5161, 356.242)" x="52.5161" y="356.242">2</text>
</g>
<g clip-path="url(#clip00)">
<text style="fill:#00002d; fill-opacity:1; font-family:Arial; font-size:12; text-anchor:start;" transform="rotate(0, 33.7132, 325.16)" x="33.7132" y="325.16">10</text>
</g>
<g clip-path="url(#clip00)">
<text style="fill:#00002d; fill-opacity:1; font-family:Arial; font-size:10; text-anchor:start;" transform="rotate(0, 46.8924, 318.307)" x="46.8924" y="318.307">-</text>
</g>
<g clip-path="url(#clip00)">
<text style="fill:#00002d; fill-opacity:1; font-family:Arial; font-size:10; text-anchor:start;" transform="rotate(0, 52.5161, 318.307)" x="52.5161" y="318.307">1</text>
</g>
<g clip-path="url(#clip00)">
<text style="fill:#00002d; fill-opacity:1; font-family:Arial; font-size:12; text-anchor:start;" transform="rotate(0, 39.3369, 287.225)" x="39.3369" y="287.225">10</text>
</g>
<g clip-path="url(#clip00)">
<text style="fill:#00002d; fill-opacity:1; font-family:Arial; font-size:10; text-anchor:start;" transform="rotate(0, 52.5161, 280.372)" x="52.5161" y="280.372">0</text>
</g>
<g clip-path="url(#clip00)">
<text style="fill:#00002d; fill-opacity:1; font-family:Arial; font-size:12; text-anchor:start;" transform="rotate(0, 39.3369, 249.29)" x="39.3369" y="249.29">10</text>
</g>
<g clip-path="url(#clip00)">
<text style="fill:#00002d; fill-opacity:1; font-family:Arial; font-size:10; text-anchor:start;" transform="rotate(0, 52.5161, 242.437)" x="52.5161" y="242.437">1</text>
</g>
<g clip-path="url(#clip00)">
<text style="fill:#00002d; fill-opacity:1; font-family:Arial; font-size:12; text-anchor:start;" transform="rotate(0, 39.3369, 211.355)" x="39.3369" y="211.355">10</text>
</g>
<g clip-path="url(#clip00)">
<text style="fill:#00002d; fill-opacity:1; font-family:Arial; font-size:10; text-anchor:start;" transform="rotate(0, 52.5161, 204.502)" x="52.5161" y="204.502">2</text>
</g>
<g clip-path="url(#clip00)">
<text style="fill:#00002d; fill-opacity:1; font-family:Arial; font-size:12; text-anchor:start;" transform="rotate(0, 39.3369, 173.42)" x="39.3369" y="173.42">10</text>
</g>
<g clip-path="url(#clip00)">
<text style="fill:#00002d; fill-opacity:1; font-family:Arial; font-size:10; text-anchor:start;" transform="rotate(0, 52.5161, 166.567)" x="52.5161" y="166.567">3</text>
</g>
<g clip-path="url(#clip00)">
<text style="fill:#00002d; fill-opacity:1; font-family:Arial; font-size:12; text-anchor:start;" transform="rotate(0, 39.3369, 135.485)" x="39.3369" y="135.485">10</text>
</g>
<g clip-path="url(#clip00)">
<text style="fill:#00002d; fill-opacity:1; font-family:Arial; font-size:10; text-anchor:start;" transform="rotate(0, 52.5161, 128.632)" x="52.5161" y="128.632">4</text>
</g>
<g clip-path="url(#clip00)">
<text style="fill:#00002d; fill-opacity:1; font-family:Arial; font-size:12; text-anchor:start;" transform="rotate(0, 39.3369, 97.55)" x="39.3369" y="97.55">10</text>
</g>
<g clip-path="url(#clip00)">
<text style="fill:#00002d; fill-opacity:1; font-family:Arial; font-size:10; text-anchor:start;" transform="rotate(0, 52.5161, 90.6974)" x="52.5161" y="90.6974">5</text>
</g>
<g clip-path="url(#clip00)">
<text style="fill:#00002d; fill-opacity:1; font-family:Arial; font-size:12; text-anchor:start;" transform="rotate(0, 39.3369, 59.6149)" x="39.3369" y="59.6149">10</text>
</g>
<g clip-path="url(#clip00)">
<text style="fill:#00002d; fill-opacity:1; font-family:Arial; font-size:10; text-anchor:start;" transform="rotate(0, 52.5161, 52.7623)" x="52.5161" y="52.7623">6</text>
</g>
<g clip-path="url(#clip00)">
<text style="fill:#00002d; fill-opacity:1; font-family:Arial; font-size:12; text-anchor:start;" transform="rotate(0, 39.3369, 21.6799)" x="39.3369" y="21.6799">10</text>
</g>
<g clip-path="url(#clip00)">
<text style="fill:#00002d; fill-opacity:1; font-family:Arial; font-size:10; text-anchor:start;" transform="rotate(0, 52.5161, 14.8273)" x="52.5161" y="14.8273">7</text>
</g>
<polyline clip-path="url(#clip00)" style="stroke:#00002d; stroke-width:0.8; stroke-opacity:1; fill:none" points="
  62.5219,357.163 62.5219,357.163 71.8252,357.163 62.5219,357.163 62.5219,345.744 67.1735,345.744 62.5219,345.744 62.5219,339.064 67.1735,339.064 62.5219,339.064 
  62.5219,334.324 67.1735,334.324 62.5219,334.324 62.5219,330.648 67.1735,330.648 62.5219,330.648 62.5219,327.644 67.1735,327.644 62.5219,327.644 62.5219,325.104 
  67.1735,325.104 62.5219,325.104 62.5219,322.904 67.1735,322.904 62.5219,322.904 62.5219,320.964 67.1735,320.964 62.5219,320.964 62.5219,319.228 67.1735,319.228 
  62.5219,319.228 71.8252,319.228 62.5219,319.228 62.5219,307.809 67.1735,307.809 62.5219,307.809 62.5219,301.129 67.1735,301.129 62.5219,301.129 
  62.5219,296.389 67.1735,296.389 62.5219,296.389 62.5219,292.713 67.1735,292.713 62.5219,292.713 62.5219,289.709 67.1735,289.709 62.5219,289.709 62.5219,287.169 
  67.1735,287.169 62.5219,287.169 62.5219,284.969 67.1735,284.969 62.5219,284.969 62.5219,283.029 67.1735,283.029 62.5219,283.029 62.5219,281.293 67.1735,281.293 
  62.5219,281.293 71.8252,281.293 62.5219,281.293 62.5219,269.874 67.1735,269.874 62.5219,269.874 62.5219,263.194 67.1735,263.194 62.5219,263.194 
  62.5219,258.454 67.1735,258.454 62.5219,258.454 62.5219,254.778 67.1735,254.778 62.5219,254.778 62.5219,251.774 67.1735,251.774 62.5219,251.774 62.5219,249.234 
  67.1735,249.234 62.5219,249.234 62.5219,247.034 67.1735,247.034 62.5219,247.034 62.5219,245.094 67.1735,245.094 62.5219,245.094 62.5219,243.358 67.1735,243.358 
  62.5219,243.358 71.8252,243.358 62.5219,243.358 62.5219,231.939 67.1735,231.939 62.5219,231.939 62.5219,225.259 67.1735,225.259 62.5219,225.259 
  62.5219,220.519 67.1735,220.519 62.5219,220.519 62.5219,216.843 67.1735,216.843 62.5219,216.843 62.5219,213.839 67.1735,213.839 62.5219,213.839 62.5219,211.299 
  67.1735,211.299 62.5219,211.299 62.5219,209.099 67.1735,209.099 62.5219,209.099 62.5219,207.159 67.1735,207.159 62.5219,207.159 62.5219,205.423 67.1735,205.423 
  62.5219,205.423 71.8252,205.423 62.5219,205.423 62.5219,194.004 67.1735,194.004 62.5219,194.004 62.5219,187.324 67.1735,187.324 62.5219,187.324 
  62.5219,182.584 67.1735,182.584 62.5219,182.584 62.5219,178.908 67.1735,178.908 62.5219,178.908 62.5219,175.904 67.1735,175.904 62.5219,175.904 62.5219,173.364 
  67.1735,173.364 62.5219,173.364 62.5219,171.164 67.1735,171.164 62.5219,171.164 62.5219,169.224 67.1735,169.224 62.5219,169.224 62.5219,167.488 67.1735,167.488 
  62.5219,167.488 71.8252,167.488 62.5219,167.488 62.5219,156.069 67.1735,156.069 62.5219,156.069 62.5219,149.388 67.1735,149.388 62.5219,149.388 
  62.5219,144.649 67.1735,144.649 62.5219,144.649 62.5219,140.973 67.1735,140.973 62.5219,140.973 62.5219,137.969 67.1735,137.969 62.5219,137.969 62.5219,135.429 
  67.1735,135.429 62.5219,135.429 62.5219,133.229 67.1735,133.229 62.5219,133.229 62.5219,131.289 67.1735,131.289 62.5219,131.289 62.5219,129.553 67.1735,129.553 
  62.5219,129.553 71.8252,129.553 62.5219,129.553 62.5219,118.133 67.1735,118.133 62.5219,118.133 62.5219,111.453 67.1735,111.453 62.5219,111.453 
  62.5219,106.714 67.1735,106.714 62.5219,106.714 62.5219,103.038 67.1735,103.038 62.5219,103.038 62.5219,100.034 67.1735,100.034 62.5219,100.034 62.5219,97.4943 
  67.1735,97.4943 62.5219,97.4943 62.5219,95.2943 67.1735,95.2943 62.5219,95.2943 62.5219,93.3539 67.1735,93.3539 62.5219,93.3539 62.5219,91.6181 67.1735,91.6181 
  62.5219,91.6181 71.8252,91.6181 62.5219,91.6181 62.5219,80.1985 67.1735,80.1985 62.5219,80.1985 62.5219,73.5185 67.1735,73.5185 62.5219,73.5185 
  62.5219,68.7789 67.1735,68.7789 62.5219,68.7789 62.5219,65.1026 67.1735,65.1026 62.5219,65.1026 62.5219,62.0989 67.1735,62.0989 62.5219,62.0989 62.5219,59.5593 
  67.1735,59.5593 62.5219,59.5593 62.5219,57.3593 67.1735,57.3593 62.5219,57.3593 62.5219,55.4189 67.1735,55.4189 62.5219,55.4189 62.5219,53.683 67.1735,53.683 
  62.5219,53.683 71.8252,53.683 62.5219,53.683 62.5219,42.2635 67.1735,42.2635 62.5219,42.2635 62.5219,35.5834 67.1735,35.5834 62.5219,35.5834 
  62.5219,30.8439 67.1735,30.8439 62.5219,30.8439 62.5219,27.1676 67.1735,27.1676 62.5219,27.1676 62.5219,24.1639 67.1735,24.1639 62.5219,24.1639 62.5219,21.6242 
  67.1735,21.6242 62.5219,21.6242 62.5219,19.4243 67.1735,19.4243 62.5219,19.4243 62.5219,17.4838 67.1735,17.4838 62.5219,17.4838 62.5219,15.748 67.1735,15.748 
  62.5219,15.748 71.8252,15.748 62.5219,15.748 
  "/>
<g clip-path="url(#clip00)">
<text style="fill:#00002d; fill-opacity:1; font-family:Arial; font-size:12; text-anchor:start;" transform="rotate(0, 59.2271, 372.528)" x="59.2271" y="372.528">0</text>
</g>
<g clip-path="url(#clip00)">
<text style="fill:#00002d; fill-opacity:1; font-family:Arial; font-size:12; text-anchor:start;" transform="rotate(0, 224.046, 372.528)" x="224.046" y="372.528">1</text>
</g>
<g clip-path="url(#clip00)">
<text style="fill:#00002d; fill-opacity:1; font-family:Arial; font-size:12; text-anchor:start;" transform="rotate(0, 388.864, 372.528)" x="388.864" y="372.528">2</text>
</g>
<g clip-path="url(#clip00)">
<text style="fill:#00002d; fill-opacity:1; font-family:Arial; font-size:12; text-anchor:start;" transform="rotate(0, 553.683, 372.528)" x="553.683" y="372.528">3</text>
</g>
<polyline clip-path="url(#clip00)" style="stroke:#00002d; stroke-width:0.8; stroke-opacity:1; fill:none" points="
  62.5219,357.163 62.5219,357.163 62.5219,347.86 62.5219,357.163 227.341,357.163 227.341,347.86 227.341,357.163 392.159,357.163 392.159,347.86 392.159,357.163 
  556.978,357.163 556.978,347.86 556.978,357.163 580.315,357.163 
  "/>
<polyline clip-path="url(#clip00)" style="stroke:#00002d; stroke-width:0.8; stroke-opacity:1; fill:none" points="
  580.315,357.163 580.315,357.163 571.012,357.163 580.315,357.163 580.315,345.744 575.663,345.744 580.315,345.744 580.315,339.064 575.663,339.064 580.315,339.064 
  580.315,334.324 575.663,334.324 580.315,334.324 580.315,330.648 575.663,330.648 580.315,330.648 580.315,327.644 575.663,327.644 580.315,327.644 580.315,325.104 
  575.663,325.104 580.315,325.104 580.315,322.904 575.663,322.904 580.315,322.904 580.315,320.964 575.663,320.964 580.315,320.964 580.315,319.228 575.663,319.228 
  580.315,319.228 571.012,319.228 580.315,319.228 580.315,307.809 575.663,307.809 580.315,307.809 580.315,301.129 575.663,301.129 580.315,301.129 
  580.315,296.389 575.663,296.389 580.315,296.389 580.315,292.713 575.663,292.713 580.315,292.713 580.315,289.709 575.663,289.709 580.315,289.709 580.315,287.169 
  575.663,287.169 580.315,287.169 580.315,284.969 575.663,284.969 580.315,284.969 580.315,283.029 575.663,283.029 580.315,283.029 580.315,281.293 575.663,281.293 
  580.315,281.293 571.012,281.293 580.315,281.293 580.315,269.874 575.663,269.874 580.315,269.874 580.315,263.194 575.663,263.194 580.315,263.194 
  580.315,258.454 575.663,258.454 580.315,258.454 580.315,254.778 575.663,254.778 580.315,254.778 580.315,251.774 575.663,251.774 580.315,251.774 580.315,249.234 
  575.663,249.234 580.315,249.234 580.315,247.034 575.663,247.034 580.315,247.034 580.315,245.094 575.663,245.094 580.315,245.094 580.315,243.358 575.663,243.358 
  580.315,243.358 571.012,243.358 580.315,243.358 580.315,231.939 575.663,231.939 580.315,231.939 580.315,225.259 575.663,225.259 580.315,225.259 
  580.315,220.519 575.663,220.519 580.315,220.519 580.315,216.843 575.663,216.843 580.315,216.843 580.315,213.839 575.663,213.839 580.315,213.839 580.315,211.299 
  575.663,211.299 580.315,211.299 580.315,209.099 575.663,209.099 580.315,209.099 580.315,207.159 575.663,207.159 580.315,207.159 580.315,205.423 575.663,205.423 
  580.315,205.423 571.012,205.423 580.315,205.423 580.315,194.004 575.663,194.004 580.315,194.004 580.315,187.324 575.663,187.324 580.315,187.324 
  580.315,182.584 575.663,182.584 580.315,182.584 580.315,178.908 575.663,178.908 580.315,178.908 580.315,175.904 575.663,175.904 580.315,175.904 580.315,173.364 
  575.663,173.364 580.315,173.364 580.315,171.164 575.663,171.164 580.315,171.164 580.315,169.224 575.663,169.224 580.315,169.224 580.315,167.488 575.663,167.488 
  580.315,167.488 571.012,167.488 580.315,167.488 580.315,156.069 575.663,156.069 580.315,156.069 580.315,149.388 575.663,149.388 580.315,149.388 
  580.315,144.649 575.663,144.649 580.315,144.649 580.315,140.973 575.663,140.973 580.315,140.973 580.315,137.969 575.663,137.969 580.315,137.969 580.315,135.429 
  575.663,135.429 580.315,135.429 580.315,133.229 575.663,133.229 580.315,133.229 580.315,131.289 575.663,131.289 580.315,131.289 580.315,129.553 575.663,129.553 
  580.315,129.553 571.012,129.553 580.315,129.553 580.315,118.133 575.663,118.133 580.315,118.133 580.315,111.453 575.663,111.453 580.315,111.453 
  580.315,106.714 575.663,106.714 580.315,106.714 580.315,103.038 575.663,103.038 580.315,103.038 580.315,100.034 575.663,100.034 580.315,100.034 580.315,97.4943 
  575.663,97.4943 580.315,97.4943 580.315,95.2943 575.663,95.2943 580.315,95.2943 580.315,93.3539 575.663,93.3539 580.315,93.3539 580.315,91.6181 575.663,91.6181 
  580.315,91.6181 571.012,91.6181 580.315,91.6181 580.315,80.1985 575.663,80.1985 580.315,80.1985 580.315,73.5185 575.663,73.5185 580.315,73.5185 
  580.315,68.7789 575.663,68.7789 580.315,68.7789 580.315,65.1026 575.663,65.1026 580.315,65.1026 580.315,62.0989 575.663,62.0989 580.315,62.0989 580.315,59.5593 
  575.663,59.5593 580.315,59.5593 580.315,57.3593 575.663,57.3593 580.315,57.3593 580.315,55.4189 575.663,55.4189 580.315,55.4189 580.315,53.683 575.663,53.683 
  580.315,53.683 571.012,53.683 580.315,53.683 580.315,42.2635 575.663,42.2635 580.315,42.2635 580.315,35.5834 575.663,35.5834 580.315,35.5834 
  580.315,30.8439 575.663,30.8439 580.315,30.8439 580.315,27.1676 575.663,27.1676 580.315,27.1676 580.315,24.1639 575.663,24.1639 580.315,24.1639 580.315,21.6242 
  575.663,21.6242 580.315,21.6242 580.315,19.4243 575.663,19.4243 580.315,19.4243 580.315,17.4838 575.663,17.4838 580.315,17.4838 580.315,15.748 575.663,15.748 
  580.315,15.748 571.012,15.748 580.315,15.748 
  "/>
<polyline clip-path="url(#clip00)" style="stroke:#00002d; stroke-width:0.8; stroke-opacity:1; fill:none" points="
  62.5219,15.748 62.5219,15.748 62.5219,25.0513 62.5219,15.748 227.341,15.748 227.341,25.0513 227.341,15.748 392.159,15.748 392.159,25.0513 392.159,15.748 
  556.978,15.748 556.978,25.0513 556.978,15.748 580.315,15.748 
  "/>
<g clip-path="url(#clip00)">
<text style="fill:#00002d; fill-opacity:1; font-family:Arial; font-size:16; text-anchor:middle;" transform="rotate(0, 321.418, 397.6)" x="321.418" y="397.6">Angular frequency</text>
</g>
<g clip-path="url(#clip00)">
<text style="fill:#00002d; fill-opacity:1; font-family:Arial; font-size:16; text-anchor:middle;" transform="rotate(-90, 14.4, 186.456)" x="14.4" y="186.456">Power</text>
</g>
<polyline clip-path="url(#clip02)" style="stroke:#0099ff; stroke-width:0.8; stroke-opacity:1; fill:none" points="
  62.5219,77.2932 62.7579,121.255 62.9939,136.037 63.2299,164.171 63.4659,152.99 63.7019,181.183 63.9379,188.713 64.1739,184.542 64.4099,201.349 64.6459,193.805 
  64.8819,166.451 65.1179,207.011 65.3539,229.614 65.5899,160.724 65.8259,228.692 66.0619,222.395 66.2979,214.704 66.5339,188.145 66.7699,231.226 67.006,188.156 
  67.242,194.947 67.478,189.999 67.714,223.17 67.95,180.241 68.186,216.613 68.422,204.666 68.658,153.238 68.894,163.097 69.13,177.353 69.366,163.073 
  69.602,162.911 69.838,153.822 70.074,145.263 70.31,141.644 70.546,198.474 70.782,205.203 71.018,224.902 71.254,198.213 71.49,192.628 71.726,250.261 
  71.962,196.812 72.198,258.815 72.434,229.067 72.6701,220.537 72.9061,221.499 73.1421,261.194 73.3781,182.147 73.6141,189.407 73.8501,206.805 74.0861,178.208 
  74.3221,211.297 74.5581,181.629 74.7941,194.535 75.0301,183.616 75.2661,169.428 75.5021,137.214 75.7381,145.542 75.9741,136.678 76.2101,94.1796 76.4461,75.8302 
  76.6821,126.792 76.9181,121.314 77.1541,149.154 77.3901,178.963 77.6261,164.825 77.8621,175.742 78.0981,192.651 78.3341,209.276 78.5702,174.291 78.8062,195.744 
  79.0422,193.529 79.2782,204.227 79.5142,168.418 79.7502,219.884 79.9862,194.003 80.2222,232.325 80.4582,193.256 80.6942,184.383 80.9302,199.133 81.1662,203.119 
  81.4022,185.399 81.6382,175.077 81.8742,177.033 82.1102,179.26 82.3462,175.727 82.5822,129.539 82.8182,146.913 83.0542,154.028 83.2902,156.331 83.5262,139.717 
  83.7622,145.775 83.9982,119.259 84.2343,145.571 84.4703,184.134 84.7063,198.886 84.9423,175.982 85.1783,170.451 85.4143,173.948 85.6503,247.915 85.8863,205.798 
  86.1223,187.405 86.3583,185.777 86.5943,213.312 86.8303,175.765 87.0663,185.675 87.3023,174.193 87.5383,198.462 87.7743,174.954 88.0103,187.181 88.2463,210.166 
  88.4823,180.547 88.7183,203.562 88.9543,170.133 89.1903,169.252 89.4263,131.214 89.6623,116.323 89.8984,98.0548 90.1344,77.8455 90.3704,89.418 90.6064,85.2659 
  90.8424,98.2166 91.0784,135.491 91.3144,132.149 91.5504,147.816 91.7864,161.224 92.0224,181.191 92.2584,206.444 92.4944,172.728 92.7304,209.937 92.9664,176.787 
  93.2024,208.131 93.4384,174.571 93.6744,183.851 93.9104,198.995 94.1464,188.914 94.3824,209.322 94.6184,162.621 94.8544,208.557 95.0904,194.462 95.3264,168.367 
  95.5625,161.335 95.7985,169.374 96.0345,146.198 96.2705,150.637 96.5065,118.877 96.7425,129.621 96.9785,117.119 97.2145,150.952 97.4505,112.201 97.6865,130.383 
  97.9225,115.032 98.1585,153.992 98.3945,181.454 98.6305,181.486 98.8665,149.951 99.1025,162.181 99.3385,184.12 99.5745,216.714 99.8105,195.147 100.047,171.753 
  100.283,158.727 100.519,180.497 100.755,164.631 100.991,170.209 101.227,165.337 101.463,186.394 101.699,164.085 101.935,168.931 102.171,201.001 102.407,176.479 
  102.643,173.809 102.879,155.38 103.115,191.913 103.351,145.552 103.587,110.544 103.823,84.4227 104.059,67.3618 104.295,71.454 104.531,76.6623 104.767,87.4237 
  105.003,128.313 105.239,137.627 105.475,145.95 105.711,153.288 105.947,173.381 106.183,197.929 106.419,174.572 106.655,238.92 106.891,170.403 107.127,183.7 
  107.363,158.876 107.599,213.251 107.835,209.498 108.071,193.661 108.307,196.584 108.543,161.268 108.779,181.096 109.015,181.59 109.251,182.081 109.487,171.246 
  109.723,137.844 109.959,125.952 110.195,146.303 110.431,135.51 110.667,122.199 110.903,110.927 111.139,131.802 111.375,108.482 111.611,159.429 111.847,126.104 
  112.083,140.078 112.319,150.388 112.555,156.036 112.791,143.782 113.027,173.224 113.263,249.396 113.499,264.585 113.735,196.042 113.971,161.014 114.207,156.224 
  114.443,169.189 114.679,177.703 114.915,193.331 115.151,161.979 115.387,188.09 115.623,171.762 115.859,163.286 116.095,175.021 116.331,174.817 116.567,175.335 
  116.803,152.036 117.039,149.822 117.275,159.669 117.511,124.703 117.747,90.3742 117.983,74.117 118.219,82.5164 118.455,99.9531 118.691,93.634 118.927,217.839 
  119.163,150.418 119.399,154.303 119.635,145.724 119.871,178.321 120.107,183.191 120.343,178.838 120.579,182.283 120.815,170.929 121.051,168.876 121.287,163.757 
  121.523,172.729 121.759,214.867 121.995,214.119 122.231,191.038 122.467,172.464 122.703,169.401 122.939,177.366 123.175,174.739 123.411,188.019 123.647,129.607 
  123.883,120.793 124.119,133.072 124.355,169.681 124.591,132.058 124.827,131.452 125.063,120.864 125.299,135.596 125.535,133.717 125.771,150.654 126.007,136.596 
  126.243,132.037 126.479,158 126.715,155.55 126.951,200.397 127.187,184.381 127.423,196.312 127.659,187.315 127.895,166.07 128.131,156.345 128.367,173.268 
  128.603,227.885 128.839,233.415 129.075,161.27 129.311,190.673 129.547,190.605 129.783,175.257 130.019,166.055 130.255,178.162 130.491,188.169 130.727,155.367 
  130.963,135.64 131.199,127.961 131.435,184.116 131.671,126.225 131.907,101.104 132.143,136.508 132.379,117.395 132.615,125.042 132.851,125.585 133.087,164.138 
  133.323,164.735 133.559,159.392 133.795,178.757 134.031,172.233 134.267,189.921 134.503,175.01 134.739,168.985 134.975,171.64 135.211,200.139 135.447,159.468 
  135.683,206.893 135.919,188.957 136.155,187.794 136.391,188.595 136.627,172.596 136.863,176.266 137.099,160.991 137.335,224.033 137.571,142.264 137.807,128.4 
  138.043,126.198 138.279,126.644 138.515,140.188 138.751,203.7 138.987,129.625 139.223,166.446 139.459,121.64 139.695,138.159 139.931,133.976 140.167,133.981 
  140.403,190.13 140.639,191.874 140.875,163.293 141.111,172.106 141.347,185.349 141.583,185.077 141.819,179.46 142.055,161.646 142.291,179.808 142.527,239.404 
  142.763,211.913 142.999,172.568 143.235,178.26 143.471,197.143 143.707,188.846 143.943,172.96 144.179,193.024 144.415,207.318 144.651,168.671 144.887,140.026 
  145.123,126.848 145.359,125.381 145.595,119.132 145.831,123.307 146.067,116.252 146.303,111.698 146.539,168.496 146.775,119.135 147.011,151.253 147.247,168.008 
  147.483,174.188 147.719,175.336 147.955,174.951 148.191,181.946 148.427,191.997 148.663,181.202 148.899,192.019 149.135,196.972 149.371,169.538 149.607,209.964 
  149.843,192.72 150.079,192.581 150.315,195.912 150.551,193.425 150.787,180.041 151.023,156.071 151.259,185.762 151.495,175.072 151.731,150.048 151.967,132.086 
  152.203,132.665 152.439,161.463 152.675,151.812 152.911,150.074 153.147,142.943 153.383,137.195 153.619,147.065 153.855,150.781 154.091,160.297 154.327,190.863 
  154.563,179.679 154.799,164.599 155.035,194.921 155.272,204.841 155.508,194.976 155.744,202.374 155.98,186.044 156.216,198.357 156.452,238.089 156.688,199.977 
  156.924,191.018 157.16,188.041 157.396,200.603 157.632,200.762 157.868,192.835 158.104,202.048 158.34,199.959 158.576,215.935 158.812,162.465 159.048,134.433 
  159.284,131.948 159.52,124.315 159.756,130.076 159.992,119.12 160.228,127.326 160.464,173.685 160.7,127.222 160.936,172.655 161.172,162.774 161.408,200.1 
  161.644,180.704 161.88,211.018 162.116,183.36 162.352,227.414 162.588,189.147 162.824,203.802 163.06,174.96 163.296,211 163.532,207.224 163.768,217.913 
  164.004,202.271 164.24,187.171 164.476,207.229 164.712,205.846 164.948,164.451 165.184,191.066 165.42,180.414 165.656,171.852 165.892,147.957 166.128,166.442 
  166.364,165.558 166.6,160.504 166.836,178.617 167.072,165.447 167.308,165.613 167.544,156.799 167.78,253.257 168.016,188.79 168.252,173.967 168.488,181.862 
  168.724,193.041 168.96,270.317 169.196,203.926 169.432,202.297 169.668,231.538 169.904,213.444 170.14,226.779 170.376,214.508 170.612,216.492 170.848,199.331 
  171.084,189.338 171.32,195.278 171.556,192.752 171.792,216.136 172.028,224.983 172.264,189.472 172.5,196.863 172.736,174.268 172.972,154.781 173.208,153.626 
  173.444,163.619 173.68,149.089 173.916,144.307 174.152,160.442 174.388,168.764 174.624,153.038 174.86,202.481 175.096,170.776 175.332,217.762 175.568,176.649 
  175.804,248.503 176.04,180.141 176.276,211.384 176.512,190.861 176.748,178.597 176.984,178.054 177.22,209.15 177.456,193.202 177.692,233.076 177.928,196.307 
  178.164,187.799 178.4,198.087 178.636,237.366 178.872,190.171 179.108,199.014 179.344,179.324 179.58,180.621 179.816,171.355 180.052,175.09 180.288,154.466 
  180.524,190.717 180.76,176.877 180.996,179.98 181.232,155.39 181.468,160.19 181.704,190.41 181.94,191.419 182.176,198.741 182.412,267.29 182.648,230.92 
  182.884,214.2 183.12,210.654 183.356,198.093 183.592,236.953 183.828,227.707 184.064,208.261 184.3,209.794 184.536,217.999 184.772,218.92 185.008,197.942 
  185.244,191.004 185.48,206.362 185.716,210.866 185.952,232.741 186.188,190.775 186.424,185.621 186.66,165.852 186.896,150.108 187.132,148.282 187.368,152.258 
  187.604,142.744 187.84,150.412 188.076,151.547 188.312,168.162 188.548,182.19 188.784,186.464 189.02,184.558 189.256,208.878 189.492,176.423 189.728,254.537 
  189.964,177.833 190.2,239.538 190.436,194.787 190.672,180.459 190.908,188.48 191.144,204.647 191.38,192.179 191.616,224.374 191.852,200.583 192.088,201.772 
  192.324,241.901 192.56,211.669 192.796,212.254 193.032,244.384 193.268,202.193 193.504,202.211 193.74,188.486 193.976,167.799 194.212,161.589 194.448,240.378 
  194.684,184.082 194.92,164.114 195.156,163.145 195.392,187.967 195.628,194.656 195.864,214.603 196.1,210.777 196.336,196.373 196.572,205.616 196.808,195.994 
  197.044,230.42 197.28,199.084 197.516,218.572 197.752,220.224 197.988,209.163 198.224,238.34 198.46,204.376 198.696,219.368 198.932,195.252 199.168,225.578 
  199.404,206.824 199.64,202.672 199.876,227.105 200.112,190.976 200.348,182.776 200.584,167.118 200.82,155.693 201.056,155.391 201.292,149.396 201.528,147.964 
  201.764,165.73 202,157.387 202.236,177.224 202.472,190.737 202.708,183.887 202.944,196.994 203.18,196.486 203.416,200.786 203.652,210.918 203.888,208.157 
  204.124,238.546 204.36,183.224 204.596,187.609 204.832,200.471 205.068,200.812 205.304,248.197 205.54,229.952 205.776,231.403 206.012,207.526 206.248,203.5 
  206.484,214.625 206.72,187.564 206.956,204.517 207.192,183.923 207.428,198.748 207.664,222.153 207.9,197.031 208.136,175.422 208.372,221.755 208.608,202.601 
  208.844,174.232 209.08,189.007 209.316,203.735 209.552,225.911 209.788,196.356 210.024,193.21 210.26,179.3 210.496,178.395 210.732,202.026 210.968,203.082 
  211.204,194.602 211.44,203.084 211.676,210.689 211.912,240.356 212.148,234.252 212.385,199.239 212.621,206.484 212.857,186.178 213.093,233.16 213.329,196.6 
  213.565,183.257 213.801,222.666 214.037,198.681 214.273,190.429 214.509,183.306 214.745,172.991 214.981,178.162 215.217,171.604 215.453,179.126 215.689,213.637 
  215.925,179.546 216.161,212.606 216.397,202.554 216.633,228.937 216.869,207.73 217.105,220.333 217.341,215.314 217.577,201.563 217.813,206.27 218.049,207.847 
  218.285,184.195 218.521,191.74 218.757,193.272 218.993,201.956 219.229,207.089 219.465,206.736 219.701,218.777 219.937,214.977 220.173,230.035 220.409,257.275 
  220.645,187.182 220.881,177.488 221.117,167.814 221.353,187.528 221.589,195.342 221.825,196.155 222.061,211.775 222.297,222.275 222.533,206.179 222.769,194.149 
  223.005,191.925 223.241,217.755 223.477,206.374 223.713,178.119 223.949,188.53 224.185,179.917 224.421,177.902 224.657,203.102 224.893,215.306 225.129,203.408 
  225.365,215.379 225.601,227.563 225.837,226.258 226.073,228.421 226.309,203.831 226.545,217.745 226.781,204.088 227.017,227.171 227.253,194.836 227.489,183.607 
  227.725,241.897 227.961,233.059 228.197,194.807 228.433,179.648 228.669,173.061 228.905,172.134 229.141,169.654 229.377,170.908 229.613,193.857 229.849,176.46 
  230.085,181.08 230.321,212.334 230.557,209.149 230.793,235.013 231.029,222.644 231.265,228.786 231.501,206.569 231.737,204.005 231.973,207.128 232.209,183.323 
  232.445,185.589 232.681,201.611 232.917,267.287 233.153,203.459 233.389,193.517 233.625,243.653 233.861,223.652 234.097,213.364 234.333,270.489 234.569,179.162 
  234.805,199.049 235.041,173.384 235.277,192.62 235.513,212.617 235.749,210.693 235.985,274.38 236.221,229.429 236.457,222.864 236.693,208.888 236.929,197.899 
  237.165,225.697 237.401,209.32 237.637,180.976 237.873,314.109 238.109,181.775 238.345,193.659 238.581,188.375 238.817,195.629 239.053,204.127 239.289,234.008 
  239.525,253.18 239.761,296.878 239.997,247.003 240.233,208.494 240.469,210.36 240.705,238.468 240.941,218.917 241.177,197.296 241.413,200.505 241.649,193.92 
  241.885,208.581 242.121,178.152 242.357,172.794 242.593,178.667 242.829,184.06 243.065,173.001 243.301,173.123 243.537,191.749 243.773,175.218 244.009,204.386 
  244.245,214.469 244.481,209.268 244.717,225.382 244.953,223.512 245.189,203.353 245.425,252.25 245.661,247.637 245.897,200.702 246.133,186.238 246.369,190.242 
  246.605,207.562 246.841,243.029 247.077,201.082 247.313,191.627 247.549,209.577 247.785,220.454 248.021,234.518 248.257,217.059 248.493,187.633 248.729,216.078 
  248.965,188.897 249.201,194.342 249.437,207.326 249.673,251.755 249.909,208.347 250.145,204.885 250.381,252.339 250.617,228.878 250.853,203.391 251.089,200.435 
  251.325,201.292 251.561,196.813 251.797,245.522 252.033,186.175 252.269,250.051 252.505,178.491 252.741,206.947 252.977,186.689 253.213,217.714 253.449,230.84 
  253.685,218.423 253.921,225.318 254.157,232.543 254.393,215.965 254.629,220.6 254.865,224.332 255.101,202.925 255.337,216.102 255.573,185.014 255.809,207.815 
  256.045,182.484 256.281,188.33 256.517,185.984 256.753,193.246 256.989,188.046 257.225,186.345 257.461,198.115 257.697,185.893 257.933,223.117 258.169,237.712 
  258.405,201.135 258.641,257.907 258.877,253.247 259.113,206.257 259.349,212.249 259.585,223.61 259.821,206.831 260.057,195.973 260.293,212.622 260.529,228.296 
  260.765,204.588 261.001,208.083 261.237,210.638 261.473,208.424 261.709,203.251 261.945,213.351 262.181,251.547 262.417,203.496 262.653,216.655 262.889,224.303 
  263.125,207.592 263.361,218.457 263.597,242.596 263.833,225.767 264.069,186.879 264.305,223.12 264.541,231.913 264.777,216.674 265.013,202.862 265.249,212.535 
  265.485,197.211 265.721,230.567 265.957,200.015 266.193,196.218 266.429,190.827 266.665,203.938 266.901,189.091 267.137,230.032 267.373,234.858 267.609,204.508 
  267.845,237.758 268.081,252.045 268.317,291.166 268.553,225.711 268.789,212.149 269.025,213.911 269.262,216.827 269.498,195.992 269.734,242.878 269.97,206.19 
  270.206,217.589 270.442,198.898 270.678,210.027 270.914,196.768 271.15,193.511 271.386,209.067 271.622,193.895 271.858,261.591 272.094,211.239 272.33,196.096 
  272.566,231.133 272.802,213.511 273.038,199.95 273.274,191.414 273.51,202.25 273.746,203.382 273.982,209.293 274.218,228.893 274.454,214.097 274.69,198.93 
  274.926,208.268 275.162,192.398 275.398,257.443 275.634,200.067 275.87,198.931 276.106,209.047 276.342,175.843 276.578,249.246 276.814,191.447 277.05,230.918 
  277.286,209.973 277.522,231.221 277.758,226.044 277.994,198.128 278.23,238.926 278.466,218.276 278.702,219.804 278.938,202.757 279.174,208.865 279.41,230.742 
  279.646,249.156 279.882,199.662 280.118,186.554 280.354,207.745 280.59,191.711 280.826,192.278 281.062,258.82 281.298,238.497 281.534,211.657 281.77,220.998 
  282.006,213.694 282.242,241.541 282.478,210.874 282.714,196.849 282.95,248.2 283.186,265.554 283.422,216.573 283.658,242.541 283.894,249.565 284.13,205.964 
  284.366,221.152 284.602,217.852 284.838,199.404 285.074,188.782 285.31,210.204 285.546,198.797 285.782,235.003 286.018,211.365 286.254,207.056 286.49,211.29 
  286.726,272.857 286.962,198.438 287.198,200.33 287.434,201.824 287.67,200.435 287.906,223.437 288.142,258.261 288.378,199.588 288.614,216.272 288.85,191.952 
  289.086,196.602 289.322,222.228 289.558,200.735 289.794,210.227 290.03,187.603 290.266,174.349 290.502,208.302 290.738,195.554 290.974,215.359 291.21,221.445 
  291.446,267.697 291.682,230.213 291.918,197.982 292.154,239.47 292.39,200.58 292.626,211.33 292.862,203.963 293.098,220.019 293.334,227.723 293.57,220.256 
  293.806,198.957 294.042,204.332 294.278,227.483 294.514,198.202 294.75,212.009 294.986,249.435 295.222,243.868 295.458,249.963 295.694,244.781 295.93,201.941 
  296.166,247.976 296.402,198.396 296.638,211.856 296.874,258.663 297.11,206.779 297.346,257.564 297.582,209.516 297.818,234.396 298.054,195.425 298.29,193.55 
  298.526,206.286 298.762,204.401 298.998,193.437 299.234,218.578 299.47,233.294 299.706,203.86 299.942,263.568 300.178,239.077 300.414,212.955 300.65,202.307 
  300.886,198.419 301.122,200.24 301.358,186.589 301.594,198.471 301.83,241.448 302.066,210.243 302.302,206.409 302.538,208.42 302.774,192.743 303.01,193.249 
  303.246,217.612 303.482,216.842 303.718,194.662 303.954,187.345 304.19,188.732 304.426,210.356 304.662,205.562 304.898,223.899 305.134,250.951 305.37,235.612 
  305.606,226.754 305.842,209.549 306.078,257.004 306.314,192.017 306.55,201.508 306.786,200.004 307.022,212.056 307.258,221.507 307.494,259.837 307.73,208.49 
  307.966,207.313 308.202,247.028 308.438,210.674 308.674,204.919 308.91,257.805 309.146,215.112 309.382,225.446 309.618,222.423 309.854,200.377 310.09,255.557 
  310.326,200.395 310.562,227.361 310.798,246.876 311.034,211.02 311.27,234.071 311.506,212.786 311.742,235.797 311.978,234.649 312.214,204.694 312.45,202.183 
  312.686,220.196 312.922,191.503 313.158,212.005 313.394,229.349 313.63,200.481 313.866,225.754 314.102,252.614 314.338,203.326 314.574,206.457 314.81,226.775 
  315.046,227.852 315.282,203.458 315.518,213.552 315.754,253.175 315.99,196.704 316.226,218.753 316.462,210.832 316.698,197.521 316.934,197.012 317.17,238.761 
  317.406,220.329 317.642,190.172 317.878,197.035 318.114,195.732 318.35,199.222 318.586,210.086 318.822,241.75 319.058,214.048 319.294,230.875 319.53,239.142 
  319.766,212.723 320.002,218.782 320.238,198.785 320.474,195.015 320.71,193.765 320.946,244.111 321.182,207.171 321.418,245.081 321.654,211.033 321.89,220.242 
  322.126,218.788 322.362,214.325 322.598,211.126 322.834,223.189 323.07,214.64 323.306,200.257 323.542,226.953 323.778,227.497 324.014,201.909 324.25,210.12 
  324.486,199.408 324.722,209.614 324.958,239.864 325.194,206.316 325.43,212.336 325.666,249.879 325.902,215.648 326.138,210.273 326.375,194.581 326.611,217.154 
  326.847,177.972 327.083,209.237 327.319,194.036 327.555,203.344 327.791,195.09 328.027,245.972 328.263,234.3 328.499,219.176 328.735,209.173 328.971,232.543 
  329.207,207.789 329.443,242.605 329.679,311.596 329.915,201.414 330.151,206.028 330.387,230.504 330.623,199.701 330.859,224.609 331.095,233.612 331.331,197.908 
  331.567,187.937 331.803,194.677 332.039,203.732 332.275,200.95 332.511,218.3 332.747,255.921 332.983,257.289 333.219,203.435 333.455,207.2 333.691,231.295 
  333.927,198.897 334.163,204.35 334.399,233.519 334.635,200.421 334.871,240.341 335.107,202.317 335.343,225.279 335.579,186.934 335.815,240.439 336.051,201.944 
  336.287,192.254 336.523,206.941 336.759,232.109 336.995,203.163 337.231,200.591 337.467,214.534 337.703,236.175 337.939,189.715 338.175,229.733 338.411,198.546 
  338.647,212.23 338.883,222.329 339.119,202.149 339.355,216.637 339.591,200.038 339.827,204.592 340.063,198.55 340.299,202.27 340.535,197.676 340.771,185.208 
  341.007,255.288 341.243,199.903 341.479,223.222 341.715,183.954 341.951,215.212 342.187,254.267 342.423,191.553 342.659,207.799 342.895,251.929 343.131,214.576 
  343.367,217.879 343.603,211.129 343.839,209.897 344.075,219.132 344.311,232.775 344.547,231.942 344.783,227.974 345.019,209.711 345.255,200.183 345.491,179.463 
  345.727,205.641 345.963,216.846 346.199,215.013 346.435,289.708 346.671,217.414 346.907,233.642 347.143,215.106 347.379,223.041 347.615,219.298 347.851,198.095 
  348.087,210.46 348.323,261.03 348.559,228.28 348.795,208.171 349.031,215.339 349.267,280.974 349.503,197.402 349.739,294.026 349.975,210.915 350.211,182.212 
  350.447,217.225 350.683,235.007 350.919,219.102 351.155,232.832 351.391,212.381 351.627,280.462 351.863,203.865 352.099,215.601 352.335,216.162 352.571,219.248 
  352.807,214.824 353.043,211.732 353.279,241.171 353.515,192.803 353.751,225.508 353.987,203.733 354.223,201.826 354.459,200.307 354.695,193.41 354.931,217.566 
  355.167,200.534 355.403,210.783 355.639,203.086 355.875,229.202 356.111,191.762 356.347,260.599 356.583,216.868 356.819,204.136 357.055,207.674 357.291,225.665 
  357.527,195.749 357.763,209.835 357.999,203.206 358.235,258.754 358.471,233.229 358.707,200.331 358.943,203.433 359.179,207.892 359.415,192.451 359.651,201.155 
  359.887,192.883 360.123,216.514 360.359,206.395 360.595,211.428 360.831,243.926 361.067,218.287 361.303,213.237 361.539,194.925 361.775,196.29 362.011,197.431 
  362.247,216.012 362.483,232.469 362.719,207.439 362.955,228.806 363.191,241.038 363.427,262.424 363.663,197.937 363.899,218.73 364.135,198.234 364.371,244.799 
  364.607,223.209 364.843,274.741 365.079,226.045 365.315,208.806 365.551,240.842 365.787,231.243 366.023,199.971 366.259,276.004 366.495,239.283 366.731,204.209 
  366.967,197.625 367.203,239.744 367.439,218.271 367.675,207.032 367.911,202.3 368.147,219.648 368.383,180.332 368.619,185.878 368.855,216.945 369.091,225.368 
  369.327,212.269 369.563,212.043 369.799,223.224 370.035,196.443 370.271,205.699 370.507,237.356 370.743,191.311 370.979,257.325 371.215,217.772 371.451,202.876 
  371.687,194.335 371.923,195.436 372.159,222.709 372.395,242.533 372.631,221.782 372.867,197.98 373.103,210.664 373.339,200.185 373.575,189.189 373.811,187.606 
  374.047,203.54 374.283,196.342 374.519,211.453 374.755,265.367 374.991,195.302 375.227,202.106 375.463,198.488 375.699,195.136 375.935,245.097 376.171,219.014 
  376.407,223.183 376.643,223.714 376.879,223.532 377.115,262.035 377.351,269.84 377.587,204.042 377.823,239.327 378.059,213.485 378.295,235.053 378.531,250.613 
  378.767,210.075 379.003,216.407 379.239,201.788 379.475,205.339 379.711,219.36 379.947,199.71 380.183,260.562 380.419,230.153 380.655,212.149 380.891,206.924 
  381.127,237.298 381.363,206.599 381.599,186.327 381.835,197.891 382.071,192.681 382.307,182.527 382.543,204.193 382.779,235.593 383.015,203.029 383.252,222.083 
  383.488,259.544 383.724,193.687 383.96,202.2 384.196,204.174 384.432,245.032 384.668,205.637 384.904,206.103 385.14,216.01 385.376,234.625 385.612,211.141 
  385.848,204.822 386.084,220.001 386.32,287.849 386.556,245.626 386.792,230.893 387.028,299.677 387.264,199.113 387.5,211.334 387.736,187.073 387.972,193.058 
  388.208,204.857 388.444,221.527 388.68,246.251 388.916,199.498 389.152,218.434 389.388,240.075 389.624,197.855 389.86,256.31 390.096,202.931 390.332,237.082 
  390.568,209.946 390.804,219.316 391.04,211.002 391.276,255.004 391.512,219.449 391.748,204.574 391.984,233.095 392.22,225.824 392.456,227.402 392.692,201.619 
  392.928,259.984 393.164,222.765 393.4,224.818 393.636,263.095 393.872,201.418 394.108,209.785 394.344,236.75 394.58,258.437 394.816,220.982 395.052,230.698 
  395.288,199.33 395.524,222.338 395.76,206.797 395.996,211.362 396.232,196.34 396.468,221.075 396.704,228.022 396.94,223.367 397.176,239.253 397.412,199.368 
  397.648,234.311 397.884,243.608 398.12,189.925 398.356,218.829 398.592,233.166 398.828,197.009 399.064,224.362 399.3,232.814 399.536,202.35 399.772,191.241 
  400.008,215.969 400.244,215.785 400.48,241.825 400.716,213.35 400.952,217.602 401.188,203.541 401.424,246.943 401.66,206.928 401.896,197.346 402.132,205.6 
  402.368,229.304 402.604,229.074 402.84,196.98 403.076,243.146 403.312,212.525 403.548,209.67 403.784,223.958 404.02,203.628 404.256,210.149 404.492,197.285 
  404.728,213.132 404.964,201.295 405.2,209.038 405.436,218.593 405.672,214.673 405.908,228.806 406.144,230.763 406.38,267.612 406.616,233.224 406.852,229.561 
  407.088,213.674 407.324,226.448 407.56,246.92 407.796,226.555 408.032,205.741 408.268,239.495 408.504,292.316 408.74,238.564 408.976,229.832 409.212,211.803 
  409.448,229.194 409.684,207.996 409.92,216.355 410.156,215.134 410.392,225.08 410.628,252.819 410.864,244.789 411.1,218.541 411.336,203.17 411.572,213.664 
  411.808,217.158 412.044,211.487 412.28,207.572 412.516,208.142 412.752,210.79 412.988,197.388 413.224,227.306 413.46,208.578 413.696,192.826 413.932,225.933 
  414.168,252.644 414.404,220.9 414.64,235.155 414.876,222.612 415.112,187.411 415.348,229.991 415.584,259.54 415.82,210.556 416.056,234.798 416.292,213.58 
  416.528,196.395 416.764,226.946 417,206.379 417.236,245.296 417.472,241.064 417.708,247.775 417.944,195.82 418.18,209.927 418.416,186.717 418.652,214.932 
  418.888,191.007 419.124,224.796 419.36,214.357 419.596,249.374 419.832,223.495 420.068,216.394 420.304,215.617 420.54,209.548 420.776,243.776 421.012,211.332 
  421.248,214.397 421.484,227.2 421.72,211.259 421.956,200.412 422.192,213.613 422.428,229.102 422.664,226.251 422.9,225.015 423.136,207.753 423.372,196.682 
  423.608,259.674 423.844,220.597 424.08,232.289 424.316,228.306 424.552,209.425 424.788,205.043 425.024,235.229 425.26,196.763 425.496,211.499 425.732,233.555 
  425.968,223.198 426.204,198.671 426.44,216.685 426.676,232.808 426.912,193.24 427.148,229.037 427.384,221.983 427.62,235.883 427.856,251.85 428.092,257.036 
  428.328,258.585 428.564,223.78 428.8,223.394 429.036,195.173 429.272,257.12 429.508,208.573 429.744,228.478 429.98,257.942 430.216,216.632 430.452,218.466 
  430.688,221.715 430.924,209.061 431.16,225.406 431.396,272.764 431.632,224.951 431.868,214.868 432.104,273.449 432.34,193.457 432.576,216.58 432.812,192.174 
  433.048,250.171 433.284,212.528 433.52,212.278 433.756,205.985 433.992,252.2 434.228,193.19 434.464,199.174 434.7,251.481 434.936,228.222 435.172,224.443 
  435.408,258.169 435.644,257.282 435.88,199.385 436.116,221.249 436.352,241.084 436.588,220.751 436.824,229.262 437.06,207.349 437.296,193.252 437.532,226.522 
  437.768,199.064 438.004,209.461 438.24,217.785 438.476,202.303 438.712,222.745 438.948,230.87 439.184,212.973 439.42,234.097 439.656,222.5 439.892,232.36 
  440.129,210.718 440.365,201.232 440.601,202.44 440.837,213.406 441.073,214.747 441.309,205.108 441.545,245.472 441.781,236.304 442.017,217.405 442.253,226.196 
  442.489,219.4 442.725,213.421 442.961,207.478 443.197,223.639 443.433,200.752 443.669,270.783 443.905,236.241 444.141,230.591 444.377,262.452 444.613,201.971 
  444.849,232.224 445.085,211.624 445.321,242.491 445.557,207.561 445.793,236.84 446.029,299.119 446.265,223.552 446.501,252.215 446.737,225.155 446.973,240.359 
  447.209,260.808 447.445,213.542 447.681,213.535 447.917,241.125 448.153,218.947 448.389,204.988 448.625,222.211 448.861,217.483 449.097,264.825 449.333,199.22 
  449.569,235.013 449.805,215.335 450.041,246.312 450.277,220.742 450.513,243.837 450.749,230.497 450.985,229.851 451.221,208.155 451.457,201.16 451.693,198.287 
  451.929,208.324 452.165,219.033 452.401,209.739 452.637,219.221 452.873,238.33 453.109,238.79 453.345,211.924 453.581,204.067 453.817,229.999 454.053,242.192 
  454.289,216.686 454.525,199.088 454.761,220.727 454.997,218.066 455.233,235.659 455.469,226.356 455.705,215.608 455.941,214.45 456.177,220.381 456.413,206.051 
  456.649,222.353 456.885,222.379 457.121,219.903 457.357,206.116 457.593,226.348 457.829,233.735 458.065,220.325 458.301,245.093 458.537,231.598 458.773,201.637 
  459.009,213.91 459.245,201.148 459.481,211.302 459.717,216.071 459.953,227.967 460.189,239.955 460.425,279.751 460.661,239.303 460.897,200.39 461.133,205.879 
  461.369,256.689 461.605,227.607 461.841,268.864 462.077,221.144 462.313,239.29 462.549,202.286 462.785,213.396 463.021,238.214 463.257,193.376 463.493,220.813 
  463.729,213.191 463.965,222.576 464.201,198.146 464.437,222.458 464.673,236.997 464.909,256.66 465.145,220.397 465.381,232.546 465.617,209.405 465.853,212.719 
  466.089,241.313 466.325,216.54 466.561,220.083 466.797,267.656 467.033,254.013 467.269,236.929 467.505,214.465 467.741,231.094 467.977,218.353 468.213,201 
  468.449,206.189 468.685,213.809 468.921,221.744 469.157,259.271 469.393,223.31 469.629,214.319 469.865,206.576 470.101,219.172 470.337,218.292 470.573,206.701 
  470.809,237.585 471.045,215.112 471.281,204.093 471.517,214.487 471.753,199.472 471.989,205.978 472.225,224.468 472.461,218.49 472.697,204.642 472.933,240.072 
  473.169,192.629 473.405,231.368 473.641,220.06 473.877,220.635 474.113,232.777 474.349,227.578 474.585,205.271 474.821,214.958 475.057,198.371 475.293,246.089 
  475.529,299.285 475.765,241.92 476.001,207.168 476.237,225.704 476.473,206.614 476.709,212.462 476.945,227.362 477.181,204.924 477.417,248.724 477.653,217.645 
  477.889,212.685 478.125,223.156 478.361,207.229 478.597,300.507 478.833,254.122 479.069,245.536 479.305,227.096 479.541,259.241 479.777,218.7 480.013,258.356 
  480.249,215.56 480.485,251.331 480.721,244.351 480.957,246.105 481.193,211.497 481.429,225.28 481.665,209.526 481.901,253.738 482.137,206.101 482.373,203.483 
  482.609,222.697 482.845,236.881 483.081,213.024 483.317,244.592 483.553,240.564 483.789,218.099 484.025,229.027 484.261,259.502 484.497,208.561 484.733,249.345 
  484.969,268.614 485.205,210.842 485.441,233.62 485.677,202.186 485.913,222.139 486.149,210.576 486.385,243.157 486.621,219.557 486.857,251.218 487.093,190.672 
  487.329,232.609 487.565,222.05 487.801,214.579 488.037,208.753 488.273,220.651 488.509,201.671 488.745,234.456 488.981,214.429 489.217,238.89 489.453,226.165 
  489.689,248.203 489.925,208.798 490.161,212.891 490.397,238.512 490.633,202.629 490.869,214.129 491.105,225.198 491.341,263.432 491.577,220.343 491.813,211.254 
  492.049,241.193 492.285,208.088 492.521,232 492.757,244.268 492.993,282.367 493.229,234.523 493.465,247.791 493.701,222.592 493.937,225.92 494.173,197.504 
  494.409,260.989 494.645,234.57 494.881,232.102 495.117,207.191 495.353,221.044 495.589,234.944 495.825,264.3 496.061,218.507 496.297,234.529 496.533,246.853 
  496.769,223.68 497.005,237.491 497.242,235.838 497.478,223.625 497.714,232.011 497.95,244.5 498.186,210.877 498.422,216.705 498.658,282.87 498.894,292.371 
  499.13,201.786 499.366,240.396 499.602,203.9 499.838,231.822 500.074,204.029 500.31,221.866 500.546,228.182 500.782,230.11 501.018,208.633 501.254,200.079 
  501.49,223.848 501.726,231.544 501.962,213.19 502.198,228.227 502.434,210.982 502.67,207.45 502.906,223.305 503.142,278.786 503.378,219.88 503.614,213.612 
  503.85,221.47 504.086,207.661 504.322,252.638 504.558,223.344 504.794,267.102 505.03,237.524 505.266,238.617 505.502,260.855 505.738,220.925 505.974,305.804 
  506.21,275.254 506.446,231.1 506.682,219.093 506.918,218.616 507.154,235.315 507.39,232.744 507.626,222.065 507.862,209.903 508.098,201.973 508.334,217.522 
  508.57,235.878 508.806,216.871 509.042,203.919 509.278,244.411 509.514,247.465 509.75,242.643 509.986,203.482 510.222,252.593 510.458,247.966 510.694,225.147 
  510.93,214.245 511.166,215.039 511.402,236.354 511.638,259.622 511.874,203.42 512.11,216.874 512.346,274.04 512.582,209.255 512.818,224.361 513.054,204.588 
  513.29,255.192 513.526,214.834 513.762,321.851 513.998,235.186 514.234,225.947 514.47,219.144 514.706,224.048 514.942,209.419 515.178,184.848 515.414,215.25 
  515.65,210.2 515.886,223.165 516.122,217.72 516.358,213.554 516.594,211.404 516.83,262.371 517.066,210.152 517.302,245.727 517.538,194.482 517.774,203.652 
  518.01,219.12 518.246,238.093 518.482,221.808 518.718,242.389 518.954,213.299 519.19,219.606 519.426,215.239 519.662,229.004 519.898,252.761 520.134,213.765 
  520.37,195.743 520.606,245.154 520.842,239.932 521.078,213.253 521.314,208.766 521.55,236.24 521.786,199.571 522.022,225.921 522.258,227.685 522.494,223.027 
  522.73,241.083 522.966,205.978 523.202,226.725 523.438,211.425 523.674,221.859 523.91,194.024 524.146,212.21 524.382,224.308 524.618,195.266 524.854,211.53 
  525.09,208.605 525.326,272.826 525.562,211.841 525.798,197.923 526.034,257.911 526.27,217.586 526.506,222.29 526.742,263.73 526.978,210.236 527.214,349.961 
  527.45,212.215 527.686,224.806 527.922,231.933 528.158,254.704 528.394,218.073 528.63,200.457 528.866,217.918 529.102,190.658 529.338,207.339 529.574,268.829 
  529.81,213.458 530.046,201.208 530.282,195.63 530.518,233.504 530.754,250.829 530.99,191.338 531.226,235.056 531.462,212.869 531.698,200.122 531.934,208.023 
  532.17,233.515 532.406,215.242 532.642,239.747 532.878,227.393 533.114,203.25 533.35,218.935 533.586,218.739 533.822,207.795 534.058,208.017 534.294,189.571 
  534.53,227.068 534.766,236.468 535.002,202.5 535.238,232.249 535.474,201.421 535.71,212.074 535.946,220.626 536.182,221.117 536.418,218.467 536.654,245.567 
  536.89,212.12 537.126,237.455 537.362,211.21 537.598,227.222 537.834,204.885 538.07,206.708 538.306,238.827 538.542,199.592 538.778,217.194 539.014,240.775 
  539.25,244.284 539.486,236.69 539.722,201.858 539.958,223.204 540.194,239.105 540.43,232.481 540.666,243.792 540.902,236.777 541.138,232.462 541.374,213.845 
  541.61,229.607 541.846,234.827 542.082,227.4 542.318,215.304 542.554,218.75 542.79,224.532 543.026,201.251 543.262,217.64 543.498,219.836 543.734,224.864 
  543.97,222.392 544.206,234.517 544.442,209.355 544.678,222.901 544.914,267.509 545.15,233.999 545.386,214.437 545.622,223.107 545.858,194.666 546.094,238.544 
  546.33,228.189 546.566,215.75 546.802,225.912 547.038,218.323 547.274,216.885 547.51,231.129 547.746,215.707 547.982,217.487 548.218,202.662 548.454,195.49 
  548.69,241.88 548.926,201.408 549.162,243.473 549.398,228.039 549.634,209.452 549.87,233.408 550.106,200.593 550.342,223.68 550.578,272.583 550.814,215.203 
  551.05,241.599 551.286,298.65 551.522,229.046 551.758,222.969 551.994,247.179 552.23,212.809 552.466,207.519 552.702,280.158 552.938,231.431 553.174,219.135 
  553.41,241.445 553.646,217.381 553.882,221.245 554.119,218.684 554.355,230.107 554.591,225.322 554.827,252.152 555.063,270.366 555.299,206.977 555.535,206.914 
  555.771,216.774 556.007,253.723 556.243,243.935 556.479,225.74 556.715,228.663 556.951,218.522 557.187,261.505 557.423,211.207 557.659,223.683 557.895,234.012 
  558.131,212.028 558.367,211.167 558.603,224.444 558.839,222.769 559.075,235.73 559.311,248.774 559.547,231.059 559.783,229.409 560.019,236.443 560.255,207.491 
  560.491,203.853 560.727,220.929 560.963,251.713 561.199,204.546 561.435,230.528 561.671,241.718 561.907,287.864 562.143,281.077 562.379,215.703 562.615,227.986 
  562.851,204.496 563.087,206.877 563.323,217.8 563.559,247.884 563.795,218.478 564.031,209.788 564.267,216.083 564.503,229.118 564.739,233.647 564.975,217.428 
  565.211,225.293 565.447,230.421 565.683,262.493 565.919,259.701 566.155,221.333 566.391,222.833 566.627,236.527 566.863,254.67 567.099,209.479 567.335,220.561 
  567.571,210.448 567.807,247.117 568.043,221.29 568.279,235.484 568.515,249.165 568.751,211.073 568.987,265.856 569.223,203.37 569.459,220.546 569.695,219.345 
  569.931,253.539 570.167,235.631 570.403,231.686 570.639,219.577 570.875,226.362 571.111,286.491 571.347,243.044 571.583,208.829 571.819,226.72 572.055,253.171 
  572.291,220.16 572.527,212.364 572.763,230.094 572.999,245.193 573.235,235.808 573.471,192.108 573.707,254.117 573.943,202.435 574.179,207.288 574.415,213.617 
  574.651,234.359 574.887,227.631 575.123,211.761 575.359,289.329 575.595,245.929 575.831,238.207 576.067,243.215 576.303,235.006 576.539,205.529 576.775,211.311 
  577.011,251.966 577.247,205.396 577.483,249.51 577.719,292.039 577.955,217.676 578.191,210.32 578.427,217.946 578.663,226.929 578.899,239.002 579.135,255.821 
  579.371,250.204 579.607,222.854 579.843,215.169 580.079,272.729 580.315,208.093 
  "/>
</svg>
